<?xml version="1.0" encoding="UTF-8" standalone="no"?>
<svg
   xmlns:dc="http://purl.org/dc/elements/1.1/"
   xmlns:cc="http://creativecommons.org/ns#"
   xmlns:rdf="http://www.w3.org/1999/02/22-rdf-syntax-ns#"
   xmlns:svg="http://www.w3.org/2000/svg"
   xmlns="http://www.w3.org/2000/svg"
   id="svg12"
   xml:space="preserve"
   enable-background="new 0 0 200 200"
   viewBox="0 0 200 200"
   y="0px"
   x="0px"
   version="1.1"><metadata
     id="metadata16"><rdf:RDF><cc:Work
         rdf:about=""><dc:format>image/svg+xml</dc:format><dc:type
           rdf:resource="http://purl.org/dc/dcmitype/StillImage" /></cc:Work></rdf:RDF></metadata><defs
     id="defs336488" /><linearGradient
     spreadMethod="pad"
     y2="30%"
     x2="-10%"
     y1="120%"
     x1="30%"
     id="3d_gradient2-logo-1CA54F9E53084FC29517FCDB79A66DCB"><stop
       id="stop336465"
       stop-opacity="1"
       stop-color="#ffffff"
       offset="0%" /><stop
       id="stop336467"
       stop-opacity="1"
       stop-color="#000000"
       offset="100%" /></linearGradient><linearGradient
     gradientTransform="rotate(-30)"
     spreadMethod="pad"
     y2="30%"
     x2="-10%"
     y1="120%"
     x1="30%"
     id="3d_gradient3-logo-1CA54F9E53084FC29517FCDB79A66DCB"><stop
       id="stop336470"
       stop-opacity="1"
       stop-color="#ffffff"
       offset="0%" /><stop
       id="stop336472"
       stop-opacity="1"
       stop-color="#cccccc"
       offset="50%" /><stop
       id="stop336474"
       stop-opacity="1"
       stop-color="#000000"
       offset="100%" /></linearGradient><path
     style="fill:#452927;stroke-width:0.66619241"
     d="m 100.04629,40.001745 c -0.114587,-0.0059 -0.239831,0.0037 -0.280469,0.02152 -0.0413,0.01779 -11.641713,6.711222 -25.780315,14.873412 -14.138602,8.162856 -25.753667,14.886736 -25.810959,14.941364 -0.05779,0.05482 -0.132972,0.149273 -0.166682,0.21039 l -0.06149,0.111121 -0.01111,29.632239 c -0.0059,16.297729 -3.71e-4,29.736829 0.01259,29.864739 0.01815,0.18298 0.04853,0.26595 0.141865,0.38892 0.105192,0.13853 3.031376,1.83829 25.731017,14.94736 14.086639,8.13488 25.711697,14.83944 25.834276,14.8994 0.122233,0.0596 0.280767,0.10815 0.351887,0.10779 0.0715,-3.8e-4 0.19631,-0.0315 0.2778,-0.0685 0.0815,-0.0374 11.67435,-6.72255 25.76166,-14.85609 14.0873,-8.13354 25.66573,-14.82811 25.73035,-14.87674 0.0641,-0.0485 0.15594,-0.15076 0.20372,-0.2278 l 0.0867,-0.13964 V 70.156345 l -0.0644,-0.118156 c -0.0356,-0.06482 -0.12742,-0.170385 -0.20372,-0.234093 -0.0767,-0.06371 -11.70633,-6.79383 -25.84493,-14.955354 L 100.24566,40.00864 Z"
     id="icon_container" /><path
     style="fill:#ec842f;stroke-width:0.43302509"
     d="m 99.681159,57.735162 c -0.21187,0.0019 -0.578305,0.01156 -0.81426,0.02143 -0.235947,0.0096 -0.577093,0.03034 -0.7584,0.04574 -0.181005,0.01541 -0.518764,0.0491 -0.750433,0.07509 -0.231668,0.02603 -0.600173,0.07465 -0.818417,0.107867 -0.218678,0.03347 -0.640877,0.109555 -0.939232,0.169009 -0.297921,0.05971 -0.774248,0.168057 -1.059179,0.241022 -0.284497,0.07296 -0.674653,0.180312 -0.866916,0.238857 -0.19183,0.05824 -0.506207,0.159613 -0.698037,0.225346 -0.19183,0.06573 -0.479358,0.168057 -0.638279,0.227252 -0.158902,0.05947 -0.418925,0.161791 -0.577828,0.22752 -0.158903,0.06573 -0.42976,0.182017 -0.601905,0.258338 -0.172145,0.07632 -0.527511,0.246058 -0.789708,0.377273 -0.262188,0.130973 -0.635854,0.326475 -0.830629,0.434108 -0.194536,0.107862 -0.5056,0.287953 -0.690978,0.400388 -0.185386,0.112435 -0.526558,0.330567 -0.7584,0.484641 -0.231612,0.154088 -0.573239,0.390515 -0.758876,0.525823 -0.185387,0.135069 -0.490445,0.367404 -0.677511,0.516426 -0.187314,0.149029 -0.479619,0.390276 -0.649581,0.535955 -0.16998,0.145661 -0.460826,0.406887 -0.646463,0.580253 -0.185387,0.173591 -0.521493,0.504388 -0.746622,0.73506 -0.225113,0.230409 -0.532794,0.559772 -0.68353,0.731683 -0.150957,0.171902 -0.389792,0.453334 -0.530629,0.625505 -0.141089,0.172144 -0.354644,0.442984 -0.474553,0.601904 -0.1199,0.158903 -0.288191,0.386423 -0.373904,0.505601 -0.08571,0.119177 -0.264357,0.3792 -0.397014,0.577828 -0.132662,0.198629 -0.349348,0.539809 -0.481784,0.7584 -0.132177,0.218371 -0.351755,0.601169 -0.488019,0.850591 -0.136273,0.249432 -0.342605,0.650318 -0.458401,0.89082 -0.115808,0.240519 -0.276633,0.589607 -0.357289,0.775244 -0.08041,0.185868 -0.217647,0.52028 -0.304806,0.743245 -0.08692,0.222947 -0.228966,0.61273 -0.315398,0.866007 -0.08643,0.25328 -0.21524,0.661359 -0.286507,0.906971 -0.07103,0.245334 -0.173349,0.62624 -0.227277,0.846261 -0.05417,0.220054 -0.146623,0.642349 -0.205852,0.938235 -0.05923,0.295895 -0.140365,0.765372 -0.180091,1.04346 -0.03973,0.278081 -0.0886,0.668115 -0.108823,0.866743 -0.02022,0.198629 -0.04984,0.496464 -0.06573,0.662096 -0.02215,0.231612 -0.03058,7.636397 -0.03611,32.149516 -0.0041,17.51673 0.0014,31.8832 0.01228,31.9252 l 0.0195,0.0763 0.347658,0.007 c 0.20489,0.004 0.481048,-0.008 0.672705,-0.0303 0.178887,-0.0205 0.455022,-0.0592 0.613943,-0.0857 0.158902,-0.0267 0.440603,-0.0859 0.625981,-0.13145 0.185386,-0.0457 0.46706,-0.12255 0.625981,-0.17071 0.158903,-0.0484 0.45433,-0.1524 0.656552,-0.23137 0.20224,-0.079 0.630312,-0.27591 0.95101,-0.43748 0.320937,-0.16179 0.745886,-0.39437 0.944514,-0.51716 0.198629,-0.12303 0.487803,-0.31227 0.642609,-0.42062 0.154811,-0.10834 0.458184,-0.33489 0.674134,-0.50317 0.215963,-0.16829 0.495727,-0.39389 0.621391,-0.50127 0.125677,-0.10762 0.410257,-0.36476 0.632,-0.57155 0.221744,-0.20706 0.591296,-0.57735 0.821232,-0.82292 0.23017,-0.24558 0.511879,-0.55402 0.626457,-0.68522 0.114605,-0.13146 0.320214,-0.37511 0.457188,-0.54172 0.136754,-0.16684 0.36259,-0.44948 0.501747,-0.62814 0.139161,-0.17889 0.384015,-0.50513 0.543879,-0.72541 0.159864,-0.22029 0.446839,-0.632 0.637759,-0.91489 0.190925,-0.2829 0.472864,-0.71674 0.626718,-0.96379 0.153607,-0.24726 0.419648,-0.69145 0.590819,-0.98712 0.171422,-0.29589 0.443504,-0.78174 0.604546,-1.07957 0.161068,-0.29807 0.475245,-0.91009 0.69795,-1.36031 0.222947,-0.45022 0.529676,-1.09499 0.682058,-1.43253 0.152161,-0.33779 0.371254,-0.83617 0.48659,-1.10751 0.115085,-0.27158 0.305045,-0.73216 0.421814,-1.02371 0.117012,-0.29157 0.274226,-0.69245 0.349348,-0.89082 0.07536,-0.19839 0.250392,-0.67487 0.389073,-1.05888 0.138918,-0.38401 0.358977,-1.01795 0.489448,-1.40846 0.130254,-0.39075 0.307214,-0.93775 0.392922,-1.21584 0.08595,-0.27808 0.228001,-0.74948 0.316122,-1.04732 0.08788,-0.29806 0.251839,-0.87757 0.364273,-1.28807 0.112435,-0.4105 0.317083,-1.19732 0.454807,-1.74843 0.137477,-0.55111 0.331528,-1.36922 0.431206,-1.81775 0.09967,-0.44853 0.262431,-1.22213 0.361624,-1.71855 0.09943,-0.49668 0.235704,-1.20524 0.303117,-1.57482 0.06717,-0.36957 0.186348,-1.06295 0.264596,-1.54088 0.07801,-0.47793 0.190925,-1.20476 0.250392,-1.61527 0.05971,-0.4105 0.152161,-1.08222 0.205852,-1.49273 0.05345,-0.41049 0.140365,-1.12556 0.19309,-1.58902 0.05273,-0.46347 0.128327,-1.17324 0.168291,-1.57699 0.03973,-0.404 0.0939,-0.98903 0.1199,-1.30012 0.02624,-0.31131 0.06982,-0.87471 0.09679,-1.25196 0.02696,-0.37752 0.07054,-1.0384 0.09678,-1.46865 0.02624,-0.43048 0.06693,-1.264733 0.09029,-1.853863 0.03732,-0.936071 0.04502,-1.041036 0.06212,-0.830629 0.01083,0.132419 0.02096,1.280845 0.02265,2.552075 0.0017,1.371867 -0.0087,2.653927 -0.02576,3.153977 -0.01589,0.46347 -0.03997,1.09188 -0.05369,1.39642 -0.01349,0.30457 -0.04623,0.93824 -0.07247,1.40846 -0.02624,0.46996 -0.0691,1.15254 -0.09534,1.5168 -0.02624,0.36403 -0.06958,0.92213 -0.09631,1.23992 -0.02673,0.31781 -0.08138,0.91369 -0.121342,1.32419 -0.03997,0.4105 -0.116289,1.12002 -0.169495,1.577 -0.05297,0.45671 -0.139642,1.15037 -0.192367,1.54087 -0.05272,0.39052 -0.139161,1.00276 -0.192129,1.36031 -0.05321,0.35753 -0.145418,0.94235 -0.205128,1.29985 -0.05971,0.3573 -0.157218,0.91516 -0.216686,1.23993 -0.05971,0.32454 -0.173348,0.91515 -0.2528,1.31241 -0.07945,0.39726 -0.215001,1.04177 -0.301433,1.43253 -0.08643,0.39052 -0.254004,1.1056 -0.3727,1.58903 -0.118454,0.48321 -0.265081,1.06295 -0.325509,1.28808 -0.06043,0.22511 -0.174795,0.6368 -0.254004,0.91489 -0.07921,0.27808 -0.223909,0.77092 -0.32166,1.09547 -0.09751,0.3243 -0.243893,0.79573 -0.325029,1.04731 -0.0809,0.2516 -0.227039,0.69025 -0.324305,0.97509 -0.09751,0.28458 -0.241723,0.6963 -0.320937,0.91489 -0.07897,0.21862 -0.203924,0.55592 -0.277357,0.74974 -0.07367,0.19406 -0.230888,0.59494 -0.349347,0.89082 -0.118696,0.29614 -0.298787,0.73338 -0.400626,0.97171 -0.101601,0.23836 -0.299991,0.68786 -0.44082,0.99916 -0.140845,0.31107 -0.436965,0.92863 -0.658241,1.37235 -0.22102,0.4435 -0.517898,1.01769 -0.65967,1.27604 -0.141569,0.25809 -0.371497,0.664 -0.510407,0.9019 -0.139161,0.23763 -0.361624,0.60598 -0.494515,0.81859 -0.132661,0.21235 -0.379442,0.59325 -0.548209,0.84605 -0.168776,0.25304 -0.407369,0.59973 -0.529936,0.77043 -0.122547,0.17094 -0.366682,0.50006 -0.542451,0.7319 -0.175756,0.23161 -0.445669,0.57302 -0.59974,0.7584 -0.153845,0.18539 -0.428075,0.50465 -0.609353,0.70977 -0.181294,0.20489 -0.540761,0.58433 -0.799104,0.84341 -0.258096,0.25905 -0.656076,0.63537 -0.884064,0.83617 -0.228001,0.20103 -0.53929,0.46515 -0.691931,0.58744 -0.152403,0.12207 -0.273022,0.22632 -0.267726,0.23137 0.0053,0.005 0.181052,-0.0352 0.390995,-0.0896 0.209706,-0.0544 0.565531,-0.15336 0.790661,-0.21957 0.225112,-0.0665 0.560984,-0.16974 0.746362,-0.22969 0.185387,-0.06 0.537601,-0.17985 0.782476,-0.26604 0.245097,-0.0864 0.61875,-0.22512 0.830629,-0.30818 0.21187,-0.0831 0.520756,-0.20754 0.686171,-0.27688 0.165646,-0.0691 0.538814,-0.23402 0.829677,-0.36643 0.290841,-0.13242 0.702539,-0.32768 0.914895,-0.43411 0.212351,-0.10642 0.597575,-0.30697 0.855657,-0.44589 0.258339,-0.13892 0.675346,-0.37198 0.926934,-0.51811 0.251596,-0.14614 0.614679,-0.36331 0.806552,-0.48274 0.192129,-0.11942 0.517162,-0.32695 0.722286,-0.46104 0.205371,-0.13435 0.573715,-0.38281 0.818591,-0.5528 0.245096,-0.16974 0.694832,-0.49547 0.999638,-0.72372 0.305045,-0.228 0.771651,-0.58891 1.036706,-0.80174 0.265318,-0.21284 0.693143,-0.56748 0.950533,-0.78802 0.257373,-0.22054 0.679414,-0.59203 0.937544,-0.82509 0.25833,-0.23305 0.90913,-0.86336 1.44647,-1.40027 0.53765,-0.53691 1.16047,-1.17709 1.38438,-1.4224 0.22415,-0.24558 0.5687,-0.63005 0.76564,-0.85471 0.19718,-0.22486 0.53928,-0.62524 0.7603,-0.89008 0.22102,-0.26484 0.57878,-0.70375 0.79499,-0.97508 0.21621,-0.27158 0.61637,-0.79162 0.88939,-1.15566 0.27279,-0.36427 0.62694,-0.84626 0.78681,-1.07139 0.16011,-0.22511 0.38835,-0.55016 0.50729,-0.72229 0.11894,-0.17214 0.34646,-0.50802 0.5056,-0.74636 0.15914,-0.23835 0.40087,-0.60671 0.53712,-0.81859 0.13627,-0.21187 0.38546,-0.60745 0.55375,-0.87878 0.16829,-0.27158 0.4471,-0.7319 0.61949,-1.02324 0.17238,-0.29132 0.40015,-0.68136 0.50608,-0.86674 0.10593,-0.18539 0.33875,-0.60264 0.51716,-0.92694 0.1784,-0.32454 0.4471,-0.82292 0.59684,-1.1075 0.14999,-0.28482 0.47407,-0.92403 0.72038,-1.4205 0.2463,-0.49668 0.57661,-1.17899 0.73406,-1.5168 0.15722,-0.33779 0.39894,-0.86865 0.53713,-1.17973 0.1382,-0.31131 0.35199,-0.80413 0.47528,-1.09547 0.12351,-0.29132 0.30168,-0.71722 0.39581,-0.9462 0.0944,-0.2292 0.28097,-0.69509 0.41484,-1.03528 0.13362,-0.34043 0.36018,-0.93295 0.50296,-1.31696 0.14301,-0.38401 0.36259,-0.99071 0.48802,-1.34826 0.12543,-0.35753 0.36933,-1.07815 0.54197,-1.60107 0.17263,-0.52318 0.41315,-1.27604 0.53427,-1.6733 0.1211,-0.39725 0.32671,-1.0962 0.45697,-1.55291 0.13025,-0.45697 0.30842,-1.09837 0.39605,-1.42556 0.0874,-0.3272 0.27279,-1.05308 0.4117,-1.61311 0.13917,-0.55998 0.35513,-1.478776 0.48032,-2.041404 0.12519,-0.562889 0.29324,-1.348267 0.37366,-1.745524 0.0807,-0.397257 0.20537,-1.036489 0.27736,-1.420496 0.0717,-0.384015 0.20127,-1.115429 0.28722,-1.625143 0.0862,-0.50993 0.19984,-1.214159 0.25232,-1.564952 0.0527,-0.35079 0.13411,-0.908877 0.18082,-1.239924 0.0465,-0.331048 0.12784,-0.948585 0.18081,-1.372344 0.0527,-0.423741 0.1288,-1.070438 0.16925,-1.436863 0.0402,-0.366682 0.10522,-1.000591 0.14446,-1.408458 0.0392,-0.408091 0.0985,-1.077886 0.13122,-1.488394 0.033,-0.410499 0.071,-0.908876 0.085,-1.107504 0.0137,-0.198629 0.0358,-0.534483 0.0491,-0.746363 0.0135,-0.21187 0.0349,-0.574927 0.0482,-0.806552 0.013,-0.231855 0.0397,-0.795251 0.0592,-1.251962 0.0198,-0.456972 0.0484,-1.318172 0.0638,-1.914058 0.0154,-0.595885 0.0216,-1.435651 0.014,-1.865905 -0.008,-0.430483 -0.0306,-0.972184 -0.0508,-1.203809 -0.0202,-0.231855 -0.0539,-0.567696 -0.0749,-0.746362 -0.021,-0.178887 -0.065,-0.509195 -0.0982,-0.734324 -0.033,-0.225113 -0.10738,-0.647633 -0.16516,-0.938972 -0.0578,-0.291322 -0.16011,-0.747791 -0.22704,-1.014578 -0.0669,-0.266765 -0.18659,-0.700115 -0.2658,-0.963047 -0.0792,-0.262912 -0.21356,-0.673181 -0.29855,-0.911518 -0.085,-0.238355 -0.21933,-0.595886 -0.29854,-0.794515 -0.079,-0.198628 -0.21789,-0.5292 -0.30818,-0.734324 -0.0905,-0.20537 -0.28097,-0.606235 -0.42326,-0.890819 -0.14205,-0.284822 -0.37751,-0.725403 -0.52292,-0.979199 -0.14542,-0.254004 -0.33779,-0.579042 -0.42711,-0.722286 -0.0896,-0.143496 -0.28241,-0.439651 -0.4288,-0.657982 -0.14638,-0.218613 -0.43,-0.615632 -0.63031,-0.882375 -0.20031,-0.266765 -0.49573,-0.642609 -0.65681,-0.835219 -0.16107,-0.192609 -0.39774,-0.467321 -0.52608,-0.610349 -0.12809,-0.143253 -0.43939,-0.469745 -0.69172,-0.72588 -0.25232,-0.256169 -0.6142,-0.607924 -0.80391,-0.781523 -0.18972,-0.173591 -0.5256,-0.466368 -0.74636,-0.650534 -0.22078,-0.184183 -0.60719,-0.488755 -0.85878,-0.676775 -0.25159,-0.188037 -0.57661,-0.423498 -0.72228,-0.523181 -0.14566,-0.09967 -0.44372,-0.294691 -0.6621,-0.433631 -0.21837,-0.138681 -0.55977,-0.345251 -0.7584,-0.45866 -0.19863,-0.113639 -0.50222,-0.280968 -0.67461,-0.371497 -0.17238,-0.09077 -0.51906,-0.264115 -0.77043,-0.385461 -0.25116,-0.129258 -0.63655,-0.303811 -0.85739,-0.396045 -0.21652,-0.09219 -0.56727,-0.232794 -0.77945,-0.312514 -0.21218,-0.07968 -0.55427,-0.20127 -0.75779,-0.269861 -0.20786,-0.06885 -0.6149,-0.193346 -0.90503,-0.276877 -0.29012,-0.08357 -0.71882,-0.19577 -0.95265,-0.249206 -0.2295,-0.05344 -0.58892,-0.129777 -0.79244,-0.169486 -0.20352,-0.03997 -0.55427,-0.100635 -0.77944,-0.13506 -0.22084,-0.03443 -0.58892,-0.08357 -0.81842,-0.109079 -0.22517,-0.02576 -0.54994,-0.05777 -0.71449,-0.07149 -0.16455,-0.01373 -0.54561,-0.03542 -0.84007,-0.04863 -0.29879,-0.01303 -0.718818,-0.02217 -0.928835,-0.02022 z M 90.03899,69.492226 c 0.437225,0.0043 0.76273,0.01998 0.957981,0.04599 0.162995,0.02143 0.412184,0.06115 0.553753,0.08812 0.141807,0.02721 0.409537,0.08788 0.594933,0.135307 0.185386,0.04719 0.461778,0.128808 0.613943,0.181052 0.152403,0.05224 0.405684,0.14903 0.563365,0.215002 0.157457,0.06597 0.402796,0.178406 0.545092,0.249911 0.142292,0.07127 0.354643,0.18611 0.471911,0.255208 0.11725,0.0691 0.339474,0.209944 0.493562,0.312748 0.154088,0.103047 0.419649,0.298545 0.589867,0.434324 0.170218,0.135788 0.457707,0.391719 0.638495,0.568432 0.180814,0.17696 0.42976,0.440603 0.553017,0.586013 0.123269,0.14518 0.32214,0.398942 0.442032,0.563885 0.120138,0.16468 0.301675,0.438655 0.403756,0.608401 0.102082,0.169737 0.255689,0.449999 0.341402,0.622603 0.08571,0.172625 0.206574,0.437485 0.268449,0.588438 0.06212,0.151199 0.138919,0.350551 0.170941,0.443244 0.03178,0.09269 0.100397,0.317806 0.152403,0.500317 0.05176,0.182256 0.1264,0.496464 0.165403,0.69821 0.039,0.201517 0.09004,0.52894 0.113158,0.727569 0.02889,0.249188 0.04189,0.544139 0.04189,0.95101 0,0.406887 -0.013,0.701803 -0.04189,0.951009 -0.02312,0.198629 -0.07464,0.528724 -0.114362,0.733371 -0.03973,0.204648 -0.119177,0.535696 -0.176479,0.735537 -0.0573,0.200075 -0.144457,0.471174 -0.193571,0.602857 -0.04911,0.131696 -0.153126,0.384258 -0.231374,0.560984 -0.078,0.176718 -0.208259,0.442292 -0.289637,0.589867 -0.08114,0.147588 -0.221501,0.385462 -0.311787,0.528247 -0.09053,0.143011 -0.255208,0.382089 -0.366439,0.531582 -0.111231,0.149515 -0.299749,0.384738 -0.418926,0.522705 -0.119177,0.137957 -0.361866,0.391718 -0.539289,0.563885 -0.177441,0.172145 -0.430964,0.400145 -0.563149,0.506336 -0.132419,0.106416 -0.332732,0.258577 -0.444934,0.338271 -0.112435,0.07969 -0.323582,0.219574 -0.469226,0.310825 -0.145661,0.09149 -0.405683,0.239316 -0.577828,0.32864 -0.172145,0.08956 -0.442985,0.21837 -0.601905,0.286749 -0.158903,0.06814 -0.462254,0.181533 -0.674134,0.251839 -0.21187,0.07054 -0.520539,0.16083 -0.686171,0.201036 -0.165403,0.03997 -0.430964,0.09438 -0.589867,0.121104 -0.158903,0.02648 -0.402553,0.06236 -0.541714,0.07969 -0.155049,0.01926 -0.522705,0.0313 -0.95101,0.0313 -0.424464,0 -0.797416,-0.01228 -0.95101,-0.03106 -0.138918,-0.0171 -0.40448,-0.05754 -0.589866,-0.09004 -0.18563,-0.03226 -0.467321,-0.09173 -0.625981,-0.132177 -0.158903,-0.04045 -0.447835,-0.127123 -0.64235,-0.19261 C 86.92715,86.532473 86.64018,86.42413 86.483425,86.356955 86.32693,86.289784 86.053907,86.15905 85.876714,86.066594 85.699511,85.973901 85.450322,85.832575 85.322961,85.752643 85.1956,85.672468 84.974818,85.525122 84.8323,85.425206 c -0.14253,-0.09992 -0.402553,-0.303117 -0.577828,-0.451688 -0.175276,-0.148311 -0.464896,-0.420615 -0.643779,-0.605283 -0.178644,-0.184663 -0.415556,-0.450476 -0.526298,-0.590603 -0.110751,-0.140122 -0.269896,-0.351031 -0.35392,-0.468533 -0.08379,-0.117492 -0.228001,-0.33827 -0.320214,-0.49066 -0.09221,-0.152161 -0.231374,-0.401592 -0.309379,-0.553753 -0.07801,-0.152161 -0.19959,-0.412426 -0.269653,-0.577829 -0.0703,-0.165645 -0.181775,-0.463466 -0.247743,-0.662095 -0.06597,-0.198629 -0.156014,-0.512832 -0.200313,-0.69821 -0.0443,-0.185386 -0.102323,-0.472603 -0.12905,-0.638019 -0.02696,-0.165645 -0.06212,-0.425668 -0.07849,-0.577828 -0.01637,-0.152404 -0.02961,-0.531582 -0.02961,-0.842667 0,-0.311306 0.01324,-0.690502 0.02961,-0.842667 0.01637,-0.152403 0.05152,-0.412426 0.078,-0.577829 0.02673,-0.165645 0.09077,-0.474768 0.142773,-0.687384 0.05176,-0.212593 0.14253,-0.526775 0.201279,-0.698209 0.05874,-0.171422 0.164198,-0.447315 0.234019,-0.612731 0.07006,-0.165645 0.191164,-0.425668 0.269173,-0.577828 0.07801,-0.152404 0.217167,-0.401592 0.309379,-0.553753 0.09221,-0.152403 0.236428,-0.373181 0.320214,-0.490661 0.08402,-0.117492 0.243169,-0.328397 0.35392,-0.468273 0.11075,-0.140123 0.342124,-0.400388 0.51426,-0.578565 0.172145,-0.177921 0.428799,-0.423983 0.570597,-0.546781 0.141569,-0.122546 0.342125,-0.286987 0.44541,-0.365477 0.103285,-0.07825 0.301676,-0.21837 0.440603,-0.311544 0.139161,-0.09294 0.371977,-0.237631 0.517638,-0.32166 0.145661,-0.08379 0.416518,-0.22487 0.601905,-0.313471 0.185387,-0.0886 0.468273,-0.210667 0.628623,-0.271338 0.160349,-0.06067 0.436489,-0.154088 0.613943,-0.207778 0.177202,-0.05369 0.506552,-0.134827 0.731682,-0.180329 0.225112,-0.0455 0.550158,-0.09944 0.722286,-0.119901 0.172145,-0.02046 0.356328,-0.04165 0.409295,-0.04695 0.05297,-0.0051 0.394369,-0.0065 0.7584,-0.0026 z m 19.67016,0 c 0.43844,0.0046 0.76369,0.02022 0.96305,0.04622 0.16565,0.02191 0.46347,0.07223 0.6621,0.111955 0.19863,0.03972 0.5104,0.115085 0.69314,0.167329 0.1825,0.05224 0.48031,0.150234 0.6621,0.217409 0.18153,0.06741 0.53595,0.224389 0.78754,0.348624 0.25159,0.124235 0.58263,0.305045 0.73553,0.401592 0.15313,0.09655 0.36669,0.237631 0.47456,0.313714 0.1081,0.07608 0.30793,0.227039 0.44419,0.33562 0.13627,0.108586 0.44277,0.393165 0.68137,0.63226 0.23835,0.239078 0.52387,0.549899 0.63464,0.690502 0.11051,0.140603 0.26893,0.350789 0.35176,0.466844 0.0828,0.116047 0.23257,0.347659 0.33273,0.514737 0.10016,0.166849 0.24028,0.417241 0.3113,0.556394 0.0713,0.138919 0.18683,0.388107 0.2569,0.553753 0.0703,0.165402 0.17503,0.441815 0.23281,0.613943 0.0578,0.172144 0.14229,0.459136 0.18804,0.638019 0.0457,0.178644 0.10569,0.449523 0.13314,0.601905 0.0274,0.15216 0.0677,0.428556 0.0896,0.613943 0.0265,0.225112 0.04,0.536647 0.0405,0.938971 4.3e-4,0.423018 -0.0118,0.709295 -0.0414,0.963048 -0.0231,0.198628 -0.0741,0.526082 -0.11316,0.727569 -0.039,0.201759 -0.11484,0.521232 -0.16829,0.710247 -0.0534,0.189241 -0.15168,0.489708 -0.21861,0.668115 -0.0667,0.178164 -0.18466,0.460825 -0.26195,0.627886 -0.0773,0.167087 -0.21018,0.428076 -0.29517,0.580254 -0.085,0.151922 -0.21717,0.373181 -0.29349,0.491397 -0.0761,0.118454 -0.22776,0.335382 -0.33683,0.482 -0.10906,0.146865 -0.29589,0.379681 -0.41507,0.517638 -0.11918,0.137957 -0.36187,0.391719 -0.53929,0.563885 -0.17744,0.172145 -0.43096,0.400146 -0.56315,0.506336 -0.13242,0.106416 -0.33273,0.258577 -0.44493,0.338271 -0.11244,0.07969 -0.32358,0.219574 -0.46923,0.310825 -0.14566,0.09149 -0.40568,0.239316 -0.57783,0.32864 -0.17214,0.08956 -0.44298,0.218371 -0.6019,0.28675 -0.1589,0.06814 -0.46226,0.181532 -0.67413,0.251838 -0.21188,0.07054 -0.52054,0.16083 -0.68618,0.201037 -0.1654,0.03997 -0.43096,0.09438 -0.58986,0.121104 -0.15891,0.02648 -0.40256,0.06235 -0.54172,0.07969 -0.15505,0.01926 -0.5227,0.0313 -0.95101,0.0313 -0.4247,0 -0.79715,-0.01228 -0.95101,-0.03106 -0.13892,-0.0171 -0.38281,-0.05345 -0.54171,-0.08041 -0.1589,-0.02721 -0.4406,-0.08667 -0.62598,-0.132176 -0.18539,-0.0455 -0.49599,-0.136273 -0.6905,-0.201998 -0.1943,-0.06549 -0.48127,-0.174071 -0.63802,-0.241242 -0.1565,-0.06717 -0.42808,-0.197183 -0.6036,-0.288915 -0.17527,-0.09149 -0.42759,-0.2345 -0.56072,-0.317563 -0.13314,-0.08306 -0.37054,-0.243169 -0.52751,-0.355847 -0.15722,-0.112435 -0.41556,-0.315879 -0.57445,-0.451905 -0.15891,-0.135788 -0.43337,-0.396534 -0.61009,-0.579258 -0.17672,-0.182979 -0.41195,-0.446838 -0.52271,-0.586489 -0.11075,-0.139642 -0.27013,-0.350308 -0.3544,-0.467797 -0.084,-0.117492 -0.23377,-0.349347 -0.33273,-0.514737 -0.0987,-0.165645 -0.23787,-0.414833 -0.3089,-0.553752 -0.0713,-0.139161 -0.18201,-0.377516 -0.24654,-0.529676 -0.0645,-0.152161 -0.15312,-0.377273 -0.19718,-0.499841 -0.0438,-0.122789 -0.11846,-0.355605 -0.16564,-0.517638 -0.0472,-0.162034 -0.12279,-0.478883 -0.16782,-0.703969 -0.0453,-0.225113 -0.1004,-0.57181 -0.12303,-0.770439 -0.0275,-0.243412 -0.0409,-0.553492 -0.0409,-0.951009 0,-0.3975 0.0135,-0.707606 0.0409,-0.95101 0.0226,-0.198628 0.0778,-0.545308 0.12303,-0.770438 0.045,-0.225113 0.12063,-0.541974 0.16782,-0.703969 0.0472,-0.162034 0.12182,-0.39485 0.16564,-0.517638 0.0441,-0.122546 0.13266,-0.347659 0.19718,-0.499841 0.0645,-0.152403 0.17528,-0.390758 0.24654,-0.529676 0.071,-0.139162 0.21019,-0.38835 0.3089,-0.553753 0.099,-0.165645 0.24943,-0.398461 0.3349,-0.517638 0.0852,-0.119177 0.24799,-0.333213 0.36163,-0.475765 0.11339,-0.142292 0.33321,-0.390515 0.48801,-0.551587 0.15505,-0.16083 0.40641,-0.402072 0.55856,-0.535955 0.15241,-0.133865 0.36355,-0.309137 0.46949,-0.389311 0.10593,-0.08041 0.30649,-0.221982 0.44541,-0.315156 0.13916,-0.09294 0.37198,-0.237631 0.51764,-0.32166 0.14566,-0.08379 0.41652,-0.22487 0.6019,-0.313471 0.18539,-0.0886 0.46758,-0.210424 0.6272,-0.270857 0.15962,-0.06019 0.45216,-0.157699 0.65005,-0.216686 0.19791,-0.05874 0.52799,-0.140122 0.73311,-0.180571 0.20538,-0.04069 0.51405,-0.09053 0.68618,-0.111231 0.17214,-0.02047 0.35632,-0.04165 0.40929,-0.04695 0.053,-0.0051 0.39437,-0.0065 0.7584,-0.0026 z m -9.942252,13.543725 c 0.0068,0 0.580942,0.862153 1.276042,1.915963 0.6953,1.05381 1.27361,1.940299 1.28517,1.969658 0.0173,0.04358 -0.22126,0.618057 -1.264,3.042997 -0.70687,1.643937 -1.2905,2.989042 -1.297212,2.989042 -0.0065,0 -0.588438,-1.340342 -1.292666,-2.978693 -0.704229,-1.638393 -1.283963,-2.990254 -1.288077,-3.003981 -0.0041,-0.01397 0.572286,-0.904763 1.280629,-1.980007 0.708559,-1.075245 1.293619,-1.954979 1.300114,-1.954979 z M 90.052846,72.888009 c -0.199109,-0.0053 -0.457447,-4.77e-4 -0.574234,0.01083 -0.11677,0.01131 -0.322621,0.039 -0.457448,0.06164 -0.134826,0.02239 -0.377515,0.07704 -0.539549,0.121342 -0.162034,0.0443 -0.413387,0.129288 -0.558559,0.188756 -0.14518,0.05947 -0.332252,0.14253 -0.415795,0.184663 -0.0833,0.04189 -0.249189,0.13555 -0.368366,0.207779 -0.119177,0.07223 -0.319733,0.208259 -0.445409,0.302398 -0.125677,0.09414 -0.341402,0.280007 -0.479099,0.41315 -0.137477,0.133142 -0.331771,0.339474 -0.431687,0.45866 -0.09967,0.119177 -0.256654,0.330324 -0.348863,0.469486 -0.09197,0.138918 -0.2463,0.413149 -0.342605,0.609136 -0.09655,0.195978 -0.219574,0.492133 -0.273988,0.657982 -0.05417,0.165883 -0.124954,0.433631 -0.157218,0.594673 -0.03226,0.161068 -0.07006,0.398218 -0.08402,0.526775 -0.01397,0.128565 -0.02528,0.386423 -0.02528,0.572762 0,0.186348 0.01131,0.444197 0.02528,0.572762 0.01396,0.128566 0.05201,0.366201 0.08427,0.527988 0.0325,0.161791 0.100878,0.421814 0.152161,0.577829 0.05128,0.156014 0.135069,0.375831 0.18611,0.488279 0.05128,0.112677 0.144214,0.298787 0.206332,0.413868 0.06235,0.115085 0.164922,0.287468 0.228001,0.383292 0.06308,0.09558 0.183221,0.261469 0.267245,0.368608 0.08379,0.106897 0.25232,0.296137 0.374385,0.42061 0.121827,0.124235 0.309137,0.299749 0.415795,0.390035 0.106897,0.09028 0.318048,0.247023 0.469486,0.348143 0.151437,0.101363 0.416276,0.253043 0.588438,0.336824 0.172145,0.08379 0.418683,0.191164 0.547993,0.238835 0.129288,0.04743 0.362104,0.117731 0.517638,0.156496 0.155534,0.03876 0.397981,0.08715 0.539073,0.107862 0.140846,0.02071 0.400869,0.04454 0.577829,0.05272 0.187794,0.0087 0.451428,0.0031 0.634425,-0.01372 0.172145,-0.01565 0.426872,-0.05032 0.56579,-0.0768 0.139162,-0.02673 0.346455,-0.07464 0.460826,-0.106416 0.114362,-0.03202 0.29686,-0.09101 0.405684,-0.131215 0.108585,-0.03997 0.318767,-0.130492 0.466844,-0.200794 0.148068,-0.0703 0.373904,-0.193571 0.501486,-0.273745 0.127604,-0.08041 0.316845,-0.209463 0.42013,-0.28723 0.103527,-0.07753 0.306491,-0.254965 0.451169,-0.393888 0.144457,-0.139162 0.344289,-0.350309 0.44398,-0.469486 0.09944,-0.119177 0.256169,-0.330567 0.347901,-0.469486 0.09173,-0.139161 0.246539,-0.415314 0.344047,-0.613943 0.09727,-0.198628 0.219817,-0.491137 0.272061,-0.650057 0.05224,-0.158903 0.122546,-0.424464 0.156253,-0.589867 0.03371,-0.165645 0.07416,-0.424702 0.0898,-0.575663 0.01733,-0.168291 0.02287,-0.443981 0.01445,-0.710248 -0.0074,-0.240329 -0.03074,-0.539116 -0.05196,-0.664694 -0.02122,-0.12601 -0.07058,-0.355946 -0.109988,-0.510969 -0.03897,-0.155456 -0.113453,-0.395352 -0.165416,-0.533487 -0.05196,-0.138135 -0.161951,-0.38366 -0.244226,-0.545179 -0.08228,-0.161518 -0.222142,-0.403579 -0.310912,-0.537817 -0.08834,-0.134238 -0.242494,-0.341657 -0.34209,-0.460739 -0.100029,-0.119514 -0.294024,-0.325634 -0.431726,-0.459006 -0.137702,-0.132939 -0.353348,-0.318707 -0.478926,-0.413106 -0.12601,-0.09397 -0.326501,-0.229936 -0.445583,-0.302252 -0.119081,-0.07231 -0.292725,-0.169312 -0.385392,-0.216079 -0.09267,-0.04633 -0.293158,-0.134238 -0.446016,-0.194861 -0.152425,-0.06106 -0.423498,-0.148528 -0.601905,-0.193996 -0.178406,-0.0459 -0.449047,-0.100461 -0.600605,-0.12168 -0.151992,-0.02122 -0.439088,-0.0433 -0.637846,-0.0485 z m -0.130253,3.239677 c 0.248707,-0.0019 0.346216,0.0082 0.536171,0.05658 0.127846,0.03226 0.317563,0.101601 0.421814,0.153607 0.104251,0.05224 0.247504,0.137957 0.318767,0.190444 0.07103,0.05249 0.210425,0.182018 0.309622,0.287711 0.09919,0.105935 0.221258,0.26195 0.2711,0.346697 0.04984,0.08499 0.122788,0.237631 0.162271,0.339474 0.03924,0.101843 0.08908,0.286026 0.110751,0.409296 0.02745,0.157699 0.03491,0.295414 0.02528,0.464895 -0.0075,0.132419 -0.03611,0.327437 -0.06356,0.433372 -0.02721,0.105935 -0.09751,0.290118 -0.156014,0.409295 -0.05851,0.119177 -0.172626,0.299506 -0.253523,0.400869 -0.08114,0.101362 -0.223428,0.244854 -0.316122,0.318767 -0.09294,0.07391 -0.235946,0.171902 -0.317805,0.217647 -0.08186,0.04574 -0.246301,0.115566 -0.365478,0.155291 -0.128084,0.04286 -0.313233,0.08234 -0.452858,0.09655 -0.158179,0.01589 -0.309621,0.01589 -0.457447,-2.41e-4 -0.121827,-0.01348 -0.318767,-0.05682 -0.437962,-0.09631 -0.119177,-0.03973 -0.276153,-0.104974 -0.349105,-0.145418 -0.07271,-0.04045 -0.209943,-0.132419 -0.304806,-0.204167 -0.09483,-0.07188 -0.219977,-0.187067 -0.278435,-0.256351 -0.05803,-0.06885 -0.139001,-0.174076 -0.179705,-0.233401 -0.04021,-0.05971 -0.10714,-0.175513 -0.14855,-0.257615 -0.04141,-0.08234 -0.104251,-0.244854 -0.139884,-0.361143 l -0.06452,-0.212182 v -0.746362 l 0.06453,-0.211871 c 0.03563,-0.116289 0.09871,-0.278803 0.140123,-0.361143 0.04141,-0.0821 0.117012,-0.210909 0.168052,-0.286026 0.0508,-0.07512 0.164199,-0.207536 0.251839,-0.29421 0.08764,-0.08692 0.23667,-0.20874 0.33129,-0.2711 0.09462,-0.0626 0.260266,-0.149515 0.368124,-0.19357 0.107619,-0.04382 0.264838,-0.09486 0.349104,-0.113401 0.08427,-0.0183 0.289876,-0.03443 0.456972,-0.03587 z M 109.7231,72.888009 c -0.19911,-0.0053 -0.45745,-4.77e-4 -0.57424,0.01083 -0.11677,0.01131 -0.32262,0.039 -0.45744,0.06164 -0.13483,0.02239 -0.37752,0.07704 -0.53955,0.121342 -0.16204,0.0443 -0.41339,0.129288 -0.55856,0.188756 -0.14518,0.05947 -0.33225,0.14253 -0.4158,0.184663 -0.0833,0.04189 -0.24919,0.135788 -0.36812,0.208259 -0.11918,0.07247 -0.31973,0.208983 -0.44541,0.303118 -0.12592,0.09414 -0.34164,0.279764 -0.47936,0.412426 -0.13748,0.1329 -0.33177,0.338994 -0.43169,0.458184 -0.0997,0.119177 -0.25641,0.330324 -0.34814,0.469486 -0.0917,0.138918 -0.24654,0.415314 -0.34405,0.613943 -0.0973,0.198628 -0.21981,0.491137 -0.27206,0.650057 -0.0522,0.158903 -0.12231,0.424221 -0.15601,0.589867 -0.0335,0.165402 -0.0725,0.406164 -0.0864,0.534742 -0.014,0.128565 -0.0253,0.386423 -0.0253,0.572762 0,0.186348 0.0113,0.444198 0.0253,0.572763 0.014,0.128565 0.0518,0.365715 0.084,0.526775 0.0323,0.161068 0.10377,0.430721 0.15866,0.599003 0.0551,0.168291 0.18443,0.475245 0.28747,0.682058 0.10329,0.206813 0.24919,0.468057 0.32455,0.58073 0.0751,0.112678 0.21524,0.302156 0.31131,0.421333 0.0961,0.119178 0.28169,0.321898 0.41242,0.450693 0.13097,0.128808 0.31395,0.294691 0.40665,0.368846 0.0927,0.07416 0.27158,0.203444 0.39725,0.287711 0.12592,0.08402 0.34261,0.212351 0.48153,0.285545 0.13916,0.07295 0.36114,0.175514 0.49356,0.228001 0.13242,0.05224 0.32214,0.11942 0.42133,0.14903 0.0994,0.02961 0.26219,0.07367 0.36211,0.09751 0.0999,0.02408 0.30577,0.06284 0.45745,0.08619 0.19526,0.03034 0.41651,0.04261 0.75744,0.04261 0.33755,0 0.56436,-0.01252 0.7584,-0.04213 0.15216,-0.02311 0.40256,-0.07391 0.55618,-0.112435 0.15361,-0.03852 0.38642,-0.108824 0.51764,-0.155772 0.13097,-0.04719 0.3792,-0.154811 0.55133,-0.239078 0.17214,-0.08451 0.4341,-0.234743 0.58216,-0.333698 0.14782,-0.09895 0.34838,-0.245096 0.4454,-0.324786 0.0968,-0.07945 0.27255,-0.240519 0.39004,-0.358012 0.11773,-0.117492 0.29253,-0.311063 0.38859,-0.430241 0.0958,-0.119177 0.23619,-0.308655 0.3113,-0.421333 0.0754,-0.112677 0.22126,-0.373904 0.32455,-0.58073 0.10305,-0.206813 0.23234,-0.513784 0.28747,-0.682058 0.0549,-0.168291 0.1264,-0.437961 0.15866,-0.599003 0.0323,-0.161068 0.0701,-0.398219 0.084,-0.526775 0.014,-0.128565 0.0253,-0.386423 0.0253,-0.572763 0,-0.186348 -0.0113,-0.444197 -0.0253,-0.572762 -0.014,-0.128565 -0.053,-0.369327 -0.0864,-0.534742 -0.0337,-0.165646 -0.10377,-0.430964 -0.15602,-0.589867 -0.0522,-0.158903 -0.17479,-0.451429 -0.27206,-0.650057 -0.0975,-0.198629 -0.25232,-0.475029 -0.34405,-0.613943 -0.0917,-0.139162 -0.24847,-0.350309 -0.34814,-0.469486 -0.0999,-0.119177 -0.29421,-0.32551 -0.43169,-0.45866 -0.13771,-0.133143 -0.35319,-0.31901 -0.4791,-0.41315 -0.12567,-0.09414 -0.32623,-0.23017 -0.44541,-0.302398 -0.11917,-0.07223 -0.29252,-0.169495 -0.38521,-0.215963 -0.0927,-0.04647 -0.29349,-0.134346 -0.44615,-0.195017 -0.15264,-0.06091 -0.4235,-0.148311 -0.60216,-0.194056 -0.17841,-0.04574 -0.44879,-0.100397 -0.60048,-0.121585 -0.15192,-0.02119 -0.43891,-0.04309 -0.63776,-0.04839 z m -0.13026,3.239677 c 0.24871,-0.0019 0.34622,0.0082 0.53618,0.05658 0.12784,0.03226 0.31612,0.100877 0.41892,0.152161 0.10257,0.05152 0.23499,0.128327 0.29445,0.170941 0.0592,0.04261 0.17673,0.144699 0.26099,0.226796 0.084,0.08234 0.2008,0.216205 0.2593,0.297822 0.0585,0.08162 0.1447,0.231132 0.19141,0.332252 0.0467,0.10112 0.10786,0.267488 0.13555,0.369327 0.0407,0.148791 0.0508,0.254246 0.0508,0.534482 0,0.283857 -0.01,0.384977 -0.0525,0.541715 -0.0289,0.105935 -0.1004,0.290118 -0.1589,0.409295 -0.0585,0.119177 -0.17263,0.299506 -0.25352,0.400869 -0.0811,0.101362 -0.22343,0.244854 -0.31612,0.318767 -0.0929,0.07391 -0.23595,0.171902 -0.31781,0.217647 -0.0819,0.04574 -0.2463,0.115566 -0.36548,0.155291 -0.12592,0.04213 -0.31251,0.0821 -0.44541,0.09558 -0.1459,0.01469 -0.31154,0.01469 -0.45744,0 -0.13339,-0.01348 -0.31901,-0.05321 -0.44541,-0.09534 -0.11918,-0.03997 -0.28435,-0.11027 -0.36717,-0.156496 -0.0831,-0.04622 -0.2292,-0.147588 -0.32503,-0.225112 -0.0961,-0.07753 -0.21307,-0.188037 -0.26026,-0.245577 -0.0472,-0.05754 -0.11869,-0.153365 -0.15938,-0.212832 -0.0404,-0.05971 -0.10738,-0.175514 -0.1488,-0.257615 -0.0414,-0.08234 -0.10424,-0.244854 -0.13964,-0.361143 -0.0573,-0.188998 -0.0645,-0.250873 -0.0648,-0.573022 -2.4e-4,-0.298545 0.009,-0.394608 0.0525,-0.553753 0.0291,-0.105935 0.091,-0.273022 0.13747,-0.371016 0.0465,-0.09823 0.13242,-0.245577 0.19117,-0.327679 0.0585,-0.0821 0.17383,-0.215962 0.25616,-0.297583 0.0823,-0.08162 0.22656,-0.198871 0.32022,-0.260746 0.0937,-0.06188 0.25858,-0.148311 0.36644,-0.192367 0.10762,-0.04382 0.26484,-0.09486 0.3491,-0.113401 0.0843,-0.0183 0.28988,-0.03443 0.45697,-0.03587 z"
     id="icon" /></svg>