<?xml version="1.0" encoding="UTF-8" standalone="no"?>
<svg
   xmlns:dc="http://purl.org/dc/elements/1.1/"
   xmlns:cc="http://creativecommons.org/ns#"
   xmlns:rdf="http://www.w3.org/1999/02/22-rdf-syntax-ns#"
   xmlns:svg="http://www.w3.org/2000/svg"
   xmlns="http://www.w3.org/2000/svg"
   id="svg21"
   xml:space="preserve"
   viewBox="0 0 200 200"
   y="0px"
   x="0px"
   version="1.1"><metadata
     id="metadata25"><rdf:RDF><cc:Work
         rdf:about=""><dc:format>image/svg+xml</dc:format><dc:type
           rdf:resource="http://purl.org/dc/dcmitype/StillImage" /></cc:Work></rdf:RDF></metadata><style
     id="style2">
#logo-fade{
opacity: 0;
animation: fadeIn 5s ease-in forwards infinite;
}

@keyframes fadeIn { 0% { opacity:0; } 30% { opacity:0; }60% { opacity:1; } 100% { opacity:1; } }

#outline{
opacity: 1;
stroke-dasharray: 2000;
stroke-dashoffset: 2000;
animation: dash 5s ease-in-out forwards infinite;
}

@keyframes dash {
  0% {
    opacity: 1;
    stroke-dashoffset: 2000;
  }
  60% {
    opacity: 1;
    stroke-dashoffset: 0;
  }
  100% {
    opacity: 1;
    stroke-dashoffset: 0;
  }
}
</style><defs
     id="defs7"><clipPath
       id="clip"><path
         id="path4"
         d="m100.05 40.002c-0.118-0.006-0.244 0.004-0.284 0.021-0.042 0.018-11.641 6.711-25.78 14.873-14.138 8.163-25.755 14.887-25.812 14.942-0.058 0.055-0.132 0.15-0.166 0.211l-0.061 0.111-0.011 29.631c-0.007 16.299-0.001 29.739 0.011 29.869 0.018 0.18 0.049 0.26 0.143 0.38 0.105 0.14 3.031 1.84 25.73 14.95 14.087 8.14 25.712 14.84 25.834 14.9 0.123 0.06 0.283 0.11 0.356 0.11 0.07 0 0.19-0.03 0.28-0.07 0.08-0.04 11.67-6.72 25.76-14.85 14.08-8.14 25.66-14.83 25.73-14.88 0.06-0.05 0.15-0.15 0.2-0.23l0.09-0.14v-59.674l-0.07-0.117c-0.03-0.065-0.12-0.171-0.2-0.234-0.08-0.064-11.71-6.794-25.84-14.955l-25.71-14.842-0.2-0.006zm-0.37 17.725c0.21-0.002 0.63 0.008 0.93 0.021 0.29 0.013 0.67 0.035 0.84 0.049 0.16 0.014 0.49 0.044 0.71 0.07 0.23 0.026 0.6 0.075 0.82 0.11 0.23 0.034 0.58 0.094 0.78 0.134 0.21 0.04 0.56 0.117 0.79 0.17 0.24 0.054 0.67 0.167 0.96 0.25 0.29 0.084 0.69 0.207 0.9 0.276 0.2 0.068 0.55 0.191 0.76 0.271s0.56 0.22 0.78 0.313c0.22 0.092 0.6 0.265 0.85 0.394 0.26 0.122 0.6 0.296 0.78 0.387 0.17 0.09 0.47 0.257 0.67 0.371 0.2 0.113 0.54 0.32 0.76 0.459s0.52 0.334 0.66 0.434c0.15 0.099 0.47 0.335 0.72 0.523s0.64 0.492 0.86 0.676 0.56 0.477 0.75 0.65c0.19 0.174 0.55 0.525 0.8 0.781 0.26 0.257 0.57 0.584 0.69 0.727 0.13 0.143 0.37 0.419 0.53 0.611 0.16 0.193 0.46 0.568 0.66 0.834 0.2 0.267 0.48 0.664 0.63 0.883 0.14 0.218 0.34 0.515 0.43 0.658 0.09 0.144 0.28 0.469 0.42 0.723 0.15 0.254 0.38 0.694 0.53 0.978 0.14 0.285 0.33 0.686 0.42 0.891s0.23 0.536 0.31 0.734c0.08 0.199 0.21 0.557 0.3 0.795 0.08 0.239 0.22 0.65 0.3 0.912 0.07 0.263 0.19 0.697 0.26 0.963 0.07 0.267 0.17 0.723 0.23 1.014s0.13 0.714 0.16 0.94c0.04 0.225 0.08 0.555 0.1 0.734s0.06 0.514 0.08 0.746 0.04 0.773 0.05 1.203c0 0.43 0 1.271-0.02 1.867-0.01 0.596-0.04 1.457-0.06 1.914s-0.05 1.02-0.06 1.252-0.04 0.595-0.05 0.807-0.03 0.547-0.05 0.746c-0.01 0.199-0.05 0.697-0.08 1.107-0.03 0.411-0.1 1.081-0.13 1.489-0.04 0.408-0.11 1.041-0.15 1.408-0.04 0.366-0.11 1.014-0.17 1.437-0.05 0.424-0.13 1.04-0.18 1.372-0.05 0.331-0.13 0.889-0.18 1.24s-0.17 1.054-0.25 1.564c-0.09 0.51-0.22 1.241-0.29 1.625s-0.2 1.025-0.28 1.422-0.24 1.181-0.37 1.744-0.34 1.484-0.48 2.044-0.33 1.29-0.41 1.61c-0.09 0.33-0.27 0.97-0.4 1.43-0.13 0.45-0.33 1.15-0.45 1.55-0.13 0.4-0.37 1.15-0.54 1.67-0.17 0.53-0.41 1.25-0.54 1.6-0.13 0.36-0.35 0.97-0.49 1.35-0.14 0.39-0.37 0.98-0.5 1.32-0.14 0.34-0.32 0.81-0.42 1.04-0.09 0.22-0.27 0.65-0.39 0.94-0.13 0.29-0.34 0.79-0.48 1.1s-0.38 0.84-0.53 1.18c-0.16 0.33-0.49 1.02-0.74 1.51-0.25 0.5-0.57 1.14-0.72 1.42-0.15 0.29-0.42 0.79-0.6 1.11-0.17 0.33-0.41 0.74-0.51 0.93-0.11 0.18-0.34 0.57-0.51 0.86-0.17 0.3-0.45 0.76-0.62 1.03s-0.42 0.66-0.55 0.88c-0.14 0.21-0.38 0.58-0.54 0.81-0.16 0.24-0.39 0.58-0.51 0.75-0.11 0.17-0.34 0.5-0.5 0.72-0.16 0.23-0.52 0.71-0.79 1.08-0.27 0.36-0.67 0.88-0.89 1.15s-0.57 0.71-0.79 0.98c-0.23 0.26-0.57 0.66-0.76 0.89-0.2 0.22-0.55 0.61-0.77 0.85-0.22 0.25-0.85 0.89-1.38 1.42-0.54 0.54-1.19 1.17-1.45 1.4-0.26 0.24-0.682 0.61-0.939 0.83-0.258 0.22-0.684 0.57-0.949 0.79-0.265 0.21-0.732 0.57-1.037 0.8s-0.755 0.55-1 0.72-0.613 0.42-0.819 0.55c-0.205 0.14-0.53 0.35-0.722 0.47-0.192 0.11-0.556 0.33-0.807 0.48-0.252 0.14-0.668 0.38-0.926 0.52s-0.643 0.34-0.855 0.44c-0.213 0.11-0.626 0.3-0.916 0.44-0.291 0.13-0.665 0.29-0.83 0.36-0.166 0.07-0.474 0.2-0.686 0.28s-0.585 0.22-0.83 0.31c-0.245 0.08-0.598 0.21-0.783 0.27-0.186 0.06-0.521 0.16-0.746 0.22-0.226 0.07-0.582 0.17-0.791 0.22-0.21 0.06-0.386 0.1-0.391 0.09-0.005 0 0.115-0.11 0.268-0.23 0.152-0.12 0.463-0.39 0.691-0.59s0.627-0.57 0.885-0.83 0.617-0.64 0.799-0.85c0.181-0.2 0.455-0.52 0.609-0.7 0.154-0.19 0.424-0.53 0.6-0.76 0.175-0.23 0.42-0.56 0.543-0.74 0.122-0.17 0.36-0.51 0.529-0.77 0.169-0.25 0.416-0.63 0.549-0.84s0.355-0.58 0.494-0.82 0.368-0.64 0.51-0.9c0.141-0.26 0.439-0.83 0.66-1.28 0.221-0.44 0.517-1.06 0.658-1.37s0.34-0.76 0.441-1c0.102-0.24 0.282-0.68 0.401-0.97 0.118-0.3 0.276-0.7 0.349-0.89 0.074-0.2 0.199-0.53 0.278-0.75s0.222-0.63 0.32-0.92c0.097-0.28 0.243-0.72 0.324-0.97s0.229-0.73 0.326-1.05c0.098-0.32 0.241-0.82 0.321-1.09 0.079-0.28 0.193-0.69 0.254-0.92 0.06-0.23 0.207-0.8 0.326-1.29 0.118-0.48 0.286-1.2 0.373-1.59 0.086-0.39 0.221-1.03 0.301-1.43 0.079-0.4 0.194-0.99 0.253-1.31 0.06-0.33 0.158-0.88 0.217-1.24 0.06-0.36 0.152-0.94 0.205-1.3s0.139-0.97 0.192-1.36c0.052-0.39 0.138-1.09 0.191-1.54 0.053-0.46 0.13-1.17 0.17-1.58s0.094-1.01 0.121-1.32c0.027-0.32 0.072-0.88 0.098-1.24 0.026-0.37 0.067-1.05 0.094-1.52 0.026-0.47 0.06-1.1 0.074-1.41 0.013-0.3 0.037-0.93 0.053-1.4 0.016-0.5 0.027-1.78 0.025-3.15-0.002-1.271-0.011-2.42-0.022-2.552-0.017-0.211-0.025-0.104-0.062 0.832-0.023 0.589-0.064 1.423-0.09 1.85-0.026 0.43-0.071 1.09-0.098 1.47s-0.069 0.94-0.095 1.25-0.082 0.9-0.121 1.3c-0.04 0.41-0.116 1.12-0.168 1.58-0.053 0.46-0.14 1.18-0.194 1.59-0.053 0.41-0.145 1.08-0.205 1.49-0.059 0.41-0.172 1.14-0.25 1.62s-0.198 1.17-0.265 1.54c-0.068 0.37-0.204 1.08-0.303 1.57-0.099 0.5-0.262 1.27-0.361 1.72-0.1 0.45-0.295 1.27-0.432 1.82-0.138 0.55-0.343 1.34-0.455 1.75-0.113 0.41-0.276 0.99-0.363 1.29-0.089 0.29-0.231 0.77-0.317 1.04-0.086 0.28-0.262 0.83-0.392 1.22-0.131 0.39-0.352 1.02-0.491 1.41-0.138 0.38-0.313 0.86-0.388 1.06-0.075 0.19-0.233 0.6-0.35 0.89s-0.307 0.75-0.422 1.02-0.334 0.77-0.486 1.11c-0.153 0.34-0.459 0.98-0.682 1.43s-0.538 1.06-0.699 1.36-0.432 0.78-0.604 1.08c-0.171 0.3-0.438 0.74-0.591 0.99-0.154 0.25-0.436 0.68-0.627 0.96s-0.477 0.7-0.637 0.92-0.406 0.54-0.545 0.72-0.365 0.46-0.502 0.63-0.342 0.41-0.457 0.54c-0.114 0.13-0.395 0.44-0.625 0.69-0.23 0.24-0.6 0.61-0.822 0.82s-0.505 0.46-0.631 0.57-0.407 0.33-0.623 0.5-0.519 0.4-0.674 0.51c-0.155 0.1-0.444 0.29-0.642 0.42-0.199 0.12-0.623 0.35-0.944 0.51-0.321 0.17-0.749 0.36-0.951 0.44s-0.497 0.19-0.656 0.23c-0.159 0.05-0.442 0.13-0.627 0.17-0.186 0.05-0.466 0.11-0.625 0.13-0.159 0.03-0.437 0.07-0.615 0.09-0.192 0.02-0.467 0.04-0.672 0.03l-0.348-0.01-0.02-0.07c-0.01-0.04-0.018-14.41-0.013-31.93 0.005-24.511 0.015-31.915 0.037-32.146 0.016-0.166 0.046-0.464 0.066-0.663 0.021-0.198 0.068-0.589 0.108-0.867 0.039-0.278 0.122-0.747 0.181-1.043 0.06-0.296 0.151-0.719 0.205-0.939s0.156-0.601 0.227-0.846c0.071-0.246 0.201-0.653 0.287-0.906 0.087-0.253 0.23-0.644 0.317-0.867s0.224-0.557 0.304-0.743c0.081-0.185 0.24-0.534 0.356-0.775 0.115-0.24 0.322-0.641 0.459-0.891 0.136-0.249 0.356-0.633 0.488-0.851 0.132-0.219 0.35-0.559 0.482-0.758 0.133-0.199 0.311-0.459 0.397-0.578s0.253-0.347 0.373-0.506 0.333-0.429 0.475-0.601c0.14-0.173 0.38-0.454 0.531-0.625 0.151-0.172 0.458-0.502 0.683-0.733 0.226-0.231 0.561-0.561 0.746-0.734 0.186-0.174 0.477-0.435 0.647-0.58 0.17-0.146 0.463-0.388 0.65-0.537s0.493-0.381 0.678-0.516c0.186-0.135 0.526-0.371 0.758-0.525 0.232-0.155 0.574-0.372 0.76-0.485 0.185-0.112 0.495-0.292 0.689-0.4 0.195-0.108 0.57-0.305 0.832-0.436s0.617-0.3 0.789-0.377c0.172-0.076 0.443-0.192 0.602-0.258 0.159-0.065 0.419-0.169 0.578-0.228s0.447-0.161 0.639-0.227c0.191-0.065 0.505-0.166 0.697-0.224 0.192-0.059 0.583-0.167 0.867-0.24 0.285-0.073 0.761-0.181 1.059-0.241 0.298-0.059 0.72-0.136 0.939-0.17 0.218-0.033 0.587-0.081 0.818-0.107 0.232-0.026 0.571-0.059 0.752-0.074 0.182-0.016 0.522-0.038 0.758-0.047 0.236-0.01 0.603-0.02 0.815-0.022l-0.002-0.007zm-9.641 11.765c-0.364-0.003-0.705-0.003-0.758 0.002s-0.238 0.027-0.41 0.047-0.497 0.076-0.723 0.121c-0.225 0.046-0.553 0.126-0.73 0.18-0.177 0.053-0.455 0.148-0.615 0.209-0.161 0.06-0.444 0.181-0.629 0.269-0.186 0.089-0.456 0.231-0.602 0.315-0.145 0.084-0.378 0.229-0.517 0.322s-0.336 0.232-0.44 0.311c-0.103 0.078-0.304 0.242-0.445 0.365-0.142 0.123-0.4 0.369-0.572 0.547s-0.403 0.438-0.514 0.578-0.27 0.351-0.354 0.469c-0.083 0.117-0.228 0.337-0.32 0.49-0.092 0.152-0.23 0.402-0.308 0.554-0.078 0.153-0.2 0.413-0.27 0.579-0.07 0.165-0.176 0.44-0.234 0.611-0.059 0.171-0.15 0.487-0.202 0.699-0.052 0.213-0.115 0.522-0.142 0.688-0.026 0.165-0.062 0.425-0.078 0.578-0.017 0.152-0.03 0.53-0.03 0.842 0 0.311 0.013 0.691 0.03 0.843 0.016 0.152 0.051 0.413 0.078 0.578 0.027 0.166 0.084 0.452 0.129 0.637 0.044 0.186 0.135 0.501 0.201 0.699 0.066 0.199 0.178 0.497 0.248 0.663 0.07 0.165 0.192 0.424 0.27 0.576s0.216 0.402 0.308 0.554c0.092 0.153 0.237 0.373 0.32 0.491 0.084 0.117 0.243 0.328 0.354 0.468s0.349 0.407 0.527 0.592c0.179 0.185 0.468 0.455 0.643 0.604 0.175 0.148 0.436 0.353 0.578 0.453 0.143 0.1 0.363 0.246 0.49 0.326 0.128 0.08 0.378 0.222 0.555 0.314 0.177 0.093 0.451 0.224 0.607 0.291 0.157 0.068 0.443 0.175 0.637 0.241 0.195 0.065 0.484 0.153 0.643 0.193 0.158 0.04 0.441 0.099 0.627 0.131 0.185 0.032 0.451 0.075 0.589 0.092 0.154 0.019 0.525 0.029 0.95 0.029 0.428 0 0.796-0.012 0.951-0.031 0.139-0.018 0.384-0.052 0.543-0.078 0.159-0.027 0.424-0.082 0.59-0.122 0.165-0.04 0.473-0.13 0.685-0.201 0.212-0.07 0.515-0.183 0.674-0.252 0.159-0.068 0.429-0.197 0.602-0.287 0.172-0.089 0.432-0.236 0.578-0.328 0.145-0.091 0.358-0.231 0.47-0.31 0.113-0.08 0.311-0.234 0.444-0.34 0.132-0.106 0.387-0.334 0.564-0.506 0.178-0.172 0.42-0.427 0.539-0.565s0.307-0.372 0.418-0.521c0.112-0.15 0.277-0.388 0.367-0.531 0.091-0.143 0.232-0.382 0.313-0.53 0.081-0.147 0.211-0.413 0.289-0.589 0.078-0.177 0.181-0.429 0.231-0.561 0.049-0.132 0.136-0.403 0.193-0.603s0.138-0.53 0.178-0.735c0.039-0.205 0.09-0.536 0.113-0.734 0.029-0.249 0.043-0.545 0.043-0.951 0-0.407-0.014-0.702-0.043-0.952-0.023-0.198-0.074-0.525-0.113-0.726-0.039-0.202-0.113-0.517-0.164-0.699-0.052-0.183-0.121-0.408-0.153-0.5-0.032-0.093-0.11-0.293-0.172-0.444s-0.182-0.415-0.267-0.588c-0.086-0.172-0.24-0.453-0.342-0.623-0.102-0.169-0.284-0.442-0.404-0.607s-0.318-0.419-0.442-0.565c-0.123-0.145-0.372-0.409-0.553-0.585-0.18-0.177-0.468-0.433-0.638-0.569s-0.436-0.332-0.59-0.435-0.377-0.244-0.494-0.313-0.331-0.183-0.473-0.254-0.387-0.184-0.545-0.25c-0.157-0.066-0.41-0.162-0.562-0.215-0.152-0.052-0.428-0.134-0.614-0.181-0.185-0.048-0.453-0.108-0.595-0.135s-0.392-0.067-0.555-0.088c-0.195-0.026-0.52-0.042-0.957-0.047zm19.671 0c-0.37-0.003-0.71-0.003-0.76 0.002s-0.24 0.027-0.41 0.047c-0.17 0.021-0.48 0.071-0.68 0.111-0.21 0.041-0.54 0.123-0.74 0.182-0.19 0.059-0.49 0.157-0.65 0.217s-0.44 0.181-0.62 0.269c-0.19 0.089-0.46 0.231-0.61 0.315-0.14 0.084-0.38 0.229-0.52 0.322-0.13 0.093-0.33 0.234-0.44 0.314-0.11 0.081-0.32 0.255-0.47 0.389s-0.4 0.376-0.56 0.537c-0.15 0.161-0.37 0.409-0.49 0.551-0.11 0.143-0.27 0.357-0.36 0.477-0.08 0.119-0.23 0.352-0.33 0.517-0.1 0.166-0.24 0.414-0.31 0.553s-0.18 0.377-0.25 0.529c-0.06 0.152-0.15 0.378-0.2 0.5-0.04 0.123-0.11 0.356-0.16 0.518s-0.12 0.48-0.17 0.705c-0.04 0.225-0.1 0.571-0.12 0.769-0.03 0.244-0.04 0.554-0.04 0.952 0 0.397 0.01 0.707 0.04 0.951 0.02 0.198 0.08 0.546 0.12 0.771 0.05 0.225 0.12 0.541 0.17 0.703s0.12 0.395 0.16 0.518c0.05 0.123 0.14 0.348 0.2 0.5 0.07 0.152 0.18 0.39 0.25 0.529s0.21 0.389 0.31 0.555c0.1 0.165 0.25 0.396 0.33 0.514 0.08 0.117 0.24 0.329 0.35 0.468 0.11 0.14 0.35 0.403 0.53 0.586 0.17 0.183 0.45 0.445 0.61 0.58 0.16 0.136 0.41 0.339 0.57 0.452 0.16 0.112 0.4 0.272 0.53 0.355s0.39 0.227 0.56 0.318c0.18 0.092 0.45 0.222 0.6 0.289 0.16 0.068 0.45 0.175 0.64 0.241 0.2 0.065 0.51 0.157 0.69 0.203 0.19 0.045 0.47 0.103 0.63 0.131 0.16 0.027 0.4 0.063 0.54 0.08 0.15 0.019 0.53 0.031 0.95 0.031 0.43 0 0.8-0.012 0.95-0.031 0.14-0.018 0.38-0.052 0.54-0.078 0.16-0.027 0.43-0.082 0.59-0.122 0.17-0.04 0.48-0.13 0.69-0.201 0.21-0.07 0.51-0.183 0.67-0.252 0.16-0.068 0.43-0.197 0.61-0.287 0.17-0.089 0.43-0.236 0.57-0.328 0.15-0.091 0.36-0.233 0.47-0.312 0.12-0.08 0.31-0.232 0.45-0.338 0.13-0.106 0.38-0.334 0.56-0.506s0.42-0.427 0.54-0.565 0.31-0.37 0.41-0.517c0.11-0.147 0.27-0.362 0.34-0.481 0.08-0.118 0.21-0.34 0.3-0.492 0.08-0.152 0.21-0.413 0.29-0.58s0.2-0.451 0.26-0.629c0.07-0.178 0.17-0.479 0.22-0.668s0.13-0.507 0.17-0.709c0.04-0.201 0.09-0.53 0.11-0.728 0.03-0.254 0.05-0.54 0.04-0.963 0-0.402-0.01-0.714-0.04-0.94-0.02-0.185-0.06-0.461-0.09-0.613-0.02-0.152-0.08-0.423-0.13-0.601-0.04-0.179-0.13-0.467-0.19-0.639-0.05-0.172-0.16-0.448-0.23-0.613-0.07-0.166-0.19-0.416-0.26-0.555s-0.21-0.39-0.31-0.557-0.25-0.397-0.33-0.513-0.24-0.327-0.35-0.467c-0.11-0.141-0.4-0.453-0.64-0.692s-0.54-0.522-0.68-0.63c-0.14-0.109-0.33-0.26-0.44-0.336s-0.32-0.218-0.48-0.315c-0.15-0.096-0.48-0.278-0.73-0.402-0.26-0.124-0.61-0.28-0.79-0.348-0.18-0.067-0.48-0.164-0.66-0.217-0.19-0.052-0.5-0.128-0.7-0.168-0.19-0.039-0.49-0.089-0.66-0.111-0.2-0.026-0.52-0.042-0.96-0.047zm-19.657 3.395c0.198 0.005 0.486 0.027 0.638 0.049 0.152 0.021 0.422 0.075 0.6 0.121 0.178 0.045 0.449 0.134 0.602 0.195 0.152 0.061 0.354 0.149 0.447 0.195 0.093 0.047 0.266 0.143 0.385 0.215s0.319 0.209 0.445 0.303c0.125 0.094 0.341 0.279 0.478 0.412 0.138 0.133 0.334 0.339 0.434 0.459 0.1 0.119 0.254 0.327 0.342 0.461 0.089 0.134 0.228 0.377 0.31 0.539 0.083 0.161 0.193 0.407 0.245 0.545 0.051 0.138 0.127 0.378 0.166 0.533s0.088 0.386 0.109 0.512c0.021 0.125 0.044 0.424 0.051 0.664 0.008 0.266 0.003 0.542-0.014 0.711-0.016 0.151-0.056 0.408-0.09 0.574-0.034 0.165-0.104 0.431-0.156 0.59s-0.174 0.452-0.272 0.65c-0.097 0.199-0.252 0.474-0.343 0.614-0.092 0.138-0.249 0.351-0.348 0.47-0.1 0.119-0.301 0.33-0.445 0.469-0.145 0.139-0.348 0.317-0.451 0.394-0.104 0.078-0.293 0.207-0.42 0.288-0.128 0.08-0.354 0.203-0.502 0.273s-0.359 0.161-0.467 0.201c-0.109 0.04-0.29 0.099-0.404 0.131-0.115 0.032-0.322 0.081-0.461 0.107-0.139 0.027-0.395 0.061-0.567 0.077-0.183 0.017-0.447 0.022-0.635 0.013-0.176-0.008-0.437-0.032-0.578-0.052-0.141-0.021-0.383-0.069-0.539-0.108-0.155-0.039-0.388-0.109-0.517-0.156-0.13-0.048-0.375-0.157-0.547-0.24-0.172-0.084-0.439-0.235-0.59-0.336s-0.362-0.258-0.469-0.348c-0.106-0.09-0.294-0.266-0.416-0.391-0.122-0.124-0.291-0.313-0.375-0.419-0.084-0.108-0.202-0.274-0.265-0.37-0.063-0.095-0.167-0.267-0.229-0.382s-0.156-0.302-0.207-0.414c-0.051-0.113-0.134-0.333-0.186-0.489-0.051-0.156-0.119-0.416-0.152-0.578-0.032-0.162-0.07-0.399-0.084-0.527-0.014-0.129-0.025-0.388-0.025-0.574 0-0.187 0.011-0.444 0.025-0.573 0.014-0.128 0.052-0.366 0.084-0.527s0.102-0.428 0.156-0.594c0.055-0.166 0.179-0.462 0.276-0.658 0.096-0.196 0.25-0.47 0.342-0.609 0.092-0.14 0.25-0.35 0.349-0.469 0.1-0.119 0.294-0.326 0.432-0.459s0.353-0.32 0.478-0.414c0.126-0.094 0.326-0.231 0.446-0.303 0.119-0.072 0.285-0.165 0.369-0.207 0.083-0.042 0.271-0.124 0.416-0.184 0.145-0.059 0.396-0.145 0.558-0.189s0.405-0.099 0.539-0.121c0.135-0.023 0.341-0.051 0.458-0.063 0.116-0.011 0.375-0.015 0.574-0.009v-0.002zm19.667 0.002c0.2 0.005 0.49 0.025 0.64 0.047 0.15 0.021 0.42 0.077 0.6 0.123 0.18 0.045 0.45 0.132 0.6 0.193 0.16 0.061 0.36 0.149 0.45 0.195 0.09 0.047 0.27 0.143 0.38 0.215 0.12 0.072 0.32 0.209 0.45 0.303s0.34 0.281 0.48 0.414 0.33 0.34 0.43 0.459 0.26 0.329 0.35 0.469c0.09 0.139 0.25 0.414 0.34 0.613 0.1 0.199 0.22 0.491 0.27 0.65 0.06 0.159 0.13 0.425 0.16 0.59 0.03 0.166 0.07 0.407 0.09 0.535 0.01 0.129 0.02 0.386 0.02 0.573 0 0.186-0.01 0.445-0.02 0.574-0.02 0.128-0.05 0.364-0.09 0.525-0.03 0.161-0.1 0.432-0.16 0.6-0.05 0.168-0.18 0.475-0.28 0.681-0.11 0.207-0.25 0.468-0.33 0.581-0.07 0.112-0.21 0.302-0.31 0.421-0.1 0.12-0.27 0.313-0.39 0.43-0.12 0.118-0.29 0.28-0.39 0.359-0.09 0.08-0.29 0.226-0.44 0.325s-0.41 0.249-0.58 0.334c-0.18 0.084-0.43 0.191-0.56 0.238s-0.36 0.118-0.51 0.156c-0.16 0.039-0.41 0.09-0.56 0.113-0.19 0.03-0.42 0.041-0.76 0.041s-0.56-0.012-0.76-0.042c-0.15-0.024-0.35-0.062-0.45-0.086s-0.27-0.068-0.36-0.098c-0.1-0.03-0.29-0.096-0.43-0.149-0.13-0.052-0.35-0.155-0.49-0.228s-0.36-0.201-0.48-0.285c-0.13-0.084-0.31-0.213-0.4-0.287s-0.27-0.241-0.41-0.369c-0.13-0.129-0.31-0.332-0.41-0.452-0.09-0.119-0.23-0.309-0.31-0.421-0.07-0.113-0.22-0.374-0.32-0.581-0.11-0.206-0.24-0.513-0.29-0.681-0.06-0.168-0.13-0.439-0.16-0.6s-0.07-0.397-0.08-0.525c-0.02-0.129-0.03-0.388-0.03-0.574 0-0.187 0.01-0.444 0.03-0.573 0.01-0.128 0.05-0.369 0.08-0.535 0.04-0.165 0.11-0.431 0.16-0.59s0.17-0.451 0.27-0.65 0.25-0.474 0.35-0.613c0.09-0.14 0.24-0.35 0.34-0.469s0.3-0.326 0.43-0.459c0.14-0.133 0.36-0.318 0.48-0.412 0.13-0.094 0.33-0.23 0.45-0.303 0.12-0.072 0.28-0.167 0.37-0.209 0.08-0.042 0.27-0.124 0.41-0.184 0.15-0.059 0.4-0.145 0.56-0.189s0.41-0.099 0.54-0.121c0.14-0.023 0.34-0.051 0.46-0.063 0.12-0.011 0.37-0.015 0.57-0.009zm-19.798 3.238c-0.167 0.001-0.373 0.019-0.457 0.037-0.084 0.019-0.24 0.07-0.348 0.113-0.108 0.044-0.274 0.131-0.369 0.194-0.095 0.062-0.242 0.184-0.33 0.271s-0.201 0.218-0.252 0.293-0.127 0.205-0.168 0.287c-0.041 0.083-0.105 0.245-0.141 0.362l-0.064 0.211v0.746l0.064 0.213c0.036 0.116 0.098 0.279 0.139 0.361 0.042 0.082 0.11 0.198 0.15 0.258 0.041 0.059 0.122 0.163 0.18 0.232 0.059 0.069 0.183 0.186 0.278 0.258 0.094 0.072 0.232 0.163 0.304 0.203 0.073 0.04 0.231 0.107 0.35 0.146 0.119 0.04 0.315 0.083 0.437 0.096 0.148 0.016 0.299 0.016 0.457 0 0.14-0.014 0.325-0.053 0.453-0.096 0.12-0.039 0.284-0.11 0.366-0.156 0.082-0.045 0.225-0.143 0.318-0.217 0.093-0.073 0.235-0.219 0.316-0.32s0.196-0.281 0.254-0.4c0.059-0.119 0.129-0.303 0.157-0.408 0.027-0.106 0.055-0.302 0.062-0.434 0.01-0.17 0.002-0.307-0.025-0.465-0.022-0.123-0.072-0.308-0.112-0.41-0.039-0.102-0.112-0.255-0.162-0.34s-0.17-0.24-0.269-0.346c-0.099-0.105-0.24-0.234-0.311-0.287-0.071-0.052-0.214-0.139-0.318-0.191s-0.294-0.122-0.422-0.154c-0.19-0.049-0.288-0.059-0.537-0.057zm19.668 0c-0.16 0.001-0.37 0.019-0.45 0.037-0.09 0.019-0.25 0.07-0.35 0.113-0.11 0.044-0.28 0.13-0.37 0.192s-0.24 0.18-0.32 0.261c-0.08 0.082-0.2 0.215-0.26 0.297s-0.14 0.23-0.19 0.328c-0.04 0.098-0.11 0.266-0.13 0.372-0.05 0.159-0.06 0.254-0.06 0.552 0 0.322 0.01 0.386 0.07 0.575 0.03 0.116 0.1 0.279 0.14 0.361s0.11 0.198 0.15 0.258c0.04 0.059 0.11 0.155 0.15 0.213 0.05 0.057 0.17 0.166 0.27 0.244 0.09 0.077 0.24 0.18 0.32 0.226s0.25 0.117 0.37 0.156c0.12 0.043 0.31 0.081 0.44 0.094 0.15 0.015 0.31 0.015 0.46 0 0.13-0.013 0.32-0.051 0.45-0.094 0.11-0.039 0.28-0.11 0.36-0.156 0.08-0.045 0.23-0.143 0.32-0.217 0.09-0.073 0.23-0.219 0.32-0.32 0.08-0.101 0.19-0.281 0.25-0.4s0.13-0.303 0.16-0.408c0.04-0.157 0.05-0.26 0.05-0.543 0-0.281-0.01-0.385-0.05-0.534-0.03-0.101-0.09-0.27-0.14-0.371-0.04-0.101-0.13-0.25-0.19-0.332-0.06-0.081-0.17-0.214-0.26-0.297-0.08-0.082-0.2-0.184-0.26-0.226-0.06-0.043-0.19-0.121-0.29-0.172s-0.29-0.12-0.42-0.152c-0.19-0.049-0.29-0.059-0.54-0.057zm-9.822 6.908c-0.007 0-0.593 0.88-1.301 1.955-0.709 1.075-1.286 1.967-1.281 1.981 0.004 0.013 0.584 1.365 1.289 3.004 0.704 1.638 1.286 2.978 1.293 2.978 0.006 0 0.592-1.344 1.292-2.988 1.05-2.425 1.29-3 1.27-3.043-0.01-0.029-0.59-0.917-1.29-1.971-0.69-1.054-1.265-1.916-1.272-1.916z" /></clipPath></defs><path
     stroke-linecap="round"
     stroke-linejoin="round"
     fill-rule="nonzero"
     stroke-width="30"
     stroke="#f2b98d"
     fill="none"
     clip-path="url(#clip)"
     d="m100.05 40.002c-0.118-0.006-0.244 0.004-0.284 0.021-0.042 0.018-11.641 6.711-25.78 14.873-14.138 8.163-25.755 14.887-25.812 14.942-0.058 0.055-0.132 0.15-0.166 0.211l-0.061 0.111-0.011 29.631c-0.007 16.299-0.001 29.739 0.011 29.869 0.018 0.18 0.049 0.26 0.143 0.38 0.105 0.14 3.031 1.84 25.73 14.95 14.087 8.14 25.712 14.84 25.834 14.9 0.123 0.06 0.283 0.11 0.356 0.11 0.07 0 0.19-0.03 0.28-0.07 0.08-0.04 11.67-6.72 25.76-14.85 14.08-8.14 25.66-14.83 25.73-14.88 0.06-0.05 0.15-0.15 0.2-0.23l0.09-0.14v-59.674l-0.07-0.117c-0.03-0.065-0.12-0.171-0.2-0.234-0.08-0.064-11.71-6.794-25.84-14.955l-25.71-14.842-0.2-0.006zm-0.37 17.725c0.21-0.002 0.63 0.008 0.93 0.021 0.29 0.013 0.67 0.035 0.84 0.049 0.16 0.014 0.49 0.044 0.71 0.07 0.23 0.026 0.6 0.075 0.82 0.11 0.23 0.034 0.58 0.094 0.78 0.134 0.21 0.04 0.56 0.117 0.79 0.17 0.24 0.054 0.67 0.167 0.96 0.25 0.29 0.084 0.69 0.207 0.9 0.276 0.2 0.068 0.55 0.191 0.76 0.271s0.56 0.22 0.78 0.313c0.22 0.092 0.6 0.265 0.85 0.394 0.26 0.122 0.6 0.296 0.78 0.387 0.17 0.09 0.47 0.257 0.67 0.371 0.2 0.113 0.54 0.32 0.76 0.459s0.52 0.334 0.66 0.434c0.15 0.099 0.47 0.335 0.72 0.523s0.64 0.492 0.86 0.676 0.56 0.477 0.75 0.65c0.19 0.174 0.55 0.525 0.8 0.781 0.26 0.257 0.57 0.584 0.69 0.727 0.13 0.143 0.37 0.419 0.53 0.611 0.16 0.193 0.46 0.568 0.66 0.834 0.2 0.267 0.48 0.664 0.63 0.883 0.14 0.218 0.34 0.515 0.43 0.658 0.09 0.144 0.28 0.469 0.42 0.723 0.15 0.254 0.38 0.694 0.53 0.978 0.14 0.285 0.33 0.686 0.42 0.891s0.23 0.536 0.31 0.734c0.08 0.199 0.21 0.557 0.3 0.795 0.08 0.239 0.22 0.65 0.3 0.912 0.07 0.263 0.19 0.697 0.26 0.963 0.07 0.267 0.17 0.723 0.23 1.014s0.13 0.714 0.16 0.94c0.04 0.225 0.08 0.555 0.1 0.734s0.06 0.514 0.08 0.746 0.04 0.773 0.05 1.203c0 0.43 0 1.271-0.02 1.867-0.01 0.596-0.04 1.457-0.06 1.914s-0.05 1.02-0.06 1.252-0.04 0.595-0.05 0.807-0.03 0.547-0.05 0.746c-0.01 0.199-0.05 0.697-0.08 1.107-0.03 0.411-0.1 1.081-0.13 1.489-0.04 0.408-0.11 1.041-0.15 1.408-0.04 0.366-0.11 1.014-0.17 1.437-0.05 0.424-0.13 1.04-0.18 1.372-0.05 0.331-0.13 0.889-0.18 1.24s-0.17 1.054-0.25 1.564c-0.09 0.51-0.22 1.241-0.29 1.625s-0.2 1.025-0.28 1.422-0.24 1.181-0.37 1.744-0.34 1.484-0.48 2.044-0.33 1.29-0.41 1.61c-0.09 0.33-0.27 0.97-0.4 1.43-0.13 0.45-0.33 1.15-0.45 1.55-0.13 0.4-0.37 1.15-0.54 1.67-0.17 0.53-0.41 1.25-0.54 1.6-0.13 0.36-0.35 0.97-0.49 1.35-0.14 0.39-0.37 0.98-0.5 1.32-0.14 0.34-0.32 0.81-0.42 1.04-0.09 0.22-0.27 0.65-0.39 0.94-0.13 0.29-0.34 0.79-0.48 1.1s-0.38 0.84-0.53 1.18c-0.16 0.33-0.49 1.02-0.74 1.51-0.25 0.5-0.57 1.14-0.72 1.42-0.15 0.29-0.42 0.79-0.6 1.11-0.17 0.33-0.41 0.74-0.51 0.93-0.11 0.18-0.34 0.57-0.51 0.86-0.17 0.3-0.45 0.76-0.62 1.03s-0.42 0.66-0.55 0.88c-0.14 0.21-0.38 0.58-0.54 0.81-0.16 0.24-0.39 0.58-0.51 0.75-0.11 0.17-0.34 0.5-0.5 0.72-0.16 0.23-0.52 0.71-0.79 1.08-0.27 0.36-0.67 0.88-0.89 1.15s-0.57 0.71-0.79 0.98c-0.23 0.26-0.57 0.66-0.76 0.89-0.2 0.22-0.55 0.61-0.77 0.85-0.22 0.25-0.85 0.89-1.38 1.42-0.54 0.54-1.19 1.17-1.45 1.4-0.26 0.24-0.682 0.61-0.939 0.83-0.258 0.22-0.684 0.57-0.949 0.79-0.265 0.21-0.732 0.57-1.037 0.8s-0.755 0.55-1 0.72-0.613 0.42-0.819 0.55c-0.205 0.14-0.53 0.35-0.722 0.47-0.192 0.11-0.556 0.33-0.807 0.48-0.252 0.14-0.668 0.38-0.926 0.52s-0.643 0.34-0.855 0.44c-0.213 0.11-0.626 0.3-0.916 0.44-0.291 0.13-0.665 0.29-0.83 0.36-0.166 0.07-0.474 0.2-0.686 0.28s-0.585 0.22-0.83 0.31c-0.245 0.08-0.598 0.21-0.783 0.27-0.186 0.06-0.521 0.16-0.746 0.22-0.226 0.07-0.582 0.17-0.791 0.22-0.21 0.06-0.386 0.1-0.391 0.09-0.005 0 0.115-0.11 0.268-0.23 0.152-0.12 0.463-0.39 0.691-0.59s0.627-0.57 0.885-0.83 0.617-0.64 0.799-0.85c0.181-0.2 0.455-0.52 0.609-0.7 0.154-0.19 0.424-0.53 0.6-0.76 0.175-0.23 0.42-0.56 0.543-0.74 0.122-0.17 0.36-0.51 0.529-0.77 0.169-0.25 0.416-0.63 0.549-0.84s0.355-0.58 0.494-0.82 0.368-0.64 0.51-0.9c0.141-0.26 0.439-0.83 0.66-1.28 0.221-0.44 0.517-1.06 0.658-1.37s0.34-0.76 0.441-1c0.102-0.24 0.282-0.68 0.401-0.97 0.118-0.3 0.276-0.7 0.349-0.89 0.074-0.2 0.199-0.53 0.278-0.75s0.222-0.63 0.32-0.92c0.097-0.28 0.243-0.72 0.324-0.97s0.229-0.73 0.326-1.05c0.098-0.32 0.241-0.82 0.321-1.09 0.079-0.28 0.193-0.69 0.254-0.92 0.06-0.23 0.207-0.8 0.326-1.29 0.118-0.48 0.286-1.2 0.373-1.59 0.086-0.39 0.221-1.03 0.301-1.43 0.079-0.4 0.194-0.99 0.253-1.31 0.06-0.33 0.158-0.88 0.217-1.24 0.06-0.36 0.152-0.94 0.205-1.3s0.139-0.97 0.192-1.36c0.052-0.39 0.138-1.09 0.191-1.54 0.053-0.46 0.13-1.17 0.17-1.58s0.094-1.01 0.121-1.32c0.027-0.32 0.072-0.88 0.098-1.24 0.026-0.37 0.067-1.05 0.094-1.52 0.026-0.47 0.06-1.1 0.074-1.41 0.013-0.3 0.037-0.93 0.053-1.4 0.016-0.5 0.027-1.78 0.025-3.15-0.002-1.271-0.011-2.42-0.022-2.552-0.017-0.211-0.025-0.104-0.062 0.832-0.023 0.589-0.064 1.423-0.09 1.85-0.026 0.43-0.071 1.09-0.098 1.47s-0.069 0.94-0.095 1.25-0.082 0.9-0.121 1.3c-0.04 0.41-0.116 1.12-0.168 1.58-0.053 0.46-0.14 1.18-0.194 1.59-0.053 0.41-0.145 1.08-0.205 1.49-0.059 0.41-0.172 1.14-0.25 1.62s-0.198 1.17-0.265 1.54c-0.068 0.37-0.204 1.08-0.303 1.57-0.099 0.5-0.262 1.27-0.361 1.72-0.1 0.45-0.295 1.27-0.432 1.82-0.138 0.55-0.343 1.34-0.455 1.75-0.113 0.41-0.276 0.99-0.363 1.29-0.089 0.29-0.231 0.77-0.317 1.04-0.086 0.28-0.262 0.83-0.392 1.22-0.131 0.39-0.352 1.02-0.491 1.41-0.138 0.38-0.313 0.86-0.388 1.06-0.075 0.19-0.233 0.6-0.35 0.89s-0.307 0.75-0.422 1.02-0.334 0.77-0.486 1.11c-0.153 0.34-0.459 0.98-0.682 1.43s-0.538 1.06-0.699 1.36-0.432 0.78-0.604 1.08c-0.171 0.3-0.438 0.74-0.591 0.99-0.154 0.25-0.436 0.68-0.627 0.96s-0.477 0.7-0.637 0.92-0.406 0.54-0.545 0.72-0.365 0.46-0.502 0.63-0.342 0.41-0.457 0.54c-0.114 0.13-0.395 0.44-0.625 0.69-0.23 0.24-0.6 0.61-0.822 0.82s-0.505 0.46-0.631 0.57-0.407 0.33-0.623 0.5-0.519 0.4-0.674 0.51c-0.155 0.1-0.444 0.29-0.642 0.42-0.199 0.12-0.623 0.35-0.944 0.51-0.321 0.17-0.749 0.36-0.951 0.44s-0.497 0.19-0.656 0.23c-0.159 0.05-0.442 0.13-0.627 0.17-0.186 0.05-0.466 0.11-0.625 0.13-0.159 0.03-0.437 0.07-0.615 0.09-0.192 0.02-0.467 0.04-0.672 0.03l-0.348-0.01-0.02-0.07c-0.01-0.04-0.018-14.41-0.013-31.93 0.005-24.511 0.015-31.915 0.037-32.146 0.016-0.166 0.046-0.464 0.066-0.663 0.021-0.198 0.068-0.589 0.108-0.867 0.039-0.278 0.122-0.747 0.181-1.043 0.06-0.296 0.151-0.719 0.205-0.939s0.156-0.601 0.227-0.846c0.071-0.246 0.201-0.653 0.287-0.906 0.087-0.253 0.23-0.644 0.317-0.867s0.224-0.557 0.304-0.743c0.081-0.185 0.24-0.534 0.356-0.775 0.115-0.24 0.322-0.641 0.459-0.891 0.136-0.249 0.356-0.633 0.488-0.851 0.132-0.219 0.35-0.559 0.482-0.758 0.133-0.199 0.311-0.459 0.397-0.578s0.253-0.347 0.373-0.506 0.333-0.429 0.475-0.601c0.14-0.173 0.38-0.454 0.531-0.625 0.151-0.172 0.458-0.502 0.683-0.733 0.226-0.231 0.561-0.561 0.746-0.734 0.186-0.174 0.477-0.435 0.647-0.58 0.17-0.146 0.463-0.388 0.65-0.537s0.493-0.381 0.678-0.516c0.186-0.135 0.526-0.371 0.758-0.525 0.232-0.155 0.574-0.372 0.76-0.485 0.185-0.112 0.495-0.292 0.689-0.4 0.195-0.108 0.57-0.305 0.832-0.436s0.617-0.3 0.789-0.377c0.172-0.076 0.443-0.192 0.602-0.258 0.159-0.065 0.419-0.169 0.578-0.228s0.447-0.161 0.639-0.227c0.191-0.065 0.505-0.166 0.697-0.224 0.192-0.059 0.583-0.167 0.867-0.24 0.285-0.073 0.761-0.181 1.059-0.241 0.298-0.059 0.72-0.136 0.939-0.17 0.218-0.033 0.587-0.081 0.818-0.107 0.232-0.026 0.571-0.059 0.752-0.074 0.182-0.016 0.522-0.038 0.758-0.047 0.236-0.01 0.603-0.02 0.815-0.022l-0.002-0.007zm-9.641 11.765c-0.364-0.003-0.705-0.003-0.758 0.002s-0.238 0.027-0.41 0.047-0.497 0.076-0.723 0.121c-0.225 0.046-0.553 0.126-0.73 0.18-0.177 0.053-0.455 0.148-0.615 0.209-0.161 0.06-0.444 0.181-0.629 0.269-0.186 0.089-0.456 0.231-0.602 0.315-0.145 0.084-0.378 0.229-0.517 0.322s-0.336 0.232-0.44 0.311c-0.103 0.078-0.304 0.242-0.445 0.365-0.142 0.123-0.4 0.369-0.572 0.547s-0.403 0.438-0.514 0.578-0.27 0.351-0.354 0.469c-0.083 0.117-0.228 0.337-0.32 0.49-0.092 0.152-0.23 0.402-0.308 0.554-0.078 0.153-0.2 0.413-0.27 0.579-0.07 0.165-0.176 0.44-0.234 0.611-0.059 0.171-0.15 0.487-0.202 0.699-0.052 0.213-0.115 0.522-0.142 0.688-0.026 0.165-0.062 0.425-0.078 0.578-0.017 0.152-0.03 0.53-0.03 0.842 0 0.311 0.013 0.691 0.03 0.843 0.016 0.152 0.051 0.413 0.078 0.578 0.027 0.166 0.084 0.452 0.129 0.637 0.044 0.186 0.135 0.501 0.201 0.699 0.066 0.199 0.178 0.497 0.248 0.663 0.07 0.165 0.192 0.424 0.27 0.576s0.216 0.402 0.308 0.554c0.092 0.153 0.237 0.373 0.32 0.491 0.084 0.117 0.243 0.328 0.354 0.468s0.349 0.407 0.527 0.592c0.179 0.185 0.468 0.455 0.643 0.604 0.175 0.148 0.436 0.353 0.578 0.453 0.143 0.1 0.363 0.246 0.49 0.326 0.128 0.08 0.378 0.222 0.555 0.314 0.177 0.093 0.451 0.224 0.607 0.291 0.157 0.068 0.443 0.175 0.637 0.241 0.195 0.065 0.484 0.153 0.643 0.193 0.158 0.04 0.441 0.099 0.627 0.131 0.185 0.032 0.451 0.075 0.589 0.092 0.154 0.019 0.525 0.029 0.95 0.029 0.428 0 0.796-0.012 0.951-0.031 0.139-0.018 0.384-0.052 0.543-0.078 0.159-0.027 0.424-0.082 0.59-0.122 0.165-0.04 0.473-0.13 0.685-0.201 0.212-0.07 0.515-0.183 0.674-0.252 0.159-0.068 0.429-0.197 0.602-0.287 0.172-0.089 0.432-0.236 0.578-0.328 0.145-0.091 0.358-0.231 0.47-0.31 0.113-0.08 0.311-0.234 0.444-0.34 0.132-0.106 0.387-0.334 0.564-0.506 0.178-0.172 0.42-0.427 0.539-0.565s0.307-0.372 0.418-0.521c0.112-0.15 0.277-0.388 0.367-0.531 0.091-0.143 0.232-0.382 0.313-0.53 0.081-0.147 0.211-0.413 0.289-0.589 0.078-0.177 0.181-0.429 0.231-0.561 0.049-0.132 0.136-0.403 0.193-0.603s0.138-0.53 0.178-0.735c0.039-0.205 0.09-0.536 0.113-0.734 0.029-0.249 0.043-0.545 0.043-0.951 0-0.407-0.014-0.702-0.043-0.952-0.023-0.198-0.074-0.525-0.113-0.726-0.039-0.202-0.113-0.517-0.164-0.699-0.052-0.183-0.121-0.408-0.153-0.5-0.032-0.093-0.11-0.293-0.172-0.444s-0.182-0.415-0.267-0.588c-0.086-0.172-0.24-0.453-0.342-0.623-0.102-0.169-0.284-0.442-0.404-0.607s-0.318-0.419-0.442-0.565c-0.123-0.145-0.372-0.409-0.553-0.585-0.18-0.177-0.468-0.433-0.638-0.569s-0.436-0.332-0.59-0.435-0.377-0.244-0.494-0.313-0.331-0.183-0.473-0.254-0.387-0.184-0.545-0.25c-0.157-0.066-0.41-0.162-0.562-0.215-0.152-0.052-0.428-0.134-0.614-0.181-0.185-0.048-0.453-0.108-0.595-0.135s-0.392-0.067-0.555-0.088c-0.195-0.026-0.52-0.042-0.957-0.047zm19.671 0c-0.37-0.003-0.71-0.003-0.76 0.002s-0.24 0.027-0.41 0.047c-0.17 0.021-0.48 0.071-0.68 0.111-0.21 0.041-0.54 0.123-0.74 0.182-0.19 0.059-0.49 0.157-0.65 0.217s-0.44 0.181-0.62 0.269c-0.19 0.089-0.46 0.231-0.61 0.315-0.14 0.084-0.38 0.229-0.52 0.322-0.13 0.093-0.33 0.234-0.44 0.314-0.11 0.081-0.32 0.255-0.47 0.389s-0.4 0.376-0.56 0.537c-0.15 0.161-0.37 0.409-0.49 0.551-0.11 0.143-0.27 0.357-0.36 0.477-0.08 0.119-0.23 0.352-0.33 0.517-0.1 0.166-0.24 0.414-0.31 0.553s-0.18 0.377-0.25 0.529c-0.06 0.152-0.15 0.378-0.2 0.5-0.04 0.123-0.11 0.356-0.16 0.518s-0.12 0.48-0.17 0.705c-0.04 0.225-0.1 0.571-0.12 0.769-0.03 0.244-0.04 0.554-0.04 0.952 0 0.397 0.01 0.707 0.04 0.951 0.02 0.198 0.08 0.546 0.12 0.771 0.05 0.225 0.12 0.541 0.17 0.703s0.12 0.395 0.16 0.518c0.05 0.123 0.14 0.348 0.2 0.5 0.07 0.152 0.18 0.39 0.25 0.529s0.21 0.389 0.31 0.555c0.1 0.165 0.25 0.396 0.33 0.514 0.08 0.117 0.24 0.329 0.35 0.468 0.11 0.14 0.35 0.403 0.53 0.586 0.17 0.183 0.45 0.445 0.61 0.58 0.16 0.136 0.41 0.339 0.57 0.452 0.16 0.112 0.4 0.272 0.53 0.355s0.39 0.227 0.56 0.318c0.18 0.092 0.45 0.222 0.6 0.289 0.16 0.068 0.45 0.175 0.64 0.241 0.2 0.065 0.51 0.157 0.69 0.203 0.19 0.045 0.47 0.103 0.63 0.131 0.16 0.027 0.4 0.063 0.54 0.08 0.15 0.019 0.53 0.031 0.95 0.031 0.43 0 0.8-0.012 0.95-0.031 0.14-0.018 0.38-0.052 0.54-0.078 0.16-0.027 0.43-0.082 0.59-0.122 0.17-0.04 0.48-0.13 0.69-0.201 0.21-0.07 0.51-0.183 0.67-0.252 0.16-0.068 0.43-0.197 0.61-0.287 0.17-0.089 0.43-0.236 0.57-0.328 0.15-0.091 0.36-0.233 0.47-0.312 0.12-0.08 0.31-0.232 0.45-0.338 0.13-0.106 0.38-0.334 0.56-0.506s0.42-0.427 0.54-0.565 0.31-0.37 0.41-0.517c0.11-0.147 0.27-0.362 0.34-0.481 0.08-0.118 0.21-0.34 0.3-0.492 0.08-0.152 0.21-0.413 0.29-0.58s0.2-0.451 0.26-0.629c0.07-0.178 0.17-0.479 0.22-0.668s0.13-0.507 0.17-0.709c0.04-0.201 0.09-0.53 0.11-0.728 0.03-0.254 0.05-0.54 0.04-0.963 0-0.402-0.01-0.714-0.04-0.94-0.02-0.185-0.06-0.461-0.09-0.613-0.02-0.152-0.08-0.423-0.13-0.601-0.04-0.179-0.13-0.467-0.19-0.639-0.05-0.172-0.16-0.448-0.23-0.613-0.07-0.166-0.19-0.416-0.26-0.555s-0.21-0.39-0.31-0.557-0.25-0.397-0.33-0.513-0.24-0.327-0.35-0.467c-0.11-0.141-0.4-0.453-0.64-0.692s-0.54-0.522-0.68-0.63c-0.14-0.109-0.33-0.26-0.44-0.336s-0.32-0.218-0.48-0.315c-0.15-0.096-0.48-0.278-0.73-0.402-0.26-0.124-0.61-0.28-0.79-0.348-0.18-0.067-0.48-0.164-0.66-0.217-0.19-0.052-0.5-0.128-0.7-0.168-0.19-0.039-0.49-0.089-0.66-0.111-0.2-0.026-0.52-0.042-0.96-0.047zm-19.657 3.395c0.198 0.005 0.486 0.027 0.638 0.049 0.152 0.021 0.422 0.075 0.6 0.121 0.178 0.045 0.449 0.134 0.602 0.195 0.152 0.061 0.354 0.149 0.447 0.195 0.093 0.047 0.266 0.143 0.385 0.215s0.319 0.209 0.445 0.303c0.125 0.094 0.341 0.279 0.478 0.412 0.138 0.133 0.334 0.339 0.434 0.459 0.1 0.119 0.254 0.327 0.342 0.461 0.089 0.134 0.228 0.377 0.31 0.539 0.083 0.161 0.193 0.407 0.245 0.545 0.051 0.138 0.127 0.378 0.166 0.533s0.088 0.386 0.109 0.512c0.021 0.125 0.044 0.424 0.051 0.664 0.008 0.266 0.003 0.542-0.014 0.711-0.016 0.151-0.056 0.408-0.09 0.574-0.034 0.165-0.104 0.431-0.156 0.59s-0.174 0.452-0.272 0.65c-0.097 0.199-0.252 0.474-0.343 0.614-0.092 0.138-0.249 0.351-0.348 0.47-0.1 0.119-0.301 0.33-0.445 0.469-0.145 0.139-0.348 0.317-0.451 0.394-0.104 0.078-0.293 0.207-0.42 0.288-0.128 0.08-0.354 0.203-0.502 0.273s-0.359 0.161-0.467 0.201c-0.109 0.04-0.29 0.099-0.404 0.131-0.115 0.032-0.322 0.081-0.461 0.107-0.139 0.027-0.395 0.061-0.567 0.077-0.183 0.017-0.447 0.022-0.635 0.013-0.176-0.008-0.437-0.032-0.578-0.052-0.141-0.021-0.383-0.069-0.539-0.108-0.155-0.039-0.388-0.109-0.517-0.156-0.13-0.048-0.375-0.157-0.547-0.24-0.172-0.084-0.439-0.235-0.59-0.336s-0.362-0.258-0.469-0.348c-0.106-0.09-0.294-0.266-0.416-0.391-0.122-0.124-0.291-0.313-0.375-0.419-0.084-0.108-0.202-0.274-0.265-0.37-0.063-0.095-0.167-0.267-0.229-0.382s-0.156-0.302-0.207-0.414c-0.051-0.113-0.134-0.333-0.186-0.489-0.051-0.156-0.119-0.416-0.152-0.578-0.032-0.162-0.07-0.399-0.084-0.527-0.014-0.129-0.025-0.388-0.025-0.574 0-0.187 0.011-0.444 0.025-0.573 0.014-0.128 0.052-0.366 0.084-0.527s0.102-0.428 0.156-0.594c0.055-0.166 0.179-0.462 0.276-0.658 0.096-0.196 0.25-0.47 0.342-0.609 0.092-0.14 0.25-0.35 0.349-0.469 0.1-0.119 0.294-0.326 0.432-0.459s0.353-0.32 0.478-0.414c0.126-0.094 0.326-0.231 0.446-0.303 0.119-0.072 0.285-0.165 0.369-0.207 0.083-0.042 0.271-0.124 0.416-0.184 0.145-0.059 0.396-0.145 0.558-0.189s0.405-0.099 0.539-0.121c0.135-0.023 0.341-0.051 0.458-0.063 0.116-0.011 0.375-0.015 0.574-0.009v-0.002zm19.667 0.002c0.2 0.005 0.49 0.025 0.64 0.047 0.15 0.021 0.42 0.077 0.6 0.123 0.18 0.045 0.45 0.132 0.6 0.193 0.16 0.061 0.36 0.149 0.45 0.195 0.09 0.047 0.27 0.143 0.38 0.215 0.12 0.072 0.32 0.209 0.45 0.303s0.34 0.281 0.48 0.414 0.33 0.34 0.43 0.459 0.26 0.329 0.35 0.469c0.09 0.139 0.25 0.414 0.34 0.613 0.1 0.199 0.22 0.491 0.27 0.65 0.06 0.159 0.13 0.425 0.16 0.59 0.03 0.166 0.07 0.407 0.09 0.535 0.01 0.129 0.02 0.386 0.02 0.573 0 0.186-0.01 0.445-0.02 0.574-0.02 0.128-0.05 0.364-0.09 0.525-0.03 0.161-0.1 0.432-0.16 0.6-0.05 0.168-0.18 0.475-0.28 0.681-0.11 0.207-0.25 0.468-0.33 0.581-0.07 0.112-0.21 0.302-0.31 0.421-0.1 0.12-0.27 0.313-0.39 0.43-0.12 0.118-0.29 0.28-0.39 0.359-0.09 0.08-0.29 0.226-0.44 0.325s-0.41 0.249-0.58 0.334c-0.18 0.084-0.43 0.191-0.56 0.238s-0.36 0.118-0.51 0.156c-0.16 0.039-0.41 0.09-0.56 0.113-0.19 0.03-0.42 0.041-0.76 0.041s-0.56-0.012-0.76-0.042c-0.15-0.024-0.35-0.062-0.45-0.086s-0.27-0.068-0.36-0.098c-0.1-0.03-0.29-0.096-0.43-0.149-0.13-0.052-0.35-0.155-0.49-0.228s-0.36-0.201-0.48-0.285c-0.13-0.084-0.31-0.213-0.4-0.287s-0.27-0.241-0.41-0.369c-0.13-0.129-0.31-0.332-0.41-0.452-0.09-0.119-0.23-0.309-0.31-0.421-0.07-0.113-0.22-0.374-0.32-0.581-0.11-0.206-0.24-0.513-0.29-0.681-0.06-0.168-0.13-0.439-0.16-0.6s-0.07-0.397-0.08-0.525c-0.02-0.129-0.03-0.388-0.03-0.574 0-0.187 0.01-0.444 0.03-0.573 0.01-0.128 0.05-0.369 0.08-0.535 0.04-0.165 0.11-0.431 0.16-0.59s0.17-0.451 0.27-0.65 0.25-0.474 0.35-0.613c0.09-0.14 0.24-0.35 0.34-0.469s0.3-0.326 0.43-0.459c0.14-0.133 0.36-0.318 0.48-0.412 0.13-0.094 0.33-0.23 0.45-0.303 0.12-0.072 0.28-0.167 0.37-0.209 0.08-0.042 0.27-0.124 0.41-0.184 0.15-0.059 0.4-0.145 0.56-0.189s0.41-0.099 0.54-0.121c0.14-0.023 0.34-0.051 0.46-0.063 0.12-0.011 0.37-0.015 0.57-0.009zm-19.798 3.238c-0.167 0.001-0.373 0.019-0.457 0.037-0.084 0.019-0.24 0.07-0.348 0.113-0.108 0.044-0.274 0.131-0.369 0.194-0.095 0.062-0.242 0.184-0.33 0.271s-0.201 0.218-0.252 0.293-0.127 0.205-0.168 0.287c-0.041 0.083-0.105 0.245-0.141 0.362l-0.064 0.211v0.746l0.064 0.213c0.036 0.116 0.098 0.279 0.139 0.361 0.042 0.082 0.11 0.198 0.15 0.258 0.041 0.059 0.122 0.163 0.18 0.232 0.059 0.069 0.183 0.186 0.278 0.258 0.094 0.072 0.232 0.163 0.304 0.203 0.073 0.04 0.231 0.107 0.35 0.146 0.119 0.04 0.315 0.083 0.437 0.096 0.148 0.016 0.299 0.016 0.457 0 0.14-0.014 0.325-0.053 0.453-0.096 0.12-0.039 0.284-0.11 0.366-0.156 0.082-0.045 0.225-0.143 0.318-0.217 0.093-0.073 0.235-0.219 0.316-0.32s0.196-0.281 0.254-0.4c0.059-0.119 0.129-0.303 0.157-0.408 0.027-0.106 0.055-0.302 0.062-0.434 0.01-0.17 0.002-0.307-0.025-0.465-0.022-0.123-0.072-0.308-0.112-0.41-0.039-0.102-0.112-0.255-0.162-0.34s-0.17-0.24-0.269-0.346c-0.099-0.105-0.24-0.234-0.311-0.287-0.071-0.052-0.214-0.139-0.318-0.191s-0.294-0.122-0.422-0.154c-0.19-0.049-0.288-0.059-0.537-0.057zm19.668 0c-0.16 0.001-0.37 0.019-0.45 0.037-0.09 0.019-0.25 0.07-0.35 0.113-0.11 0.044-0.28 0.13-0.37 0.192s-0.24 0.18-0.32 0.261c-0.08 0.082-0.2 0.215-0.26 0.297s-0.14 0.23-0.19 0.328c-0.04 0.098-0.11 0.266-0.13 0.372-0.05 0.159-0.06 0.254-0.06 0.552 0 0.322 0.01 0.386 0.07 0.575 0.03 0.116 0.1 0.279 0.14 0.361s0.11 0.198 0.15 0.258c0.04 0.059 0.11 0.155 0.15 0.213 0.05 0.057 0.17 0.166 0.27 0.244 0.09 0.077 0.24 0.18 0.32 0.226s0.25 0.117 0.37 0.156c0.12 0.043 0.31 0.081 0.44 0.094 0.15 0.015 0.31 0.015 0.46 0 0.13-0.013 0.32-0.051 0.45-0.094 0.11-0.039 0.28-0.11 0.36-0.156 0.08-0.045 0.23-0.143 0.32-0.217 0.09-0.073 0.23-0.219 0.32-0.32 0.08-0.101 0.19-0.281 0.25-0.4s0.13-0.303 0.16-0.408c0.04-0.157 0.05-0.26 0.05-0.543 0-0.281-0.01-0.385-0.05-0.534-0.03-0.101-0.09-0.27-0.14-0.371-0.04-0.101-0.13-0.25-0.19-0.332-0.06-0.081-0.17-0.214-0.26-0.297-0.08-0.082-0.2-0.184-0.26-0.226-0.06-0.043-0.19-0.121-0.29-0.172s-0.29-0.12-0.42-0.152c-0.19-0.049-0.29-0.059-0.54-0.057zm-9.822 6.908c-0.007 0-0.593 0.88-1.301 1.955-0.709 1.075-1.286 1.967-1.281 1.981 0.004 0.013 0.584 1.365 1.289 3.004 0.704 1.638 1.286 2.978 1.293 2.978 0.006 0 0.592-1.344 1.292-2.988 1.05-2.425 1.29-3 1.27-3.043-0.01-0.029-0.59-0.917-1.29-1.971-0.69-1.054-1.265-1.916-1.272-1.916z"
     id="outline" /><g
     style="opacity:0"
     id="logo-fade"><defs
       id="defs33113" /><linearGradient
       spreadMethod="pad"
       y2="0.30000001"
       x2="-0.1"
       y1="1.2"
       x1="0.30000001"
       id="3d_gradient2-logo-A103E6AA903645ACB4571E84BA60F4F0"><stop
         id="stop33090"
         stop-opacity="1"
         stop-color="#ffffff"
         offset="0%" /><stop
         id="stop33092"
         stop-opacity="1"
         stop-color="#000000"
         offset="100%" /></linearGradient><linearGradient
       gradientTransform="rotate(-30)"
       spreadMethod="pad"
       y2="0.30000001"
       x2="-0.1"
       y1="1.2"
       x1="0.30000001"
       id="3d_gradient3-logo-A103E6AA903645ACB4571E84BA60F4F0"><stop
         id="stop33095"
         stop-opacity="1"
         stop-color="#ffffff"
         offset="0%" /><stop
         id="stop33097"
         stop-opacity="1"
         stop-color="#cccccc"
         offset="50%" /><stop
         id="stop33099"
         stop-opacity="1"
         stop-color="#000000"
         offset="100%" /></linearGradient><path
       style="fill:#452927;stroke-width:0.66619241"
       d="m 100.04628,40.001749 c -0.11458,-0.0059 -0.239824,0.0037 -0.280462,0.02152 -0.0413,0.01779 -11.641713,6.711222 -25.780315,14.873412 -14.138602,8.162856 -25.753667,14.886736 -25.810959,14.941364 -0.05779,0.05482 -0.132972,0.149273 -0.166682,0.21039 l -0.06149,0.111121 -0.01111,29.632239 c -0.0059,16.297725 -3.71e-4,29.736825 0.01259,29.864735 0.01815,0.18298 0.04853,0.26595 0.141865,0.38893 0.105192,0.13852 3.031376,1.83829 25.731017,14.94736 14.086639,8.13487 25.711697,14.83943 25.834276,14.89939 0.122233,0.0596 0.280767,0.10816 0.35188,0.10779 0.0715,-3.7e-4 0.19632,-0.0315 0.27781,-0.0685 0.0815,-0.0374 11.67435,-6.72255 25.76166,-14.8561 14.0873,-8.13354 25.66573,-14.82811 25.73035,-14.87674 0.0641,-0.0485 0.15593,-0.15075 0.20372,-0.2278 l 0.0867,-0.13964 V 70.156349 l -0.0644,-0.118156 c -0.0356,-0.06482 -0.12742,-0.170385 -0.20372,-0.234093 -0.0767,-0.06371 -11.70634,-6.79383 -25.84494,-14.955354 L 100.24566,40.008644 Z"
       id="icon_container" /><path
       style="fill:#ec842f;stroke-width:0.43302509"
       d="m 99.681157,57.735166 c -0.21187,0.0019 -0.578305,0.01156 -0.81426,0.02143 -0.235947,0.0096 -0.577093,0.03034 -0.7584,0.04575 -0.181005,0.01541 -0.518764,0.0491 -0.750433,0.07509 -0.231668,0.02602 -0.600173,0.07465 -0.818417,0.107867 -0.218678,0.03347 -0.640877,0.109555 -0.939232,0.169009 -0.297921,0.05972 -0.774248,0.168057 -1.059179,0.241022 -0.284497,0.07297 -0.674653,0.180312 -0.866916,0.238857 -0.19183,0.05824 -0.506207,0.159613 -0.698037,0.225346 -0.19183,0.06573 -0.479358,0.168057 -0.638279,0.227252 -0.158902,0.05947 -0.418925,0.161791 -0.577828,0.22752 -0.158903,0.06573 -0.42976,0.182017 -0.601905,0.258338 -0.172145,0.07632 -0.527511,0.246058 -0.789708,0.377273 -0.262188,0.130973 -0.635854,0.326475 -0.830629,0.434108 -0.194536,0.107862 -0.5056,0.287953 -0.690978,0.400388 -0.185386,0.112435 -0.526558,0.330567 -0.7584,0.484641 -0.231612,0.154088 -0.573239,0.390515 -0.758876,0.525823 -0.185387,0.135069 -0.490445,0.367404 -0.677511,0.516426 -0.187314,0.149029 -0.479619,0.390276 -0.649581,0.535955 -0.16998,0.145661 -0.460826,0.406887 -0.646463,0.580253 -0.185387,0.173591 -0.521493,0.504388 -0.746622,0.73506 -0.225113,0.230409 -0.532794,0.559772 -0.68353,0.731683 -0.150957,0.171902 -0.389792,0.453334 -0.530629,0.625505 -0.141089,0.172144 -0.354644,0.442984 -0.474553,0.601904 -0.1199,0.158903 -0.288191,0.386423 -0.373904,0.505601 -0.08571,0.119177 -0.264357,0.3792 -0.397014,0.577828 -0.132662,0.198629 -0.349348,0.539809 -0.481784,0.7584 -0.132177,0.218371 -0.351755,0.601169 -0.488019,0.850591 -0.136273,0.249432 -0.342605,0.650318 -0.458401,0.89082 -0.115808,0.240519 -0.276633,0.589607 -0.357289,0.775244 -0.08041,0.185868 -0.217647,0.52028 -0.304806,0.743245 -0.08692,0.222947 -0.228966,0.61273 -0.315398,0.866007 -0.08643,0.25328 -0.21524,0.661359 -0.286507,0.906971 -0.07102,0.245334 -0.173349,0.62624 -0.227277,0.846261 -0.05417,0.220054 -0.146623,0.642349 -0.205852,0.938235 -0.05923,0.295895 -0.140365,0.765372 -0.180091,1.04346 -0.03973,0.278081 -0.0886,0.668115 -0.108823,0.866743 -0.02022,0.198629 -0.04984,0.496464 -0.06573,0.662096 -0.02215,0.231612 -0.03058,7.636397 -0.03611,32.149512 -0.0041,17.51673 0.0014,31.8832 0.01228,31.92521 l 0.0195,0.0763 0.347658,0.007 c 0.20489,0.004 0.481048,-0.008 0.672705,-0.0303 0.178887,-0.0205 0.455022,-0.0592 0.613943,-0.0857 0.158902,-0.0267 0.440603,-0.0859 0.625981,-0.13145 0.185386,-0.0457 0.46706,-0.12255 0.625981,-0.1707 0.158903,-0.0484 0.45433,-0.15241 0.656552,-0.23137 0.20224,-0.079 0.630312,-0.27592 0.95101,-0.43749 0.320937,-0.16179 0.745886,-0.39436 0.944514,-0.51716 0.198629,-0.12303 0.487803,-0.31227 0.642609,-0.42061 0.154811,-0.10835 0.458184,-0.3349 0.674134,-0.50318 0.215963,-0.16829 0.495727,-0.39388 0.621391,-0.50127 0.125677,-0.10762 0.410257,-0.36475 0.632,-0.57155 0.221744,-0.20705 0.591296,-0.57735 0.821232,-0.82292 0.23017,-0.24558 0.511879,-0.55401 0.626457,-0.68522 0.114605,-0.13145 0.320214,-0.3751 0.457188,-0.54171 0.136754,-0.16685 0.36259,-0.44948 0.501747,-0.62815 0.139161,-0.17889 0.384015,-0.50512 0.543879,-0.7254 0.159864,-0.2203 0.446839,-0.632 0.637759,-0.9149 0.190925,-0.28289 0.472864,-0.71674 0.626718,-0.96378 0.153607,-0.24726 0.419648,-0.69146 0.590819,-0.98713 0.171422,-0.29589 0.443504,-0.78174 0.604546,-1.07957 0.161068,-0.29806 0.475245,-0.91009 0.69795,-1.36031 0.222947,-0.45021 0.529676,-1.09499 0.682058,-1.43253 0.152161,-0.33779 0.371254,-0.83617 0.48659,-1.1075 0.115085,-0.27158 0.305045,-0.73216 0.421814,-1.02372 0.117012,-0.29156 0.274226,-0.69245 0.349348,-0.89082 0.07536,-0.19839 0.250392,-0.67487 0.389073,-1.05887 0.138918,-0.38402 0.358977,-1.01796 0.489448,-1.40846 0.130254,-0.39076 0.307214,-0.93776 0.392922,-1.21585 0.08595,-0.27808 0.228001,-0.74948 0.316122,-1.04731 0.08788,-0.29807 0.251839,-0.87757 0.364273,-1.28808 0.112435,-0.4105 0.317083,-1.19731 0.454807,-1.74843 0.137477,-0.55111 0.331528,-1.36922 0.431206,-1.81775 0.09967,-0.44853 0.262431,-1.22212 0.361624,-1.71854 0.09943,-0.49668 0.235704,-1.20524 0.303117,-1.57483 0.06717,-0.36957 0.186348,-1.06295 0.264596,-1.54088 0.078,-0.47793 0.190925,-1.20476 0.250392,-1.61527 0.05971,-0.4105 0.152161,-1.08221 0.205852,-1.49272 0.05345,-0.4105 0.140365,-1.12556 0.19309,-1.58903 0.05272,-0.46347 0.128327,-1.17324 0.168291,-1.57699 0.03973,-0.404 0.0939,-0.98903 0.1199,-1.30012 0.02624,-0.3113 0.06982,-0.87471 0.09679,-1.25196 0.02696,-0.37751 0.07054,-1.03839 0.09678,-1.46865 0.02624,-0.430476 0.06693,-1.264729 0.09029,-1.853859 0.03732,-0.936071 0.04502,-1.041036 0.06212,-0.830629 0.01083,0.132419 0.02096,1.280845 0.02265,2.552075 0.0017,1.371863 -0.0087,2.653923 -0.02577,3.153983 -0.01589,0.46346 -0.03997,1.09187 -0.05369,1.39642 -0.01349,0.30456 -0.04623,0.93823 -0.07247,1.40845 -0.02624,0.46997 -0.0691,1.15254 -0.09534,1.5168 -0.02624,0.36404 -0.06958,0.92213 -0.09631,1.23993 -0.02673,0.3178 -0.08138,0.91368 -0.121342,1.32419 -0.03997,0.4105 -0.116289,1.12002 -0.169495,1.57699 -0.05297,0.45671 -0.139642,1.15037 -0.192367,1.54088 -0.05272,0.39051 -0.139161,1.00275 -0.192129,1.3603 -0.05321,0.35753 -0.145418,0.94235 -0.205128,1.29986 -0.05971,0.35729 -0.157218,0.91515 -0.216686,1.23992 -0.05971,0.32455 -0.173348,0.91515 -0.2528,1.31241 -0.07945,0.39726 -0.215001,1.04177 -0.301433,1.43254 -0.08643,0.39051 -0.254004,1.1056 -0.3727,1.58902 -0.118454,0.48322 -0.265081,1.06295 -0.325509,1.28808 -0.06043,0.22511 -0.174795,0.63681 -0.254004,0.9149 -0.07921,0.27808 -0.223909,0.77091 -0.32166,1.09546 -0.09751,0.32431 -0.243893,0.79573 -0.325029,1.04732 -0.0809,0.25159 -0.227039,0.69024 -0.324305,0.97508 -0.09751,0.28458 -0.241723,0.69631 -0.320937,0.9149 -0.07897,0.21861 -0.203924,0.55592 -0.277357,0.74974 -0.07367,0.19405 -0.230888,0.59493 -0.349347,0.89082 -0.118696,0.29613 -0.298787,0.73337 -0.400626,0.97171 -0.101601,0.23835 -0.299991,0.68786 -0.44082,0.99916 -0.140845,0.31106 -0.436965,0.92862 -0.658241,1.37234 -0.22102,0.44351 -0.517898,1.0177 -0.65967,1.27604 -0.141569,0.2581 -0.371497,0.664 -0.510407,0.9019 -0.139161,0.23764 -0.361624,0.60598 -0.494515,0.81859 -0.132661,0.21236 -0.379442,0.59325 -0.548209,0.84605 -0.168776,0.25304 -0.407369,0.59974 -0.529936,0.77044 -0.122547,0.17094 -0.366682,0.50005 -0.542451,0.7319 -0.175756,0.23161 -0.445669,0.57302 -0.59974,0.7584 -0.153845,0.18538 -0.428075,0.50464 -0.609353,0.70977 -0.181294,0.20488 -0.540761,0.58432 -0.799104,0.8434 -0.258096,0.25906 -0.656076,0.63538 -0.884064,0.83617 -0.228001,0.20104 -0.53929,0.46516 -0.691931,0.58744 -0.152403,0.12207 -0.273022,0.22632 -0.267726,0.23138 0.0053,0.005 0.181052,-0.0352 0.390995,-0.0896 0.209706,-0.0544 0.565531,-0.15337 0.790661,-0.21958 0.225112,-0.0665 0.560984,-0.16974 0.746362,-0.22969 0.185387,-0.06 0.537601,-0.17985 0.782476,-0.26604 0.245097,-0.0864 0.61875,-0.22511 0.830629,-0.30818 0.21187,-0.0831 0.520756,-0.20753 0.686171,-0.27687 0.165646,-0.0691 0.538814,-0.23402 0.829677,-0.36644 0.290841,-0.13242 0.702539,-0.32768 0.914895,-0.43411 0.212351,-0.10641 0.597575,-0.30697 0.855657,-0.44588 0.258339,-0.13892 0.675346,-0.37198 0.926934,-0.51812 0.251596,-0.14614 0.614679,-0.36331 0.806552,-0.48273 0.192129,-0.11942 0.517162,-0.32696 0.722286,-0.46105 0.205371,-0.13434 0.573715,-0.38281 0.818591,-0.5528 0.245096,-0.16973 0.694832,-0.49546 0.999638,-0.72371 0.305045,-0.22801 0.771651,-0.58892 1.036706,-0.80175 0.265318,-0.21283 0.693143,-0.56748 0.950533,-0.78802 0.257373,-0.22054 0.679416,-0.59203 0.937536,-0.82508 0.25834,-0.23306 0.90914,-0.86337 1.44648,-1.40028 0.53764,-0.5369 1.16046,-1.17709 1.38438,-1.4224 0.22415,-0.24557 0.56869,-0.63005 0.76563,-0.8547 0.19719,-0.22487 0.53929,-0.62525 0.76031,-0.89008 0.22101,-0.26484 0.57878,-0.70376 0.79499,-0.97509 0.2162,-0.27158 0.61637,-0.79161 0.88939,-1.15566 0.27278,-0.36427 0.62693,-0.84626 0.78681,-1.07139 0.1601,-0.22511 0.38835,-0.55016 0.50729,-0.72228 0.11893,-0.17215 0.34645,-0.50803 0.5056,-0.74637 0.15914,-0.23835 0.40086,-0.60671 0.53712,-0.81859 0.13627,-0.21187 0.38546,-0.60744 0.55375,-0.87878 0.16829,-0.27158 0.4471,-0.7319 0.61949,-1.02324 0.17238,-0.29132 0.40014,-0.68136 0.50607,-0.86674 0.10594,-0.18539 0.33876,-0.60264 0.51717,-0.92693 0.1784,-0.32455 0.44709,-0.82292 0.59683,-1.10751 0.15,-0.28482 0.47408,-0.92403 0.72039,-1.42049 0.2463,-0.49668 0.57661,-1.179 0.73406,-1.5168 0.15721,-0.33779 0.39894,-0.86865 0.53712,-1.17974 0.1382,-0.3113 0.352,-0.80412 0.47529,-1.09546 0.12351,-0.29133 0.30167,-0.71722 0.39581,-0.94621 0.0944,-0.2292 0.28097,-0.69509 0.41484,-1.03527 0.13362,-0.34044 0.36017,-0.93296 0.50296,-1.31696 0.14301,-0.38402 0.36258,-0.99072 0.48801,-1.34827 0.12544,-0.35753 0.36934,-1.07814 0.54198,-1.60107 0.17262,-0.52318 0.41315,-1.27603 0.53426,-1.67329 0.12111,-0.39726 0.32672,-1.0962 0.45698,-1.55292 0.13025,-0.45697 0.30841,-1.09836 0.39605,-1.42556 0.0874,-0.32719 0.27278,-1.05307 0.4117,-1.6131 0.13916,-0.55999 0.35513,-1.478782 0.48031,-2.04141 0.1252,-0.562889 0.29325,-1.348267 0.37367,-1.745524 0.0807,-0.397257 0.20537,-1.036489 0.27736,-1.420496 0.0717,-0.384015 0.20127,-1.115429 0.28722,-1.625143 0.0862,-0.50993 0.19983,-1.214159 0.25232,-1.564952 0.0527,-0.35079 0.13411,-0.908877 0.18082,-1.239924 0.0465,-0.331048 0.12784,-0.948585 0.18081,-1.372344 0.0527,-0.423741 0.1288,-1.070438 0.16925,-1.436863 0.0402,-0.366682 0.10521,-1.000591 0.14446,-1.408458 0.0392,-0.408091 0.0985,-1.077886 0.13121,-1.488394 0.033,-0.410499 0.071,-0.908876 0.085,-1.107504 0.0137,-0.198629 0.0359,-0.534483 0.0491,-0.746363 0.0135,-0.21187 0.0349,-0.574927 0.0482,-0.806552 0.013,-0.231855 0.0397,-0.795251 0.0592,-1.251962 0.0198,-0.456972 0.0484,-1.318172 0.0638,-1.914058 0.0154,-0.595885 0.0216,-1.435651 0.014,-1.865905 -0.008,-0.430483 -0.0306,-0.972184 -0.0508,-1.203809 -0.0202,-0.231855 -0.0539,-0.567696 -0.0749,-0.746362 -0.021,-0.178887 -0.065,-0.509195 -0.0982,-0.734324 -0.033,-0.225113 -0.10738,-0.647633 -0.16517,-0.938972 -0.0578,-0.291322 -0.1601,-0.747791 -0.22703,-1.014578 -0.0669,-0.266765 -0.18659,-0.700115 -0.2658,-0.963047 -0.0792,-0.262912 -0.21356,-0.673181 -0.29855,-0.911518 -0.085,-0.238355 -0.21933,-0.595886 -0.29854,-0.794515 -0.079,-0.198628 -0.21789,-0.5292 -0.30818,-0.734324 -0.0905,-0.20537 -0.28097,-0.606235 -0.42326,-0.890819 -0.14205,-0.284822 -0.37751,-0.725403 -0.52292,-0.979199 -0.14542,-0.254004 -0.33779,-0.579042 -0.42711,-0.722286 -0.0896,-0.143496 -0.28241,-0.439651 -0.4288,-0.657982 -0.14638,-0.218613 -0.43,-0.615632 -0.63031,-0.882375 -0.20031,-0.266765 -0.49573,-0.642609 -0.65681,-0.835219 -0.16107,-0.192609 -0.39774,-0.467321 -0.52608,-0.610349 -0.12809,-0.143253 -0.4394,-0.469745 -0.69172,-0.72588 -0.25232,-0.256169 -0.6142,-0.607924 -0.80391,-0.781523 -0.18972,-0.173591 -0.52561,-0.466368 -0.74636,-0.650534 -0.22078,-0.184183 -0.60719,-0.488755 -0.85878,-0.676775 -0.25159,-0.188037 -0.57661,-0.423498 -0.72228,-0.523181 -0.14566,-0.09967 -0.44372,-0.294691 -0.6621,-0.433631 -0.21837,-0.138681 -0.55977,-0.345251 -0.7584,-0.45866 -0.19863,-0.113639 -0.50222,-0.280968 -0.67461,-0.371497 -0.17239,-0.09077 -0.51907,-0.264115 -0.77044,-0.385461 -0.25115,-0.129258 -0.63654,-0.303811 -0.85739,-0.396045 -0.21651,-0.09219 -0.56726,-0.232794 -0.77944,-0.312514 -0.21218,-0.07968 -0.55427,-0.20127 -0.7578,-0.269861 -0.20785,-0.06885 -0.61489,-0.193346 -0.90502,-0.276877 -0.29012,-0.08357 -0.71882,-0.19577 -0.95265,-0.249206 -0.22951,-0.05344 -0.58892,-0.129777 -0.79244,-0.169486 -0.20352,-0.03997 -0.55427,-0.100635 -0.77944,-0.13506 -0.22085,-0.03443 -0.58892,-0.08357 -0.81842,-0.109079 -0.22517,-0.02576 -0.54994,-0.05777 -0.71449,-0.07149 -0.16455,-0.01373 -0.54561,-0.03542 -0.84007,-0.04863 -0.29879,-0.01303 -0.71882,-0.02217 -0.928837,-0.02022 z M 90.038988,69.49223 c 0.437225,0.0043 0.76273,0.01998 0.957981,0.04599 0.162995,0.02143 0.412184,0.06115 0.553753,0.08812 0.141807,0.02721 0.409537,0.08788 0.594933,0.135307 0.185386,0.04719 0.461778,0.128808 0.613943,0.181052 0.152403,0.05224 0.405684,0.14903 0.563365,0.215002 0.157457,0.06597 0.402796,0.178406 0.545092,0.249911 0.142292,0.07127 0.354643,0.18611 0.471911,0.255208 0.11725,0.0691 0.339474,0.209944 0.493562,0.312748 0.154088,0.103047 0.419649,0.298545 0.589867,0.434324 0.170218,0.135788 0.457707,0.391719 0.638495,0.568432 0.180814,0.17696 0.42976,0.440603 0.553017,0.586013 0.123269,0.14518 0.32214,0.398942 0.442032,0.563885 0.120138,0.16468 0.301675,0.438655 0.403756,0.608401 0.102082,0.169737 0.255689,0.449999 0.341402,0.622603 0.08571,0.172625 0.206574,0.437485 0.268449,0.588438 0.06212,0.151199 0.138919,0.350551 0.170941,0.443244 0.03178,0.09269 0.100397,0.317806 0.152403,0.500317 0.05176,0.182256 0.1264,0.496464 0.165403,0.69821 0.039,0.201517 0.09004,0.52894 0.113158,0.727569 0.02889,0.249188 0.04189,0.544139 0.04189,0.95101 0,0.406887 -0.013,0.701803 -0.04189,0.951009 -0.02311,0.198629 -0.07464,0.528724 -0.114362,0.733371 -0.03972,0.204648 -0.119177,0.535696 -0.176479,0.735537 -0.0573,0.200075 -0.144457,0.471174 -0.193571,0.602857 -0.04911,0.131696 -0.153126,0.384258 -0.231374,0.560984 -0.07801,0.176718 -0.208259,0.442292 -0.289637,0.589867 -0.08114,0.147588 -0.221501,0.385462 -0.311787,0.528247 -0.09053,0.143011 -0.255208,0.382089 -0.366439,0.531582 -0.111231,0.149515 -0.299749,0.384738 -0.418926,0.522705 -0.119177,0.137957 -0.361866,0.391718 -0.539289,0.563885 -0.177441,0.172145 -0.430964,0.400145 -0.563149,0.506336 -0.132419,0.106416 -0.332732,0.258577 -0.444934,0.338271 -0.112435,0.07969 -0.323582,0.219574 -0.469226,0.310825 -0.145661,0.09149 -0.405683,0.239316 -0.577828,0.32864 -0.172145,0.08956 -0.442985,0.21837 -0.601905,0.286749 -0.158903,0.06814 -0.462254,0.181533 -0.674134,0.251839 -0.21187,0.07054 -0.520539,0.16083 -0.686171,0.201036 -0.165403,0.03997 -0.430964,0.09438 -0.589867,0.121104 -0.158903,0.02648 -0.402553,0.06236 -0.541714,0.07969 -0.155049,0.01926 -0.522705,0.0313 -0.95101,0.0313 -0.424464,0 -0.797416,-0.01228 -0.95101,-0.03106 -0.138918,-0.0171 -0.40448,-0.05754 -0.589866,-0.09004 -0.18563,-0.03226 -0.467321,-0.09173 -0.625981,-0.132177 -0.158903,-0.04045 -0.447835,-0.127123 -0.64235,-0.19261 -0.194294,-0.06549 -0.481264,-0.173829 -0.638019,-0.241004 -0.156495,-0.06717 -0.429518,-0.197905 -0.606711,-0.290361 -0.177203,-0.09269 -0.426392,-0.234019 -0.553753,-0.313951 -0.127361,-0.08017 -0.348143,-0.227521 -0.490661,-0.327437 -0.14253,-0.09992 -0.402553,-0.303117 -0.577828,-0.451688 -0.175276,-0.148311 -0.464896,-0.420615 -0.643779,-0.605283 -0.178644,-0.184663 -0.415556,-0.450476 -0.526298,-0.590603 -0.110751,-0.140122 -0.269896,-0.351031 -0.35392,-0.468533 -0.08379,-0.117492 -0.228001,-0.33827 -0.320214,-0.49066 -0.09221,-0.152161 -0.231374,-0.401592 -0.309379,-0.553753 -0.07801,-0.152161 -0.19959,-0.412426 -0.269653,-0.577829 -0.0703,-0.165645 -0.181775,-0.463466 -0.247743,-0.662095 -0.06597,-0.198629 -0.156014,-0.512832 -0.200313,-0.69821 -0.0443,-0.185386 -0.102323,-0.472603 -0.12905,-0.638019 -0.02696,-0.165645 -0.06212,-0.425668 -0.07849,-0.577828 -0.01637,-0.152404 -0.02961,-0.531582 -0.02961,-0.842667 0,-0.311306 0.01324,-0.690502 0.02961,-0.842667 0.01637,-0.152403 0.05152,-0.412426 0.07801,-0.577829 0.02673,-0.165645 0.09077,-0.474768 0.142773,-0.687384 0.05176,-0.212593 0.14253,-0.526775 0.201279,-0.698209 0.05874,-0.171422 0.164198,-0.447315 0.234019,-0.612731 0.07006,-0.165645 0.191164,-0.425668 0.269173,-0.577828 0.078,-0.152404 0.217167,-0.401592 0.309379,-0.553753 0.09221,-0.152403 0.236428,-0.373181 0.320214,-0.490661 0.08402,-0.117492 0.243169,-0.328397 0.35392,-0.468273 0.11075,-0.140123 0.342124,-0.400388 0.51426,-0.578565 0.172145,-0.177921 0.428799,-0.423983 0.570597,-0.546781 0.141569,-0.122546 0.342125,-0.286987 0.44541,-0.365477 0.103285,-0.07825 0.301676,-0.21837 0.440603,-0.311544 0.139161,-0.09294 0.371977,-0.237631 0.517638,-0.32166 0.145661,-0.08379 0.416518,-0.22487 0.601905,-0.313471 0.185387,-0.0886 0.468273,-0.210667 0.628623,-0.271338 0.160349,-0.06067 0.436489,-0.154088 0.613943,-0.207778 0.177202,-0.05369 0.506552,-0.134827 0.731682,-0.180329 0.225112,-0.0455 0.550158,-0.09944 0.722286,-0.119901 0.172145,-0.02046 0.356328,-0.04165 0.409295,-0.04695 0.05297,-0.0051 0.394369,-0.0065 0.7584,-0.0026 z m 19.670162,0 c 0.43844,0.0046 0.76368,0.02022 0.96305,0.04622 0.16564,0.02191 0.46347,0.07223 0.6621,0.111955 0.19862,0.03973 0.5104,0.115085 0.69314,0.167329 0.1825,0.05224 0.48031,0.150234 0.66209,0.217409 0.18154,0.06741 0.53596,0.224389 0.78755,0.348624 0.25159,0.124235 0.58263,0.305045 0.73553,0.401592 0.15313,0.09655 0.36668,0.237631 0.47455,0.313714 0.10811,0.07608 0.30794,0.227039 0.4442,0.33562 0.13627,0.108586 0.44277,0.393165 0.68137,0.63226 0.23835,0.239078 0.52387,0.549899 0.63464,0.690502 0.11051,0.140603 0.26893,0.350789 0.35175,0.466844 0.0828,0.116047 0.23258,0.347659 0.33274,0.514737 0.10015,0.166849 0.24028,0.417241 0.3113,0.556394 0.0713,0.138919 0.18683,0.388107 0.25689,0.553753 0.0703,0.165402 0.17504,0.441815 0.23282,0.613943 0.0578,0.172144 0.14229,0.459136 0.18804,0.638019 0.0457,0.178644 0.10569,0.449523 0.13314,0.601905 0.0274,0.15216 0.0677,0.428556 0.0896,0.613943 0.0265,0.225112 0.04,0.536647 0.0405,0.938971 4.3e-4,0.423018 -0.0118,0.709295 -0.0414,0.963048 -0.0231,0.198628 -0.0741,0.526082 -0.11316,0.727569 -0.039,0.201759 -0.11484,0.521232 -0.16829,0.710247 -0.0534,0.189241 -0.15168,0.489708 -0.21861,0.668115 -0.0667,0.178164 -0.18467,0.460825 -0.26195,0.627886 -0.0773,0.167087 -0.21018,0.428076 -0.29517,0.580254 -0.085,0.151922 -0.21717,0.373181 -0.2935,0.491397 -0.0761,0.118454 -0.22775,0.335382 -0.33682,0.482 -0.10907,0.146865 -0.29589,0.379681 -0.41507,0.517638 -0.11918,0.137957 -0.36187,0.391719 -0.53929,0.563885 -0.17745,0.172145 -0.43097,0.400146 -0.56315,0.506336 -0.13242,0.106416 -0.33273,0.258577 -0.44493,0.338271 -0.11244,0.07969 -0.32359,0.219574 -0.46923,0.310825 -0.14566,0.09149 -0.40568,0.239316 -0.57783,0.32864 -0.17214,0.08956 -0.44298,0.218371 -0.6019,0.28675 -0.15891,0.06814 -0.46226,0.181532 -0.67414,0.251838 -0.21187,0.07054 -0.52054,0.16083 -0.68617,0.201037 -0.1654,0.03997 -0.43096,0.09438 -0.58986,0.121104 -0.15891,0.02648 -0.40256,0.06235 -0.54172,0.07969 -0.15505,0.01926 -0.5227,0.0313 -0.95101,0.0313 -0.4247,0 -0.79715,-0.01228 -0.95101,-0.03106 -0.13892,-0.0171 -0.38281,-0.05345 -0.54171,-0.08041 -0.15891,-0.02721 -0.44061,-0.08667 -0.62598,-0.132176 -0.18539,-0.0455 -0.49599,-0.136273 -0.69051,-0.201998 -0.19429,-0.06549 -0.48126,-0.174071 -0.63802,-0.241242 -0.15649,-0.06717 -0.42807,-0.197183 -0.60359,-0.288915 -0.17527,-0.09149 -0.42759,-0.2345 -0.56072,-0.317563 -0.13315,-0.08306 -0.37054,-0.243169 -0.52751,-0.355847 -0.15722,-0.112435 -0.41556,-0.315879 -0.57446,-0.451905 -0.1589,-0.135788 -0.43337,-0.396534 -0.61008,-0.579258 -0.17672,-0.182979 -0.41195,-0.446838 -0.52271,-0.586489 -0.11075,-0.139642 -0.27013,-0.350308 -0.3544,-0.467797 -0.084,-0.117492 -0.23378,-0.349347 -0.33273,-0.514737 -0.0987,-0.165645 -0.23788,-0.414833 -0.3089,-0.553752 -0.0713,-0.139161 -0.18201,-0.377516 -0.24654,-0.529676 -0.0645,-0.152161 -0.15312,-0.377273 -0.19719,-0.499841 -0.0438,-0.122789 -0.11845,-0.355605 -0.16564,-0.517638 -0.0472,-0.162034 -0.12278,-0.478883 -0.16781,-0.703969 -0.0453,-0.225113 -0.1004,-0.57181 -0.12303,-0.770439 -0.0275,-0.243412 -0.0409,-0.553492 -0.0409,-0.951009 0,-0.3975 0.0135,-0.707606 0.0409,-0.95101 0.0226,-0.198628 0.0778,-0.545308 0.12303,-0.770438 0.045,-0.225113 0.12062,-0.541974 0.16781,-0.703969 0.0472,-0.162034 0.12183,-0.39485 0.16564,-0.517638 0.0441,-0.122546 0.13267,-0.347659 0.19719,-0.499841 0.0645,-0.152403 0.17528,-0.390758 0.24654,-0.529676 0.071,-0.139162 0.21019,-0.38835 0.3089,-0.553753 0.099,-0.165645 0.24943,-0.398461 0.3349,-0.517638 0.0852,-0.119177 0.24798,-0.333213 0.36162,-0.475765 0.1134,-0.142292 0.33322,-0.390515 0.48802,-0.551587 0.15505,-0.16083 0.40641,-0.402072 0.55856,-0.535955 0.15241,-0.133865 0.36355,-0.309137 0.46949,-0.389311 0.10593,-0.08041 0.30649,-0.221982 0.44541,-0.315156 0.13916,-0.09294 0.37197,-0.237631 0.51764,-0.32166 0.14566,-0.08379 0.41651,-0.22487 0.6019,-0.313471 0.18539,-0.0886 0.46758,-0.210424 0.62719,-0.270857 0.15963,-0.06019 0.45217,-0.157699 0.65006,-0.216686 0.19791,-0.05874 0.52799,-0.140122 0.73311,-0.180571 0.20537,-0.04069 0.51405,-0.09053 0.68617,-0.111231 0.17215,-0.02046 0.35633,-0.04165 0.4093,-0.04695 0.053,-0.0051 0.39437,-0.0065 0.7584,-0.0026 z m -9.942254,13.543725 c 0.0068,0 0.580944,0.862153 1.276034,1.915963 0.69531,1.05381 1.27362,1.940299 1.28518,1.969658 0.0173,0.04358 -0.22126,0.618057 -1.264,3.042997 -0.70687,1.643937 -1.290502,2.989042 -1.297214,2.989042 -0.0065,0 -0.588438,-1.340342 -1.292666,-2.978693 -0.704229,-1.638393 -1.283963,-2.990254 -1.288077,-3.003981 -0.0041,-0.01396 0.572286,-0.904763 1.280629,-1.980007 0.708559,-1.075245 1.293619,-1.954979 1.300114,-1.954979 z M 90.052844,72.888013 c -0.199109,-0.0053 -0.457447,-4.77e-4 -0.574234,0.01083 -0.11677,0.01131 -0.322621,0.039 -0.457448,0.06164 -0.134826,0.02239 -0.377515,0.07704 -0.539549,0.121342 -0.162034,0.0443 -0.413387,0.129288 -0.558559,0.188756 -0.14518,0.05947 -0.332252,0.14253 -0.415795,0.184663 -0.08331,0.04189 -0.249189,0.13555 -0.368366,0.207779 -0.119177,0.07223 -0.319733,0.208259 -0.445409,0.302398 -0.125677,0.09414 -0.341402,0.280007 -0.479099,0.41315 -0.137477,0.133142 -0.331771,0.339474 -0.431687,0.45866 -0.09967,0.119177 -0.256654,0.330324 -0.348863,0.469486 -0.09197,0.138918 -0.2463,0.413149 -0.342605,0.609136 -0.09655,0.195978 -0.219574,0.492133 -0.273988,0.657982 -0.05417,0.165883 -0.124954,0.433631 -0.157218,0.594673 -0.03226,0.161068 -0.07006,0.398218 -0.08402,0.526775 -0.01397,0.128565 -0.02528,0.386423 -0.02528,0.572762 0,0.186348 0.01131,0.444197 0.02528,0.572762 0.01397,0.128566 0.05201,0.366201 0.08427,0.527988 0.0325,0.161791 0.100878,0.421814 0.152161,0.577829 0.05128,0.156014 0.135069,0.375831 0.18611,0.488279 0.05128,0.112677 0.144214,0.298787 0.206332,0.413868 0.06235,0.115085 0.164922,0.287468 0.228001,0.383292 0.06308,0.09558 0.183221,0.261469 0.267245,0.368608 0.08379,0.106897 0.25232,0.296137 0.374385,0.42061 0.121827,0.124235 0.309137,0.299749 0.415795,0.390035 0.106897,0.09029 0.318048,0.247023 0.469486,0.348143 0.151437,0.101363 0.416276,0.253043 0.588438,0.336824 0.172145,0.08379 0.418683,0.191164 0.547993,0.238835 0.129288,0.04743 0.362104,0.117731 0.517638,0.156496 0.155534,0.03876 0.397981,0.08716 0.539073,0.107862 0.140846,0.02071 0.400869,0.04454 0.577829,0.05273 0.187794,0.0087 0.451428,0.0031 0.634425,-0.01372 0.172145,-0.01565 0.426872,-0.05032 0.56579,-0.0768 0.139162,-0.02673 0.346455,-0.07464 0.460826,-0.106416 0.114362,-0.03202 0.29686,-0.09101 0.405684,-0.131215 0.108585,-0.03997 0.318767,-0.130492 0.466844,-0.200794 0.148068,-0.0703 0.373904,-0.193571 0.501486,-0.273745 0.127604,-0.08041 0.316845,-0.209463 0.42013,-0.28723 0.103527,-0.07753 0.306491,-0.254965 0.451169,-0.393888 0.144457,-0.139162 0.344289,-0.350309 0.44398,-0.469486 0.09944,-0.119177 0.256169,-0.330567 0.347901,-0.469486 0.09173,-0.139161 0.246539,-0.415314 0.344047,-0.613943 0.09727,-0.198628 0.219817,-0.491137 0.272061,-0.650057 0.05224,-0.158903 0.122546,-0.424464 0.156253,-0.589867 0.03371,-0.165645 0.07416,-0.424702 0.0898,-0.575663 0.01733,-0.168291 0.02287,-0.443981 0.01445,-0.710248 -0.0074,-0.240329 -0.03074,-0.539116 -0.05196,-0.664694 -0.02122,-0.12601 -0.07058,-0.355946 -0.109988,-0.510969 -0.03897,-0.155456 -0.113453,-0.395352 -0.165416,-0.533487 -0.05196,-0.138135 -0.161951,-0.38366 -0.244226,-0.545179 -0.08227,-0.161518 -0.222142,-0.403579 -0.310912,-0.537817 -0.08834,-0.134238 -0.242494,-0.341657 -0.34209,-0.460739 -0.100029,-0.119514 -0.294024,-0.325634 -0.431726,-0.459006 -0.137702,-0.132939 -0.353348,-0.318707 -0.478926,-0.413106 -0.12601,-0.09397 -0.326501,-0.229936 -0.445583,-0.302252 -0.119081,-0.07232 -0.292725,-0.169312 -0.385392,-0.216079 -0.09267,-0.04633 -0.293158,-0.134238 -0.446016,-0.194861 -0.152425,-0.06106 -0.423498,-0.148528 -0.601905,-0.193996 -0.178406,-0.0459 -0.449047,-0.100461 -0.600605,-0.12168 -0.151992,-0.02122 -0.439088,-0.0433 -0.637846,-0.0485 z m -0.130253,3.239677 c 0.248707,-0.0019 0.346216,0.0082 0.536171,0.05658 0.127846,0.03226 0.317563,0.101601 0.421814,0.153607 0.104251,0.05224 0.247504,0.137957 0.318767,0.190444 0.07103,0.05249 0.210425,0.182018 0.309622,0.287711 0.09919,0.105935 0.221258,0.26195 0.2711,0.346697 0.04984,0.08499 0.122788,0.237631 0.162271,0.339474 0.03925,0.101843 0.08908,0.286026 0.110751,0.409296 0.02745,0.157699 0.03491,0.295414 0.02528,0.464895 -0.0075,0.132419 -0.03611,0.327437 -0.06356,0.433372 -0.02721,0.105935 -0.09751,0.290118 -0.156014,0.409295 -0.05851,0.119177 -0.172626,0.299506 -0.253523,0.400869 -0.08114,0.101362 -0.223428,0.244854 -0.316122,0.318767 -0.09293,0.07391 -0.235946,0.171902 -0.317805,0.217647 -0.08186,0.04574 -0.246301,0.115566 -0.365478,0.155291 -0.128084,0.04286 -0.313233,0.08234 -0.452858,0.09655 -0.158179,0.01589 -0.309621,0.01589 -0.457447,-2.41e-4 -0.121827,-0.01348 -0.318767,-0.05682 -0.437962,-0.09631 -0.119177,-0.03973 -0.276153,-0.104974 -0.349105,-0.145418 -0.07271,-0.04045 -0.209943,-0.132419 -0.304806,-0.204167 -0.09483,-0.07188 -0.219977,-0.187067 -0.278435,-0.256351 -0.05803,-0.06885 -0.139001,-0.174076 -0.179705,-0.233401 -0.04021,-0.05971 -0.10714,-0.175513 -0.14855,-0.257615 -0.04141,-0.08234 -0.104251,-0.244854 -0.139884,-0.361143 l -0.06452,-0.212182 v -0.746362 l 0.06453,-0.211871 c 0.03563,-0.116289 0.09871,-0.278803 0.140123,-0.361143 0.04141,-0.0821 0.117012,-0.210909 0.168052,-0.286026 0.0508,-0.07512 0.164199,-0.207536 0.251839,-0.29421 0.08764,-0.08692 0.23667,-0.20874 0.33129,-0.2711 0.09462,-0.0626 0.260266,-0.149515 0.368124,-0.19357 0.107619,-0.04382 0.264838,-0.09486 0.349104,-0.113401 0.08427,-0.0183 0.289876,-0.03443 0.456972,-0.03587 z M 109.7231,72.888013 c -0.19911,-0.0053 -0.45745,-4.77e-4 -0.57424,0.01083 -0.11677,0.01131 -0.32262,0.039 -0.45745,0.06164 -0.13482,0.02239 -0.37751,0.07704 -0.53955,0.121342 -0.16203,0.0443 -0.41338,0.129288 -0.55856,0.188756 -0.14518,0.05947 -0.33225,0.14253 -0.41579,0.184663 -0.0833,0.04189 -0.24919,0.135788 -0.36812,0.208259 -0.11918,0.07247 -0.31974,0.208983 -0.44541,0.303118 -0.12592,0.09414 -0.34165,0.279764 -0.47936,0.412426 -0.13748,0.1329 -0.33177,0.338994 -0.43169,0.458184 -0.0997,0.119177 -0.25641,0.330324 -0.34814,0.469486 -0.0917,0.138918 -0.24654,0.415314 -0.34405,0.613943 -0.0973,0.198628 -0.21982,0.491137 -0.27206,0.650057 -0.0522,0.158903 -0.12231,0.424221 -0.15602,0.589867 -0.0335,0.165402 -0.0725,0.406164 -0.0864,0.534742 -0.014,0.128565 -0.0253,0.386423 -0.0253,0.572762 0,0.186348 0.0113,0.444198 0.0253,0.572763 0.014,0.128565 0.0518,0.365715 0.084,0.526775 0.0323,0.161068 0.10377,0.430721 0.15866,0.599003 0.0551,0.168291 0.18442,0.475245 0.28747,0.682058 0.10329,0.206813 0.24919,0.468057 0.32455,0.58073 0.0751,0.112678 0.21524,0.302156 0.3113,0.421333 0.0961,0.119178 0.2817,0.321898 0.41243,0.450693 0.13097,0.128808 0.31395,0.294691 0.40665,0.368846 0.0927,0.07416 0.27158,0.203444 0.39725,0.287711 0.12592,0.08402 0.34261,0.212351 0.48153,0.285545 0.13916,0.07295 0.36114,0.175514 0.49356,0.228001 0.13242,0.05224 0.32214,0.11942 0.42133,0.14903 0.0994,0.02962 0.26219,0.07368 0.36211,0.09751 0.0999,0.02408 0.30576,0.06284 0.45744,0.08619 0.19526,0.03034 0.41652,0.04261 0.75745,0.04261 0.33755,0 0.56436,-0.01252 0.7584,-0.04213 0.15216,-0.02312 0.40255,-0.07391 0.55618,-0.112435 0.15361,-0.03852 0.38642,-0.108824 0.51764,-0.155772 0.13097,-0.04719 0.3792,-0.154811 0.55132,-0.239078 0.17215,-0.08451 0.43411,-0.234743 0.58216,-0.333698 0.14783,-0.09895 0.34839,-0.245096 0.44541,-0.324786 0.0968,-0.07945 0.27254,-0.240519 0.39004,-0.358012 0.11773,-0.117492 0.29252,-0.311063 0.38859,-0.430241 0.0958,-0.119177 0.23618,-0.308655 0.3113,-0.421333 0.0754,-0.112677 0.22126,-0.373904 0.32455,-0.58073 0.10305,-0.206813 0.23233,-0.513784 0.28747,-0.682058 0.0549,-0.168291 0.1264,-0.437961 0.15866,-0.599003 0.0323,-0.161068 0.0701,-0.398219 0.084,-0.526775 0.014,-0.128565 0.0253,-0.386423 0.0253,-0.572763 0,-0.186348 -0.0113,-0.444197 -0.0253,-0.572762 -0.014,-0.128565 -0.053,-0.369327 -0.0864,-0.534742 -0.0337,-0.165646 -0.10377,-0.430964 -0.15601,-0.589867 -0.0522,-0.158903 -0.17479,-0.451429 -0.27206,-0.650057 -0.0975,-0.198629 -0.25232,-0.475029 -0.34405,-0.613943 -0.0917,-0.139162 -0.24847,-0.350309 -0.34814,-0.469486 -0.0999,-0.119177 -0.29421,-0.32551 -0.43169,-0.45866 -0.13771,-0.133143 -0.3532,-0.31901 -0.4791,-0.41315 -0.12567,-0.09414 -0.32623,-0.23017 -0.44541,-0.302398 -0.11917,-0.07223 -0.29252,-0.169495 -0.38522,-0.215963 -0.0927,-0.04647 -0.29348,-0.134346 -0.44614,-0.195017 -0.15264,-0.06091 -0.4235,-0.148311 -0.60217,-0.194056 -0.1784,-0.04574 -0.44878,-0.100397 -0.60047,-0.121585 -0.15192,-0.02119 -0.43892,-0.04309 -0.63776,-0.04839 z m -0.13026,3.239677 c 0.24871,-0.0019 0.34622,0.0082 0.53617,0.05658 0.12785,0.03226 0.31612,0.100877 0.41893,0.152161 0.10257,0.05152 0.23498,0.128327 0.29445,0.170941 0.0592,0.04261 0.17672,0.144699 0.26099,0.226796 0.084,0.08234 0.20079,0.216205 0.2593,0.297822 0.0585,0.08162 0.1447,0.231132 0.19141,0.332252 0.0467,0.10112 0.10786,0.267488 0.13555,0.369327 0.0407,0.148791 0.0508,0.254246 0.0508,0.534482 0,0.283857 -0.01,0.384977 -0.0525,0.541715 -0.0289,0.105935 -0.1004,0.290118 -0.15891,0.409295 -0.0585,0.119177 -0.17262,0.299506 -0.25352,0.400869 -0.0811,0.101362 -0.22342,0.244854 -0.31612,0.318767 -0.0929,0.07391 -0.23594,0.171902 -0.3178,0.217647 -0.0819,0.04574 -0.2463,0.115566 -0.36548,0.155291 -0.12592,0.04213 -0.31251,0.0821 -0.44541,0.09558 -0.1459,0.01469 -0.31154,0.01469 -0.45745,0 -0.13338,-0.01348 -0.31901,-0.05321 -0.44541,-0.09534 -0.11917,-0.03997 -0.28434,-0.11027 -0.36716,-0.156496 -0.0831,-0.04623 -0.2292,-0.147588 -0.32503,-0.225112 -0.0961,-0.07753 -0.21307,-0.188037 -0.26026,-0.245577 -0.0472,-0.05754 -0.11869,-0.153365 -0.15939,-0.212832 -0.0404,-0.05971 -0.10737,-0.175514 -0.14879,-0.257615 -0.0414,-0.08234 -0.10424,-0.244854 -0.13964,-0.361143 -0.0573,-0.188998 -0.0645,-0.250873 -0.0648,-0.573022 -2.5e-4,-0.298545 0.009,-0.394608 0.0525,-0.553753 0.0292,-0.105935 0.091,-0.273022 0.13748,-0.371016 0.0465,-0.09823 0.13242,-0.245577 0.19116,-0.327679 0.0585,-0.0821 0.17383,-0.215962 0.25617,-0.297583 0.0823,-0.08162 0.22656,-0.198871 0.32022,-0.260746 0.0937,-0.06188 0.25858,-0.148311 0.36644,-0.192367 0.10762,-0.04382 0.26483,-0.09486 0.3491,-0.113401 0.0843,-0.0183 0.28988,-0.03443 0.45697,-0.03587 z"
       id="icon" /></g></svg>