<?xml version="1.0" encoding="UTF-8" standalone="no"?>
<svg
   xmlns:dc="http://purl.org/dc/elements/1.1/"
   xmlns:cc="http://creativecommons.org/ns#"
   xmlns:rdf="http://www.w3.org/1999/02/22-rdf-syntax-ns#"
   xmlns:svg="http://www.w3.org/2000/svg"
   xmlns="http://www.w3.org/2000/svg"
   id="svg4"
   xml:space="preserve"
   enable-background="new 0 0 200 200"
   viewBox="0 0 200 200"
   y="0px"
   x="0px"
   version="1.1"><metadata
     id="metadata10"><rdf:RDF><cc:Work
         rdf:about=""><dc:format>image/svg+xml</dc:format><dc:type
           rdf:resource="http://purl.org/dc/dcmitype/StillImage" /></cc:Work></rdf:RDF></metadata><defs
     id="defs8" /><path
     id="path2"
     d="m100.05 40.002c-0.118-0.006-0.244 0.004-0.284 0.021-0.042 0.018-11.641 6.711-25.78 14.873-14.138 8.163-25.755 14.887-25.812 14.942-0.058 0.055-0.132 0.15-0.166 0.211l-0.061 0.111-0.011 29.631c-0.007 16.299-0.001 29.739 0.011 29.869 0.018 0.18 0.049 0.26 0.143 0.38 0.105 0.14 3.031 1.84 25.73 14.95 14.087 8.14 25.712 14.84 25.834 14.9 0.123 0.06 0.283 0.11 0.356 0.11 0.07 0 0.19-0.03 0.28-0.07 0.08-0.04 11.67-6.72 25.76-14.85 14.08-8.14 25.66-14.83 25.73-14.88 0.06-0.05 0.15-0.15 0.2-0.23l0.09-0.14v-59.674l-0.07-0.117c-0.03-0.065-0.12-0.171-0.2-0.234-0.08-0.064-11.71-6.794-25.84-14.955l-25.71-14.842-0.2-0.006zm-0.37 17.725c0.21-0.002 0.63 0.008 0.93 0.021 0.29 0.013 0.67 0.035 0.84 0.049 0.16 0.014 0.49 0.044 0.71 0.07 0.23 0.026 0.6 0.075 0.82 0.11 0.23 0.034 0.58 0.094 0.78 0.134 0.21 0.04 0.56 0.117 0.79 0.17 0.24 0.054 0.67 0.167 0.96 0.25 0.29 0.084 0.69 0.207 0.9 0.276 0.2 0.068 0.55 0.191 0.76 0.271s0.56 0.22 0.78 0.313c0.22 0.092 0.6 0.265 0.85 0.394 0.26 0.122 0.6 0.296 0.78 0.387 0.17 0.09 0.47 0.257 0.67 0.371 0.2 0.113 0.54 0.32 0.76 0.459s0.52 0.334 0.66 0.434c0.15 0.099 0.47 0.335 0.72 0.523s0.64 0.492 0.86 0.676 0.56 0.477 0.75 0.65c0.19 0.174 0.55 0.525 0.8 0.781 0.26 0.257 0.57 0.584 0.69 0.727 0.13 0.143 0.37 0.419 0.53 0.611 0.16 0.193 0.46 0.568 0.66 0.834 0.2 0.267 0.48 0.664 0.63 0.883 0.14 0.218 0.34 0.515 0.43 0.658 0.09 0.144 0.28 0.469 0.42 0.723 0.15 0.254 0.38 0.694 0.53 0.978 0.14 0.285 0.33 0.686 0.42 0.891s0.23 0.536 0.31 0.734c0.08 0.199 0.21 0.557 0.3 0.795 0.08 0.239 0.22 0.65 0.3 0.912 0.07 0.263 0.19 0.697 0.26 0.963 0.07 0.267 0.17 0.723 0.23 1.014s0.13 0.714 0.16 0.94c0.04 0.225 0.08 0.555 0.1 0.734s0.06 0.514 0.08 0.746 0.04 0.773 0.05 1.203c0 0.43 0 1.271-0.02 1.867-0.01 0.596-0.04 1.457-0.06 1.914s-0.05 1.02-0.06 1.252-0.04 0.595-0.05 0.807-0.03 0.547-0.05 0.746c-0.01 0.199-0.05 0.697-0.08 1.107-0.03 0.411-0.1 1.081-0.13 1.489-0.04 0.408-0.11 1.041-0.15 1.408-0.04 0.366-0.11 1.014-0.17 1.437-0.05 0.424-0.13 1.04-0.18 1.372-0.05 0.331-0.13 0.889-0.18 1.24s-0.17 1.054-0.25 1.564c-0.09 0.51-0.22 1.241-0.29 1.625s-0.2 1.025-0.28 1.422-0.24 1.181-0.37 1.744-0.34 1.484-0.48 2.044-0.33 1.29-0.41 1.61c-0.09 0.33-0.27 0.97-0.4 1.43-0.13 0.45-0.33 1.15-0.45 1.55-0.13 0.4-0.37 1.15-0.54 1.67-0.17 0.53-0.41 1.25-0.54 1.6-0.13 0.36-0.35 0.97-0.49 1.35-0.14 0.39-0.37 0.98-0.5 1.32-0.14 0.34-0.32 0.81-0.42 1.04-0.09 0.22-0.27 0.65-0.39 0.94-0.13 0.29-0.34 0.79-0.48 1.1s-0.38 0.84-0.53 1.18c-0.16 0.33-0.49 1.02-0.74 1.51-0.25 0.5-0.57 1.14-0.72 1.42-0.15 0.29-0.42 0.79-0.6 1.11-0.17 0.33-0.41 0.74-0.51 0.93-0.11 0.18-0.34 0.57-0.51 0.86-0.17 0.3-0.45 0.76-0.62 1.03s-0.42 0.66-0.55 0.88c-0.14 0.21-0.38 0.58-0.54 0.81-0.16 0.24-0.39 0.58-0.51 0.75-0.11 0.17-0.34 0.5-0.5 0.72-0.16 0.23-0.52 0.71-0.79 1.08-0.27 0.36-0.67 0.88-0.89 1.15s-0.57 0.71-0.79 0.98c-0.23 0.26-0.57 0.66-0.76 0.89-0.2 0.22-0.55 0.61-0.77 0.85-0.22 0.25-0.85 0.89-1.38 1.42-0.54 0.54-1.19 1.17-1.45 1.4-0.26 0.24-0.682 0.61-0.939 0.83-0.258 0.22-0.684 0.57-0.949 0.79-0.265 0.21-0.732 0.57-1.037 0.8s-0.755 0.55-1 0.72-0.613 0.42-0.819 0.55c-0.205 0.14-0.53 0.35-0.722 0.47-0.192 0.11-0.556 0.33-0.807 0.48-0.252 0.14-0.668 0.38-0.926 0.52s-0.643 0.34-0.855 0.44c-0.213 0.11-0.626 0.3-0.916 0.44-0.291 0.13-0.665 0.29-0.83 0.36-0.166 0.07-0.474 0.2-0.686 0.28s-0.585 0.22-0.83 0.31c-0.245 0.08-0.598 0.21-0.783 0.27-0.186 0.06-0.521 0.16-0.746 0.22-0.226 0.07-0.582 0.17-0.791 0.22-0.21 0.06-0.386 0.1-0.391 0.09-0.005 0 0.115-0.11 0.268-0.23 0.152-0.12 0.463-0.39 0.691-0.59s0.627-0.57 0.885-0.83 0.617-0.64 0.799-0.85c0.181-0.2 0.455-0.52 0.609-0.7 0.154-0.19 0.424-0.53 0.6-0.76 0.175-0.23 0.42-0.56 0.543-0.74 0.122-0.17 0.36-0.51 0.529-0.77 0.169-0.25 0.416-0.63 0.549-0.84s0.355-0.58 0.494-0.82 0.368-0.64 0.51-0.9c0.141-0.26 0.439-0.83 0.66-1.28 0.221-0.44 0.517-1.06 0.658-1.37s0.34-0.76 0.441-1c0.102-0.24 0.282-0.68 0.401-0.97 0.118-0.3 0.276-0.7 0.349-0.89 0.074-0.2 0.199-0.53 0.278-0.75s0.222-0.63 0.32-0.92c0.097-0.28 0.243-0.72 0.324-0.97s0.229-0.73 0.326-1.05c0.098-0.32 0.241-0.82 0.321-1.09 0.079-0.28 0.193-0.69 0.254-0.92 0.06-0.23 0.207-0.8 0.326-1.29 0.118-0.48 0.286-1.2 0.373-1.59 0.086-0.39 0.221-1.03 0.301-1.43 0.079-0.4 0.194-0.99 0.253-1.31 0.06-0.33 0.158-0.88 0.217-1.24 0.06-0.36 0.152-0.94 0.205-1.3s0.139-0.97 0.192-1.36c0.052-0.39 0.138-1.09 0.191-1.54 0.053-0.46 0.13-1.17 0.17-1.58s0.094-1.01 0.121-1.32c0.027-0.32 0.072-0.88 0.098-1.24 0.026-0.37 0.067-1.05 0.094-1.52 0.026-0.47 0.06-1.1 0.074-1.41 0.013-0.3 0.037-0.93 0.053-1.4 0.016-0.5 0.027-1.78 0.025-3.15-0.002-1.271-0.011-2.42-0.022-2.552-0.017-0.211-0.025-0.104-0.062 0.832-0.023 0.589-0.064 1.423-0.09 1.85-0.026 0.43-0.071 1.09-0.098 1.47s-0.069 0.94-0.095 1.25-0.082 0.9-0.121 1.3c-0.04 0.41-0.116 1.12-0.168 1.58-0.053 0.46-0.14 1.18-0.194 1.59-0.053 0.41-0.145 1.08-0.205 1.49-0.059 0.41-0.172 1.14-0.25 1.62s-0.198 1.17-0.265 1.54c-0.068 0.37-0.204 1.08-0.303 1.57-0.099 0.5-0.262 1.27-0.361 1.72-0.1 0.45-0.295 1.27-0.432 1.82-0.138 0.55-0.343 1.34-0.455 1.75-0.113 0.41-0.276 0.99-0.363 1.29-0.089 0.29-0.231 0.77-0.317 1.04-0.086 0.28-0.262 0.83-0.392 1.22-0.131 0.39-0.352 1.02-0.491 1.41-0.138 0.38-0.313 0.86-0.388 1.06-0.075 0.19-0.233 0.6-0.35 0.89s-0.307 0.75-0.422 1.02-0.334 0.77-0.486 1.11c-0.153 0.34-0.459 0.98-0.682 1.43s-0.538 1.06-0.699 1.36-0.432 0.78-0.604 1.08c-0.171 0.3-0.438 0.74-0.591 0.99-0.154 0.25-0.436 0.68-0.627 0.96s-0.477 0.7-0.637 0.92-0.406 0.54-0.545 0.72-0.365 0.46-0.502 0.63-0.342 0.41-0.457 0.54c-0.114 0.13-0.395 0.44-0.625 0.69-0.23 0.24-0.6 0.61-0.822 0.82s-0.505 0.46-0.631 0.57-0.407 0.33-0.623 0.5-0.519 0.4-0.674 0.51c-0.155 0.1-0.444 0.29-0.642 0.42-0.199 0.12-0.623 0.35-0.944 0.51-0.321 0.17-0.749 0.36-0.951 0.44s-0.497 0.19-0.656 0.23c-0.159 0.05-0.442 0.13-0.627 0.17-0.186 0.05-0.466 0.11-0.625 0.13-0.159 0.03-0.437 0.07-0.615 0.09-0.192 0.02-0.467 0.04-0.672 0.03l-0.348-0.01-0.02-0.07c-0.01-0.04-0.018-14.41-0.013-31.93 0.005-24.511 0.015-31.915 0.037-32.146 0.016-0.166 0.046-0.464 0.066-0.663 0.021-0.198 0.068-0.589 0.108-0.867 0.039-0.278 0.122-0.747 0.181-1.043 0.06-0.296 0.151-0.719 0.205-0.939s0.156-0.601 0.227-0.846c0.071-0.246 0.201-0.653 0.287-0.906 0.087-0.253 0.23-0.644 0.317-0.867s0.224-0.557 0.304-0.743c0.081-0.185 0.24-0.534 0.356-0.775 0.115-0.24 0.322-0.641 0.459-0.891 0.136-0.249 0.356-0.633 0.488-0.851 0.132-0.219 0.35-0.559 0.482-0.758 0.133-0.199 0.311-0.459 0.397-0.578s0.253-0.347 0.373-0.506 0.333-0.429 0.475-0.601c0.14-0.173 0.38-0.454 0.531-0.625 0.151-0.172 0.458-0.502 0.683-0.733 0.226-0.231 0.561-0.561 0.746-0.734 0.186-0.174 0.477-0.435 0.647-0.58 0.17-0.146 0.463-0.388 0.65-0.537s0.493-0.381 0.678-0.516c0.186-0.135 0.526-0.371 0.758-0.525 0.232-0.155 0.574-0.372 0.76-0.485 0.185-0.112 0.495-0.292 0.689-0.4 0.195-0.108 0.57-0.305 0.832-0.436s0.617-0.3 0.789-0.377c0.172-0.076 0.443-0.192 0.602-0.258 0.159-0.065 0.419-0.169 0.578-0.228s0.447-0.161 0.639-0.227c0.191-0.065 0.505-0.166 0.697-0.224 0.192-0.059 0.583-0.167 0.867-0.24 0.285-0.073 0.761-0.181 1.059-0.241 0.298-0.059 0.72-0.136 0.939-0.17 0.218-0.033 0.587-0.081 0.818-0.107 0.232-0.026 0.571-0.059 0.752-0.074 0.182-0.016 0.522-0.038 0.758-0.047 0.236-0.01 0.603-0.02 0.815-0.022l-0.002-0.007zm-9.641 11.765c-0.364-0.003-0.705-0.003-0.758 0.002s-0.238 0.027-0.41 0.047-0.497 0.076-0.723 0.121c-0.225 0.046-0.553 0.126-0.73 0.18-0.177 0.053-0.455 0.148-0.615 0.209-0.161 0.06-0.444 0.181-0.629 0.269-0.186 0.089-0.456 0.231-0.602 0.315-0.145 0.084-0.378 0.229-0.517 0.322s-0.336 0.232-0.44 0.311c-0.103 0.078-0.304 0.242-0.445 0.365-0.142 0.123-0.4 0.369-0.572 0.547s-0.403 0.438-0.514 0.578-0.27 0.351-0.354 0.469c-0.083 0.117-0.228 0.337-0.32 0.49-0.092 0.152-0.23 0.402-0.308 0.554-0.078 0.153-0.2 0.413-0.27 0.579-0.07 0.165-0.176 0.44-0.234 0.611-0.059 0.171-0.15 0.487-0.202 0.699-0.052 0.213-0.115 0.522-0.142 0.688-0.026 0.165-0.062 0.425-0.078 0.578-0.017 0.152-0.03 0.53-0.03 0.842 0 0.311 0.013 0.691 0.03 0.843 0.016 0.152 0.051 0.413 0.078 0.578 0.027 0.166 0.084 0.452 0.129 0.637 0.044 0.186 0.135 0.501 0.201 0.699 0.066 0.199 0.178 0.497 0.248 0.663 0.07 0.165 0.192 0.424 0.27 0.576s0.216 0.402 0.308 0.554c0.092 0.153 0.237 0.373 0.32 0.491 0.084 0.117 0.243 0.328 0.354 0.468s0.349 0.407 0.527 0.592c0.179 0.185 0.468 0.455 0.643 0.604 0.175 0.148 0.436 0.353 0.578 0.453 0.143 0.1 0.363 0.246 0.49 0.326 0.128 0.08 0.378 0.222 0.555 0.314 0.177 0.093 0.451 0.224 0.607 0.291 0.157 0.068 0.443 0.175 0.637 0.241 0.195 0.065 0.484 0.153 0.643 0.193 0.158 0.04 0.441 0.099 0.627 0.131 0.185 0.032 0.451 0.075 0.589 0.092 0.154 0.019 0.525 0.029 0.95 0.029 0.428 0 0.796-0.012 0.951-0.031 0.139-0.018 0.384-0.052 0.543-0.078 0.159-0.027 0.424-0.082 0.59-0.122 0.165-0.04 0.473-0.13 0.685-0.201 0.212-0.07 0.515-0.183 0.674-0.252 0.159-0.068 0.429-0.197 0.602-0.287 0.172-0.089 0.432-0.236 0.578-0.328 0.145-0.091 0.358-0.231 0.47-0.31 0.113-0.08 0.311-0.234 0.444-0.34 0.132-0.106 0.387-0.334 0.564-0.506 0.178-0.172 0.42-0.427 0.539-0.565s0.307-0.372 0.418-0.521c0.112-0.15 0.277-0.388 0.367-0.531 0.091-0.143 0.232-0.382 0.313-0.53 0.081-0.147 0.211-0.413 0.289-0.589 0.078-0.177 0.181-0.429 0.231-0.561 0.049-0.132 0.136-0.403 0.193-0.603s0.138-0.53 0.178-0.735c0.039-0.205 0.09-0.536 0.113-0.734 0.029-0.249 0.043-0.545 0.043-0.951 0-0.407-0.014-0.702-0.043-0.952-0.023-0.198-0.074-0.525-0.113-0.726-0.039-0.202-0.113-0.517-0.164-0.699-0.052-0.183-0.121-0.408-0.153-0.5-0.032-0.093-0.11-0.293-0.172-0.444s-0.182-0.415-0.267-0.588c-0.086-0.172-0.24-0.453-0.342-0.623-0.102-0.169-0.284-0.442-0.404-0.607s-0.318-0.419-0.442-0.565c-0.123-0.145-0.372-0.409-0.553-0.585-0.18-0.177-0.468-0.433-0.638-0.569s-0.436-0.332-0.59-0.435-0.377-0.244-0.494-0.313-0.331-0.183-0.473-0.254-0.387-0.184-0.545-0.25c-0.157-0.066-0.41-0.162-0.562-0.215-0.152-0.052-0.428-0.134-0.614-0.181-0.185-0.048-0.453-0.108-0.595-0.135s-0.392-0.067-0.555-0.088c-0.195-0.026-0.52-0.042-0.957-0.047zm19.671 0c-0.37-0.003-0.71-0.003-0.76 0.002s-0.24 0.027-0.41 0.047c-0.17 0.021-0.48 0.071-0.68 0.111-0.21 0.041-0.54 0.123-0.74 0.182-0.19 0.059-0.49 0.157-0.65 0.217s-0.44 0.181-0.62 0.269c-0.19 0.089-0.46 0.231-0.61 0.315-0.14 0.084-0.38 0.229-0.52 0.322-0.13 0.093-0.33 0.234-0.44 0.314-0.11 0.081-0.32 0.255-0.47 0.389s-0.4 0.376-0.56 0.537c-0.15 0.161-0.37 0.409-0.49 0.551-0.11 0.143-0.27 0.357-0.36 0.477-0.08 0.119-0.23 0.352-0.33 0.517-0.1 0.166-0.24 0.414-0.31 0.553s-0.18 0.377-0.25 0.529c-0.06 0.152-0.15 0.378-0.2 0.5-0.04 0.123-0.11 0.356-0.16 0.518s-0.12 0.48-0.17 0.705c-0.04 0.225-0.1 0.571-0.12 0.769-0.03 0.244-0.04 0.554-0.04 0.952 0 0.397 0.01 0.707 0.04 0.951 0.02 0.198 0.08 0.546 0.12 0.771 0.05 0.225 0.12 0.541 0.17 0.703s0.12 0.395 0.16 0.518c0.05 0.123 0.14 0.348 0.2 0.5 0.07 0.152 0.18 0.39 0.25 0.529s0.21 0.389 0.31 0.555c0.1 0.165 0.25 0.396 0.33 0.514 0.08 0.117 0.24 0.329 0.35 0.468 0.11 0.14 0.35 0.403 0.53 0.586 0.17 0.183 0.45 0.445 0.61 0.58 0.16 0.136 0.41 0.339 0.57 0.452 0.16 0.112 0.4 0.272 0.53 0.355s0.39 0.227 0.56 0.318c0.18 0.092 0.45 0.222 0.6 0.289 0.16 0.068 0.45 0.175 0.64 0.241 0.2 0.065 0.51 0.157 0.69 0.203 0.19 0.045 0.47 0.103 0.63 0.131 0.16 0.026 0.4 0.063 0.54 0.08 0.15 0.019 0.53 0.031 0.95 0.031 0.43 0 0.8-0.012 0.95-0.031 0.14-0.018 0.38-0.052 0.54-0.078 0.16-0.027 0.43-0.082 0.59-0.122 0.17-0.04 0.48-0.13 0.69-0.201 0.21-0.07 0.51-0.183 0.67-0.252 0.16-0.068 0.43-0.197 0.61-0.287 0.17-0.089 0.43-0.236 0.57-0.328 0.15-0.091 0.36-0.233 0.47-0.312 0.12-0.08 0.31-0.232 0.45-0.338 0.13-0.106 0.38-0.334 0.56-0.506s0.42-0.427 0.54-0.565 0.31-0.37 0.41-0.517c0.11-0.147 0.27-0.362 0.34-0.481 0.08-0.118 0.21-0.34 0.3-0.492 0.08-0.152 0.21-0.413 0.29-0.58s0.2-0.451 0.26-0.629c0.07-0.178 0.17-0.479 0.22-0.668s0.13-0.507 0.17-0.709c0.04-0.201 0.09-0.53 0.11-0.728 0.03-0.254 0.05-0.54 0.04-0.963 0-0.402-0.01-0.714-0.04-0.94-0.02-0.185-0.06-0.461-0.09-0.613-0.02-0.152-0.08-0.423-0.13-0.601-0.04-0.179-0.13-0.467-0.19-0.639-0.05-0.172-0.16-0.448-0.23-0.613-0.07-0.166-0.19-0.416-0.26-0.555s-0.21-0.39-0.31-0.557-0.25-0.397-0.33-0.513-0.24-0.327-0.35-0.467c-0.11-0.141-0.4-0.453-0.64-0.692s-0.54-0.522-0.68-0.63c-0.14-0.109-0.33-0.26-0.44-0.336s-0.32-0.218-0.48-0.315c-0.15-0.096-0.48-0.278-0.73-0.402-0.26-0.124-0.61-0.28-0.79-0.348-0.18-0.067-0.48-0.164-0.66-0.217-0.19-0.052-0.5-0.128-0.7-0.168-0.19-0.039-0.49-0.089-0.66-0.111-0.2-0.026-0.52-0.042-0.96-0.047zm-19.657 3.395c0.198 0.005 0.486 0.027 0.638 0.049 0.152 0.021 0.422 0.075 0.6 0.121 0.178 0.045 0.449 0.134 0.602 0.195 0.152 0.061 0.354 0.149 0.447 0.195 0.093 0.047 0.266 0.143 0.385 0.215s0.319 0.209 0.445 0.303c0.125 0.094 0.341 0.279 0.478 0.412 0.138 0.133 0.334 0.339 0.434 0.459 0.1 0.119 0.254 0.327 0.342 0.461 0.089 0.134 0.228 0.377 0.31 0.539 0.083 0.161 0.193 0.407 0.245 0.545 0.051 0.138 0.127 0.378 0.166 0.533s0.088 0.386 0.109 0.512c0.021 0.125 0.044 0.424 0.051 0.664 0.008 0.266 0.003 0.542-0.014 0.711-0.016 0.151-0.056 0.408-0.09 0.574-0.034 0.165-0.104 0.431-0.156 0.59s-0.174 0.452-0.272 0.65c-0.097 0.199-0.252 0.474-0.343 0.614-0.092 0.138-0.249 0.351-0.348 0.47-0.1 0.119-0.301 0.33-0.445 0.469-0.145 0.139-0.348 0.317-0.451 0.394-0.104 0.078-0.293 0.207-0.42 0.288-0.128 0.08-0.354 0.203-0.502 0.273s-0.359 0.161-0.467 0.201c-0.109 0.04-0.29 0.099-0.404 0.131-0.115 0.032-0.322 0.081-0.461 0.107-0.139 0.027-0.395 0.061-0.567 0.077-0.183 0.017-0.447 0.022-0.635 0.013-0.176-0.008-0.437-0.032-0.578-0.052-0.141-0.021-0.383-0.069-0.539-0.108-0.155-0.039-0.388-0.109-0.517-0.156-0.13-0.048-0.375-0.157-0.547-0.24-0.172-0.084-0.439-0.235-0.59-0.336s-0.362-0.258-0.469-0.348c-0.106-0.09-0.294-0.266-0.416-0.391-0.122-0.124-0.291-0.313-0.375-0.419-0.084-0.108-0.202-0.274-0.265-0.37-0.063-0.095-0.167-0.267-0.229-0.382s-0.156-0.302-0.207-0.414c-0.051-0.113-0.134-0.333-0.186-0.489-0.051-0.156-0.119-0.416-0.152-0.578-0.032-0.162-0.07-0.399-0.084-0.527-0.014-0.129-0.025-0.388-0.025-0.574 0-0.187 0.011-0.444 0.025-0.573 0.014-0.128 0.052-0.366 0.084-0.527s0.102-0.428 0.156-0.594c0.055-0.166 0.179-0.462 0.276-0.658 0.096-0.196 0.25-0.47 0.342-0.609 0.092-0.14 0.25-0.35 0.349-0.469 0.1-0.119 0.294-0.326 0.432-0.459s0.353-0.32 0.478-0.414c0.126-0.094 0.326-0.231 0.446-0.303 0.119-0.072 0.285-0.165 0.369-0.207 0.083-0.042 0.271-0.124 0.416-0.184 0.145-0.059 0.396-0.145 0.558-0.189s0.405-0.099 0.539-0.121c0.135-0.023 0.341-0.051 0.458-0.063 0.116-0.011 0.375-0.015 0.574-0.009v-0.002zm19.667 0.002c0.2 0.005 0.49 0.025 0.64 0.047 0.15 0.021 0.42 0.077 0.6 0.123 0.18 0.045 0.45 0.132 0.6 0.193 0.16 0.061 0.36 0.149 0.45 0.195 0.09 0.047 0.27 0.143 0.38 0.215 0.12 0.072 0.32 0.209 0.45 0.303s0.34 0.281 0.48 0.414 0.33 0.34 0.43 0.459 0.26 0.329 0.35 0.469c0.09 0.139 0.25 0.414 0.34 0.613 0.1 0.199 0.22 0.491 0.27 0.65 0.06 0.159 0.13 0.425 0.16 0.59 0.03 0.166 0.07 0.407 0.09 0.535 0.01 0.129 0.02 0.386 0.02 0.573 0 0.186-0.01 0.445-0.02 0.574-0.02 0.128-0.05 0.364-0.09 0.525-0.03 0.161-0.1 0.432-0.16 0.6-0.05 0.168-0.18 0.475-0.28 0.681-0.11 0.207-0.25 0.468-0.33 0.581-0.07 0.112-0.21 0.302-0.31 0.421-0.1 0.12-0.27 0.313-0.39 0.43-0.12 0.118-0.29 0.28-0.39 0.359-0.09 0.08-0.29 0.226-0.44 0.325s-0.41 0.249-0.58 0.334c-0.18 0.084-0.43 0.191-0.56 0.238s-0.36 0.118-0.51 0.156c-0.16 0.039-0.41 0.09-0.56 0.113-0.19 0.03-0.42 0.041-0.76 0.041s-0.56-0.012-0.76-0.042c-0.15-0.024-0.35-0.062-0.45-0.086s-0.27-0.068-0.36-0.098c-0.1-0.03-0.29-0.096-0.43-0.149-0.13-0.052-0.35-0.155-0.49-0.228s-0.36-0.201-0.48-0.285c-0.13-0.084-0.31-0.213-0.4-0.287s-0.27-0.241-0.41-0.369c-0.13-0.129-0.31-0.332-0.41-0.452-0.09-0.119-0.23-0.309-0.31-0.421-0.07-0.113-0.22-0.374-0.32-0.581-0.11-0.206-0.24-0.513-0.29-0.681-0.06-0.168-0.13-0.439-0.16-0.6s-0.07-0.397-0.08-0.525c-0.02-0.129-0.03-0.388-0.03-0.574 0-0.187 0.01-0.444 0.03-0.573 0.01-0.128 0.05-0.369 0.08-0.535 0.04-0.165 0.11-0.431 0.16-0.59s0.17-0.451 0.27-0.65 0.25-0.474 0.35-0.613c0.09-0.14 0.24-0.35 0.34-0.469s0.3-0.326 0.43-0.459c0.14-0.133 0.36-0.318 0.48-0.412 0.13-0.094 0.33-0.23 0.45-0.303 0.12-0.072 0.28-0.167 0.37-0.209 0.08-0.042 0.27-0.124 0.41-0.184 0.15-0.059 0.4-0.145 0.56-0.189s0.41-0.099 0.54-0.121c0.14-0.023 0.34-0.051 0.46-0.063 0.12-0.011 0.37-0.015 0.57-0.009zm-19.798 3.238c-0.167 0.001-0.373 0.019-0.457 0.037-0.084 0.019-0.24 0.07-0.348 0.113-0.108 0.044-0.274 0.131-0.369 0.194-0.095 0.062-0.242 0.184-0.33 0.271s-0.201 0.218-0.252 0.293-0.127 0.205-0.168 0.287c-0.041 0.083-0.105 0.245-0.141 0.362l-0.064 0.211v0.746l0.064 0.213c0.036 0.116 0.098 0.279 0.139 0.361 0.042 0.082 0.11 0.198 0.15 0.258 0.041 0.059 0.122 0.163 0.18 0.232 0.059 0.069 0.183 0.186 0.278 0.258 0.094 0.072 0.232 0.163 0.304 0.203 0.073 0.04 0.231 0.107 0.35 0.146 0.119 0.04 0.315 0.083 0.437 0.096 0.148 0.016 0.299 0.016 0.457 0 0.14-0.014 0.325-0.053 0.453-0.096 0.12-0.039 0.284-0.11 0.366-0.156 0.082-0.045 0.225-0.143 0.318-0.217 0.093-0.073 0.235-0.219 0.316-0.32s0.196-0.281 0.254-0.4c0.059-0.119 0.129-0.303 0.157-0.408 0.027-0.106 0.055-0.302 0.062-0.434 0.01-0.17 0.002-0.307-0.025-0.465-0.022-0.123-0.072-0.308-0.112-0.41-0.039-0.102-0.112-0.255-0.162-0.34s-0.17-0.24-0.269-0.346c-0.099-0.105-0.24-0.234-0.311-0.287-0.071-0.052-0.214-0.139-0.318-0.191s-0.294-0.122-0.422-0.154c-0.19-0.049-0.288-0.059-0.537-0.057zm19.668 0c-0.16 0.001-0.37 0.019-0.45 0.037-0.09 0.019-0.25 0.07-0.35 0.113-0.11 0.044-0.28 0.13-0.37 0.192s-0.24 0.18-0.32 0.261c-0.08 0.082-0.2 0.215-0.26 0.297s-0.14 0.23-0.19 0.328c-0.04 0.098-0.11 0.266-0.13 0.372-0.05 0.159-0.06 0.254-0.06 0.552 0 0.322 0.01 0.386 0.07 0.575 0.03 0.116 0.1 0.279 0.14 0.361s0.11 0.198 0.15 0.258c0.04 0.059 0.11 0.155 0.15 0.213 0.05 0.057 0.17 0.166 0.27 0.244 0.09 0.077 0.24 0.18 0.32 0.226s0.25 0.117 0.37 0.156c0.12 0.043 0.31 0.083 0.44 0.096 0.15 0.015 0.31 0.015 0.46 0 0.13-0.013 0.32-0.053 0.45-0.096 0.11-0.039 0.28-0.11 0.36-0.156 0.08-0.045 0.23-0.143 0.32-0.217 0.09-0.073 0.23-0.219 0.32-0.32 0.08-0.101 0.19-0.281 0.25-0.4s0.13-0.303 0.16-0.408c0.04-0.157 0.05-0.26 0.05-0.543 0-0.281-0.01-0.385-0.05-0.534-0.03-0.101-0.09-0.27-0.14-0.371-0.04-0.101-0.13-0.25-0.19-0.332-0.06-0.081-0.17-0.214-0.26-0.297-0.08-0.082-0.2-0.184-0.26-0.226-0.06-0.043-0.19-0.121-0.29-0.172s-0.29-0.12-0.42-0.152c-0.19-0.049-0.29-0.059-0.54-0.057zm-9.822 6.908c-0.007 0-0.593 0.88-1.301 1.955-0.709 1.075-1.286 1.967-1.281 1.981 0.004 0.013 0.584 1.365 1.289 3.004 0.704 1.638 1.286 2.978 1.293 2.978 0.006 0 0.592-1.344 1.292-2.988 1.05-2.425 1.29-3 1.27-3.043-0.01-0.029-0.59-0.917-1.29-1.971-0.69-1.054-1.265-1.916-1.272-1.916z"
     fill="#000000" /></svg>