<?xml version="1.0" encoding="UTF-8" standalone="no"?>
<svg
   xmlns:dc="http://purl.org/dc/elements/1.1/"
   xmlns:cc="http://creativecommons.org/ns#"
   xmlns:rdf="http://www.w3.org/1999/02/22-rdf-syntax-ns#"
   xmlns:svg="http://www.w3.org/2000/svg"
   xmlns="http://www.w3.org/2000/svg"
   id="svg7"
   xml:space="preserve"
   viewBox="0 0 1024 768"
   y="0px"
   x="0px"
   version="1.1"><metadata
     id="metadata13"><rdf:RDF><cc:Work
         rdf:about=""><dc:format>image/svg+xml</dc:format><dc:type
           rdf:resource="http://purl.org/dc/dcmitype/StillImage" /></cc:Work></rdf:RDF></metadata><defs
     id="defs11" /><g
     transform="matrix(1.4594,0,0,1.4594,-235.21,-162.83)"
     id="logo-group"><path
       style="opacity:0.25;fill:#000000;stroke-width:0.75"
       d="m 512.1,254.59 c -0.129,-0.007 -0.26875,0.004 -0.3145,0.0241 -0.0465,0.02 -13.107,7.5559 -29.024,16.745 -15.917,9.1897 -28.994,16.758 -29.059,16.82 -0.0651,0.0617 -0.14941,0.16808 -0.18736,0.23688 l -0.0696,0.1258 -0.012,33.36 c -0.007,18.348 1.2e-4,33.477 0.0147,33.621 0.0204,0.206 0.0541,0.30053 0.15925,0.43897 0.11843,0.15596 3.4124,2.0684 28.968,16.827 15.859,9.1582 28.946,16.707 29.084,16.774 0.13761,0.0671 0.31608,0.1222 0.39614,0.12179 0.0805,-4.2e-4 0.22143,-0.036 0.31317,-0.0776 0.0917,-0.0421 13.143,-7.5681 29.002,-16.725 15.859,-9.1568 28.895,-16.694 28.968,-16.749 0.0721,-0.0546 0.17505,-0.16887 0.22885,-0.25561 l 0.0977,-0.15792 v -67.18 l -0.0723,-0.13249 c -0.04,-0.073 -0.14429,-0.19191 -0.23019,-0.26364 -0.0863,-0.0717 -13.179,-7.649 -29.096,-16.837 l -28.94,-16.71 z"
       id="icon_container" /><path
       d="m 440.88,477.04 v 15.048 c 0,0.83198 0.23192,1.4806 0.69592,1.9446 0.48,0.464 1.1286,0.69592 1.9446,0.69592 0.368,0 0.7914,-0.0485 1.2714,-0.14454 0.48,-0.096 0.89663,-0.216 1.2486,-0.36 l -0.33726,-1.7037 c -0.208,0.08 -0.43183,0.15147 -0.67183,0.21547 -0.24,0.048 -0.44766,0.0723 -0.62365,0.0723 -0.44801,0 -0.79992,-0.1281 -1.0559,-0.3841 -0.24,-0.272 -0.36001,-0.6401 -0.36001,-1.1041 v -14.29 z m 20.998,0 v 17.52 h 1.8723 v -2.3514 c 0.464,0.768 1.0964,1.3923 1.8964,1.8723 0.8,0.48 1.6886,0.72001 2.6646,0.72001 0.832,0 1.6073,-0.16855 2.3273,-0.50455 0.736,-0.35198 1.3684,-0.81584 1.8964,-1.3918 0.528,-0.592 0.94331,-1.2797 1.2473,-2.0637 0.304,-0.784 0.45636,-1.6159 0.45636,-2.4959 0,-0.832 -0.13619,-1.641 -0.40819,-2.425 -0.256,-0.8 -0.63219,-1.4958 -1.1282,-2.0878 -0.48,-0.608 -1.0638,-1.0961 -1.7518,-1.4641 -0.68798,-0.368 -1.4633,-0.55138 -2.3273,-0.55138 -1.024,0 -1.9207,0.2481 -2.6887,0.7441 -0.768,0.496 -1.4152,1.1513 -1.9432,1.9673 v -7.4878 z m 54.938,0 v 2.6405 h 2.1132 V 477.04 Z m 25.829,0 v 15.048 c 0,0.83198 0.23192,1.4806 0.69592,1.9446 0.48,0.464 1.1286,0.69592 1.9446,0.69592 0.368,0 0.79139,-0.0485 1.2714,-0.14454 0.48,-0.096 0.89664,-0.216 1.2486,-0.36 l -0.33591,-1.7037 c -0.208,0.08 -0.43184,0.15147 -0.67184,0.21547 -0.24,0.048 -0.44765,0.0723 -0.62365,0.0723 -0.448,0 -0.80126,-0.1281 -1.0573,-0.3841 -0.24,-0.272 -0.36001,-0.6401 -0.36001,-1.1041 v -14.29 z m 8.2119,0 -1.3918,2.4237 1.3918,0.48045 2.1118,-2.9041 z m 26.287,0 v 2.6405 h 2.1118 V 477.04 Z m -159.53,0.3841 c -1.28,0 -2.4248,0.2481 -3.4328,0.7441 -1.008,0.496 -1.8629,1.1526 -2.5669,1.9686 -0.688,0.8 -1.2166,1.7115 -1.5846,2.7355 -0.352,1.008 -0.52729,2.0233 -0.52729,3.0473 0,1.088 0.19148,2.16 0.57547,3.216 0.40001,1.04 0.95149,1.9771 1.6555,2.8091 0.72,0.816 1.5681,1.4794 2.5441,1.9914 0.976,0.512 2.048,0.76819 3.216,0.76819 0.656,0 1.3288,-0.0876 2.0168,-0.26365 0.688,-0.176 1.3352,-0.43219 1.9432,-0.76819 0.624,-0.336 1.1768,-0.74455 1.6568,-1.2246 0.496,-0.496 0.87894,-1.0637 1.1509,-1.7037 l -1.8,-0.98365 c -0.24,0.528 -0.55148,0.98375 -0.93548,1.3678 -0.36801,0.368 -0.76847,0.67948 -1.2005,0.93548 -0.432,0.24 -0.88775,0.41663 -1.3678,0.52863 -0.464,0.112 -0.91975,0.16729 -1.3678,0.16729 -0.848,0 -1.6314,-0.18339 -2.3514,-0.55139 -0.72001,-0.368 -1.3443,-0.8642 -1.8723,-1.4882 -0.52799,-0.624 -0.94464,-1.3359 -1.2486,-2.1359 -0.288,-0.816 -0.43227,-1.6722 -0.43227,-2.5682 0,-0.8 0.12,-1.5915 0.36,-2.3755 0.25601,-0.8 0.6322,-1.5119 1.1282,-2.1359 0.496,-0.64 1.1041,-1.1524 1.8241,-1.5364 0.736,-0.4 1.576,-0.59956 2.52,-0.59956 0.432,0 0.87157,0.0472 1.3196,0.1432 0.448,0.096 0.88082,0.25645 1.2968,0.48045 0.432,0.224 0.82437,0.52064 1.1764,0.88864 0.368,0.368 0.67948,0.82375 0.93548,1.3678 l 1.7037,-1.1041 c -0.528,-1.104 -1.3357,-2.0007 -2.4237,-2.6887 -1.088,-0.68798 -2.3919,-1.0318 -3.9119,-1.0318 z m 165.66,0.43227 v 4.1755 h -1.705 v 1.6568 h 1.705 v 8.4233 c 0,0.89598 0.27913,1.5607 0.83912,1.9927 0.56001,0.416 1.2248,0.62365 1.9927,0.62365 0.33601,0 0.65558,-0.0324 0.95957,-0.0964 0.32,-0.048 0.60855,-0.11138 0.86455,-0.19138 0.272,-0.096 0.51201,-0.18498 0.72001,-0.26498 0.208,-0.096 0.3752,-0.17556 0.5032,-0.23956 l -0.5032,-1.6796 c -0.128,0.08 -0.36801,0.19192 -0.72001,0.33592 -0.336,0.128 -0.71221,0.19138 -1.1282,0.19138 -0.368,0 -0.68757,-0.10383 -0.95957,-0.31183 -0.27198,-0.208 -0.42436,-0.54375 -0.45636,-1.0078 v -7.7756 h 2.8078 v -1.6568 h -2.8078 v -4.1755 z m -151.08,3.9601 c -0.944,0 -1.8083,0.17529 -2.5923,0.52729 -0.784,0.336 -1.4636,0.80118 -2.0396,1.3932 -0.56,0.592 -1.0009,1.2797 -1.3209,2.0637 -0.304,0.784 -0.45503,1.616 -0.45503,2.496 0,0.88 0.15103,1.72 0.45503,2.52 0.32,0.784 0.76091,1.4717 1.3209,2.0637 0.56,0.592 1.2315,1.064 2.0155,1.4159 0.784,0.336 1.6483,0.50455 2.5923,0.50455 0.624,0 1.224,-0.0809 1.8,-0.2409 0.576,-0.16 1.0951,-0.37574 1.5591,-0.64774 0.48,-0.288 0.89664,-0.62375 1.2486,-1.0078 0.368,-0.384 0.65655,-0.80739 0.86455,-1.2714 l -1.8241,-0.50454 c -0.128,0.32 -0.32081,0.60855 -0.57681,0.86455 -0.24,0.256 -0.51912,0.47174 -0.83912,0.64774 -0.32,0.176 -0.66517,0.32027 -1.0332,0.43227 -0.368,0.096 -0.74286,0.1432 -1.1269,0.1432 -0.544,0 -1.0645,-0.10383 -1.5605,-0.31183 -0.47998,-0.208 -0.91148,-0.49654 -1.2955,-0.86454 -0.384,-0.368 -0.69681,-0.80758 -0.93681,-1.3196 -0.24,-0.512 -0.38428,-1.0797 -0.43228,-1.7037 h 10.392 c 0.016,-0.08 0.0241,-0.19192 0.0241,-0.33592 0.016,-0.144 0.0241,-0.30445 0.0241,-0.48045 0,-0.832 -0.15103,-1.6316 -0.45503,-2.3996 -0.288,-0.784 -0.70464,-1.4649 -1.2486,-2.0409 -0.544,-0.592 -1.2074,-1.0639 -1.9914,-1.4159 -0.768,-0.352 -1.6242,-0.52729 -2.5682,-0.52729 z m 21.046,0 c -0.94399,0 -1.8083,0.17529 -2.5923,0.52729 -0.784,0.336 -1.4636,0.80118 -2.0396,1.3932 -0.56,0.592 -0.99957,1.2797 -1.3196,2.0637 -0.304,0.784 -0.45637,1.616 -0.45637,2.496 0,0.88 0.15237,1.72 0.45637,2.52 0.32,0.784 0.75957,1.4717 1.3196,2.0637 0.56,0.592 1.2328,1.064 2.0168,1.4159 0.784,0.336 1.647,0.50455 2.591,0.50455 0.62401,0 1.224,-0.0809 1.8,-0.2409 0.576,-0.16 1.0965,-0.37574 1.5605,-0.64774 0.48,-0.288 0.8953,-0.62375 1.2473,-1.0078 0.36799,-0.384 0.65654,-0.80739 0.86455,-1.2714 l -1.8241,-0.50454 c -0.12799,0.32 -0.31947,0.60855 -0.57547,0.86455 -0.24,0.256 -0.52045,0.47174 -0.84046,0.64774 -0.31999,0.176 -0.66383,0.32027 -1.0318,0.43227 -0.36801,0.096 -0.7442,0.1432 -1.1282,0.1432 -0.544,0 -1.0645,-0.10383 -1.5605,-0.31183 -0.48,-0.208 -0.91149,-0.49654 -1.2955,-0.86454 -0.384,-0.368 -0.69549,-0.80758 -0.93547,-1.3196 -0.24001,-0.512 -0.38428,-1.0797 -0.43228,-1.7037 h 10.392 c 0.016,-0.08 0.0241,-0.19192 0.0241,-0.33592 0.016,-0.144 0.0241,-0.30445 0.0241,-0.48045 0,-0.832 -0.15237,-1.6316 -0.45637,-2.3996 -0.28799,-0.784 -0.70329,-1.4649 -1.2473,-2.0409 -0.544,-0.592 -1.2088,-1.0639 -1.9927,-1.4159 -0.76801,-0.352 -1.6242,-0.52729 -2.5682,-0.52729 z m 36.987,0 c -1.632,0 -3.2554,0.5434 -4.8714,1.6314 l 0.69593,1.3691 c 1.392,-0.976 2.7201,-1.4641 3.9841,-1.4641 1.056,0 1.8718,0.29529 2.4478,0.88729 0.576,0.576 0.86454,1.3756 0.86454,2.3996 v 1.0091 c -0.48,-0.192 -1.0328,-0.34437 -1.6568,-0.45637 -0.624,-0.112 -1.2402,-0.16862 -1.8482,-0.16862 -0.768,0 -1.4799,0.0971 -2.1359,0.28907 -0.64,0.192 -1.1996,0.45494 -1.6796,0.79094 -0.464,0.336 -0.82402,0.74455 -1.08,1.2246 -0.256,0.464 -0.38409,0.98447 -0.38409,1.5605 0,0.56 0.10382,1.0791 0.31182,1.5591 0.224,0.464 0.52064,0.87255 0.88864,1.2246 0.384,0.352 0.83166,0.63246 1.3437,0.84046 0.512,0.192 1.0635,0.28774 1.6555,0.28774 0.976,0 1.8888,-0.19281 2.7368,-0.57681 0.864,-0.4 1.5759,-0.97576 2.1359,-1.7278 l 0.0482,0.88864 c 0.048,0.352 0.19227,0.65538 0.43227,0.91138 0.256,0.24 0.59174,0.36001 1.0078,0.36001 0.15999,0 0.31102,-0.008 0.45502,-0.0241 0.144,-0.016 0.32873,-0.0403 0.55273,-0.0723 v -1.8241 c -0.448,-0.016 -0.67184,-0.27085 -0.67184,-0.76685 v -5.1123 c 0,-1.6 -0.46384,-2.8405 -1.3918,-3.7205 -0.912,-0.88 -2.1929,-1.3196 -3.8409,-1.3196 z m 19.023,0 c -0.672,0 -1.3044,0.0876 -1.8964,0.26364 -0.576,0.16 -1.079,0.4081 -1.511,0.7441 -0.432,0.32 -0.77717,0.72856 -1.0332,1.2246 -0.24,0.48 -0.36001,1.0315 -0.36001,1.6555 0,0.496 0.0809,0.91265 0.2409,1.2486 0.16,0.336 0.41619,0.6232 0.76819,0.8632 0.352,0.24 0.79966,0.44766 1.3437,0.62366 0.544,0.176 1.1912,0.36072 1.9432,0.55272 0.592,0.144 1.1125,0.28018 1.5605,0.40818 0.44799,0.128 0.8161,0.27228 1.1041,0.43228 0.28799,0.16 0.50374,0.35147 0.64774,0.57547 0.144,0.208 0.2168,0.46419 0.2168,0.76819 0,0.656 -0.27237,1.1684 -0.81637,1.5364 -0.52798,0.352 -1.248,0.52729 -2.16,0.52729 -0.81598,0 -1.5927,-0.1362 -2.3286,-0.40818 -0.73601,-0.288 -1.4709,-0.7114 -2.2069,-1.2714 l -0.91273,1.4159 c 0.704,0.592 1.544,1.0478 2.52,1.3678 0.97598,0.304 1.9684,0.45637 2.9764,0.45637 1.52,0 2.7281,-0.34384 3.6241,-1.0318 0.896,-0.688 1.3437,-1.617 1.3437,-2.785 0,-0.528 -0.10383,-0.97566 -0.31183,-1.3437 -0.192,-0.368 -0.49673,-0.68757 -0.91273,-0.95957 -0.4,-0.272 -0.91104,-0.50392 -1.535,-0.69592 -0.608,-0.208 -1.328,-0.4089 -2.16,-0.6009 -0.528,-0.128 -0.98509,-0.248 -1.3691,-0.36 -0.368,-0.112 -0.67138,-0.2401 -0.91138,-0.3841 -0.24,-0.144 -0.41664,-0.3112 -0.52864,-0.5032 -0.096,-0.192 -0.1432,-0.43201 -0.1432,-0.72001 0,-0.72 0.26428,-1.2405 0.79228,-1.5605 0.544,-0.336 1.1993,-0.5032 1.9673,-0.5032 0.688,0 1.3608,0.12 2.0168,0.36 0.656,0.224 1.2479,0.56784 1.7759,1.0318 l 0.95957,-1.2727 c -0.56,-0.496 -1.2477,-0.89513 -2.0637,-1.1991 -0.816,-0.304 -1.6965,-0.45636 -2.6405,-0.45636 z m 20.223,0 c -1.104,0 -2.1288,0.26428 -3.0728,0.79228 -0.928,0.528 -1.6399,1.2318 -2.1359,2.1118 v -2.6887 h -1.9205 v 12.528 h 2.1132 v -7.5601 c 0.144,-0.48 0.35974,-0.91958 0.64774,-1.3196 0.288,-0.4 0.62374,-0.74383 1.0077,-1.0318 0.384,-0.288 0.79256,-0.51183 1.2246,-0.67183 0.432,-0.176 0.86348,-0.26365 1.2955,-0.26365 0.832,0 1.4482,0.30339 1.8482,0.91139 0.416,0.608 0.62365,1.5842 0.62365,2.9282 v 7.0074 h 2.1119 v -7.4878 c 0,-0.752 -0.0634,-1.4478 -0.19138,-2.0878 -0.112,-0.64 -0.3129,-1.1915 -0.6009,-1.6555 -0.288,-0.48 -0.67095,-0.84811 -1.151,-1.1041 -0.48,-0.272 -1.08,-0.40818 -1.8,-0.40818 z m 32.169,0 c -1.024,0 -1.9449,0.25619 -2.7609,0.76819 -0.816,0.496 -1.4794,1.2079 -1.9914,2.1359 v -2.6887 h -1.9205 v 12.528 h 2.1118 v -7.5601 c 0.288,-0.992 0.77611,-1.7835 1.4641,-2.3755 0.688,-0.608 1.4566,-0.91139 2.3046,-0.91139 0.832,0 1.4563,0.30339 1.8723,0.91139 0.416,0.608 0.62366,1.5842 0.62366,2.9282 v 7.0074 h 2.1118 v -7.536 c 0.288,-0.976 0.76802,-1.7675 1.44,-2.3755 0.688,-0.624 1.4646,-0.93548 2.3286,-0.93548 0.832,0 1.455,0.31148 1.871,0.93548 0.432,0.624 0.64774,1.5921 0.64774,2.9041 v 7.0074 h 2.1132 v -7.4878 c 0,-0.752 -0.0647,-1.4478 -0.19272,-2.0878 -0.128,-0.64 -0.33565,-1.1915 -0.62365,-1.6555 -0.288,-0.48 -0.68037,-0.84811 -1.1764,-1.1041 -0.48,-0.272 -1.08,-0.40818 -1.8,-0.40818 -2.064,0 -3.6564,1.0153 -4.7764,3.0473 -0.144,-0.896 -0.52695,-1.6241 -1.151,-2.1841 -0.60798,-0.576 -1.4399,-0.86321 -2.4959,-0.86321 z m 34.848,0 c -0.94401,0 -1.807,0.17529 -2.591,0.52729 -0.78399,0.336 -1.4649,0.80118 -2.0409,1.3932 -0.56001,0.592 -0.99957,1.2797 -1.3196,2.0637 -0.304,0.784 -0.45637,1.616 -0.45637,2.496 0,0.88 0.15237,1.72 0.45637,2.52 0.32,0.784 0.75956,1.4717 1.3196,2.0637 0.55999,0.592 1.2328,1.064 2.0168,1.4159 0.78401,0.336 1.647,0.50455 2.591,0.50455 0.624,0 1.224,-0.0809 1.8,-0.2409 0.576,-0.16 1.0965,-0.37574 1.5605,-0.64774 0.48,-0.288 0.89664,-0.62375 1.2486,-1.0078 0.368,-0.384 0.65521,-0.80739 0.86321,-1.2714 l -1.8241,-0.50454 c -0.128,0.32 -0.31948,0.60855 -0.57548,0.86455 -0.24,0.256 -0.52047,0.47174 -0.84045,0.64774 -0.32,0.176 -0.66384,0.32027 -1.0318,0.43227 -0.368,0.096 -0.74421,0.1432 -1.1282,0.1432 -0.544,0 -1.0631,-0.10383 -1.5591,-0.31183 -0.48,-0.208 -0.91283,-0.49654 -1.2968,-0.86454 -0.38398,-0.368 -0.69547,-0.80758 -0.93547,-1.3196 -0.24,-0.512 -0.38428,-1.0797 -0.43228,-1.7037 h 10.392 c 0.016,-0.08 0.0241,-0.19192 0.0241,-0.33592 0.016,-0.144 0.0241,-0.30445 0.0241,-0.48045 0,-0.832 -0.15238,-1.6316 -0.45636,-2.3996 -0.288,-0.784 -0.70332,-1.4649 -1.2473,-2.0409 -0.544,-0.592 -1.2087,-1.0639 -1.9927,-1.4159 -0.768,-0.352 -1.6242,-0.52729 -2.5682,-0.52729 z m 12.932,0 c -0.672,0 -1.3044,0.0876 -1.8964,0.26364 -0.576,0.16 -1.0803,0.4081 -1.5123,0.7441 -0.432,0.32 -0.77584,0.72856 -1.0318,1.2246 -0.24,0.48 -0.36,1.0315 -0.36,1.6555 0,0.496 0.0796,0.91265 0.23956,1.2486 0.16,0.336 0.41619,0.6232 0.76819,0.8632 0.35198,0.24 0.79966,0.44766 1.3437,0.62366 0.544,0.176 1.1926,0.36072 1.9446,0.55272 0.592,0.144 1.1125,0.28018 1.5605,0.40818 0.448,0.128 0.8161,0.27228 1.1041,0.43228 0.288,0.16 0.50374,0.35147 0.64774,0.57547 0.144,0.208 0.21547,0.46419 0.21547,0.76819 0,0.656 -0.27237,1.1684 -0.81637,1.5364 -0.528,0.352 -1.248,0.52729 -2.16,0.52729 -0.816,0 -1.5913,-0.1362 -2.3273,-0.40818 -0.736,-0.288 -1.4722,-0.7114 -2.2082,-1.2714 l -0.91138,1.4159 c 0.704,0.592 1.544,1.0478 2.52,1.3678 0.976,0.304 1.9671,0.45637 2.9751,0.45637 1.52,0 2.7281,-0.34384 3.6241,-1.0318 0.896,-0.688 1.3437,-1.617 1.3437,-2.785 0,-0.528 -0.10382,-0.97566 -0.31182,-1.3437 -0.192,-0.368 -0.49539,-0.68757 -0.91139,-0.95957 -0.4,-0.272 -0.91238,-0.50392 -1.5364,-0.69592 -0.608,-0.208 -1.328,-0.4089 -2.16,-0.6009 -0.528,-0.128 -0.98375,-0.248 -1.3678,-0.36 -0.368,-0.112 -0.67139,-0.2401 -0.91139,-0.3841 -0.24,-0.144 -0.41663,-0.3112 -0.52863,-0.5032 -0.096,-0.192 -0.14454,-0.43201 -0.14454,-0.72001 0,-0.72 0.26428,-1.2405 0.79228,-1.5605 0.544,-0.336 1.2006,-0.5032 1.9686,-0.5032 0.688,0 1.3595,0.12 2.0155,0.36 0.65598,0.224 1.2479,0.56784 1.7759,1.0318 l 0.96091,-1.2727 c -0.56,-0.496 -1.249,-0.89513 -2.065,-1.1991 -0.816,-0.304 -1.6952,-0.45636 -2.6392,-0.45636 z m -126.67,0.12045 c -0.8,0.064 -1.5524,0.36738 -2.2564,0.91138 -0.704,0.528 -1.2717,1.2238 -1.7037,2.0878 v -2.9041 h -1.9673 v 12.528 h 2.1118 v -7.7274 c 0.336,-0.912 0.90367,-1.6239 1.7037,-2.1359 0.816,-0.512 1.7518,-0.78437 2.8078,-0.81637 v -1.9191 c -0.08,-0.016 -0.17574,-0.0241 -0.28774,-0.0241 z m 34.056,0.095 v 12.528 h 2.1132 v -12.528 z m 32.625,0 v 12.528 h 2.1118 v -12.528 z m 27.703,0 v 12.528 h 2.1118 v -12.528 z m -144.95,1.3678 c 0.56,0 1.0872,0.10516 1.5832,0.31316 0.496,0.192 0.92882,0.46303 1.2968,0.81503 0.384,0.352 0.69548,0.78482 0.93548,1.2968 0.256,0.496 0.40836,1.0394 0.45636,1.6314 h -8.4956 c 0.048,-0.592 0.18285,-1.1354 0.40685,-1.6314 0.24,-0.496 0.54472,-0.92073 0.91272,-1.2727 0.384,-0.368 0.82358,-0.64712 1.3196,-0.83912 0.496,-0.208 1.0246,-0.31316 1.5846,-0.31316 z m 21.046,0 c 0.56,0 1.0886,0.10516 1.5846,0.31316 0.49601,0.192 0.92749,0.46303 1.2955,0.81503 0.384,0.352 0.69682,0.78482 0.93682,1.2968 0.256,0.496 0.40703,1.0394 0.45503,1.6314 h -8.4956 c 0.048,-0.592 0.18419,-1.1354 0.40819,-1.6314 0.24,-0.496 0.54338,-0.92073 0.91138,-1.2727 0.384,-0.368 0.82492,-0.64712 1.3209,-0.83912 0.49598,-0.208 1.0232,-0.31316 1.5832,-0.31316 z m 143.25,0 c 0.56,0 1.0886,0.10516 1.5846,0.31316 0.496,0.192 0.92749,0.46303 1.2955,0.81503 0.384,0.352 0.69681,0.78482 0.93681,1.2968 0.25601,0.496 0.40703,1.0394 0.45503,1.6314 h -8.4956 c 0.048,-0.592 0.18419,-1.1354 0.40819,-1.6314 0.23999,-0.496 0.54338,-0.92073 0.91139,-1.2727 0.384,-0.368 0.82491,-0.64712 1.3209,-0.83912 0.49599,-0.208 1.0232,-0.31316 1.5832,-0.31316 z m -128.52,0.24089 c 0.608,0 1.1595,0.13619 1.6555,0.40819 0.512,0.256 0.94349,0.59983 1.2955,1.0318 0.36798,0.432 0.64845,0.93629 0.84045,1.5123 0.208,0.56 0.31183,1.1438 0.31183,1.7518 0,0.608 -0.10383,1.1918 -0.31183,1.7518 -0.208,0.544 -0.50463,1.0321 -0.88863,1.4641 -0.384,0.432 -0.83976,0.77584 -1.3678,1.0318 -0.52798,0.256 -1.1038,0.38409 -1.7278,0.38409 -0.384,0 -0.78446,-0.0728 -1.2005,-0.2168 -0.4,-0.144 -0.78295,-0.33548 -1.151,-0.57548 -0.352,-0.256 -0.66482,-0.55263 -0.93682,-0.88863 -0.256,-0.336 -0.4232,-0.70277 -0.5032,-1.1028 v -3.6241 c 0.192,-0.4 0.41583,-0.77619 0.67183,-1.1282 0.272,-0.352 0.57539,-0.65673 0.91139,-0.91273 0.352,-0.272 0.72819,-0.48774 1.1282,-0.64774 0.4,-0.16 0.82475,-0.23956 1.2727,-0.23956 z m 22.184,4.656 c 1.104,0 2.1679,0.19956 3.1919,0.59956 v 1.8482 c 0,0.32 -0.15236,0.63148 -0.45636,0.93548 -0.336,0.464 -0.8322,0.8402 -1.4882,1.1282 -0.63999,0.272 -1.3358,0.40818 -2.0878,0.40818 -0.384,0 -0.74402,-0.0634 -1.08,-0.19138 -0.33598,-0.128 -0.63263,-0.30463 -0.88863,-0.52863 -0.24,-0.224 -0.43149,-0.48828 -0.57547,-0.79228 -0.128,-0.304 -0.19138,-0.63166 -0.19138,-0.98366 0,-0.72 0.32765,-1.3038 0.98365,-1.7518 0.672,-0.448 1.5363,-0.67183 2.5923,-0.67183 z"
       style="font-variant-ligatures:none;fill:#000000"
       id="path33117" /><path
       d="m 495.25,406.7 c -0.153,0.006 -0.30604,0.0181 -0.45904,0.0361 -1.188,0.144 -2.1966,0.52289 -3.0246,1.1349 -2.448,1.692 -4.2292,3.1132 -5.3452,4.2652 -1.08,1.116 -2.6279,3.2046 -4.6439,6.2646 -1.548,2.232 -2.628,4.0496 -3.24,5.4536 -0.18,0.36 -0.50495,1.1164 -0.97295,2.2684 -0.468,1.116 -0.72015,1.7093 -0.75615,1.7813 -1.116,2.88 -1.6729,5.9219 -1.6729,9.1259 -0.072,2.664 0.25161,4.932 0.97161,6.804 0.72,1.872 2.5026,3.3309 5.3465,4.3749 1.26,0.288 2.7891,0.0898 4.5891,-0.59421 1.8,-0.684 3.3668,-1.5119 4.6988,-2.4839 1.368,-0.54 2.2498,-1.0079 2.6458,-1.4039 0.936,-0.54 1.745,-1.1522 2.429,-1.8362 0.684,-0.72 1.0265,-1.3861 1.0265,-1.9981 0,-0.648 -0.14427,-1.1887 -0.43227,-1.6207 -0.252,-0.432 -0.61203,-0.57494 -1.08,-0.43094 -0.576,0 -1.3311,0.34115 -2.2671,1.0252 -0.864,0.79198 -2.5562,1.7102 -5.0762,2.7542 -0.468,0.216 -0.81049,0.37781 -1.0265,0.48581 -0.216,0.108 -0.52208,0.23474 -0.91808,0.37874 -0.396,0.144 -0.71961,0.25187 -0.97161,0.32387 l -0.80967,0.269 c -0.288,0.108 -0.54015,0.16194 -0.75615,0.16194 -0.17999,0 -0.39573,0.0189 -0.64774,0.0549 -0.216,0 -0.41421,-0.0364 -0.59421,-0.1084 -1.116,-0.432 -1.7646,-1.9624 -1.9446,-4.5904 -0.18,-2.124 0.0358,-4.4459 0.64774,-6.9659 0.54,-1.08 0.75708,-1.9079 0.64908,-2.4839 l 0.59287,-1.4039 c 0.756,-2.304 2.7004,-5.5077 5.8324,-9.6117 2.448,-3.312 4.5542,-5.3467 6.3182,-6.1027 1.008,-0.54 1.6377,-0.68294 1.8897,-0.43094 0.252,0.252 0.37875,0.46774 0.37875,0.64774 0.036,0.144 0.036,0.2694 0,0.3774 0,0.108 -0.0189,0.28868 -0.0549,0.54068 l -0.10707,0.64774 c -0.036,0.216 -0.10881,0.52208 -0.21681,0.91808 -0.072,0.396 -0.17987,0.84636 -0.32387,1.3504 -0.144,0.504 -0.54041,1.3319 -1.1884,2.4839 -0.612,1.116 -1.0799,1.8711 -1.4039,2.2671 -0.072,0 -0.14347,0.0189 -0.21547,0.0549 -0.072,0.036 0.10734,0.44995 0.53934,1.242 1.44,1.296 2.7007,1.6021 3.7807,0.91808 1.512,-1.404 2.6999,-3.5102 3.5639,-6.3182 0.864,-2.844 0.9004,-4.9866 0.1084,-6.4266 -0.54,-1.332 -1.4218,-2.2853 -2.6458,-2.8613 -1.071,-0.5355 -2.1423,-0.78206 -3.2133,-0.73875 z m -134.26,0.0361 c -2.664,0 -6.0484,0.98971 -10.152,2.9697 -0.828,0.756 -1.6923,1.3142 -2.5923,1.6742 -0.36,0.144 -0.55687,0.23434 -0.59287,0.27034 l -1.7291,1.6207 c -0.792,0.504 -2.015,1.7634 -3.671,3.7794 -1.656,2.016 -2.701,3.51 -3.133,4.482 -0.756,1.404 -1.1511,2.9155 -1.1871,4.5355 -0.036,1.584 0.35908,2.8083 1.1871,3.6723 0.432,0.828 1.206,1.7287 2.322,2.7007 1.116,0.936 2.1785,1.656 3.1865,2.16 1.044,0.504 1.9622,0.93548 2.7542,1.2955 0.54,0.504 1.1158,1.0083 1.7278,1.5123 0.648,0.504 1.0444,0.93548 1.1884,1.2955 1.26,2.016 1.0618,3.3846 -0.5942,4.1046 -2.016,0.756 -3.924,0.86387 -5.724,0.32387 -1.764,-0.54 -3.0058,-1.4758 -3.7258,-2.8078 -0.396,-0.828 -1.1888,-0.84684 -2.3768,-0.0549 -0.108,0.036 -0.2698,0.10881 -0.4858,0.21681 -0.18,0.072 -0.32428,0.12593 -0.43228,0.16193 -0.072,0.036 -0.161,0.10747 -0.269,0.21547 -0.072,0.072 -0.1084,0.17987 -0.1084,0.32387 0.036,0.144 0.12634,0.43255 0.27034,0.86455 0.18,0.396 0.70182,1.17 1.5658,2.322 0.864,1.116 1.6744,1.9075 2.4304,2.3755 0.36,0.036 0.6108,0.12634 0.7548,0.27034 0.144,0.144 0.18041,0.30581 0.10841,0.48581 l 2.16,0.64774 c 1.188,0.036 2.6645,-0.0894 4.4285,-0.37741 1.8,-0.252 2.8072,-0.45022 3.0232,-0.5942 0.252,-0.144 0.54055,-0.32468 0.86455,-0.54068 0.36,-0.18 0.70248,-0.3054 1.0265,-0.3774 0.396,0.036 0.84501,-0.25255 1.349,-0.86455 0.504,-0.576 0.91795,-1.2057 1.242,-1.8897 0.756,-2.664 0.61307,-4.7338 -0.43093,-6.2098 -0.324,-0.68398 -1.2247,-1.6022 -2.7007,-2.7542 -1.476,-1.188 -3.1318,-2.3031 -4.9678,-3.3471 -1.152,-0.576 -2.3574,-1.3324 -3.6174,-2.2684 -1.224,-0.936 -1.6204,-2.2142 -1.1884,-3.8342 0.252,-0.936 0.68349,-1.8178 1.2955,-2.6458 0.828,-1.476 1.4941,-2.556 1.9981,-3.24 0.54,-0.684 1.1346,-1.2247 1.7826,-1.6207 0.756,-0.324 1.17,-0.68402 1.242,-1.08 0.072,-0.18 1.0442,-0.88116 2.9162,-2.1052 1.908,-1.224 2.9341,-1.8186 3.0781,-1.7826 l 0.21547,-0.269 c 0,-0.18 0.84545,-0.46854 2.5374,-0.86454 1.728,-0.396 2.8809,-0.54028 3.4569,-0.43228 1.296,0.288 0.95351,1.8899 -1.0265,4.8059 -1.296,1.44 -1.9621,2.5025 -1.9981,3.1865 -0.036,0.684 0.30648,1.1694 1.0265,1.4574 0.72,0.288 1.5843,0.23405 2.5923,-0.16193 1.404,-0.792 2.6634,-2.1417 3.7794,-4.0497 1.98,-3.384 1.6914,-6.0659 -0.86455,-8.0459 -1.224,-0.936 -2.5373,-1.4403 -3.9413,-1.5123 z m 44.947,2.2149 c -0.82798,0 -1.3498,0.10788 -1.5658,0.32388 -0.288,0 -0.54014,0.1254 -0.75614,0.3774 -0.216,0.252 -0.32387,0.55808 -0.32387,0.91808 0,0.36 -0.72003,2.5026 -2.16,6.4266 -1.44,3.888 -2.4486,6.3892 -3.0246,7.5052 l -0.53934,2.0516 c -0.396,0.324 -0.59421,0.88222 -0.59421,1.6742 0,0.792 -0.18067,1.1884 -0.54067,1.1884 -0.18,0.36 -0.59395,1.4401 -1.242,3.24 -0.612,1.764 -0.97202,2.9883 -1.08,3.6723 0,0.468 -0.19687,1.2231 -0.59287,2.2671 -0.432,1.98 -0.32413,3.6547 0.32387,5.0227 0.648,1.368 1.4934,1.9074 2.5374,1.6194 0.828,-0.396 1.242,-1.2414 1.242,-2.5374 0,-1.332 0.77396,-4.6085 2.322,-9.8285 0.576,-1.548 0.86455,-2.5013 0.86455,-2.8613 v -0.16194 c 0,-0.288 0.0903,-0.43227 0.27034,-0.43227 0.18,-0.18 0.269,-0.43215 0.269,-0.75615 0,-0.36 0.72003,-2.1237 2.16,-5.2917 0.18,-0.396 0.32427,-0.71961 0.43227,-0.97161 0.108,-0.288 0.17947,-0.50508 0.21547,-0.64908 0.072,-0.18 0.1084,-0.3054 0.1084,-0.3774 0,-0.072 0.0728,-0.25268 0.21681,-0.54068 0.144,-0.324 0.34087,-0.73795 0.59287,-1.242 0.252,-0.54 0.45021,-1.0079 0.59421,-1.4039 1.116,-2.34 1.7821,-3.8151 1.9981,-4.4271 0.252,-0.648 0.37874,-1.279 0.37874,-1.891 0,-0.612 -0.41395,-1.2956 -1.242,-2.0516 z m 245.35,0 c -0.432,0 -0.86482,0.14294 -1.2968,0.43094 -0.396,0.252 -0.59421,0.52303 -0.59421,0.81101 -0.216,0.684 -0.48568,1.404 -0.80968,2.16 -0.18,0.54 -0.48608,1.403 -0.91808,2.591 -0.432,1.188 -1.1696,3.2402 -2.2136,6.1562 -1.044,2.88 -1.7101,4.8068 -1.9981,5.7788 -0.252,0.97198 -0.61201,1.9792 -1.08,3.0232 -0.432,1.044 -0.70168,1.9986 -0.80968,2.8626 -1.08,3.564 -1.6207,5.7592 -1.6207,6.5872 0,0.828 0.27102,1.548 0.81102,2.16 0.53998,0.612 1.1333,0.97202 1.7813,1.08 1.044,0 2.1416,-0.84544 3.2936,-2.5374 1.836,-2.088 3.6361,-3.7802 5.4001,-5.0762 1.8,-1.332 3.0607,-1.9981 3.7807,-1.9981 0.396,0 0.59421,0.39642 0.59421,1.1884 l -0.32387,4.1581 c 0,1.08 0.30474,1.9969 0.91674,2.7529 0.612,0.756 1.4224,1.1349 2.4304,1.1349 0.828,-0.072 1.6923,-0.41448 2.5923,-1.0265 0.9,-0.612 1.3504,-1.332 1.3504,-2.16 0,-0.144 -0.0364,-0.25187 -0.1084,-0.32387 -0.036,0 -0.25174,-0.14427 -0.64774,-0.43227 -0.36,-0.324 -0.90069,-0.48581 -1.6207,-0.48581 -0.36,0.072 -0.62968,0.1084 -0.80968,0.1084 0.72,-3.204 1.08,-5.2198 1.08,-6.0478 v -0.81102 c 0,-1.188 -0.39642,-2.2316 -1.1884,-3.1316 -0.792,-0.9 -1.512,-1.3504 -2.16,-1.3504 -1.332,0 -2.4296,0.32495 -3.2936,0.97295 -0.828,0.612 -1.3134,1.0071 -1.4574,1.1871 -0.108,0.144 -0.79296,0.68469 -2.053,1.6207 -1.26,0.936 -2.7176,2.2318 -4.3736,3.8878 -0.036,0 -0.0535,-0.0539 -0.0535,-0.16193 l 0.86321,-3.2936 0.59421,-1.1884 c 0.504,-0.89998 1.4586,-3.4026 2.8626,-7.5066 1.404,-4.104 2.4112,-6.8034 3.0232,-8.0994 0.612,-1.296 0.45019,-2.5918 -0.48581,-3.8878 -0.53998,-0.756 -1.0254,-1.1336 -1.4574,-1.1336 z m -224.61,3.509 c -0.288,0.072 -0.55767,0.17987 -0.80967,0.32387 -0.504,0.18 -1.495,1.0632 -2.971,2.6472 -1.476,1.584 -2.25,2.5373 -2.322,2.8613 l -0.0535,0.54067 c 0,1.728 0.54071,2.591 1.6207,2.591 0.54,0 0.98902,-0.26968 1.349,-0.80968 0.36,-0.54 1.3146,-1.4394 2.8626,-2.6994 1.584,-1.296 2.3755,-2.1967 2.3755,-2.7007 0,-0.828 -0.23327,-1.4941 -0.70127,-1.9981 -0.432,-0.504 -0.88236,-0.75614 -1.3504,-0.75614 z m 148.82,8.8931 c -0.378,0.0202 -0.71476,0.1518 -1.0118,0.3948 -0.396,0.432 -0.59421,0.73808 -0.59421,0.91808 0,0.756 -0.50429,2.3039 -1.5123,4.6439 -0.864,2.232 -1.9076,5.1661 -3.1316,8.8021 -1.224,3.636 -1.9265,5.9404 -2.1065,6.9124 l -0.3774,1.9446 c -0.432,0.36 -0.64774,0.75508 -0.64774,1.1871 0,1.044 -0.19821,1.8908 -0.59421,2.5388 l -0.27034,1.7278 c 0,0.576 -0.19821,1.6196 -0.59421,3.1316 -0.216,1.08 0.0537,2.16 0.80968,3.24 0.18,0.36 0.61282,0.50427 1.2968,0.43227 0.468,0 0.95342,-0.34248 1.4574,-1.0265 0.54,-0.684 0.81101,-1.493 0.81101,-2.429 0.036,-0.9 0.1614,-1.3868 0.3774,-1.4588 0.144,0 0.26941,-0.21574 0.37741,-0.64774 0.144,-0.396 0.2168,-0.80995 0.2168,-1.242 0.36,-0.792 0.53934,-1.6563 0.53934,-2.5923 0.216,-0.36 0.32387,-0.91823 0.32387,-1.6742 -0.216,-0.216 -0.216,-0.41421 0,-0.59421 0.216,0 0.50455,-0.37754 0.86455,-1.1335 0.36,-0.792 0.53934,-1.3314 0.53934,-1.6194 0,-0.288 0.12674,-0.55901 0.37874,-0.81101 0.324,0.288 0.80942,0.43227 1.4574,0.43227 0.648,0 1.5662,-0.14427 2.7542,-0.43227 1.224,-0.324 1.8362,-0.61121 1.8362,-0.86321 0,-0.216 0.0903,-0.37781 0.27033,-0.48581 0.432,0.144 1.2424,-0.0906 2.4304,-0.70261 1.224,-0.648 2.0519,-1.2602 2.4839,-1.8362 0.36,-0.756 0.64721,-1.1336 0.86321,-1.1336 0.36,-0.324 0.82789,-1.0804 1.4039,-2.2684 0.576,-1.224 0.86454,-2.1422 0.86454,-2.7542 0,-1.44 -0.41395,-2.6818 -1.242,-3.7258 -0.82798,-1.08 -2.0159,-1.7272 -3.5639,-1.9432 -1.512,-0.216 -3.331,0.30582 -5.455,1.5658 -0.036,0.036 -0.0171,-4.1e-4 0.0549,-0.10841 0.792,-1.152 1.1884,-2.0878 1.1884,-2.8078 0.18,-1.08 -0.0182,-2.0886 -0.59421,-3.0246 -0.432,-0.324 -0.93629,-0.50334 -1.5123,-0.53934 -0.135,-0.018 -0.26612,-0.0241 -0.39212,-0.0174 z m 52.154,1.7987 c -1.152,0 -2.232,0.21708 -3.24,0.64908 -1.008,0.396 -2.4292,1.6918 -4.2652,3.8878 -1.224,1.512 -2.2326,3.5103 -3.0246,5.9943 -0.756,2.484 -1.0445,4.5538 -0.86454,6.2098 0,1.656 0.68496,2.9693 2.053,3.9413 1.404,0.972 2.9331,1.3145 4.5891,1.0265 0.684,-0.144 1.5672,-0.46761 2.6472,-0.97161 1.116,-0.54 1.6729,-0.8825 1.6729,-1.0265 0,-0.216 0.19821,-0.32388 0.59421,-0.32388 0.396,0 1.2967,-0.70249 2.7007,-2.1065 1.404,-1.44 2.0337,-2.303 1.8897,-2.591 l 0.27034,-0.27034 c 0.144,-0.108 0.144,-0.32374 0,-0.64774 -0.396,-0.648 -0.91784,-1.0808 -1.5658,-1.2968 h -1.1349 c -0.576,0 -1.0075,0.23461 -1.2955,0.70261 -0.216,0.108 -0.45063,0.34128 -0.70261,0.70128 -0.216,0.36 -0.36028,0.55821 -0.43228,0.59421 -1.368,1.044 -2.4656,1.7816 -3.2936,2.2136 -0.828,0.432 -1.7813,0.5048 -2.8613,0.2168 -0.252,-0.144 -0.41514,-0.55795 -0.48714,-1.242 -0.036,-0.432 0.18108,-1.566 0.64908,-3.402 0.504,-1.872 1.0798,-3.4024 1.7278,-4.5904 0.684,-1.224 1.6912,-2.2137 3.0232,-2.9697 0.684,-0.288 1.1168,-0.2516 1.2968,0.1084 0.216,0.324 0.19716,1.0616 -0.0549,2.2136 -0.252,1.116 -0.3774,1.7632 -0.3774,1.9432 0.072,0.252 0.30661,0.46908 0.70261,0.64908 0.432,0.18 0.82708,0.269 1.1871,0.269 0.396,-0.036 0.59421,-0.14387 0.59421,-0.32387 0,-0.216 0.16181,-0.32387 0.48581,-0.32387 0.35998,0 0.73888,-0.32362 1.1349,-0.97162 0.432,-0.648 0.71921,-1.3141 0.86321,-1.9981 0.288,-0.54 0.23406,-1.3679 -0.16194,-2.4839 -0.396,-1.116 -0.75601,-1.6742 -1.08,-1.6742 l -0.27034,-0.27033 c 0,-0.756 -0.98971,-1.3682 -2.9697,-1.8362 z m -250.18,0.0535 c -0.68906,0.0236 -1.3647,0.23958 -2.0262,0.64908 -0.756,0.468 -1.7646,1.3134 -3.0246,2.5374 -1.26,1.224 -1.9612,1.998 -2.1052,2.322 l -0.43227,0.86454 c -0.144,0 -0.27074,0.0715 -0.37874,0.21547 -0.108,0.108 -0.16194,0.23474 -0.16194,0.37874 -0.108,0.072 -0.34127,0.37808 -0.70127,0.91808 -0.324,0.54 -0.59368,0.91755 -0.80968,1.1336 -2.772,5.076 -3.8884,7.8846 -3.3484,8.4246 0.46798,0.576 0.70127,1.025 0.70127,1.349 0,0.072 0.25214,0.28908 0.75614,0.64908 0.504,0.36 0.81008,0.64721 0.91808,0.86321 2.52,1.62 6.228,-0.0533 11.124,-5.0213 0.576,-0.576 0.98995,-1.0439 1.242,-1.4039 0.144,0.9 0.46895,1.6915 0.97295,2.3755 1.404,2.7 3.5088,3.8515 6.3168,3.4555 0.972,-0.216 1.4588,-1.0614 1.4588,-2.5374 0,-0.64798 -0.43149,-1.0444 -1.2955,-1.1884 -0.86398,-0.144 -1.4762,-0.59302 -1.8362,-1.349 -1.26,-2.016 -1.4771,-4.2125 -0.64908,-6.5885 l 0.91808,-2.7007 c -2.376,-2.124 -3.9051,-3.4548 -4.5891,-3.9948 -0.396,-0.288 -0.63062,-0.48621 -0.70262,-0.59421 -0.576,-0.468 -1.2596,-0.72014 -2.0516,-0.75614 -0.099,-0.005 -0.19733,-0.005 -0.29577,-10e-4 z m 139.57,0 c -0.68906,0.0236 -1.3647,0.23958 -2.0262,0.64908 -0.756,0.468 -1.7632,1.3134 -3.0232,2.5374 -1.26,1.224 -1.9625,1.998 -2.1065,2.322 l -0.43228,0.86454 c -0.144,0 -0.2694,0.0715 -0.3774,0.21547 -0.108,0.108 -0.16193,0.23474 -0.16193,0.37874 -0.108,0.072 -0.34262,0.37808 -0.70262,0.91808 -0.324,0.54 -0.59367,0.91755 -0.80967,1.1336 -2.772,5.076 -3.8884,7.8846 -3.3484,8.4246 0.468,0.576 0.70261,1.025 0.70261,1.349 0,0.072 0.25215,0.28908 0.75615,0.64908 0.50398,0.36 0.81007,0.64721 0.91807,0.86321 2.52,1.62 6.228,-0.0533 11.124,-5.0213 0.57598,-0.576 0.98995,-1.0439 1.242,-1.4039 0.144,0.9 0.46761,1.6915 0.97161,2.3755 1.404,2.7 3.5102,3.8515 6.3182,3.4555 0.972,-0.216 1.4574,-1.0614 1.4574,-2.5374 0,-0.64798 -0.43148,-1.0444 -1.2955,-1.1884 -0.864,-0.144 -1.4762,-0.59302 -1.8362,-1.349 -1.26,-2.016 -1.4757,-4.2125 -0.64774,-6.5885 l 0.91808,-2.7007 c -2.376,-2.124 -3.9064,-3.4548 -4.5904,-3.9948 -0.396,-0.288 -0.62928,-0.48621 -0.70128,-0.59421 -0.57598,-0.468 -1.261,-0.72014 -2.053,-0.75614 -0.099,-0.005 -0.19733,-0.005 -0.29577,-10e-4 z m 87.591,10e-4 c -0.972,0 -2.1411,0.32361 -3.509,0.97161 -1.368,0.612 -2.6463,1.7096 -3.8343,3.2936 -1.188,1.584 -2.0523,3.0605 -2.5923,4.4285 -0.54,1.368 -0.86361,2.5195 -0.97161,3.4555 -0.072,0.936 -0.10841,1.8192 -0.10841,2.6472 0,2.124 0.62971,3.7609 1.8897,4.9129 1.25999,1.152 2.8807,1.7291 4.8607,1.7291 1.98,0 3.7437,-0.66609 5.2917,-1.9981 1.584,-1.368 2.4308,-2.4669 2.5388,-3.2949 -0.036,-0.396 -0.27061,-0.80995 -0.70261,-1.242 -0.432,-0.432 -0.86348,-0.64774 -1.2955,-0.64774 -0.432,0 -1.0442,0.32361 -1.8362,0.97161 -0.756,0.648 -1.4221,1.0984 -1.9981,1.3504 -0.576,0.252 -1.1882,0.37874 -1.8362,0.37874 -0.648,0 -1.2062,-0.19821 -1.6742,-0.59421 -0.432,-0.396 -0.70167,-1.0985 -0.80967,-2.1065 0,-1.08 0.1254,-1.8176 0.3774,-2.2136 0.18,-0.252 0.37821,-0.37874 0.59421,-0.37874 0.216,0 0.79175,0.0903 1.7278,0.27033 0.972,0.144 1.9806,0.19794 3.0246,0.16194 1.044,-0.036 2.0876,-0.39602 3.1316,-1.08 1.044,-0.71998 1.818,-1.5304 2.322,-2.4304 1.008,-1.728 1.5123,-2.9699 1.5123,-3.7258 v -0.43228 c 0,-0.9 -0.48542,-1.8533 -1.4574,-2.8613 -0.972,-1.044 -2.5213,-1.5658 -4.6453,-1.5658 z m 76.677,0 c -0.972,0 -2.1424,0.32361 -3.5104,0.97161 -1.368,0.612 -2.6463,1.7096 -3.8343,3.2936 -1.188,1.584 -2.0523,3.0605 -2.5923,4.4285 -0.54,1.368 -0.86361,2.5195 -0.97161,3.4555 -0.072,0.936 -0.1084,1.8192 -0.1084,2.6472 0,2.124 0.62969,3.7609 1.8897,4.9129 1.26001,1.152 2.8808,1.7291 4.8607,1.7291 1.98,0 3.7437,-0.66609 5.2917,-1.9981 1.584,-1.368 2.4308,-2.4669 2.5388,-3.2949 -0.036,-0.396 -0.27062,-0.80995 -0.70262,-1.242 -0.43198,-0.432 -0.86348,-0.64774 -1.2955,-0.64774 -0.432,0 -1.0442,0.32361 -1.8362,0.97161 -0.756,0.648 -1.4221,1.0984 -1.9981,1.3504 -0.57599,0.252 -1.1882,0.37874 -1.8362,0.37874 -0.648,0 -1.2062,-0.19821 -1.6742,-0.59421 -0.43198,-0.396 -0.70167,-1.0985 -0.80967,-2.1065 0,-1.08 0.1254,-1.8176 0.3774,-2.2136 0.18,-0.252 0.37821,-0.37874 0.59421,-0.37874 0.21601,0 0.79176,0.0903 1.7278,0.27033 0.972,0.144 1.9806,0.19794 3.0246,0.16194 1.044,-0.036 2.0876,-0.39602 3.1316,-1.08 1.044,-0.71998 1.818,-1.5304 2.322,-2.4304 1.008,-1.728 1.5123,-2.9699 1.5123,-3.7258 v -0.43228 c 0,-0.9 -0.48541,-1.8533 -1.4574,-2.8613 -0.97199,-1.044 -2.5199,-1.5658 -4.6439,-1.5658 z m -142.12,0.21546 c -0.792,0 -1.4581,0.19821 -1.9981,0.59421 -0.504,0.36 -0.75615,0.81036 -0.75615,1.3504 l 0.10841,1.1871 c 0,0.504 -0.0728,0.99075 -0.21681,1.4588 -0.432,1.008 -0.75561,1.7456 -0.97161,2.2136 -0.18,0.432 -0.34181,0.84595 -0.48581,1.242 -0.144,0.396 -0.23434,0.64814 -0.27034,0.75614 0,0.072 -0.0364,0.30661 -0.1084,0.70261 -0.072,0.36 -0.161,0.73755 -0.269,1.1336 -0.072,0.36 -0.23514,1.0625 -0.48714,2.1065 -0.252,1.044 -0.43134,1.853 -0.53934,2.429 -0.108,0.54 -0.16194,1.1346 -0.16194,1.7826 0,0.648 0.30608,1.2777 0.91808,1.8897 0.648,0.612 1.368,0.91808 2.16,0.91808 0.036,0 0.25174,-0.23328 0.64774,-0.70128 0.432,-0.504 0.93629,-1.0986 1.5123,-1.7826 0.612,-0.684 1.1878,-1.2962 1.7278,-1.8362 0.54,-0.576 1.6025,-1.7275 3.1865,-3.4555 1.476,-1.62 2.4832,-2.4304 3.0232,-2.4304 0.036,0 0.0535,0.10788 0.0535,0.32388 0,0.216 -0.44901,1.3136 -1.349,3.2936 l -1.242,3.6188 v 0.27034 c 0,0.612 0.23327,1.0799 0.70127,1.4039 l 0.59421,0.48581 c 0.252,0.216 0.59448,0.32387 1.0265,0.32387 0.432,0 1.1871,-0.50429 2.2671,-1.5123 0.468,-0.468 0.84688,-0.80914 1.1349,-1.0251 0.072,-0.108 0.161,-0.19834 0.269,-0.27034 3.132,-3.42 5.1667,-5.1297 6.1027,-5.1297 0.108,0 0.16194,0.0539 0.16194,0.16194 0,0.108 -0.0539,0.46801 -0.16194,1.08 -0.072,0.612 -0.1084,1.2242 -0.1084,1.8362 0,1.512 0.37888,2.8253 1.1349,3.9413 0.792,1.08 1.7089,1.6207 2.7529,1.6207 2.376,0 3.5639,-0.72003 3.5639,-2.16 0,-0.576 -0.17934,-0.97242 -0.53934,-1.1884 -0.324,-0.252 -0.68401,-0.43267 -1.08,-0.54067 -0.36,-0.108 -0.55821,-0.26981 -0.59421,-0.48581 -0.252,-0.612 -0.43134,-1.7635 -0.53934,-3.4555 -0.108,-1.728 -0.37902,-3.1317 -0.81102,-4.2117 -0.396,-1.08 -1.17,-1.6207 -2.322,-1.6207 -0.792,0.036 -2.0338,0.63063 -3.7258,1.7826 -1.692,1.15197 -2.8799,2.1417 -3.5639,2.9697 0.216,-0.324 0.59489,-1.7101 1.1349,-4.1581 0,-0.828 -0.36002,-1.5656 -1.08,-2.2136 -0.72,-0.648 -1.3322,-0.97295 -1.8362,-0.97295 -0.72,0.216 -1.9079,0.91849 -3.5639,2.1065 -1.62,1.152 -2.8443,2.1242 -3.6723,2.9162 -0.828,0.792 -1.2959,1.1331 -1.4039,1.0251 -0.072,0 -0.1084,-0.0539 -0.1084,-0.16193 l 1.9446,-4.751 c 0.288,-0.576 0.43094,-1.1882 0.43094,-1.8362 0,-0.684 -0.23328,-1.3501 -0.70128,-1.9981 -0.468,-0.684 -1.0977,-1.0265 -1.8897,-1.0265 z m -118.89,0.53934 c -0.62775,-0.008 -1.346,0.0813 -2.156,0.27034 -1.44,0.324 -3.0607,1.2611 -4.8607,2.8091 -1.332,1.08 -2.6103,2.6279 -3.8343,4.6439 -0.50398,0.828 -0.91795,1.7274 -1.242,2.6994 -0.324,0.972 -0.4494,1.6381 -0.3774,1.9981 0.072,0.324 5.3e-4,0.48581 -0.21547,0.48581 l -0.2168,0.21681 c -0.072,0.108 -0.0181,0.25093 0.16193,0.43093 l -0.1084,1.242 c -0.216,1.296 0.4865,2.79 2.1065,4.482 0.792,0.684 1.4945,1.0265 2.1065,1.0265 2.376,-0.144 4.0318,-0.54042 4.9678,-1.1884 2.34,-1.404 4.1765,-3.0773 5.5085,-5.0213 2.268,-3.276 3.2577,-6.4083 2.9697,-9.3963 -0.216,-1.944 -1.0264,-3.2222 -2.4304,-3.8342 -0.54,-0.5625 -1.3333,-0.85048 -2.3795,-0.86455 z m 17.492,0.70262 c -0.648,0 -1.008,0.0539 -1.08,0.16193 -0.36,0 -0.54068,0.18068 -0.54068,0.54068 l 0.0549,0.0535 c -0.108,1.044 -0.57588,2.538 -1.4039,4.482 -0.792,1.908 -1.2788,3.1499 -1.4588,3.7259 -1.44,2.808 -2.16,4.933 -2.16,6.373 0.216,0.54 0.64882,1.1508 1.2968,1.8348 0.648,0.684 1.151,1.044 1.511,1.08 0.396,0.036 0.68455,0.036 0.86455,0 0.216,-0.072 0.48568,-0.28774 0.80968,-0.64774 1.584,-2.052 3.9598,-4.2121 7.1278,-6.4801 1.764,-1.26 2.9708,-1.8897 3.6188,-1.8897 0.36,0 0.59328,0.36002 0.70128,1.08 v 0.86455 l -0.27034,3.671 c 0,2.484 1.1353,3.7622 3.4033,3.8342 0.468,-0.072 0.95342,-0.34168 1.4574,-0.80968 0.54,-0.504 0.80967,-0.86401 0.80967,-1.08 0,-0.252 -0.21574,-0.84663 -0.64774,-1.7826 -0.432,-0.936 -0.57627,-1.4754 -0.43227,-1.6194 l -0.16194,-0.32387 c 0.144,-0.468 0.21681,-1.2784 0.21681,-2.4304 l -0.10841,-2.9697 0.21547,-2.4839 c -0.144,-0.432 -0.64829,-0.89988 -1.5123,-1.4039 -0.828,-0.54 -1.4752,-0.81102 -1.9432,-0.81102 -0.864,0 -3.1508,1.494 -6.8588,4.482 -1.62,1.26 -2.7176,2.0892 -3.2936,2.4852 0,-0.072 0.46789,-1.0442 1.4039,-2.9162 0.936,-1.872 1.4039,-3.2581 1.4039,-4.1581 0,-0.9 -0.34114,-1.6025 -1.0251,-2.1065 -0.684,-0.504 -1.3501,-0.75614 -1.9981,-0.75614 z m 166.46,2.4839 h 0.59421 c 1.152,0.108 1.7278,0.55835 1.7278,1.3504 -0.036,0.288 -0.43242,0.80982 -1.1884,1.5658 -0.71998,0.72 -1.2418,1.1704 -1.5658,1.3504 -0.288,0.144 -0.98916,0.21547 -2.1052,0.21547 -1.11604,0 -1.7106,-0.21574 -1.7826,-0.64774 0.648,-1.008 1.4044,-1.8898 2.2684,-2.6458 0.9,-0.792 1.5836,-1.1884 2.0516,-1.1884 z m 76.676,0 h 0.59421 c 1.152,0.108 1.7278,0.55835 1.7278,1.3504 -0.036,0.288 -0.43242,0.80982 -1.1884,1.5658 -0.72,0.72 -1.2418,1.1704 -1.5658,1.3504 -0.28801,0.144 -0.98917,0.21547 -2.1052,0.21547 -1.11603,0 -1.7106,-0.21574 -1.7826,-0.64774 0.64801,-1.008 1.4044,-1.8898 2.2684,-2.6458 0.90001,-0.792 1.5836,-1.1884 2.0516,-1.1884 z m -303.05,0.75614 c 0.612,0 1.2228,0.66611 1.8348,1.9981 l -1.1871,1.9446 c -0.54,0.792 -1.1522,1.5296 -1.8362,2.2136 -0.396,0.36 -0.71961,0.64855 -0.97161,0.86455 -0.252,0.216 -0.66595,0.55714 -1.242,1.0251 -0.54,0.468 -0.97282,0.84689 -1.2968,1.1349 -1.656,1.368 -2.7724,2.0152 -3.3484,1.9432 0.432,-1.404 0.91876,-2.538 1.4588,-3.402 3.06,-5.148 5.2565,-7.722 6.5885,-7.722 z m 139.57,0 c 0.612,0 1.2242,0.66611 1.8362,1.9981 l -1.1884,1.9446 c -0.54,0.792 -1.1522,1.5296 -1.8362,2.2136 -0.396,0.36 -0.71961,0.64855 -0.97161,0.86455 -0.252,0.216 -0.66595,0.55714 -1.242,1.0251 -0.54,0.468 -0.97148,0.84689 -1.2955,1.1349 -1.656,1.368 -2.7724,2.0152 -3.3484,1.9432 0.432,-1.404 0.91876,-2.538 1.4588,-3.402 3.06,-5.148 5.2552,-7.722 6.5872,-7.722 z m -98.289,0.9957 c 0.216,-0.007 0.47252,0.0577 0.76952,0.19272 0.288,0.18 0.41475,0.71935 0.37875,1.6194 0,0.864 -0.0728,1.4047 -0.21681,1.6207 -0.108,0.216 -0.2334,0.53962 -0.3774,0.97162 -0.144,0.39598 -0.25187,0.66567 -0.32387,0.80967 -0.036,0.108 -0.12634,0.32508 -0.27034,0.64908 -0.108,0.324 -0.19834,0.55728 -0.27034,0.70128 -0.072,0.108 -0.17987,0.3062 -0.32387,0.5942 -0.108,0.252 -0.2334,0.45021 -0.3774,0.59421 -0.108,0.144 -0.25228,0.30581 -0.43228,0.48581 l -1.1336,1.1336 c -0.576,0.54 -1.2246,0.91888 -1.9446,1.1349 -0.72,0.216 -1.2418,0.10813 -1.5658,-0.32387 -0.288,-0.468 -0.37834,-1.153 -0.27034,-2.053 0.54,-2.628 2.1783,-5.0942 4.9143,-7.3982 0.576,-0.396 0.98995,-0.62928 1.242,-0.70128 0.063,-0.018 0.13009,-0.0285 0.20209,-0.0308 z m 161.22,1.266 c 0.49852,0.007 0.91035,0.20715 1.2366,0.6009 0.612,0.972 0.6484,1.8714 0.1084,2.6994 -0.252,0.432 -0.54054,0.82842 -0.86454,1.1884 -0.324,0.324 -0.79189,0.73795 -1.4039,1.242 -0.576,0.504 -1.5657,1.0434 -2.9697,1.6194 -1.368,0.54 -2.3038,0.81102 -2.8078,0.81102 -0.36,0 -0.37884,-0.59463 -0.0549,-1.7826 0.324,-1.188 1.0629,-2.3934 2.2149,-3.6174 1.9305,-1.8562 3.4442,-2.7764 4.5409,-2.7609 z"
       style="font-variant-ligatures:none;fill:#000000"
       id="path33152" /><path
       style="fill:#000000;stroke-width:0.48750001"
       d="m 511.69,274.55 10e-4,0.008 c -0.23853,0.002 -0.6511,0.013 -0.91674,0.0241 -0.26563,0.0108 -0.64973,0.0349 -0.85384,0.0522 -0.20377,0.0173 -0.58367,0.0551 -0.84448,0.0843 -0.26081,0.0293 -0.67505,0.0843 -0.92075,0.12178 -0.24618,0.0377 -0.72138,0.12311 -1.0573,0.19004 -0.3354,0.0672 -0.87166,0.18954 -1.1924,0.27168 -0.32029,0.0822 -0.76053,0.20309 -0.97697,0.269 -0.21597,0.0656 -0.56961,0.17894 -0.78558,0.25294 -0.21596,0.074 -0.53976,0.18898 -0.71867,0.25562 -0.17889,0.067 -0.47153,0.18296 -0.65042,0.25695 -0.17889,0.074 -0.48338,0.20449 -0.67719,0.29041 -0.1938,0.0859 -0.59479,0.27652 -0.88997,0.42425 -0.29517,0.14745 -0.71486,0.36865 -0.93414,0.48982 -0.21901,0.12144 -0.5702,0.32309 -0.7789,0.44967 -0.2087,0.12658 -0.59283,0.37257 -0.85384,0.54603 -0.26075,0.17347 -0.64485,0.4392 -0.85384,0.59153 -0.2087,0.15206 -0.55223,0.4144 -0.76283,0.58217 -0.21088,0.16777 -0.53937,0.43957 -0.73072,0.60357 -0.19136,0.16399 -0.51904,0.45793 -0.72804,0.6531 -0.2087,0.19543 -0.58701,0.56737 -0.84046,0.82707 -0.25344,0.25939 -0.59983,0.63087 -0.76953,0.8244 -0.16995,0.19353 -0.43966,0.51012 -0.59822,0.70395 -0.15883,0.1938 -0.39899,0.49828 -0.53399,0.67719 -0.13497,0.1789 -0.32372,0.43461 -0.42022,0.56878 -0.0965,0.13417 -0.29765,0.42679 -0.447,0.65041 -0.14935,0.22361 -0.39291,0.60776 -0.54201,0.85385 -0.1488,0.24584 -0.39665,0.67742 -0.55005,0.95822 -0.15342,0.28081 -0.38623,0.73164 -0.51659,1.0024 -0.13038,0.27077 -0.31068,0.66492 -0.40149,0.87391 -0.0905,0.20925 -0.24581,0.58544 -0.34394,0.83645 -0.0979,0.251 -0.25736,0.68915 -0.35466,0.97428 -0.0973,0.28515 -0.2423,0.74462 -0.32253,1.0211 -0.08,0.2762 -0.1949,0.70519 -0.25561,0.95288 -0.061,0.24774 -0.16485,0.72282 -0.23153,1.0559 -0.0667,0.33312 -0.1587,0.86197 -0.20343,1.175 -0.0447,0.31306 -0.099,0.75201 -0.12178,0.97563 -0.0228,0.22362 -0.0571,0.55896 -0.075,0.74543 -0.0249,0.26075 -0.0339,8.5977 -0.0402,36.195 -0.005,19.72 0.002,35.894 0.0134,35.942 l 0.0228,0.0857 0.39078,0.008 c 0.23067,0.004 0.54173,-0.0107 0.75749,-0.0348 0.20139,-0.0231 0.51299,-0.0666 0.6919,-0.0964 0.17889,-0.0301 0.49525,-0.096 0.70395,-0.14721 0.20871,-0.0515 0.52638,-0.13851 0.70529,-0.19272 0.17889,-0.0545 0.51109,-0.17207 0.73875,-0.26097 0.22768,-0.0889 0.7096,-0.3106 1.0706,-0.4925 0.36131,-0.18214 0.84034,-0.44391 1.064,-0.58216 0.22362,-0.13851 0.54841,-0.35179 0.72269,-0.47376 0.17429,-0.12198 0.5157,-0.37666 0.75882,-0.56611 0.24313,-0.18946 0.55846,-0.44252 0.69993,-0.56342 0.14149,-0.12116 0.46234,-0.41092 0.71198,-0.64373 0.24964,-0.2331 0.66458,-0.65098 0.92344,-0.92745 0.25913,-0.27647 0.57629,-0.62314 0.70528,-0.77086 0.12902,-0.14799 0.36105,-0.4227 0.51525,-0.61027 0.15396,-0.18783 0.40811,-0.50548 0.56477,-0.70663 0.15667,-0.20139 0.43297,-0.56837 0.61295,-0.81637 0.17997,-0.24801 0.50239,-0.71201 0.71733,-1.0305 0.21494,-0.31848 0.53208,-0.80725 0.70529,-1.0854 0.17293,-0.27837 0.47244,-0.77793 0.66514,-1.1108 0.19299,-0.33312 0.4999,-0.87987 0.6812,-1.2152 0.18133,-0.33556 0.53486,-1.0242 0.78558,-1.531 0.251,-0.50685 0.59664,-1.234 0.76819,-1.614 0.17131,-0.38028 0.41752,-0.94049 0.54737,-1.246 0.12956,-0.30574 0.34364,-0.82406 0.4751,-1.1523 0.13173,-0.32825 0.30889,-0.78041 0.39346,-1.0037 0.0848,-0.22335 0.2815,-0.75878 0.43763,-1.1911 0.1564,-0.43233 0.4045,-1.1463 0.55138,-1.5859 0.14664,-0.43991 0.34514,-1.056 0.44164,-1.3691 0.0968,-0.31306 0.25679,-0.84374 0.35599,-1.179 0.0989,-0.33556 0.2843,-0.98858 0.41086,-1.4507 0.12658,-0.46214 0.35619,-1.3469 0.51124,-1.9673 0.15477,-0.62044 0.37358,-1.5427 0.4858,-2.0476 0.11221,-0.50495 0.29518,-1.375 0.40685,-1.9339 0.11195,-0.55916 0.26538,-1.3572 0.34127,-1.7733 0.0756,-0.41606 0.21035,-1.1964 0.29844,-1.7344 0.0878,-0.53805 0.2141,-1.3566 0.28105,-1.8188 0.0672,-0.46213 0.17241,-1.2188 0.23286,-1.6809 0.0602,-0.46214 0.15745,-1.2662 0.21681,-1.788 0.0594,-0.52177 0.14505,-1.3214 0.19004,-1.7759 0.0447,-0.45482 0.10456,-1.1139 0.13383,-1.4641 0.0296,-0.35047 0.0794,-0.98453 0.10974,-1.4092 0.0304,-0.425 0.0788,-1.1684 0.1084,-1.6528 0.0295,-0.48463 0.0755,-1.4245 0.10172,-2.0878 0.042,-1.0538 0.0504,-1.171 0.0696,-0.93414 0.0122,0.14908 0.0235,1.4408 0.0254,2.872 0.002,1.5444 -0.009,2.9889 -0.0281,3.5519 -0.0179,0.52177 -0.0448,1.2283 -0.0602,1.5712 -0.0152,0.34288 -0.052,1.0565 -0.0816,1.5859 -0.0295,0.52909 -0.0789,1.2976 -0.1084,1.7077 -0.0295,0.40983 -0.0783,1.0381 -0.10841,1.3958 -0.0301,0.35778 -0.0915,1.0287 -0.1365,1.4909 -0.045,0.46214 -0.13015,1.2615 -0.19004,1.7759 -0.0596,0.51417 -0.15745,1.2948 -0.21681,1.7344 -0.0594,0.43964 -0.15718,1.1285 -0.21681,1.531 -0.0599,0.40251 -0.16296,1.0616 -0.23018,1.4641 -0.0672,0.40223 -0.17663,1.0302 -0.24358,1.3958 -0.0672,0.36537 -0.19561,1.0303 -0.28506,1.4775 -0.0894,0.44723 -0.24262,1.1728 -0.33993,1.6127 -0.0973,0.43964 -0.28526,1.2437 -0.41889,1.788 -0.13336,0.544 -0.29866,1.1973 -0.36669,1.4507 -0.068,0.25343 -0.19722,0.71742 -0.2864,1.0305 -0.0892,0.31306 -0.2513,0.8672 -0.36135,1.2326 -0.10978,0.36511 -0.27535,0.89581 -0.36669,1.179 -0.0911,0.28325 -0.25586,0.77675 -0.36536,1.0974 -0.10978,0.32038 -0.27217,0.78441 -0.36134,1.0305 -0.0889,0.24612 -0.22916,0.62628 -0.31183,0.84448 -0.0829,0.21846 -0.2601,0.66928 -0.39346,1.0024 -0.13363,0.33339 -0.33636,0.82508 -0.45101,1.0934 -0.11439,0.26834 -0.33796,0.77505 -0.49651,1.1255 -0.15856,0.3502 -0.49097,1.0449 -0.74009,1.5444 -0.24882,0.4993 -0.58316,1.1465 -0.74276,1.4374 -0.15938,0.29057 -0.41909,0.7466 -0.57547,1.0144 -0.15667,0.26752 -0.40713,0.68274 -0.55674,0.9221 -0.14935,0.23906 -0.42696,0.66826 -0.61696,0.95287 -0.19001,0.28487 -0.45757,0.67505 -0.59555,0.86723 -0.13797,0.19244 -0.41372,0.56339 -0.6116,0.8244 -0.19787,0.26075 -0.50106,0.64514 -0.67451,0.85384 -0.1732,0.2087 -0.48247,0.56804 -0.68655,0.79897 -0.2041,0.23066 -0.60851,0.65719 -0.89935,0.94886 -0.29057,0.29165 -0.73904,0.71478 -0.9957,0.94083 -0.25669,0.22633 -0.60705,0.52479 -0.77889,0.66246 -0.17158,0.13742 -0.30708,0.25393 -0.30112,0.25963 0.006,0.006 0.20394,-0.0391 0.4403,-0.10037 0.23608,-0.0613 0.63653,-0.17305 0.88998,-0.24759 0.25342,-0.0748 0.63175,-0.1908 0.84045,-0.25829 0.20871,-0.0675 0.60493,-0.20275 0.88061,-0.29978 0.27593,-0.0973 0.69695,-0.25311 0.93548,-0.34662 0.23853,-0.0935 0.58598,-0.23376 0.7722,-0.31183 0.18649,-0.0778 0.60669,-0.26312 0.93414,-0.4122 0.32743,-0.14908 0.79143,-0.36866 1.0305,-0.48848 0.23907,-0.1198 0.67169,-0.34548 0.96224,-0.50187 0.29084,-0.15639 0.76064,-0.41898 1.0439,-0.5835 0.28324,-0.16453 0.6927,-0.4089 0.90871,-0.54335 0.2163,-0.13444 0.58144,-0.36832 0.81236,-0.51927 0.23121,-0.15125 0.64641,-0.43094 0.92209,-0.62231 0.27593,-0.19109 0.78237,-0.55807 1.1255,-0.81503 0.34342,-0.25669 0.86861,-0.66241 1.167,-0.90202 0.29869,-0.23961 0.77953,-0.63902 1.0693,-0.8873 0.28975,-0.24828 0.76533,-0.66641 1.0559,-0.92878 0.29084,-0.26238 1.0238,-0.97208 1.6287,-1.5765 0.60528,-0.60445 1.3057,-1.3258 1.5578,-1.602 0.25235,-0.27647 0.64016,-0.70932 0.86187,-0.96224 0.22199,-0.25316 0.6077,-0.70424 0.85652,-1.0024 0.24882,-0.29816 0.65193,-0.79195 0.89533,-1.0974 0.24341,-0.30574 0.69368,-0.89099 1.001,-1.3008 0.3071,-0.4101 0.70597,-0.95237 0.88596,-1.2058 0.18025,-0.25343 0.43756,-0.61991 0.57146,-0.81369 0.13391,-0.1938 0.38962,-0.57214 0.56878,-0.84046 0.17917,-0.26834 0.45153,-0.68223 0.60492,-0.92076 0.15342,-0.23852 0.43418,-0.68487 0.62365,-0.99034 0.18946,-0.30574 0.50318,-0.82296 0.69726,-1.151 0.19407,-0.32797 0.44952,-0.76693 0.56878,-0.97563 0.11926,-0.20871 0.3813,-0.67879 0.58216,-1.0439 0.20084,-0.36538 0.50325,-0.92692 0.67183,-1.2473 0.16887,-0.32066 0.53373,-1.0404 0.81102,-1.5993 0.27728,-0.55916 0.64981,-1.3274 0.82707,-1.7077 0.17699,-0.38029 0.44935,-0.97738 0.60492,-1.3276 0.15559,-0.35047 0.39651,-0.90593 0.53532,-1.2339 0.13905,-0.32798 0.33967,-0.80751 0.44566,-1.0653 0.10625,-0.25804 0.31636,-0.78268 0.46707,-1.1657 0.15043,-0.38326 0.40535,-1.0492 0.5661,-1.4815 0.161,-0.43232 0.4075,-1.1164 0.54871,-1.519 0.14122,-0.40251 0.41591,-1.2127 0.61027,-1.8014 0.19435,-0.589 0.46455,-1.4371 0.6009,-1.8843 0.13634,-0.44723 0.36861,-1.2337 0.51525,-1.7478 0.14664,-0.51446 0.347,-1.2376 0.44566,-1.606 0.0984,-0.36836 0.30666,-1.1843 0.46305,-1.8148 0.15667,-0.63043 0.39974,-1.6658 0.54068,-2.2992 0.14094,-0.6337 0.33103,-1.5174 0.42156,-1.9646 0.0908,-0.44723 0.23078,-1.167 0.31183,-1.5993 0.0808,-0.43233 0.2271,-1.2556 0.32387,-1.8295 0.097,-0.57408 0.22463,-1.3676 0.28372,-1.7626 0.0594,-0.39491 0.15084,-1.0232 0.20342,-1.3959 0.0523,-0.3727 0.1438,-1.0673 0.20343,-1.5444 0.0594,-0.47705 0.14584,-1.2055 0.19138,-1.618 0.0452,-0.41281 0.11774,-1.1267 0.16193,-1.5859 0.0442,-0.45942 0.11036,-1.2134 0.14722,-1.6756 0.0371,-0.46214 0.0807,-1.0223 0.0964,-1.246 0.0154,-0.22361 0.04,-0.60193 0.0549,-0.84046 0.0152,-0.23853 0.04,-0.64795 0.0549,-0.90871 0.0146,-0.26102 0.0449,-0.89507 0.0669,-1.4092 0.0222,-0.51446 0.0536,-1.4838 0.0709,-2.1547 0.0173,-0.67085 0.0248,-1.6168 0.0161,-2.1011 -0.009,-0.48463 -0.0347,-1.0936 -0.0575,-1.3544 -0.0228,-0.26102 -0.0607,-0.63932 -0.0843,-0.84046 -0.0236,-0.20139 -0.0724,-0.57362 -0.10974,-0.82707 -0.0371,-0.25343 -0.12098,-0.72928 -0.18603,-1.0573 -0.0651,-0.32797 -0.18026,-0.84122 -0.25561,-1.1416 -0.0754,-0.30032 -0.21061,-0.78802 -0.29978,-1.084 -0.0892,-0.29599 -0.24024,-0.75817 -0.33592,-1.0265 -0.0957,-0.26834 -0.24675,-0.67038 -0.33592,-0.89399 -0.0889,-0.22362 -0.24498,-0.59614 -0.34662,-0.82707 -0.10192,-0.2312 -0.31624,-0.68201 -0.47644,-1.0024 -0.15992,-0.32065 -0.42515,-0.81705 -0.58885,-1.1028 -0.16371,-0.28596 -0.38123,-0.65243 -0.48179,-0.81369 -0.10084,-0.16155 -0.31699,-0.49429 -0.48179,-0.74009 -0.1648,-0.24611 -0.48514,-0.69406 -0.71065,-0.99436 -0.2255,-0.30032 -0.55739,-0.72265 -0.73874,-0.93949 -0.18133,-0.21684 -0.44838,-0.52687 -0.59287,-0.68789 -0.1442,-0.16128 -0.49484,-0.52801 -0.7789,-0.81637 -0.28407,-0.28839 -0.69111,-0.68517 -0.90469,-0.88061 -0.21359,-0.19543 -0.59194,-0.52471 -0.84046,-0.73205 -0.24856,-0.20735 -0.68303,-0.54983 -0.96626,-0.7615 -0.28325,-0.21169 -0.6497,-0.47664 -0.81369,-0.58886 -0.16399,-0.11221 -0.49959,-0.33206 -0.74544,-0.48848 -0.24584,-0.15613 -0.63022,-0.38892 -0.85384,-0.51659 -0.22361,-0.12794 -0.56475,-0.31564 -0.75882,-0.41755 -0.19408,-0.10219 -0.58424,-0.29833 -0.86723,-0.43495 -0.28275,-0.14551 -0.7163,-0.34183 -0.96492,-0.44566 -0.24375,-0.10379 -0.63906,-0.26222 -0.87793,-0.35197 -0.23888,-0.0897 -0.62471,-0.22658 -0.85384,-0.3038 -0.234,-0.0775 -0.69183,-0.21778 -1.0184,-0.31182 -0.32663,-0.0941 -0.80874,-0.21955 -1.072,-0.27971 -0.25838,-0.0602 -0.66352,-0.14668 -0.89265,-0.19138 -0.22912,-0.045 -0.62443,-0.11248 -0.87793,-0.15123 -0.24862,-0.0388 -0.66238,-0.0944 -0.92075,-0.12312 -0.2535,-0.029 -0.61908,-0.0648 -0.80433,-0.0803 -0.18525,-0.0155 -0.61468,-0.04 -0.94618,-0.0549 -0.33637,-0.0147 -0.80878,-0.0249 -1.0452,-0.0227 z m -10.854,13.244 v 0.001 c 0.49223,0.005 0.85886,0.0216 1.0787,0.0509 0.1835,0.0241 0.46428,0.0686 0.62366,0.099 0.15963,0.0306 0.46043,0.0991 0.66915,0.15257 0.20871,0.0531 0.5206,0.1446 0.6919,0.20342 0.17158,0.0588 0.45684,0.16796 0.63436,0.24223 0.17726,0.0743 0.45276,0.20189 0.61295,0.28239 0.16019,0.0802 0.39929,0.2086 0.53131,0.28639 0.132,0.0778 0.38193,0.23624 0.5554,0.35198 0.17346,0.11601 0.47349,0.33696 0.66513,0.48982 0.19163,0.15287 0.51515,0.44077 0.71868,0.63971 0.20356,0.19923 0.48355,0.49608 0.62231,0.65979 0.13878,0.16344 0.36288,0.44867 0.49785,0.63436 0.13525,0.1854 0.33877,0.49411 0.45369,0.68521 0.11492,0.19109 0.28893,0.50696 0.38543,0.70127 0.0965,0.19435 0.23146,0.49253 0.30112,0.66247 0.0699,0.17022 0.15667,0.39484 0.19272,0.49919 0.0358,0.10436 0.11275,0.35662 0.1713,0.56209 0.0583,0.20517 0.14345,0.55979 0.18736,0.78692 0.0439,0.22686 0.10111,0.59544 0.12714,0.81905 0.0325,0.28054 0.0468,0.61259 0.0468,1.0706 0,0.45808 -0.0142,0.79009 -0.0468,1.0706 -0.026,0.22361 -0.0837,0.59535 -0.12848,0.82574 -0.0447,0.23039 -0.13489,0.60208 -0.1994,0.82707 -0.0645,0.22524 -0.16285,0.53161 -0.21815,0.67986 -0.0553,0.14827 -0.17154,0.43272 -0.25963,0.63168 -0.0878,0.19895 -0.23494,0.49766 -0.32655,0.6638 -0.0913,0.16616 -0.24899,0.43347 -0.35063,0.59421 -0.10192,0.16101 -0.28831,0.42993 -0.41354,0.59823 -0.12522,0.16832 -0.33692,0.43353 -0.47109,0.58885 -0.13416,0.15531 -0.40784,0.44054 -0.60759,0.63436 -0.19976,0.1938 -0.48421,0.45057 -0.63302,0.57012 -0.14908,0.1198 -0.37554,0.2917 -0.50186,0.38142 -0.12658,0.0897 -0.36334,0.24657 -0.5273,0.3493 -0.16399,0.103 -0.45662,0.27015 -0.65042,0.37071 -0.1938,0.10083 -0.49961,0.24555 -0.67852,0.32253 -0.17889,0.0767 -0.52028,0.20457 -0.75882,0.28372 -0.23852,0.0794 -0.58573,0.18092 -0.7722,0.22618 -0.18621,0.045 -0.48491,0.10641 -0.6638,0.1365 -0.1789,0.0298 -0.4536,0.0702 -0.61027,0.0897 -0.17455,0.0217 -0.58847,0.0348 -1.0706,0.0348 -0.47786,0 -0.89773,-0.0136 -1.0706,-0.0348 -0.15639,-0.0192 -0.45509,-0.0651 -0.6638,-0.10171 -0.20898,-0.0363 -0.52667,-0.10302 -0.70529,-0.14855 -0.1789,-0.0455 -0.5037,-0.14309 -0.72268,-0.21681 -0.21874,-0.0737 -0.5422,-0.19605 -0.71867,-0.27168 -0.17619,-0.0756 -0.48305,-0.22246 -0.68254,-0.32654 -0.19949,-0.10436 -0.48027,-0.26333 -0.62365,-0.35332 -0.14339,-0.0903 -0.39228,-0.25688 -0.55272,-0.36937 -0.16046,-0.11248 -0.45309,-0.3413 -0.65042,-0.50856 -0.19733,-0.16697 -0.52264,-0.4733 -0.72403,-0.6812 -0.20111,-0.20789 -0.4682,-0.50604 -0.59287,-0.6638 -0.12469,-0.15775 -0.30421,-0.39635 -0.39881,-0.52863 -0.0943,-0.13228 -0.2562,-0.37982 -0.36001,-0.55138 -0.10382,-0.1713 -0.26014,-0.45235 -0.34796,-0.62365 -0.0878,-0.17131 -0.22492,-0.46421 -0.3038,-0.65042 -0.0791,-0.18649 -0.20543,-0.52183 -0.2797,-0.74544 -0.0743,-0.22362 -0.17497,-0.57823 -0.22484,-0.78693 -0.0499,-0.20871 -0.11578,-0.5311 -0.14587,-0.71733 -0.0303,-0.18648 -0.0698,-0.47912 -0.0883,-0.65042 -0.0184,-0.17158 -0.0335,-0.59864 -0.0335,-0.94886 0,-0.35047 0.0151,-0.77755 0.0335,-0.94886 0.0184,-0.17158 0.0585,-0.46421 0.0883,-0.65042 0.0301,-0.18648 0.10204,-0.53417 0.16059,-0.77354 0.0583,-0.23934 0.16004,-0.59392 0.22618,-0.78692 0.0661,-0.19299 0.18504,-0.50301 0.26364,-0.68923 0.0789,-0.18649 0.21597,-0.47912 0.3038,-0.65042 0.0878,-0.17158 0.24414,-0.45235 0.34796,-0.62365 0.10381,-0.17158 0.26569,-0.42046 0.36001,-0.55272 0.0946,-0.13227 0.27412,-0.36983 0.39881,-0.5273 0.12468,-0.15775 0.38436,-0.44983 0.57815,-0.65042 0.1938,-0.2003 0.48275,-0.47738 0.64239,-0.61562 0.15938,-0.13797 0.38558,-0.32383 0.50186,-0.4122 0.11628,-0.0881 0.34012,-0.24573 0.49652,-0.35063 0.15667,-0.10462 0.41818,-0.26809 0.58216,-0.36269 0.16399,-0.0943 0.46981,-0.25222 0.67852,-0.35197 0.2087,-0.0997 0.52611,-0.23682 0.70663,-0.30513 0.18052,-0.0683 0.49213,-0.17376 0.69191,-0.23421 0.19949,-0.0604 0.5696,-0.15219 0.82306,-0.20342 0.25343,-0.0512 0.6199,-0.11213 0.81369,-0.13517 0.1938,-0.023 0.40075,-0.0462 0.46038,-0.0522 0.0596,-0.006 0.44401,-0.008 0.85384,-0.004 z m 22.145,0 v 0.001 c 0.4936,0.005 0.85959,0.0217 1.084,0.0509 0.18649,0.0247 0.52182,0.0824 0.74544,0.12714 0.22362,0.0447 0.57451,0.12855 0.78023,0.18737 0.20546,0.0588 0.54079,0.16928 0.74544,0.24491 0.20437,0.0759 0.60406,0.25225 0.8873,0.39212 0.28324,0.13986 0.65494,0.34366 0.82707,0.45235 0.17239,0.10869 0.41388,0.26766 0.53532,0.35331 0.1217,0.0857 0.34578,0.2565 0.49919,0.37874 0.15341,0.12225 0.49824,0.44148 0.76685,0.71065 0.26834,0.26915 0.58996,0.61926 0.71466,0.77755 0.12442,0.15829 0.30289,0.39531 0.39614,0.52596 0.0932,0.13065 0.26197,0.3914 0.37473,0.57949 0.11276,0.18784 0.27067,0.46967 0.35063,0.62633 0.0802,0.15639 0.2102,0.43716 0.28908,0.62365 0.0791,0.18621 0.19726,0.49678 0.26231,0.69056 0.0651,0.1938 0.15995,0.51729 0.21145,0.71868 0.0515,0.20111 0.11899,0.50563 0.14989,0.67718 0.0309,0.1713 0.0757,0.4832 0.10037,0.69191 0.0298,0.25343 0.045,0.60433 0.0455,1.0573 4.8e-4,0.47624 -0.0122,0.79836 -0.0455,1.084 -0.026,0.22362 -0.0846,0.59221 -0.12847,0.81904 -0.0439,0.22714 -0.12854,0.58617 -0.18871,0.79897 -0.0602,0.21305 -0.17089,0.55128 -0.24624,0.75213 -0.0751,0.20058 -0.20742,0.51855 -0.29443,0.70663 -0.087,0.1881 -0.23755,0.48311 -0.33324,0.65443 -0.0957,0.17103 -0.24463,0.41963 -0.33056,0.55272 -0.0857,0.13336 -0.25595,0.37696 -0.37874,0.54202 -0.12278,0.16534 -0.3329,0.42818 -0.46707,0.5835 -0.13417,0.15531 -0.40785,0.44053 -0.6076,0.63436 -0.19976,0.1938 -0.48554,0.45057 -0.63435,0.57012 -0.14908,0.11981 -0.37421,0.2917 -0.50053,0.38142 -0.12658,0.0897 -0.36467,0.24656 -0.52863,0.3493 -0.16399,0.10299 -0.45662,0.27015 -0.65042,0.37071 -0.1938,0.10083 -0.49827,0.24555 -0.67719,0.32253 -0.17889,0.0767 -0.52028,0.20457 -0.75882,0.28372 -0.23852,0.0794 -0.58573,0.18091 -0.7722,0.22618 -0.18621,0.045 -0.48491,0.10641 -0.6638,0.1365 -0.17889,0.0298 -0.45361,0.0702 -0.61027,0.0897 -0.17456,0.0217 -0.58847,0.0348 -1.0706,0.0348 -0.47813,0 -0.89743,-0.0136 -1.0706,-0.0348 -0.15639,-0.0192 -0.43138,-0.0607 -0.61027,-0.091 -0.17889,-0.0306 -0.49525,-0.0974 -0.70395,-0.14856 -0.20871,-0.0512 -0.55857,-0.15352 -0.77756,-0.22751 -0.21874,-0.0737 -0.5422,-0.19606 -0.71867,-0.27168 -0.17618,-0.0756 -0.48226,-0.22194 -0.67986,-0.32521 -0.19732,-0.103 -0.48047,-0.2638 -0.63035,-0.35732 -0.14989,-0.0935 -0.41749,-0.27331 -0.59421,-0.40016 -0.177,-0.12658 -0.46752,-0.35543 -0.6464,-0.50856 -0.17889,-0.15288 -0.48894,-0.44738 -0.68789,-0.65309 -0.19895,-0.206 -0.46283,-0.50257 -0.58752,-0.65979 -0.12468,-0.15721 -0.30394,-0.39502 -0.39881,-0.52729 -0.0946,-0.13227 -0.26332,-0.3933 -0.37473,-0.57949 -0.11113,-0.18648 -0.268,-0.46591 -0.34796,-0.62231 -0.0802,-0.15666 -0.20573,-0.42558 -0.27837,-0.59689 -0.0726,-0.1713 -0.17122,-0.4241 -0.22082,-0.56209 -0.0493,-0.13823 -0.13424,-0.40109 -0.18736,-0.5835 -0.0531,-0.18242 -0.13801,-0.53888 -0.1887,-0.79228 -0.051,-0.25344 -0.11237,-0.64361 -0.13785,-0.86722 -0.0309,-0.27404 -0.0468,-0.62313 -0.0468,-1.0706 0,-0.44751 0.0159,-0.79661 0.0468,-1.0706 0.0255,-0.22361 0.0868,-0.61378 0.13785,-0.86723 0.0507,-0.25343 0.13557,-0.61124 0.1887,-0.79362 0.0531,-0.18241 0.13803,-0.44393 0.18736,-0.58216 0.0496,-0.13797 0.14818,-0.39076 0.22082,-0.56209 0.0726,-0.17157 0.19814,-0.44049 0.27837,-0.59688 0.08,-0.15666 0.23683,-0.43745 0.34796,-0.62366 0.11141,-0.18648 0.27984,-0.44799 0.37607,-0.58216 0.096,-0.13417 0.28025,-0.37484 0.40818,-0.53532 0.12766,-0.1602 0.37443,-0.43965 0.54871,-0.62098 0.17456,-0.18106 0.45771,-0.45286 0.629,-0.60358 0.17158,-0.15071 0.40937,-0.3487 0.52863,-0.43896 0.11926,-0.0905 0.34548,-0.24976 0.50187,-0.35465 0.15667,-0.10463 0.41817,-0.26809 0.58216,-0.36269 0.16398,-0.0943 0.46849,-0.25222 0.67719,-0.35197 0.20871,-0.0997 0.52693,-0.2371 0.70662,-0.30513 0.17971,-0.0678 0.50928,-0.17717 0.73206,-0.24358 0.22281,-0.0661 0.59347,-0.15788 0.8244,-0.20342 0.23121,-0.0458 0.57976,-0.10249 0.77354,-0.1258 0.1938,-0.023 0.40075,-0.0463 0.46038,-0.0522 0.0596,-0.006 0.44401,-0.008 0.85384,-0.004 z m -22.129,3.8236 c -0.22415,-0.006 -0.51493,-6.9e-4 -0.64641,0.012 -0.13146,0.0127 -0.36347,0.0441 -0.51525,0.0696 -0.15179,0.0252 -0.42517,0.0866 -0.60759,0.13651 -0.18242,0.0499 -0.46556,0.14584 -0.629,0.21279 -0.16344,0.067 -0.37435,0.16001 -0.46841,0.20744 -0.0938,0.0472 -0.27937,0.15289 -0.41354,0.2342 -0.13417,0.0813 -0.36037,0.23396 -0.50186,0.33994 -0.14148,0.10598 -0.38432,0.31583 -0.53934,0.46573 -0.15477,0.14989 -0.37332,0.3824 -0.48581,0.51658 -0.11221,0.13417 -0.28965,0.37198 -0.39346,0.52864 -0.10354,0.1564 -0.27701,0.46457 -0.38543,0.68521 -0.1087,0.22063 -0.24655,0.5547 -0.30781,0.74142 -0.061,0.18675 -0.14167,0.48786 -0.178,0.66916 -0.0363,0.18133 -0.078,0.44814 -0.0937,0.59287 -0.0157,0.14474 -0.0294,0.43528 -0.0294,0.64506 0,0.20979 0.0136,0.50033 0.0294,0.64507 0.0157,0.14473 0.0587,0.41208 0.095,0.59421 0.0366,0.18215 0.11356,0.47477 0.1713,0.65041 0.0577,0.17565 0.15132,0.42346 0.20878,0.55005 0.0577,0.12685 0.16293,0.33617 0.23286,0.46573 0.0702,0.12957 0.18461,0.32306 0.25562,0.43094 0.071,0.10761 0.20652,0.29426 0.30112,0.41487 0.0943,0.12035 0.28415,0.33362 0.42157,0.47376 0.13715,0.13986 0.34834,0.33732 0.46841,0.43897 0.12035,0.10164 0.35814,0.27828 0.52863,0.39212 0.17049,0.11411 0.46863,0.28442 0.66246,0.37874 0.1938,0.0943 0.47138,0.21533 0.61696,0.269 0.14555,0.0534 0.40706,0.13302 0.58216,0.17666 0.1751,0.0436 0.44876,0.0985 0.6076,0.12179 0.15857,0.0233 0.45119,0.0496 0.65041,0.0589 0.21142,0.01 0.50864,0.005 0.71466,-0.0147 0.1938,-0.0176 0.48064,-0.0571 0.63704,-0.087 0.15666,-0.0301 0.38917,-0.0846 0.51792,-0.12045 0.12875,-0.036 0.33386,-0.10195 0.45636,-0.14721 0.12225,-0.045 0.35925,-0.14704 0.52596,-0.22618 0.16669,-0.0791 0.42114,-0.21755 0.56477,-0.30781 0.14366,-0.0905 0.35614,-0.23632 0.47242,-0.32387 0.11655,-0.0873 0.34568,-0.28658 0.50856,-0.44298 0.16263,-0.15667 0.38696,-0.39446 0.49919,-0.52863 0.11195,-0.13417 0.28885,-0.37223 0.39212,-0.52863 0.10327,-0.15666 0.27833,-0.46696 0.38811,-0.69057 0.1095,-0.22362 0.24631,-0.55314 0.30513,-0.73205 0.0588,-0.17889 0.13872,-0.47759 0.17666,-0.6638 0.038,-0.18648 0.0828,-0.47913 0.10037,-0.64908 0.0195,-0.18946 0.0269,-0.49921 0.0174,-0.79897 -0.008,-0.27056 -0.035,-0.60675 -0.0589,-0.74812 -0.0239,-0.14187 -0.0802,-0.40095 -0.12447,-0.57547 -0.0439,-0.17502 -0.12752,-0.44539 -0.18602,-0.6009 -0.0585,-0.15552 -0.18172,-0.43245 -0.27435,-0.61429 -0.0926,-0.18183 -0.25071,-0.45379 -0.35064,-0.60491 -0.0994,-0.15113 -0.2733,-0.3852 -0.38543,-0.51926 -0.11261,-0.13455 -0.33078,-0.36644 -0.48581,-0.51659 -0.15502,-0.14966 -0.39797,-0.35811 -0.53934,-0.46439 -0.14186,-0.10578 -0.36647,-0.25853 -0.50053,-0.33994 -0.13406,-0.0814 -0.33063,-0.19092 -0.43495,-0.24357 -0.10433,-0.0522 -0.32977,-0.15123 -0.50186,-0.21948 -0.1716,-0.0687 -0.47634,-0.16695 -0.67719,-0.21814 -0.20085,-0.0517 -0.50521,-0.11396 -0.67584,-0.13785 -0.17111,-0.0239 -0.49491,-0.0476 -0.71867,-0.0535 z m 22.145,0 c -0.22416,-0.006 -0.51494,-6.9e-4 -0.6464,0.012 -0.13146,0.0127 -0.36346,0.0441 -0.51525,0.0696 -0.15179,0.0252 -0.42519,0.0866 -0.6076,0.13651 -0.18242,0.0499 -0.46557,0.14584 -0.629,0.21279 -0.16344,0.067 -0.37436,0.16001 -0.46841,0.20744 -0.0938,0.0472 -0.27964,0.15261 -0.41354,0.2342 -0.13417,0.0816 -0.36037,0.2353 -0.50186,0.34127 -0.14176,0.10599 -0.3843,0.31505 -0.53934,0.4644 -0.15477,0.14962 -0.37333,0.38239 -0.48581,0.51658 -0.11222,0.13417 -0.28885,0.37198 -0.39212,0.52864 -0.10327,0.1564 -0.27834,0.46694 -0.38811,0.69056 -0.10951,0.22362 -0.24765,0.55314 -0.30647,0.73206 -0.0588,0.17889 -0.13737,0.47732 -0.17532,0.6638 -0.0377,0.18621 -0.0807,0.45749 -0.0964,0.60224 -0.0157,0.14474 -0.0294,0.43528 -0.0294,0.64506 0,0.20979 0.0136,0.50034 0.0294,0.64507 0.0158,0.14474 0.0574,0.41155 0.0937,0.59287 0.0363,0.18133 0.11754,0.48506 0.17934,0.67451 0.0621,0.18946 0.20651,0.53402 0.32253,0.76685 0.11628,0.23283 0.28052,0.52759 0.36536,0.65443 0.0846,0.12686 0.24248,0.33959 0.35063,0.47376 0.10815,0.13417 0.31722,0.36357 0.4644,0.50856 0.14745,0.14501 0.35335,0.33139 0.4577,0.41487 0.10436,0.0835 0.30685,0.22901 0.44833,0.32387 0.14176,0.0946 0.38563,0.2388 0.54202,0.3212 0.15667,0.0821 0.40631,0.19786 0.55539,0.25695 0.14907,0.0588 0.3621,0.13396 0.47377,0.16729 0.11195,0.0333 0.2957,0.0829 0.40818,0.10974 0.11249,0.0271 0.34448,0.0714 0.51525,0.0977 0.21982,0.0342 0.46868,0.0482 0.8525,0.0482 0.38001,0 0.63539,-0.0149 0.85384,-0.0482 0.1713,-0.026 0.45338,-0.0824 0.62633,-0.1258 0.17293,-0.0434 0.43444,-0.12247 0.58216,-0.17532 0.14745,-0.0531 0.42719,-0.17548 0.62098,-0.27034 0.1938,-0.0951 0.48909,-0.26332 0.65577,-0.37472 0.16642,-0.11141 0.3913,-0.27698 0.50053,-0.3667 0.10896,-0.0894 0.30669,-0.27055 0.43896,-0.40283 0.13255,-0.13227 0.32948,-0.3503 0.43763,-0.48447 0.10788,-0.13417 0.26607,-0.34691 0.35064,-0.47376 0.0848,-0.12685 0.24908,-0.42158 0.36536,-0.65443 0.116,-0.23283 0.26181,-0.5774 0.32387,-0.76685 0.0618,-0.18946 0.14167,-0.4932 0.17799,-0.67451 0.0363,-0.18133 0.0793,-0.44814 0.095,-0.59287 0.0157,-0.14474 0.0281,-0.43528 0.0281,-0.64507 0,-0.20979 -0.0123,-0.50032 -0.0281,-0.64506 -0.0157,-0.14474 -0.06,-0.41601 -0.0977,-0.60224 -0.0379,-0.18648 -0.1165,-0.48491 -0.17531,-0.6638 -0.0588,-0.17889 -0.19698,-0.50845 -0.30648,-0.73206 -0.10977,-0.22362 -0.2835,-0.53417 -0.38677,-0.69056 -0.10327,-0.15667 -0.27991,-0.39447 -0.39212,-0.52864 -0.11248,-0.13417 -0.33104,-0.36668 -0.48581,-0.51658 -0.15504,-0.14989 -0.3976,-0.35975 -0.53934,-0.46573 -0.14149,-0.10598 -0.36769,-0.25863 -0.50186,-0.33994 -0.13417,-0.0813 -0.32926,-0.19126 -0.43361,-0.24357 -0.10436,-0.0523 -0.33,-0.15118 -0.50187,-0.21948 -0.17184,-0.0686 -0.47738,-0.16664 -0.67852,-0.21814 -0.20085,-0.0515 -0.50508,-0.11266 -0.67585,-0.13651 -0.17103,-0.0239 -0.49347,-0.0489 -0.71733,-0.0549 z m -22.292,3.6469 c 0.27999,-0.002 0.38973,0.01 0.60358,0.0642 0.14393,0.0363 0.35773,0.11409 0.4751,0.17264 0.11736,0.0588 0.27845,0.15504 0.35867,0.21413 0.08,0.0591 0.23761,0.20488 0.34929,0.32387 0.11167,0.11926 0.24903,0.29538 0.30514,0.39079 0.0561,0.0957 0.13756,0.2681 0.18201,0.38275 0.0442,0.11466 0.10007,0.3216 0.12446,0.46038 0.0309,0.17754 0.0402,0.33247 0.0294,0.52328 -0.008,0.14907 -0.0414,0.36922 -0.0723,0.48848 -0.0306,0.11926 -0.10945,0.32621 -0.17532,0.46038 -0.0659,0.13417 -0.19399,0.3369 -0.28506,0.45101 -0.0914,0.11411 -0.25164,0.27546 -0.35599,0.35867 -0.10463,0.0832 -0.26517,0.19341 -0.35733,0.24491 -0.0922,0.0515 -0.27803,0.13059 -0.4122,0.17531 -0.1442,0.0482 -0.35271,0.0924 -0.5099,0.10841 -0.17808,0.0179 -0.34881,0.0182 -0.51524,0 -0.13715,-0.0152 -0.35831,-0.064 -0.4925,-0.10841 -0.13417,-0.0447 -0.31133,-0.11773 -0.39346,-0.16327 -0.0818,-0.0455 -0.23581,-0.14941 -0.34261,-0.23019 -0.10676,-0.0809 -0.24736,-0.21107 -0.31317,-0.28907 -0.0653,-0.0775 -0.1576,-0.19552 -0.20342,-0.26231 -0.0453,-0.0672 -0.12067,-0.19798 -0.16729,-0.29041 -0.0466,-0.0927 -0.11647,-0.27593 -0.15658,-0.40685 l -0.0723,-0.23822 v -0.84046 l 0.0723,-0.23822 c 0.0401,-0.13092 0.1113,-0.31414 0.15792,-0.40684 0.0466,-0.0924 0.13124,-0.23796 0.1887,-0.32253 0.0572,-0.0846 0.18505,-0.23299 0.28372,-0.33057 0.0987,-0.0978 0.26687,-0.23493 0.37339,-0.30513 0.10653,-0.0705 0.29211,-0.16854 0.41354,-0.21814 0.12116,-0.0493 0.29859,-0.10627 0.39346,-0.12714 0.0949,-0.0206 0.32579,-0.0399 0.51391,-0.0415 z m 22.145,0 c 0.28,-0.002 0.38973,0.01 0.60358,0.0642 0.14393,0.0363 0.35668,0.11357 0.47242,0.1713 0.11547,0.058 0.26363,0.14474 0.33057,0.19272 0.0667,0.048 0.19955,0.16318 0.29442,0.25561 0.0946,0.0927 0.22589,0.24269 0.29176,0.33458 0.0659,0.0919 0.16287,0.26089 0.21546,0.37473 0.0526,0.11385 0.1214,0.30022 0.15257,0.41487 0.0458,0.16751 0.0575,0.28675 0.0575,0.60224 0,0.31957 -0.0109,0.43381 -0.0589,0.61027 -0.0325,0.11926 -0.11347,0.32621 -0.17933,0.46038 -0.0659,0.13417 -0.19399,0.3369 -0.28506,0.45101 -0.0914,0.11411 -0.25164,0.27546 -0.35599,0.35867 -0.10463,0.0832 -0.26651,0.19341 -0.35867,0.24491 -0.0922,0.0515 -0.27669,0.13059 -0.41086,0.17531 -0.14176,0.0474 -0.35224,0.0919 -0.50186,0.10707 -0.16425,0.0165 -0.35099,0.0165 -0.51525,0 -0.15016,-0.0152 -0.35823,-0.0596 -0.50053,-0.10707 -0.13417,-0.045 -0.3203,-0.12461 -0.41354,-0.17665 -0.0935,-0.052 -0.25881,-0.16567 -0.36669,-0.25294 -0.10815,-0.0873 -0.23863,-0.21091 -0.29176,-0.27569 -0.0531,-0.0648 -0.13486,-0.17395 -0.18067,-0.2409 -0.0455,-0.0672 -0.12067,-0.19664 -0.16729,-0.28907 -0.0466,-0.0927 -0.11673,-0.27593 -0.15658,-0.40685 -0.0645,-0.21277 -0.0733,-0.28239 -0.0736,-0.64506 -2.8e-4,-0.3361 0.0111,-0.4445 0.0602,-0.62366 0.0328,-0.11926 0.10159,-0.30723 0.1539,-0.41755 0.0523,-0.11059 0.14933,-0.27694 0.21547,-0.36937 0.0659,-0.0924 0.19504,-0.24269 0.28774,-0.33458 0.0927,-0.0919 0.25591,-0.22343 0.36134,-0.29309 0.10544,-0.0697 0.29077,-0.1672 0.4122,-0.2168 0.12116,-0.0493 0.29859,-0.10761 0.39346,-0.12848 0.0949,-0.0206 0.3258,-0.0385 0.51391,-0.0401 z m -11.062,7.7782 c 0.008,0 0.6548,0.96963 1.4373,2.156 0.78278,1.1864 1.4337,2.1845 1.4467,2.2176 0.0195,0.0491 -0.24871,0.69607 -1.4226,3.4261 -0.7958,1.8507 -1.4539,3.3658 -1.4614,3.3658 -0.007,0 -0.66193,-1.5094 -1.4548,-3.3538 -0.79282,-1.8445 -1.4461,-3.3664 -1.4507,-3.3819 -0.005,-0.0157 0.64525,-1.0191 1.4427,-2.2296 0.7977,-1.2105 1.4555,-2.2002 1.4628,-2.2002 z"
       id="icon" /></g></svg>