<?xml version="1.0" encoding="UTF-8" standalone="no"?>
<svg
   xmlns:dc="http://purl.org/dc/elements/1.1/"
   xmlns:cc="http://creativecommons.org/ns#"
   xmlns:rdf="http://www.w3.org/1999/02/22-rdf-syntax-ns#"
   xmlns:svg="http://www.w3.org/2000/svg"
   xmlns="http://www.w3.org/2000/svg"
   id="svg7"
   xml:space="preserve"
   viewBox="0 0 1024 768"
   y="0px"
   x="0px"
   version="1.1"><metadata
     id="metadata13"><rdf:RDF><cc:Work
         rdf:about=""><dc:format>image/svg+xml</dc:format><dc:type
           rdf:resource="http://purl.org/dc/dcmitype/StillImage" /></cc:Work></rdf:RDF></metadata><defs
     id="defs11" /><g
     transform="translate(5.1998,0.05502)"
     id="logo-group"><path
       style="opacity:0.25;fill:#000000;stroke-width:0.75"
       d="m 298.54,316.4 c -0.129,-0.007 -0.27065,0.005 -0.3164,0.0254 -0.0465,0.02 -13.106,7.5552 -29.023,16.744 -15.917,9.1897 -28.994,16.759 -29.059,16.82 -0.0651,0.0617 -0.14955,0.16948 -0.1875,0.23828 l -0.0684,0.125 -0.0117,33.359 c -0.007,18.348 -9.4e-4,33.477 0.0137,33.621 0.0204,0.206 0.055,0.29906 0.16016,0.4375 0.11843,0.15596 3.4116,2.0699 28.967,16.828 15.859,9.1582 28.946,16.706 29.084,16.773 0.13761,0.0671 0.31642,0.12346 0.39648,0.12305 0.0805,-4.2e-4 0.22076,-0.0365 0.3125,-0.0781 0.0917,-0.0421 13.144,-7.5679 29.004,-16.725 15.859,-9.1567 28.894,-16.693 28.967,-16.748 0.0722,-0.0546 0.17472,-0.17108 0.22852,-0.25782 l 0.0977,-0.15625 v -67.182 l -0.0723,-0.13281 c -0.0401,-0.073 -0.14262,-0.19194 -0.22851,-0.26367 -0.0863,-0.0717 -13.18,-7.6496 -29.098,-16.838 l -28.94,-16.7 z"
       id="icon_container" /><path
       d="m 527.2,410.29 v 15.049 c 0,0.832 0.23132,1.4794 0.69531,1.9434 0.48,0.464 1.1274,0.69531 1.9434,0.69531 0.368,0 0.7915,-0.0466 1.2715,-0.14258 0.48,-0.096 0.89604,-0.21733 1.248,-0.36133 l -0.33594,-1.7031 c -0.208,0.08 -0.43188,0.15084 -0.67188,0.21484 -0.24,0.048 -0.44705,0.0723 -0.62304,0.0723 -0.448,0 -0.80066,-0.12682 -1.0566,-0.38282 -0.24,-0.27198 -0.35938,-0.64146 -0.35938,-1.1055 v -14.279 z m 20.998,0 v 17.52 h 1.8711 v -2.3516 c 0.464,0.768 1.0965,1.3911 1.8965,1.8711 0.8,0.48 1.6881,0.72071 2.6641,0.7207 0.832,0 1.6081,-0.1679 2.3281,-0.5039 0.736,-0.352 1.3685,-0.81658 1.8965,-1.3926 0.528,-0.592 0.94405,-1.2785 1.248,-2.0625 0.304,-0.784 0.45507,-1.6161 0.45507,-2.4961 0,-0.832 -0.1362,-1.6398 -0.4082,-2.4238 -0.256,-0.8 -0.63095,-1.4978 -1.127,-2.0898 -0.48,-0.60798 -1.064,-1.0949 -1.752,-1.4629 -0.68798,-0.368 -1.4641,-0.55273 -2.3281,-0.55273 -1.024,0 -1.9195,0.24814 -2.6875,0.74414 -0.768,0.496 -1.4173,1.1528 -1.9453,1.9688 v -7.4883 z m 54.938,0 v 2.6406 h 2.1113 V 410.29 Z m 25.828,0 v 15.049 c 0,0.832 0.23327,1.4794 0.69727,1.9434 0.48,0.464 1.1274,0.69531 1.9434,0.69531 0.368,0 0.79148,-0.0466 1.2715,-0.14258 0.48,-0.096 0.89605,-0.21733 1.248,-0.36133 l -0.33594,-1.7031 c -0.208,0.08 -0.43187,0.15084 -0.67187,0.21484 -0.24,0.048 -0.44705,0.0723 -0.62305,0.0723 -0.448,0 -0.80064,-0.12682 -1.0566,-0.38282 -0.24,-0.27198 -0.35937,-0.64146 -0.35937,-1.1055 v -14.279 z m 8.2129,0 -1.3926,2.4238 1.3926,0.48047 2.1113,-2.9043 z m 26.287,0 v 2.6406 h 2.1113 V 410.29 Z m -159.53,0.38476 c -1.28,1e-5 -2.4236,0.24815 -3.4316,0.74415 -1.008,0.496 -1.8644,1.1508 -2.5684,1.9668 -0.688,0.8 -1.216,1.7123 -1.584,2.7363 -0.352,1.008 -0.52734,2.0248 -0.52734,3.0488 0,1.088 0.19217,2.1588 0.57617,3.2148 0.4,1.04 0.95031,1.9766 1.6543,2.8086 0.72001,0.816 1.5689,1.4802 2.5449,1.9922 0.976,0.512 2.0488,0.76758 3.2168,0.76758 0.656,0 1.3276,-0.0877 2.0156,-0.26367 0.68799,-0.176 1.3354,-0.43158 1.9434,-0.76758 0.624,-0.336 1.1762,-0.74461 1.6562,-1.2246 0.496,-0.496 0.88035,-1.0651 1.1523,-1.7051 l -1.8008,-0.98242 c -0.24,0.528 -0.55155,0.98319 -0.93555,1.3672 -0.368,0.368 -0.76722,0.67955 -1.1992,0.93555 -0.432,0.24 -0.88914,0.41729 -1.3691,0.52929 -0.464,0.112 -0.91918,0.16797 -1.3672,0.16797 -0.848,0 -1.6316,-0.18473 -2.3516,-0.55273 -0.72,-0.368 -1.345,-0.86428 -1.873,-1.4883 -0.528,-0.624 -0.94404,-1.3348 -1.248,-2.1348 -0.288,-0.816 -0.43164,-1.6724 -0.43164,-2.5684 0,-0.8 0.11937,-1.593 0.35937,-2.377 0.25601,-0.8 0.63291,-1.5108 1.1289,-2.1348 0.496,-0.64 1.1042,-1.1531 1.8242,-1.5371 0.736,-0.4 1.5755,-0.59961 2.5195,-0.59961 0.43199,0 0.87231,0.0485 1.3203,0.14454 0.448,0.096 0.87893,0.25451 1.2949,0.47851 0.43198,0.224 0.82378,0.52067 1.1758,0.88867 0.368,0.368 0.6815,0.82319 0.9375,1.3672 l 1.7031,-1.1035 c -0.528,-1.104 -1.3358,-1.9995 -2.4238,-2.6875 -1.088,-0.68798 -2.3921,-1.0312 -3.9121,-1.0312 z m 165.66,0.43165 v 4.1758 h -1.7031 v 1.6562 h 1.7031 v 8.4238 c 0,0.896 0.27985,1.5602 0.83985,1.9922 0.56,0.416 1.2242,0.62305 1.9922,0.62305 0.336,0 0.65694,-0.0317 0.96094,-0.0957 0.32,-0.048 0.60728,-0.11141 0.86328,-0.19141 0.272,-0.096 0.5127,-0.18367 0.72071,-0.26367 0.208,-0.096 0.3759,-0.17624 0.5039,-0.24024 l -0.5039,-1.6797 c -0.12801,0.08 -0.36871,0.19193 -0.72071,0.33593 -0.336,0.128 -0.7129,0.19141 -1.1289,0.19141 -0.368,0 -0.68699,-0.1045 -0.95899,-0.3125 -0.27199,-0.208 -0.42503,-0.54381 -0.45703,-1.0078 v -7.7754 h 2.8086 v -1.6562 h -2.8086 v -4.16 z m -151.08,3.959 c -0.944,0 -1.8078,0.1773 -2.5918,0.5293 -0.784,0.336 -1.465,0.79862 -2.041,1.3906 -0.56,0.592 -1.0003,1.2805 -1.3203,2.0644 -0.304,0.784 -0.45507,1.6161 -0.45507,2.4961 0,0.88 0.15107,1.7195 0.45507,2.5195 0.32,0.784 0.76032,1.4724 1.3203,2.0644 0.56,0.592 1.2316,1.064 2.0156,1.416 0.784,0.336 1.6478,0.50391 2.5918,0.5039 0.624,0 1.2248,-0.0802 1.8008,-0.24023 0.576,-0.16 1.0966,-0.37644 1.5606,-0.64844 0.48,-0.288 0.89604,-0.62381 1.248,-1.0078 0.368,-0.384 0.65528,-0.80748 0.86328,-1.2715 l -1.8242,-0.50391 c -0.128,0.32 -0.32018,0.60728 -0.57618,0.86328 -0.24,0.256 -0.51984,0.47244 -0.83984,0.64844 -0.32,0.176 -0.66325,0.31964 -1.0312,0.43164 -0.368,0.096 -0.74491,0.14453 -1.1289,0.14453 -0.544,0 -1.0626,-0.1045 -1.5586,-0.3125 -0.48,-0.208 -0.91288,-0.49528 -1.2969,-0.86328 -0.384,-0.368 -0.69554,-0.80831 -0.93554,-1.3203 -0.24,-0.512 -0.38364,-1.0791 -0.43164,-1.7031 h 10.391 c 0.016,-0.08 0.0254,-0.19194 0.0254,-0.33594 0.016,-0.144 0.0234,-0.30446 0.0234,-0.48046 0,-0.832 -0.15303,-1.6324 -0.45703,-2.4004 -0.288,-0.78398 -0.70405,-1.4631 -1.248,-2.0391 -0.544,-0.592 -1.2062,-1.064 -1.9902,-1.416 -0.768,-0.352 -1.6244,-0.5293 -2.5684,-0.5293 z m 21.047,0 c -0.944,0 -1.8078,0.1773 -2.5918,0.5293 -0.78401,0.336 -1.465,0.79862 -2.041,1.3906 -0.56,0.592 -1.0003,1.2805 -1.3203,2.0644 -0.304,0.784 -0.45508,1.6161 -0.45508,2.4961 0,0.88 0.15108,1.7195 0.45508,2.5195 0.31999,0.784 0.76031,1.4724 1.3203,2.0644 0.56,0.592 1.2316,1.064 2.0156,1.416 0.78398,0.336 1.6478,0.50391 2.5918,0.5039 0.624,0 1.2248,-0.0802 1.8008,-0.24023 0.576,-0.16 1.0966,-0.37644 1.5606,-0.64844 0.48,-0.288 0.89605,-0.62381 1.248,-1.0078 0.36799,-0.384 0.65528,-0.80748 0.86328,-1.2715 l -1.8242,-0.50391 c -0.128,0.32 -0.32017,0.60728 -0.57617,0.86328 -0.24,0.256 -0.51984,0.47244 -0.83985,0.64844 -0.31999,0.176 -0.66325,0.31964 -1.0312,0.43164 -0.368,0.096 -0.7449,0.14453 -1.1289,0.14453 -0.544,0 -1.0626,-0.1045 -1.5586,-0.3125 -0.48,-0.208 -0.91287,-0.49528 -1.2969,-0.86328 -0.384,-0.368 -0.69554,-0.80831 -0.93555,-1.3203 -0.24,-0.512 -0.38364,-1.0791 -0.43164,-1.7031 h 10.391 c 0.016,-0.08 0.0254,-0.19194 0.0254,-0.33594 0.016,-0.144 0.0234,-0.30446 0.0234,-0.48046 0,-0.832 -0.15304,-1.6324 -0.45704,-2.4004 -0.288,-0.78398 -0.70404,-1.4631 -1.248,-2.0391 -0.544,-0.592 -1.2062,-1.064 -1.9902,-1.416 -0.768,-0.352 -1.6244,-0.5293 -2.5684,-0.5293 z m 36.986,0 c -1.632,0 -3.2551,0.54481 -4.8711,1.6328 l 0.69531,1.3672 c 1.392,-0.976 2.7204,-1.4629 3.9844,-1.4629 1.056,0 1.8713,0.29472 2.4473,0.88672 0.57599,0.576 0.86524,1.3764 0.86524,2.4004 v 1.0078 c -0.48,-0.192 -1.0323,-0.34308 -1.6562,-0.45508 -0.624,-0.112 -1.2416,-0.16797 -1.8496,-0.16797 -0.768,0 -1.4788,0.0951 -2.1348,0.28711 -0.64001,0.192 -1.1997,0.45697 -1.6797,0.79297 -0.46399,0.336 -0.82408,0.74266 -1.0801,1.2227 -0.256,0.464 -0.38476,0.98455 -0.38476,1.5606 0,0.56 0.10449,1.0805 0.3125,1.5605 0.224,0.464 0.52067,0.87261 0.88867,1.2246 0.38399,0.352 0.83175,0.63185 1.3438,0.83985 0.51201,0.192 1.0642,0.2871 1.6562,0.2871 0.97599,0 1.8864,-0.19217 2.7344,-0.57617 0.86398,-0.4 1.5767,-0.97651 2.1367,-1.7285 l 0.0488,0.88867 c 0.048,0.352 0.19164,0.65611 0.43164,0.91211 0.256,0.24 0.59182,0.35937 1.0078,0.35937 0.15999,0 0.31107,-0.007 0.45507,-0.0234 0.144,-0.016 0.32874,-0.0403 0.55274,-0.0723 v -1.8242 c -0.448,-0.016 -0.67188,-0.27158 -0.67188,-0.76758 v -5.11 c 0,-1.6 -0.46459,-2.8407 -1.3926,-3.7207 -0.91201,-0.88 -2.1918,-1.3203 -3.8398,-1.3203 z m 19.021,0 c -0.672,0 -1.3025,0.0877 -1.8945,0.26367 -0.576,0.16 -1.0797,0.40814 -1.5117,0.74414 -0.432,0.32 -0.77721,0.72861 -1.0332,1.2246 -0.24,0.48 -0.35937,1.0322 -0.35937,1.6562 0,0.496 0.0802,0.91205 0.24023,1.248 0.16,0.336 0.41558,0.62328 0.76758,0.86328 0.352,0.24 0.79975,0.449 1.3438,0.625 0.544,0.176 1.1914,0.35878 1.9434,0.55078 0.59199,0.144 1.1125,0.2802 1.5606,0.4082 0.448,0.128 0.81551,0.27166 1.1035,0.43164 0.28799,0.16 0.50444,0.35218 0.64844,0.57618 0.144,0.208 0.2168,0.46553 0.2168,0.76953 0,0.656 -0.27242,1.1672 -0.81641,1.5352 -0.528,0.352 -1.2482,0.52735 -2.1602,0.52735 -0.81599,0 -1.5921,-0.13621 -2.3281,-0.40821 -0.736,-0.28798 -1.471,-0.71148 -2.207,-1.2715 l -0.91211,1.416 c 0.704,0.592 1.5435,1.0491 2.5195,1.3691 0.976,0.304 1.9686,0.45507 2.9766,0.45507 1.52,0 2.727,-0.34325 3.623,-1.0312 0.896,-0.68798 1.3438,-1.6172 1.3438,-2.7852 0,-0.528 -0.10255,-0.97575 -0.31055,-1.3438 -0.192,-0.368 -0.49611,-0.68699 -0.91211,-0.95899 -0.4,-0.272 -0.91311,-0.50526 -1.5371,-0.69726 -0.608,-0.208 -1.3282,-0.40761 -2.1602,-0.59961 -0.528,-0.128 -0.98319,-0.24738 -1.3672,-0.35938 -0.368,-0.112 -0.67211,-0.24076 -0.91211,-0.38476 -0.24,-0.144 -0.41534,-0.31191 -0.52734,-0.50391 -0.096,-0.192 -0.14453,-0.43075 -0.14453,-0.71875 0,-0.72 0.26301,-1.2405 0.79101,-1.5605 0.544,-0.336 1.2008,-0.50391 1.9688,-0.50391 0.688,0 1.3596,0.11937 2.0156,0.35937 0.65598,0.224 1.2474,0.56725 1.7754,1.0312 l 0.96093,-1.2715 c -0.56,-0.496 -1.2484,-0.89522 -2.0644,-1.1992 -0.816,-0.304 -1.6966,-0.45703 -2.6406,-0.45703 z m 20.223,0 c -1.104,0 -2.1263,0.26497 -3.0703,0.79297 -0.928,0.528 -1.6407,1.2313 -2.1367,2.1113 v -2.6875 h -1.9199 v 12.527 h 2.1113 v -7.5586 c 0.144,-0.48 0.36043,-0.92032 0.64843,-1.3203 0.288,-0.4 0.62382,-0.7452 1.0078,-1.0332 0.384,-0.288 0.79261,-0.51187 1.2246,-0.67187 0.432,-0.176 0.86292,-0.26368 1.2949,-0.26368 0.832,0 1.4496,0.30411 1.8496,0.91211 0.416,0.608 0.62304,1.5837 0.62304,2.9277 v 7.0078 h 2.1113 v -7.4883 c 0,-0.752 -0.0634,-1.4479 -0.1914,-2.0879 -0.112,-0.64 -0.31161,-1.1922 -0.59961,-1.6562 -0.288,-0.48 -0.67235,-0.84752 -1.1524,-1.1035 -0.48,-0.272 -1.0808,-0.4082 -1.8008,-0.4082 z m 32.17,0 c -1.024,0 -1.9438,0.25753 -2.7598,0.76953 -0.816,0.496 -1.4802,1.2068 -1.9922,2.1348 v -2.6875 h -1.9199 v 12.527 h 2.1113 v -7.5586 c 0.288,-0.992 0.77684,-1.785 1.4648,-2.377 0.688,-0.608 1.4547,-0.91211 2.3027,-0.91211 0.83198,0 1.457,0.30411 1.873,0.91211 0.416,0.608 0.62305,1.5837 0.62305,2.9277 v 7.0078 h 2.1133 v -7.5352 c 0.288,-0.97598 0.76745,-1.769 1.4394,-2.377 0.688,-0.624 1.4641,-0.93555 2.3281,-0.93555 0.832,0 1.4551,0.31155 1.8711,0.93555 0.432,0.624 0.64844,1.5923 0.64844,2.9043 v 7.0078 h 2.1133 v -7.4883 c 0,-0.752 -0.0654,-1.4479 -0.19336,-2.0879 -0.128,-0.64 -0.33505,-1.1922 -0.62305,-1.6562 -0.288,-0.48 -0.67978,-0.84752 -1.1758,-1.1035 -0.48,-0.272 -1.0808,-0.4082 -1.8008,-0.4082 -2.064,0 -3.6554,1.0168 -4.7754,3.0488 -0.144,-0.896 -0.52834,-1.6236 -1.1523,-2.1836 -0.608,-0.576 -1.4401,-0.86523 -2.4961,-0.86523 z m 34.85,0 c -0.944,0 -1.8078,0.1773 -2.5918,0.5293 -0.78401,0.336 -1.465,0.79862 -2.041,1.3906 -0.56,0.592 -1.0003,1.2805 -1.3203,2.0644 -0.304,0.784 -0.45508,1.6161 -0.45508,2.4961 0,0.88 0.15108,1.7195 0.45508,2.5195 0.31999,0.784 0.76031,1.4724 1.3203,2.0644 0.56,0.592 1.2316,1.064 2.0156,1.416 0.78398,0.336 1.6478,0.50391 2.5918,0.5039 0.624,0 1.2248,-0.0802 1.8008,-0.24023 0.576,-0.16 1.0966,-0.37644 1.5606,-0.64844 0.48,-0.288 0.89605,-0.62381 1.248,-1.0078 0.368,-0.384 0.65528,-0.80748 0.86328,-1.2715 l -1.8242,-0.50391 c -0.128,0.32 -0.32017,0.60728 -0.57617,0.86328 -0.24,0.256 -0.51985,0.47244 -0.83985,0.64844 -0.32,0.176 -0.66325,0.31964 -1.0312,0.43164 -0.368,0.096 -0.7449,0.14453 -1.1289,0.14453 -0.544,0 -1.0626,-0.1045 -1.5586,-0.3125 -0.48,-0.208 -0.91287,-0.49528 -1.2969,-0.86328 -0.384,-0.368 -0.69555,-0.80831 -0.93555,-1.3203 -0.24,-0.512 -0.38364,-1.0791 -0.43164,-1.7031 h 10.391 c 0.016,-0.08 0.0254,-0.19194 0.0254,-0.33594 0.016,-0.144 0.0234,-0.30446 0.0234,-0.48046 0,-0.832 -0.15304,-1.6324 -0.45704,-2.4004 -0.288,-0.78398 -0.70404,-1.4631 -1.248,-2.0391 -0.544,-0.592 -1.2062,-1.064 -1.9902,-1.416 -0.768,-0.352 -1.6244,-0.5293 -2.5684,-0.5293 z m 12.93,0 c -0.672,0 -1.3025,0.0877 -1.8945,0.26367 -0.576,0.16 -1.0797,0.40814 -1.5117,0.74414 -0.432,0.32 -0.7772,0.72861 -1.0332,1.2246 -0.24,0.48 -0.35938,1.0322 -0.35938,1.6562 0,0.496 0.0802,0.91205 0.24024,1.248 0.16,0.336 0.41558,0.62328 0.76758,0.86328 0.35198,0.24 0.79975,0.449 1.3438,0.625 0.54398,0.176 1.1914,0.35878 1.9434,0.55078 0.592,0.144 1.1126,0.2802 1.5606,0.4082 0.448,0.128 0.81552,0.27166 1.1035,0.43164 0.288,0.16 0.50443,0.35218 0.64843,0.57618 0.144,0.208 0.2168,0.46553 0.2168,0.76953 0,0.656 -0.27242,1.1672 -0.8164,1.5352 -0.528,0.352 -1.2482,0.52735 -2.1602,0.52735 -0.816,0 -1.5921,-0.13621 -2.3281,-0.40821 -0.736,-0.28798 -1.471,-0.71148 -2.207,-1.2715 l -0.91211,1.416 c 0.704,0.592 1.5436,1.0491 2.5195,1.3691 0.976,0.304 1.9686,0.45507 2.9766,0.45507 1.52,0 2.727,-0.34325 3.623,-1.0312 0.896,-0.68798 1.3438,-1.6172 1.3438,-2.7852 0,-0.528 -0.1045,-0.97575 -0.3125,-1.3438 -0.192,-0.368 -0.49415,-0.68699 -0.91015,-0.95899 -0.4,-0.272 -0.91311,-0.50526 -1.5371,-0.69726 -0.608,-0.208 -1.3282,-0.40761 -2.1602,-0.59961 -0.528,-0.128 -0.98319,-0.24738 -1.3672,-0.35938 -0.368,-0.112 -0.67212,-0.24076 -0.9121,-0.38476 -0.24,-0.144 -0.41535,-0.31191 -0.52735,-0.50391 -0.096,-0.192 -0.14453,-0.43075 -0.14453,-0.71875 0,-0.72 0.26302,-1.2405 0.79102,-1.5605 0.544,-0.336 1.2008,-0.50391 1.9688,-0.50391 0.68798,0 1.3596,0.11937 2.0156,0.35937 0.656,0.224 1.2474,0.56725 1.7754,1.0312 l 0.96094,-1.2715 c -0.56,-0.496 -1.2485,-0.89522 -2.0644,-1.1992 -0.816,-0.304 -1.6966,-0.45703 -2.6406,-0.45703 z m -126.66,0.12109 c -0.80001,0.064 -1.5519,0.36811 -2.2559,0.91211 -0.70399,0.528 -1.2711,1.2239 -1.7031,2.0879 v -2.9043 h -1.9688 v 12.527 h 2.1113 v -7.7285 c 0.33599,-0.91198 0.90508,-1.6228 1.7051,-2.1348 0.816,-0.512 1.7506,-0.78441 2.8066,-0.81641 v -1.9199 c -0.08,-0.016 -0.17511,-0.0234 -0.28711,-0.0234 z m 34.057,0.0957 v 12.527 h 2.1113 v -12.527 z m 32.625,0 v 12.527 h 2.1113 v -12.527 z m 27.703,0 v 12.527 h 2.1113 v -12.527 z m -144.95,1.3672 c 0.56,0 1.088,0.1045 1.584,0.3125 0.496,0.192 0.92692,0.46441 1.2949,0.81641 0.384,0.352 0.6975,0.78292 0.9375,1.2949 0.256,0.496 0.40708,1.0408 0.45508,1.6328 h -8.4961 c 0.048,-0.59198 0.1842,-1.1368 0.4082,-1.6328 0.24,-0.496 0.54411,-0.91948 0.91211,-1.2715 0.384,-0.368 0.82431,-0.64785 1.3203,-0.83985 0.496,-0.208 1.024,-0.3125 1.584,-0.3125 z m 21.047,0 c 0.56,0 1.088,0.1045 1.584,0.3125 0.496,0.192 0.92691,0.46441 1.2949,0.81641 0.38399,0.352 0.6975,0.78292 0.9375,1.2949 0.256,0.496 0.40708,1.0408 0.45508,1.6328 h -8.4961 c 0.048,-0.59198 0.18421,-1.1368 0.40821,-1.6328 0.24,-0.496 0.54411,-0.91948 0.91211,-1.2715 0.384,-0.368 0.82431,-0.64785 1.3203,-0.83985 0.496,-0.208 1.024,-0.3125 1.584,-0.3125 z m 143.25,0 c 0.56,0 1.088,0.1045 1.584,0.3125 0.496,0.192 0.92692,0.46441 1.2949,0.81641 0.384,0.352 0.6975,0.78292 0.9375,1.2949 0.256,0.496 0.40708,1.0408 0.45508,1.6328 h -8.4961 c 0.048,-0.59198 0.18421,-1.1368 0.40821,-1.6328 0.24,-0.496 0.54411,-0.91948 0.91211,-1.2715 0.384,-0.368 0.82431,-0.64785 1.3203,-0.83985 0.49599,-0.208 1.024,-0.3125 1.584,-0.3125 z m -128.52,0.24024 c 0.608,0 1.1602,0.1362 1.6562,0.4082 0.512,0.256 0.94292,0.59925 1.2949,1.0312 0.368,0.432 0.6498,0.93767 0.8418,1.5137 0.208,0.56 0.31055,1.144 0.31055,1.752 0,0.608 -0.10255,1.192 -0.31055,1.752 -0.208,0.544 -0.50467,1.0309 -0.88867,1.4629 -0.384,0.432 -0.83919,0.7772 -1.3672,1.0332 -0.528,0.256 -1.1045,0.38282 -1.7285,0.38282 -0.384,0 -0.78518,-0.0709 -1.2012,-0.21485 -0.4,-0.144 -0.78239,-0.33617 -1.1504,-0.57617 -0.352,-0.256 -0.6655,-0.55267 -0.9375,-0.88867 -0.256,-0.336 -0.4239,-0.70352 -0.5039,-1.1035 v -3.625 c 0.192,-0.4 0.41587,-0.77495 0.67187,-1.127 0.272,-0.352 0.57611,-0.65611 0.91211,-0.91211 0.352,-0.272 0.72891,-0.48844 1.1289,-0.64844 0.4,-0.16 0.82348,-0.24023 1.2715,-0.24023 z m 22.184,4.6562 c 1.104,0 2.1694,0.19961 3.1934,0.59961 v 1.8476 c 0,0.32 -0.15304,0.6335 -0.45704,0.9375 -0.336,0.464 -0.83228,0.83896 -1.4883,1.127 -0.64,0.272 -1.3359,0.4082 -2.0879,0.4082 -0.384,0 -0.74408,-0.0634 -1.0801,-0.19141 -0.336,-0.128 -0.63073,-0.30529 -0.88671,-0.52929 -0.24,-0.224 -0.43218,-0.48702 -0.57618,-0.79102 -0.128,-0.304 -0.19336,-0.63237 -0.19336,-0.98437 0,-0.72 0.32838,-1.304 0.98438,-1.752 0.672,-0.448 1.5358,-0.67187 2.5918,-0.67187 z"
       style="font-variant-ligatures:none;fill:#000000"
       id="path336492" /><path
       d="m 582.03,339.95 c -0.306,-0.0113 -0.61198,0.001 -0.91796,0.0371 -1.188,0.144 -2.1974,0.52276 -3.0254,1.1348 -2.448,1.692 -4.2297,3.1136 -5.3457,4.2656 -1.08,1.116 -2.6285,3.2037 -4.6445,6.2637 -1.548,2.232 -2.6263,4.0511 -3.2383,5.4551 -0.18,0.36 -0.50466,1.1156 -0.97266,2.2676 -0.468,1.116 -0.71986,1.7092 -0.75586,1.7812 -1.116,2.88 -1.6738,5.923 -1.6738,9.127 -0.072,2.664 0.2507,4.9307 0.9707,6.8027 0.72,1.872 2.5017,3.331 5.3457,4.375 1.26,0.288 2.7918,0.0903 4.5918,-0.59375 1.8,-0.684 3.3653,-1.5124 4.6973,-2.4844 1.368,-0.54 2.2505,-1.0083 2.6465,-1.4043 0.936,-0.54 1.7457,-1.1519 2.4297,-1.8359 0.68398,-0.72 1.0254,-1.386 1.0254,-1.998 0,-0.648 -0.14364,-1.1872 -0.43164,-1.6192 -0.252,-0.43198 -0.61208,-0.57564 -1.0801,-0.43164 -0.576,0 -1.3316,0.34141 -2.2676,1.0254 -0.864,0.792 -2.5562,1.7099 -5.0762,2.7539 -0.468,0.216 -0.80939,0.37833 -1.0254,0.48633 -0.216,0.108 -0.52197,0.23295 -0.91797,0.37695 -0.396,0.144 -0.72066,0.25222 -0.97266,0.32422 l -0.81054,0.26953 c -0.288,0.108 -0.53986,0.16211 -0.75586,0.16211 -0.18,0 -0.39644,0.0187 -0.64844,0.0547 -0.216,0 -0.41375,-0.0354 -0.59375,-0.10742 -1.116,-0.432 -1.7634,-1.9618 -1.9434,-4.5898 -0.18,-2.124 0.0364,-4.4468 0.64844,-6.9668 0.54,-1.08 0.75448,-1.9084 0.64648,-2.4844 l 0.5957,-1.4043 c 0.756,-2.304 2.7,-5.5073 5.832,-9.6113 2.448,-3.312 4.5524,-5.3456 6.3164,-6.1016 1.008,-0.54 1.6386,-0.68364 1.8906,-0.43164 0.252,0.252 0.3789,0.46649 0.3789,0.64649 0.036,0.144 0.036,0.2709 0,0.3789 0,0.108 -0.0187,0.28707 -0.0547,0.53907 l -0.10743,0.64843 c -0.036,0.216 -0.10879,0.52197 -0.21679,0.91797 -0.072,0.396 -0.18022,0.84561 -0.32422,1.3496 -0.144,0.504 -0.5395,1.3324 -1.1875,2.4844 -0.612,1.116 -1.0803,1.8716 -1.4043,2.2676 -0.072,0 -0.1448,0.0187 -0.2168,0.0547 -0.072,0.036 0.10902,0.45019 0.54102,1.2422 1.44,1.296 2.6993,1.602 3.7793,0.91797 1.512,-1.404 2.7004,-3.5104 3.5644,-6.3184 0.864,-2.844 0.89942,-4.9858 0.10742,-6.4258 -0.54,-1.332 -1.4205,-2.2853 -2.6445,-2.8613 -0.918,-0.459 -1.8359,-0.70648 -2.7539,-0.74023 z m -134.72,0.0371 c -2.664,0 -6.0483,0.9907 -10.152,2.9707 -0.828,0.756 -1.6918,1.3138 -2.5918,1.6738 -0.36,0.144 -0.55775,0.23353 -0.59375,0.26953 l -1.7285,1.6211 c -0.792,0.504 -2.0159,1.7633 -3.6719,3.7793 -1.656,2.016 -2.6989,3.5104 -3.1309,4.4824 -0.756,1.404 -1.1534,2.9152 -1.1894,4.5352 -0.036,1.584 0.36145,2.8079 1.1894,3.6719 0.432,0.828 1.2043,1.7292 2.3203,2.7012 1.116,0.936 2.1795,1.6562 3.1875,2.1602 1.044,0.504 1.9619,0.93492 2.7539,1.2949 0.54,0.504 1.1146,1.0077 1.7266,1.5117 0.648,0.504 1.0455,0.93688 1.1895,1.2969 1.26,2.016 1.0622,3.3835 -0.59375,4.1035 -2.016,0.756 -3.9246,0.86422 -5.7246,0.32422 -1.764,-0.54 -3.0066,-1.4766 -3.7266,-2.8086 -0.396,-0.828 -1.187,-0.84478 -2.375,-0.0527 -0.108,0.036 -0.27033,0.10685 -0.48633,0.21485 -0.18,0.072 -0.32364,0.12612 -0.43164,0.1621 -0.072,0.036 -0.16349,0.1088 -0.27149,0.2168 -0.072,0.072 -0.10742,0.18022 -0.10742,0.32422 0.036,0.144 0.12553,0.43128 0.26953,0.86328 0.18,0.396 0.70241,1.1703 1.5664,2.3223 0.864,1.116 1.6737,1.907 2.4297,2.375 0.36,0.036 0.61186,0.12748 0.75586,0.27148 0.14398,0.144 0.18137,0.30633 0.10937,0.48633 l 2.1602,0.64648 c 1.188,0.036 2.6637,-0.089 4.4277,-0.37695 1.8,-0.252 2.8074,-0.44975 3.0234,-0.59375 0.252,-0.144 0.53928,-0.32501 0.86328,-0.54101 0.36,-0.18 0.70334,-0.30496 1.0273,-0.37696 0.396,0.036 0.84561,-0.25323 1.3496,-0.86523 0.504,-0.576 0.91819,-1.2047 1.2422,-1.8887 0.756,-2.664 0.61236,-4.7349 -0.43164,-6.2109 -0.324,-0.684 -1.2252,-1.6019 -2.7012,-2.7539 -1.476,-1.188 -3.1308,-2.3036 -4.9668,-3.3476 -1.152,-0.576 -2.3591,-1.3316 -3.6191,-2.2676 -1.224,-0.936 -1.6195,-2.214 -1.1875,-3.834 0.252,-0.936 0.68292,-1.8185 1.2949,-2.6465 0.828,-1.476 1.494,-2.5562 1.998,-3.2402 0.54,-0.68398 1.1352,-1.2231 1.7832,-1.6191 0.756,-0.324 1.1702,-0.68407 1.2422,-1.0801 0.072,-0.18 1.044,-0.88343 2.916,-2.1074 1.908,-1.224 2.9341,-1.8172 3.0781,-1.7812 l 0.21484,-0.26953 c 0,-0.18 0.84707,-0.46923 2.5391,-0.86523 1.728,-0.396 2.8791,-0.53964 3.4551,-0.43164 1.296,0.288 0.95461,1.8906 -1.0254,4.8066 -1.296,1.44 -1.962,2.5016 -1.998,3.1856 -0.036,0.68398 0.30539,1.171 1.0254,1.459 0.72,0.288 1.5838,0.23389 2.5918,-0.16211 1.404,-0.792 2.6653,-2.1428 3.7812,-4.0508 1.98,-3.384 1.6908,-6.0669 -0.86523,-8.0469 -1.224,-0.93598 -2.5374,-1.4397 -3.9414,-1.5117 z m 44.947,2.2148 c -0.828,0 -1.3504,0.10822 -1.5664,0.32422 -0.288,0 -0.53986,0.12495 -0.75586,0.37695 -0.216,0.252 -0.32421,0.55797 -0.32421,0.91797 0,0.36 -0.72016,2.5018 -2.1602,6.4258 -1.44,3.888 -2.4474,6.3899 -3.0234,7.5059 l -0.54101,2.0527 c -0.396,0.324 -0.59375,0.88183 -0.59375,1.6738 0,0.792 -0.17907,1.1875 -0.53907,1.1875 -0.18,0.36 -0.5942,1.4402 -1.2422,3.2402 -0.612,1.764 -0.97208,2.9879 -1.0801,3.6719 0,0.468 -0.19775,1.2255 -0.59375,2.2695 -0.432,1.98 -0.32378,3.6535 0.32422,5.0215 0.648,1.368 1.4931,1.9071 2.5371,1.6191 0.82798,-0.396 1.2422,-1.2411 1.2422,-2.5371 0,-1.332 0.77427,-4.6081 2.3223,-9.8281 0.576,-1.548 0.86328,-2.5013 0.86328,-2.8613 v -0.16211 c 0,-0.288 0.0915,-0.4336 0.27148,-0.4336 0.18,-0.18 0.26954,-0.43186 0.26954,-0.75586 0,-0.36 0.72015,-2.123 2.1602,-5.291 0.18,-0.396 0.32364,-0.72066 0.43164,-0.97266 0.108,-0.288 0.1808,-0.50444 0.2168,-0.64844 0.072,-0.18 0.10742,-0.30495 0.10742,-0.37695 0,-0.072 0.0709,-0.25301 0.21485,-0.54101 0.14398,-0.324 0.3437,-0.73624 0.5957,-1.2402 0.252,-0.54 0.44975,-1.0083 0.59375,-1.4043 1.116,-2.34 1.782,-3.8157 1.998,-4.4277 0.25198,-0.648 0.37695,-1.2786 0.37695,-1.8906 0,-0.61198 -0.41419,-1.2967 -1.2422,-2.0527 z m 245.35,0 c -0.432,0 -0.86488,0.14364 -1.2969,0.43164 -0.396,0.252 -0.59375,0.52255 -0.59375,0.81055 -0.216,0.684 -0.48654,1.4042 -0.81054,2.1602 -0.18,0.54 -0.48597,1.4038 -0.91797,2.5918 -0.432,1.188 -1.1689,3.2402 -2.2129,6.1562 -1.044,2.88 -1.71,4.8053 -1.998,5.7773 -0.252,0.972 -0.61208,1.9794 -1.0801,3.0234 -0.432,1.044 -0.70254,1.9993 -0.81054,2.8633 -1.08,3.564 -1.6191,5.7599 -1.6191,6.5879 0,0.828 0.26859,1.5482 0.80859,2.1602 0.54,0.612 1.1352,0.97208 1.7832,1.0801 1.044,0 2.141,-0.84707 3.293,-2.5391 1.836,-2.088 3.6364,-3.7802 5.4004,-5.0762 1.8,-1.332 3.0593,-1.998 3.7793,-1.998 0.396,0 0.59375,0.3955 0.59375,1.1875 l -0.32227,4.1582 c 0,1.08 0.30597,1.9979 0.91797,2.7539 0.612,0.75598 1.4217,1.1348 2.4297,1.1348 0.828,-0.072 1.6918,-0.41339 2.5918,-1.0254 0.89998,-0.612 1.3496,-1.3322 1.3496,-2.1602 0,-0.144 -0.0354,-0.25221 -0.10743,-0.32421 -0.036,0 -0.25243,-0.14365 -0.64843,-0.43165 -0.36,-0.32398 -0.89916,-0.48632 -1.6191,-0.48632 -0.36,0.072 -0.63055,0.10742 -0.81055,0.10742 0.72,-3.204 1.0801,-5.2189 1.0801,-6.0469 v -0.81054 c 0,-1.188 -0.3955,-2.2328 -1.1875,-3.1328 -0.792,-0.89998 -1.5122,-1.3496 -2.1602,-1.3496 -1.332,1e-5 -2.4309,0.32466 -3.2949,0.97266 -0.828,0.612 -1.313,1.0075 -1.457,1.1875 -0.108,0.144 -0.79274,0.68314 -2.0527,1.6191 -1.26,0.936 -2.719,2.2327 -4.375,3.8887 -0.036,0 -0.0527,-0.0541 -0.0527,-0.16211 l 0.86328,-3.293 0.59375,-1.1895 c 0.504,-0.9 1.4593,-3.4019 2.8633,-7.5059 1.404,-4.104 2.4114,-6.8036 3.0234,-8.0996 0.612,-1.296 0.44967,-2.5927 -0.48633,-3.8887 -0.54,-0.756 -1.025,-1.1328 -1.457,-1.1328 z m -224.61,3.5098 c -0.288,0.072 -0.55854,0.18022 -0.81054,0.32422 -0.504,0.18 -1.4947,1.0625 -2.9707,2.6465 -1.476,1.584 -2.2503,2.5373 -2.3223,2.8613 l -0.0527,0.53906 c 0,1.728 0.53916,2.5938 1.6191,2.5938 0.54,0 0.98961,-0.27055 1.3496,-0.81055 0.36,-0.54 1.3153,-1.4412 2.8633,-2.7012 1.584,-1.296 2.375,-2.1952 2.375,-2.6992 0,-0.828 -0.23318,-1.494 -0.70118,-1.998 -0.432,-0.504 -0.88161,-0.75585 -1.3496,-0.75586 z m 148.82,8.8926 c -0.378,0.0202 -0.71667,0.15153 -1.0137,0.39453 -0.396,0.432 -0.59375,0.73797 -0.59375,0.91797 0,0.756 -0.50372,2.3046 -1.5117,4.6445 -0.864,2.232 -1.9069,5.1667 -3.1309,8.8027 -1.224,3.636 -1.9274,5.9401 -2.1074,6.9121 l -0.37695,1.9434 c -0.432,0.36 -0.64844,0.7555 -0.64844,1.1875 0,1.044 -0.19775,1.8911 -0.59375,2.5391 l -0.26953,1.7285 c 0,0.576 -0.1997,1.6189 -0.5957,3.1308 -0.216,1.08 0.0545,2.1602 0.81054,3.2402 0.18,0.36 0.61288,0.50364 1.2969,0.43164 0.468,0 0.95303,-0.34139 1.457,-1.0254 0.54,-0.684 0.81055,-1.4937 0.81055,-2.4297 0.036,-0.9 0.16095,-1.387 0.37695,-1.459 0.144,0 0.27091,-0.21644 0.37891,-0.64844 0.14398,-0.396 0.21679,-0.80823 0.21679,-1.2402 0.36,-0.792 0.53906,-1.6578 0.53906,-2.5938 0.216,-0.36 0.32422,-0.91783 0.32422,-1.6738 -0.216,-0.216 -0.216,-0.41375 0,-0.59375 0.216,0 0.50328,-0.37682 0.86328,-1.1328 0.36,-0.79198 0.54102,-1.3331 0.54102,-1.6211 0,-0.288 0.12495,-0.55855 0.37695,-0.81055 0.324,0.288 0.81099,0.4336 1.459,0.4336 0.648,0 1.5659,-0.1456 2.7539,-0.4336 1.224,-0.324 1.8359,-0.61128 1.8359,-0.86328 0,-0.216 0.0895,-0.37833 0.26953,-0.48633 0.432,0.144 1.2417,-0.0892 2.4297,-0.70117 1.224,-0.648 2.0524,-1.2599 2.4844,-1.8359 0.35998,-0.756 0.64923,-1.1348 0.86523,-1.1348 0.36,-0.324 0.82634,-1.0796 1.4023,-2.2676 0.576,-1.224 0.86524,-2.1419 0.86524,-2.7539 0,-1.44 -0.41419,-2.6826 -1.2422,-3.7266 -0.828,-1.08 -2.0164,-1.7274 -3.5644,-1.9434 -1.512,-0.216 -3.3291,0.30641 -5.4531,1.5664 -0.036,0.036 -0.0193,-0.001 0.0527,-0.10938 0.792,-1.152 1.1894,-2.0866 1.1894,-2.8066 0.18,-1.08 -0.0197,-2.0894 -0.5957,-3.0254 -0.432,-0.324 -0.93572,-0.50306 -1.5117,-0.53906 -0.135,-0.018 -0.26463,-0.0243 -0.39063,-0.0176 z m 52.152,1.7988 c -1.152,0 -2.2303,0.21644 -3.2383,0.64844 -1.008,0.396 -2.4316,1.6927 -4.2676,3.8887 -1.224,1.512 -2.2314,3.5101 -3.0234,5.9941 -0.756,2.484 -1.0433,4.553 -0.86328,6.209 0,1.656 0.68278,2.9694 2.0508,3.9414 1.404,0.972 2.9338,1.3154 4.5898,1.0274 0.684,-0.144 1.5665,-0.46866 2.6465,-0.97266 1.116,-0.54 1.6738,-0.88139 1.6738,-1.0254 0,-0.216 0.19775,-0.32422 0.59375,-0.32422 0.396,0 1.2972,-0.70147 2.7012,-2.1055 1.404,-1.44 2.0327,-2.3038 1.8887,-2.5918 l 0.27148,-0.27148 c 0.144,-0.108 0.144,-0.32248 0,-0.64648 -0.396,-0.648 -0.9184,-1.0809 -1.5664,-1.2969 h -1.1348 c -0.576,0 -1.0069,0.23317 -1.2949,0.70117 -0.216,0.108 -0.45114,0.34313 -0.70312,0.70313 -0.216,0.36 -0.35965,0.55775 -0.43165,0.59375 -1.368,1.044 -2.465,1.7828 -3.293,2.2148 -0.828,0.432 -1.7833,0.50284 -2.8633,0.21484 -0.252,-0.14398 -0.41432,-0.55818 -0.48632,-1.2422 -0.036,-0.432 0.18043,-1.5664 0.64843,-3.4024 0.504,-1.872 1.0805,-3.4018 1.7285,-4.5898 0.684,-1.224 1.6914,-2.2128 3.0234,-2.9688 0.684,-0.288 1.1169,-0.25258 1.2969,0.10742 0.216,0.324 0.19732,1.0628 -0.0547,2.2148 -0.252,1.116 -0.37695,1.7634 -0.37695,1.9434 0.072,0.252 0.30517,0.46844 0.70117,0.64844 0.432,0.18 0.8275,0.26953 1.1875,0.26953 0.396,-0.036 0.59375,-0.14422 0.59375,-0.32422 0,-0.21598 0.16233,-0.32421 0.48633,-0.32421 0.36,0 0.73877,-0.32466 1.1348,-0.97266 0.432,-0.648 0.71928,-1.314 0.86328,-1.998 0.288,-0.54 0.23389,-1.3664 -0.16211,-2.4824 -0.396,-1.116 -0.75608,-1.6738 -1.0801,-1.6738 l -0.26953,-0.27148 c 0,-0.756 -0.99072,-1.3679 -2.9707,-1.8359 z m -250.18,0.0527 c -0.68907,0.0236 -1.3639,0.24089 -2.0254,0.65039 -0.756,0.468 -1.7654,1.3131 -3.0254,2.5371 -1.26,1.224 -1.9615,1.9983 -2.1055,2.3223 l -0.43164,0.86328 c -0.144,0 -0.27091,0.0728 -0.37891,0.2168 -0.108,0.108 -0.16211,0.23491 -0.16211,0.37891 -0.108,0.072 -0.34117,0.37796 -0.70117,0.91796 -0.324,0.54 -0.59455,0.91682 -0.81055,1.1328 -2.772,5.076 -3.8877,7.8838 -3.3477,8.4238 0.468,0.576 0.70118,1.0256 0.70118,1.3496 0,0.072 0.25381,0.28844 0.75781,0.64844 0.504,0.36 0.80997,0.64924 0.91797,0.86524 2.52,1.62 6.2271,-0.0555 11.123,-5.0234 0.576,-0.576 0.99019,-1.0443 1.2422,-1.4043 0.144,0.9 0.46866,1.693 0.97266,2.377 1.404,2.7 3.5084,3.8511 6.3164,3.4551 0.972,-0.216 1.459,-1.0611 1.459,-2.5371 0,-0.648 -0.43288,-1.0435 -1.2969,-1.1875 -0.864,-0.144 -1.4759,-0.59361 -1.8359,-1.3496 -1.26,-2.016 -1.4745,-4.2138 -0.64649,-6.5898 l 0.91797,-2.6992 c -2.376,-2.124 -3.9058,-3.4561 -4.5898,-3.9961 -0.396,-0.288 -0.63113,-0.48575 -0.70313,-0.59375 -0.576,-0.468 -1.2607,-0.71986 -2.0527,-0.75586 -0.099,-0.005 -0.19649,-0.005 -0.29492,-0.002 z m 139.57,0 c -0.68906,0.0236 -1.3639,0.24089 -2.0254,0.65039 -0.756,0.468 -1.7654,1.3131 -3.0254,2.5371 -1.26,1.224 -1.9615,1.9983 -2.1055,2.3223 l -0.43164,0.86328 c -0.144,0 -0.27091,0.0728 -0.37891,0.2168 -0.108,0.108 -0.16211,0.23491 -0.16211,0.37891 -0.108,0.072 -0.34117,0.37796 -0.70117,0.91796 -0.324,0.54 -0.59455,0.91682 -0.81055,1.1328 -2.772,5.076 -3.8876,7.8838 -3.3476,8.4238 0.468,0.576 0.70117,1.0256 0.70117,1.3496 10e-6,0.072 0.25381,0.28844 0.75781,0.64844 0.504,0.36 0.80997,0.64924 0.91797,0.86524 2.52,1.62 6.227,-0.0555 11.123,-5.0234 0.576,-0.576 0.99018,-1.0443 1.2422,-1.4043 0.144,0.9 0.46866,1.693 0.97266,2.377 1.404,2.7 3.5084,3.8511 6.3164,3.4551 0.972,-0.216 1.459,-1.0611 1.459,-2.5371 0,-0.648 -0.43287,-1.0435 -1.2969,-1.1875 -0.864,-0.144 -1.4759,-0.59361 -1.8359,-1.3496 -1.26,-2.016 -1.4745,-4.2138 -0.64649,-6.5898 l 0.91797,-2.6992 c -2.376,-2.124 -3.9058,-3.4561 -4.5898,-3.9961 -0.396,-0.288 -0.63113,-0.48575 -0.70313,-0.59375 -0.576,-0.468 -1.2607,-0.71986 -2.0527,-0.75586 -0.099,-0.005 -0.19648,-0.005 -0.29492,-0.002 z m 87.592,0.002 c -0.972,0 -2.1437,0.32467 -3.5117,0.97265 -1.368,0.612 -2.646,1.709 -3.834,3.293 -1.188,1.584 -2.0518,3.0597 -2.5918,4.4277 -0.54,1.368 -0.86271,2.521 -0.97071,3.457 -0.072,0.936 -0.10937,1.8165 -0.10937,2.6445 0,2.124 0.63062,3.7621 1.8906,4.9141 1.25998,1.152 2.8794,1.7285 4.8594,1.7285 1.98,0 3.745,-0.66605 5.293,-1.998 1.584,-1.368 2.4291,-2.465 2.5371,-3.293 -0.036,-0.396 -0.26918,-0.81018 -0.70118,-1.2422 -0.432,-0.432 -0.86487,-0.64844 -1.2969,-0.64844 -0.432,0 -1.0439,0.32467 -1.8359,0.97265 -0.756,0.648 -1.422,1.0976 -1.998,1.3496 -0.576,0.252 -1.1879,0.37696 -1.8359,0.37696 -0.648,0 -1.2058,-0.19775 -1.6738,-0.59375 -0.432,-0.396 -0.7006,-1.0975 -0.8086,-2.1055 0,-1.08 0.12496,-1.8188 0.37696,-2.2148 0.18,-0.252 0.37775,-0.37695 0.59375,-0.37695 0.216,0 0.79251,0.0895 1.7285,0.26953 0.972,0.144 1.9794,0.19811 3.0234,0.16211 1.044,-0.036 2.0888,-0.39608 3.1328,-1.0801 1.044,-0.72 1.8183,-1.5297 2.3223,-2.4297 1.008,-1.728 1.5117,-2.9706 1.5117,-3.7266 v -0.43164 c 0,-0.9 -0.48699,-1.8533 -1.459,-2.8613 -0.972,-1.044 -2.5186,-1.5664 -4.6426,-1.5664 z m 76.676,0 c -0.972,0 -2.1437,0.32467 -3.5117,0.97265 -1.368,0.612 -2.646,1.709 -3.834,3.293 -1.188,1.584 -2.0518,3.0597 -2.5918,4.4277 -0.54,1.368 -0.86271,2.521 -0.97071,3.457 -0.072,0.936 -0.10937,1.8165 -0.10937,2.6445 0,2.124 0.63062,3.7621 1.8906,4.9141 1.25998,1.152 2.8794,1.7285 4.8594,1.7285 1.98,0 3.745,-0.66605 5.293,-1.998 1.584,-1.368 2.4291,-2.465 2.5371,-3.293 -0.036,-0.396 -0.26918,-0.81018 -0.70118,-1.2422 -0.432,-0.432 -0.86487,-0.64844 -1.2969,-0.64844 -0.432,0 -1.044,0.32467 -1.8359,0.97265 -0.756,0.648 -1.4221,1.0976 -1.998,1.3496 -0.576,0.252 -1.1879,0.37696 -1.8359,0.37696 -0.648,0 -1.2058,-0.19775 -1.6738,-0.59375 -0.432,-0.396 -0.7006,-1.0975 -0.80859,-2.1055 0,-1.08 0.12496,-1.8188 0.37695,-2.2148 0.18,-0.252 0.37774,-0.37695 0.59375,-0.37695 0.216,0 0.79253,0.0895 1.7285,0.26953 0.97201,0.144 1.9794,0.19811 3.0234,0.16211 1.044,-0.036 2.0888,-0.39608 3.1328,-1.0801 1.044,-0.72 1.8183,-1.5297 2.3223,-2.4297 1.008,-1.728 1.5117,-2.9706 1.5117,-3.7266 v -0.43164 c 0,-0.9 -0.48699,-1.8533 -1.459,-2.8613 -0.97198,-1.044 -2.5186,-1.5664 -4.6426,-1.5664 z m -142.12,0.2168 c -0.792,0 -1.458,0.19775 -1.998,0.59375 -0.504,0.36 -0.75586,0.80962 -0.75586,1.3496 l 0.10742,1.1875 c 0,0.504 -0.0708,0.99099 -0.21485,1.459 -0.432,1.008 -0.75665,1.7449 -0.97265,2.2129 -0.18,0.432 -0.34233,0.84619 -0.48633,1.2422 -0.144,0.396 -0.23353,0.64786 -0.26953,0.75586 0,0.072 -0.0354,0.30712 -0.10742,0.70312 -0.072,0.36 -0.16153,0.73681 -0.26953,1.1328 -0.072,0.36 -0.23433,1.0615 -0.48633,2.1055 -0.252,1.044 -0.43302,1.8556 -0.54102,2.4316 -0.108,0.54 -0.16211,1.1332 -0.16211,1.7812 0,0.648 0.30597,1.2786 0.91797,1.8906 0.648,0.612 1.3682,0.91797 2.1602,0.91797 0.036,0 0.25244,-0.23513 0.64844,-0.70313 0.43198,-0.504 0.93571,-1.0972 1.5117,-1.7812 0.612,-0.684 1.1885,-1.2959 1.7285,-1.8359 0.54,-0.57598 1.6016,-1.729 3.1856,-3.457 1.476,-1.62 2.4834,-2.4297 3.0234,-2.4297 0.036,0 0.0547,0.10823 0.0547,0.32421 0,0.216 -0.44961,1.3149 -1.3496,3.2949 l -1.2422,3.6172 v 0.26954 c 0,0.612 0.23318,1.0803 0.70118,1.4043 l 0.59375,0.48633 c 0.252,0.216 0.59534,0.32422 1.0273,0.32422 0.432,0 1.1876,-0.50372 2.2676,-1.5117 0.468,-0.468 0.84676,-0.81134 1.1348,-1.0273 0.072,-0.108 0.16154,-0.19753 0.26954,-0.26953 3.132,-3.42 5.1656,-5.1289 6.1016,-5.1289 0.108,0 0.16211,0.0541 0.16211,0.16211 0,0.108 -0.0541,0.46808 -0.16211,1.0801 -0.072,0.612 -0.10742,1.2239 -0.10742,1.8359 0,1.512 0.37681,2.8254 1.1328,3.9414 0.792,1.08 1.7099,1.6191 2.7539,1.6191 2.376,0 3.5645,-0.72016 3.5645,-2.1602 0,-0.57598 -0.17908,-0.9715 -0.53906,-1.1875 -0.324,-0.25198 -0.68408,-0.43106 -1.0801,-0.53906 -0.36,-0.108 -0.55775,-0.27033 -0.59375,-0.48633 -0.252,-0.612 -0.43302,-1.765 -0.54102,-3.457 -0.108,-1.728 -0.37855,-3.131 -0.81055,-4.2109 -0.396,-1.08 -1.1683,-1.6211 -2.3203,-1.6211 -0.792,0.036 -2.0346,0.63122 -3.7266,1.7832 -1.692,1.15198 -2.8804,2.1408 -3.5644,2.9688 0.216,-0.32398 0.59476,-1.7102 1.1348,-4.1582 0,-0.828 -0.36008,-1.5649 -1.0801,-2.2129 -0.72,-0.648 -1.3319,-0.97266 -1.8359,-0.97266 -0.72,0.216 -1.9085,0.91943 -3.5645,2.1074 -1.62,1.152 -2.8439,2.124 -3.6719,2.916 -0.828,0.792 -1.2963,1.1334 -1.4043,1.0254 -0.072,0 -0.10742,-0.0541 -0.10742,-0.16211 l 1.9434,-4.752 c 0.288,-0.576 0.43164,-1.1879 0.43164,-1.8359 0,-0.684 -0.23317,-1.35 -0.70117,-1.998 -0.468,-0.684 -1.0986,-1.0254 -1.8906,-1.0254 z m -118.89,0.53906 c -0.62775,-0.008 -1.3462,0.0805 -2.1562,0.26953 -1.44,0.324 -3.0594,1.2606 -4.8594,2.8086 -1.332,1.08 -2.61,2.6286 -3.834,4.6445 -0.504,0.828 -0.91819,1.7272 -1.2422,2.6992 -0.324,0.972 -0.4509,1.638 -0.3789,1.998 0.072,0.324 10e-4,0.48633 -0.21485,0.48633 l -0.21679,0.21484 c -0.072,0.108 -0.0179,0.2536 0.16211,0.4336 l -0.10743,1.2422 c -0.216,1.296 0.48547,2.7885 2.1055,4.4805 0.792,0.684 1.4935,1.0274 2.1055,1.0274 2.376,-0.144 4.0328,-0.54146 4.9688,-1.1895 2.34,-1.404 4.1758,-3.0775 5.5078,-5.0215 2.268,-3.276 3.2587,-6.4085 2.9707,-9.3965 -0.216,-1.944 -1.0257,-3.222 -2.4297,-3.834 -0.54,-0.5625 -1.3346,-0.84922 -2.3809,-0.86328 z m 17.492,0.70117 c -0.648,0 -1.0081,0.0541 -1.0801,0.16211 -0.36,0 -0.53906,0.18103 -0.53906,0.54101 l 0.0527,0.0547 c -0.108,1.044 -0.57631,2.5365 -1.4043,4.4805 -0.792,1.908 -1.277,3.1506 -1.457,3.7266 -1.44,2.808 -2.1602,4.9311 -2.1602,6.3711 0.216,0.54 0.64692,1.152 1.2949,1.8359 0.648,0.684 1.1537,1.0441 1.5137,1.0801 0.396,0.036 0.68328,0.036 0.86328,0 0.216,-0.072 0.48655,-0.28648 0.81055,-0.64648 1.584,-2.052 3.959,-4.2125 7.127,-6.4805 1.764,-1.26 2.9711,-1.8906 3.6191,-1.8906 0.36,10e-6 0.59318,0.36008 0.70118,1.0801 v 0.86524 l -0.26954,3.6719 c 0,2.484 1.1344,3.762 3.4024,3.834 0.468,-0.072 0.95303,-0.34255 1.457,-0.81055 0.54,-0.504 0.81055,-0.86408 0.81055,-1.0801 0,-0.252 -0.21644,-0.84525 -0.64844,-1.7812 -0.432,-0.936 -0.57564,-1.4771 -0.43164,-1.6211 l -0.16211,-0.32422 c 0.144,-0.468 0.2168,-1.2777 0.2168,-2.4297 l -0.10938,-2.9707 0.2168,-2.4824 c -0.144,-0.432 -0.64772,-0.9003 -1.5117,-1.4043 -0.828,-0.54 -1.4773,-0.81055 -1.9453,-0.81055 -0.864,0 -3.1494,1.4944 -6.8574,4.4824 -1.62,1.26 -2.717,2.0884 -3.293,2.4844 0,-0.072 0.46634,-1.044 1.4023,-2.916 0.936,-1.872 1.4043,-3.2582 1.4043,-4.1582 0,-0.9 -0.34141,-1.6015 -1.0254,-2.1055 -0.684,-0.504 -1.35,-0.75781 -1.998,-0.75781 z m 166.46,2.4844 h 0.59375 c 1.152,0.108 1.7285,0.55763 1.7285,1.3496 -0.036,0.288 -0.4315,0.81041 -1.1875,1.5664 -0.71998,0.72 -1.2424,1.1696 -1.5664,1.3496 -0.288,0.144 -0.98947,0.2168 -2.1055,0.2168 -1.11603,0 -1.7112,-0.21644 -1.7832,-0.64844 0.648,-1.008 1.4036,-1.8905 2.2676,-2.6465 0.9,-0.79198 1.5847,-1.1875 2.0527,-1.1875 z m 76.676,0 h 0.59375 c 1.152,0.108 1.7285,0.55763 1.7285,1.3496 -0.036,0.288 -0.43152,0.81041 -1.1875,1.5664 -0.72,0.72 -1.2424,1.1696 -1.5664,1.3496 -0.288,0.144 -0.98947,0.2168 -2.1055,0.2168 -1.11603,0 -1.7112,-0.21644 -1.7832,-0.64844 0.648,-1.008 1.4036,-1.8905 2.2676,-2.6465 0.89998,-0.79198 1.5847,-1.1875 2.0527,-1.1875 z m -303.05,0.75586 c 0.612,0 1.2239,0.66605 1.8359,1.998 l -1.1875,1.9453 c -0.54,0.792 -1.1519,1.5289 -1.8359,2.2129 -0.396,0.36 -0.72065,0.64924 -0.97265,0.86524 -0.252,0.216 -0.66619,0.55739 -1.2422,1.0254 -0.54,0.468 -0.97288,0.84481 -1.2969,1.1328 -1.656,1.368 -2.7716,2.0173 -3.3476,1.9453 0.432,-1.404 0.91898,-2.5383 1.459,-3.4023 3.06,-5.148 5.2559,-7.7227 6.5879,-7.7227 z m 139.57,0 c 0.61198,0 1.2239,0.66605 1.8359,1.998 l -1.1875,1.9453 c -0.54,0.792 -1.152,1.5289 -1.8359,2.2129 -0.396,0.36 -0.72065,0.64924 -0.97266,0.86524 -0.25199,0.216 -0.66619,0.55739 -1.2422,1.0254 -0.54,0.468 -0.97287,0.84481 -1.2969,1.1328 -1.656,1.368 -2.7717,2.0173 -3.3477,1.9453 0.432,-1.404 0.91898,-2.5383 1.459,-3.4023 3.06,-5.148 5.2559,-7.7227 6.5879,-7.7227 z m -98.289,0.9961 c 0.216,-0.007 0.47253,0.0584 0.76953,0.19336 0.288,0.18 0.41296,0.71914 0.37696,1.6191 0,0.864 -0.0709,1.4031 -0.21485,1.6191 -0.108,0.216 -0.2349,0.54067 -0.3789,0.97265 -0.144,0.396 -0.25222,0.66655 -0.32422,0.81055 -0.036,0.108 -0.12553,0.32444 -0.26953,0.64844 -0.108,0.324 -0.19753,0.55717 -0.26953,0.70117 -0.072,0.108 -0.18022,0.30575 -0.32422,0.59375 -0.108,0.252 -0.23491,0.44975 -0.37891,0.59375 -0.108,0.144 -0.25164,0.30633 -0.43164,0.48633 l -1.1348,1.1348 c -0.576,0.54 -1.2234,0.91682 -1.9434,1.1328 -0.72,0.216 -1.2424,0.10778 -1.5664,-0.32422 -0.288,-0.468 -0.37753,-1.1508 -0.26953,-2.0508 0.54,-2.628 2.1781,-5.0944 4.9141,-7.3984 0.576,-0.396 0.99019,-0.62917 1.2422,-0.70117 0.063,-0.018 0.13112,-0.029 0.20312,-0.0312 z m 161.22,1.2656 c 0.49851,0.007 0.91008,0.20782 1.2363,0.60157 0.612,0.97198 0.64742,1.8712 0.10742,2.6992 -0.252,0.432 -0.53928,0.8275 -0.86328,1.1875 -0.324,0.324 -0.7923,0.73819 -1.4043,1.2422 -0.576,0.504 -1.5667,1.0451 -2.9707,1.6211 -1.368,0.54 -2.3026,0.80859 -2.8066,0.80859 -0.36,0 -0.37868,-0.59325 -0.0547,-1.7812 0.324,-1.188 1.0628,-2.3932 2.2148,-3.6172 1.9305,-1.8562 3.4443,-2.7772 4.541,-2.7617 z"
       style="font-variant-ligatures:none;fill:#000000"
       id="path336527" /><path
       style="fill:#000000;stroke-width:0.48750001"
       d="m 298.12,336.36 0.002,0.008 c -0.23853,0.002 -0.65037,0.0123 -0.91601,0.0234 -0.26563,0.0108 -0.6494,0.0354 -0.85352,0.0527 -0.20377,0.0173 -0.58489,0.0548 -0.8457,0.084 -0.26081,0.0293 -0.67422,0.0837 -0.91992,0.1211 -0.24618,0.0377 -0.72271,0.12448 -1.0586,0.1914 -0.3354,0.0672 -0.87063,0.18935 -1.1914,0.27149 -0.32029,0.0822 -0.76013,0.20167 -0.97656,0.26758 -0.21597,0.0656 -0.56919,0.1799 -0.78516,0.2539 -0.21596,0.074 -0.53984,0.18922 -0.71875,0.25586 -0.17889,0.067 -0.4715,0.18187 -0.65039,0.25586 -0.17889,0.074 -0.48393,0.2051 -0.67774,0.29102 -0.1938,0.0859 -0.59544,0.27805 -0.89062,0.42578 -0.29517,0.14745 -0.71432,0.36711 -0.93359,0.48828 -0.21901,0.12144 -0.5706,0.32459 -0.7793,0.45117 -0.2087,0.12658 -0.59251,0.37146 -0.85352,0.54492 -0.26075,0.17347 -0.64452,0.43947 -0.85351,0.5918 -0.2087,0.15206 -0.55308,0.41426 -0.76367,0.58203 -0.21088,0.16777 -0.53912,0.43952 -0.73047,0.60352 -0.19136,0.16399 -0.51952,0.45717 -0.72852,0.65234 -0.2087,0.19543 -0.58639,0.56843 -0.83984,0.82813 -0.25344,0.25939 -0.59983,0.63069 -0.76953,0.82422 -0.16995,0.19353 -0.4391,0.50929 -0.59766,0.70312 -0.15883,0.1938 -0.3982,0.49883 -0.5332,0.67773 -0.13498,0.1789 -0.32538,0.43615 -0.42188,0.57032 -0.0965,0.13417 -0.29791,0.42677 -0.44726,0.65039 -0.14935,0.22361 -0.39387,0.60742 -0.54297,0.85351 -0.1488,0.24584 -0.39543,0.67624 -0.54883,0.95703 -0.15342,0.28081 -0.38527,0.73315 -0.51563,1.0039 -0.13038,0.27077 -0.31153,0.66211 -0.40234,0.87109 -0.0905,0.20925 -0.24562,0.58689 -0.34375,0.8379 -0.0979,0.251 -0.25817,0.68948 -0.35547,0.9746 -0.0973,0.28515 -0.24203,0.74498 -0.32226,1.0215 -0.08,0.2762 -0.19515,0.70543 -0.25586,0.95312 -0.061,0.24774 -0.16379,0.72158 -0.23047,1.0547 -0.0667,0.33312 -0.1584,0.86271 -0.20313,1.1758 -0.0447,0.31306 -0.10023,0.75099 -0.12304,0.97461 -0.0228,0.22362 -0.0563,0.55963 -0.0742,0.7461 -0.0249,0.26075 -0.0347,8.5965 -0.041,36.193 -0.005,19.72 0.002,35.894 0.0137,35.941 l 0.0234,0.0859 0.39063,0.008 c 0.23067,0.004 0.54205,-0.009 0.75781,-0.0332 0.20139,-0.0231 0.51249,-0.0659 0.6914,-0.0957 0.17889,-0.0301 0.49638,-0.0972 0.70508,-0.14844 0.20871,-0.0515 0.52422,-0.13915 0.70313,-0.19336 0.17889,-0.0545 0.51257,-0.17087 0.74023,-0.25977 0.22768,-0.0889 0.70926,-0.31028 1.0703,-0.49218 0.36131,-0.18214 0.83888,-0.44379 1.0625,-0.58204 0.22362,-0.13851 0.55033,-0.35264 0.72461,-0.47461 0.17429,-0.12197 0.5147,-0.37695 0.75782,-0.5664 0.24313,-0.18946 0.5597,-0.44355 0.70117,-0.56445 0.14149,-0.12116 0.4613,-0.40977 0.71094,-0.64258 0.24964,-0.2331 0.66496,-0.64931 0.92382,-0.92578 0.25913,-0.27647 0.57609,-0.62377 0.70508,-0.77149 0.12902,-0.14799 0.36143,-0.42376 0.51563,-0.61133 0.15396,-0.18783 0.40779,-0.50588 0.56445,-0.70703 0.15667,-0.20139 0.4333,-0.5684 0.61328,-0.8164 0.17997,-0.24801 0.50186,-0.71081 0.7168,-1.0293 0.21494,-0.31848 0.53187,-0.80783 0.70508,-1.0859 0.17293,-0.27837 0.47331,-0.77846 0.66601,-1.1113 0.19299,-0.33312 0.50034,-0.87953 0.68164,-1.2148 0.18133,-0.33556 0.53444,-1.0244 0.78516,-1.5312 0.251,-0.50685 0.59603,-1.2333 0.76758,-1.6133 0.17131,-0.38028 0.41702,-0.94063 0.54687,-1.2461 0.12956,-0.30573 0.3451,-0.82411 0.47656,-1.1523 0.13173,-0.32825 0.30801,-0.78059 0.39258,-1.0039 0.0848,-0.22334 0.28137,-0.75909 0.4375,-1.1914 0.1564,-0.43233 0.4039,-1.1463 0.55078,-1.5859 0.14664,-0.43991 0.34686,-1.0561 0.44336,-1.3691 0.0968,-0.31306 0.25627,-0.84242 0.35547,-1.1777 0.0989,-0.33556 0.28359,-0.98903 0.41016,-1.4512 0.12658,-0.46214 0.35667,-1.3483 0.51172,-1.9688 0.15477,-0.62044 0.37411,-1.54 0.48633,-2.0449 0.1122,-0.50495 0.29458,-1.3767 0.40625,-1.9355 0.11194,-0.55916 0.2659,-1.3574 0.34179,-1.7734 0.0756,-0.41606 0.20879,-1.1963 0.29688,-1.7344 0.0878,-0.53805 0.21625,-1.3562 0.2832,-1.8184 0.0672,-0.46214 0.17002,-1.2175 0.23047,-1.6797 0.0602,-0.46214 0.15939,-1.2673 0.21875,-1.7891 0.0594,-0.52177 0.14446,-1.3208 0.18945,-1.7754 0.0447,-0.45482 0.1055,-1.1146 0.13477,-1.4648 0.0296,-0.35047 0.079,-0.98349 0.10937,-1.4082 0.0304,-0.42501 0.0779,-1.1699 0.10742,-1.6543 0.0295,-0.48463 0.0753,-1.4246 0.10157,-2.0879 0.042,-1.0538 0.0511,-1.1705 0.0703,-0.9336 0.0122,0.14908 0.0235,1.4419 0.0254,2.873 0.002,1.5444 -0.0103,2.9878 -0.0293,3.5508 -0.0179,0.52177 -0.0451,1.2294 -0.0605,1.5723 -0.0152,0.34288 -0.0505,1.0546 -0.0801,1.584 -0.0295,0.52909 -0.0779,1.2989 -0.10742,1.709 -0.0295,0.40983 -0.0793,1.0368 -0.10938,1.3945 -0.0301,0.35778 -0.0917,1.03 -0.13672,1.4922 -0.045,0.46214 -0.12956,1.2609 -0.18945,1.7754 -0.0596,0.51417 -0.15744,1.2947 -0.2168,1.7344 -0.0594,0.43964 -0.15716,1.1287 -0.21679,1.5312 -0.0599,0.40251 -0.16325,1.0604 -0.23047,1.4629 -0.0672,0.40224 -0.17719,1.0309 -0.24414,1.3965 -0.0672,0.36537 -0.19571,1.0293 -0.28516,1.4766 -0.0894,0.44723 -0.24253,1.1734 -0.33984,1.6133 -0.0973,0.43964 -0.28434,1.2448 -0.41797,1.7891 -0.13336,0.544 -0.29916,1.1977 -0.36719,1.4512 -0.068,0.25343 -0.19793,0.71622 -0.28711,1.0293 -0.0892,0.31306 -0.25128,0.86704 -0.36133,1.2324 -0.10978,0.36511 -0.27389,0.89645 -0.36523,1.1797 -0.0911,0.28325 -0.25574,0.77699 -0.36524,1.0977 -0.10978,0.32038 -0.27215,0.7832 -0.36132,1.0293 -0.0889,0.24612 -0.22983,0.62751 -0.3125,0.84571 -0.0829,0.21847 -0.25922,0.66884 -0.39258,1.002 -0.13363,0.33339 -0.33652,0.82543 -0.45117,1.0938 -0.11439,0.26834 -0.33755,0.77454 -0.4961,1.125 -0.15856,0.3502 -0.49307,1.0454 -0.74219,1.5449 -0.24882,0.4993 -0.58258,1.1467 -0.74218,1.4375 -0.15938,0.29057 -0.41784,0.7478 -0.57422,1.0156 -0.15667,0.26752 -0.40703,0.68056 -0.55664,0.91992 -0.14935,0.23906 -0.42719,0.66851 -0.61719,0.95312 -0.19001,0.28487 -0.45968,0.67501 -0.59766,0.86719 -0.13797,0.19244 -0.41149,0.56321 -0.60937,0.82422 -0.19787,0.26075 -0.50233,0.64482 -0.67578,0.85352 -0.1732,0.2087 -0.48147,0.56789 -0.68555,0.79882 -0.2041,0.23066 -0.60955,0.65755 -0.90039,0.94922 -0.29057,0.29165 -0.73943,0.71536 -0.99609,0.94141 -0.25669,0.22633 -0.60551,0.52444 -0.77735,0.66211 -0.17158,0.13742 -0.30869,0.25406 -0.30273,0.25976 0.006,0.006 0.20504,-0.0384 0.4414,-0.0996 0.23608,-0.0613 0.63523,-0.1735 0.88868,-0.24804 0.25343,-0.0748 0.63309,-0.19032 0.84179,-0.25781 0.20871,-0.0675 0.60518,-0.20376 0.88086,-0.30079 0.27593,-0.0973 0.69507,-0.25219 0.9336,-0.3457 0.23853,-0.0935 0.58721,-0.23443 0.77343,-0.3125 0.18649,-0.0778 0.60615,-0.26303 0.9336,-0.41211 0.32743,-0.14908 0.79022,-0.36846 1.0293,-0.48828 0.23907,-0.1198 0.6743,-0.34556 0.96485,-0.50195 0.29084,-0.15639 0.75973,-0.41947 1.043,-0.58399 0.28324,-0.16453 0.69219,-0.40852 0.9082,-0.54297 0.2163,-0.13444 0.58158,-0.36858 0.8125,-0.51953 0.23121,-0.15125 0.6462,-0.43167 0.92188,-0.62304 0.27592,-0.19109 0.78185,-0.5575 1.125,-0.81446 0.34341,-0.25669 0.86956,-0.66273 1.168,-0.90234 0.2987,-0.23961 0.78055,-0.63844 1.0703,-0.88672 0.28975,-0.24828 0.76408,-0.66732 1.0547,-0.92969 0.29084,-0.26238 1.024,-0.97172 1.6289,-1.5762 0.60528,-0.60445 1.3065,-1.3254 1.5586,-1.6016 0.25235,-0.27647 0.63962,-0.70802 0.86133,-0.96094 0.22199,-0.25316 0.60665,-0.7038 0.85547,-1.002 0.24882,-0.29816 0.65309,-0.79219 0.89649,-1.0977 0.2434,-0.30574 0.69263,-0.89289 1,-1.3027 0.30709,-0.4101 0.70672,-0.95163 0.88671,-1.2051 0.18025,-0.25343 0.43642,-0.61872 0.57032,-0.8125 0.13391,-0.1938 0.39115,-0.57348 0.57031,-0.8418 0.17917,-0.26834 0.45012,-0.68139 0.60351,-0.91992 0.15342,-0.23853 0.43358,-0.68476 0.62305,-0.99023 0.18946,-0.30574 0.50514,-0.82436 0.69922,-1.1524 0.19407,-0.32797 0.4491,-0.76591 0.56836,-0.97461 0.11926,-0.20871 0.38117,-0.67983 0.58203,-1.0449 0.20084,-0.36538 0.5033,-0.92571 0.67188,-1.2461 0.16887,-0.32066 0.53521,-1.0407 0.8125,-1.5996 0.27728,-0.55916 0.64891,-1.3267 0.82617,-1.707 0.17699,-0.38029 0.44794,-0.97791 0.60351,-1.3281 0.15559,-0.35047 0.39635,-0.90638 0.53516,-1.2344 0.13905,-0.32798 0.33933,-0.80667 0.44531,-1.0645 0.10626,-0.25804 0.31804,-0.78303 0.46875,-1.166 0.15043,-0.38326 0.40371,-1.0501 0.56446,-1.4824 0.16099,-0.43232 0.40957,-1.115 0.55078,-1.5176 0.14122,-0.40251 0.41501,-1.214 0.60937,-1.8027 0.19435,-0.589 0.46521,-1.4356 0.60156,-1.8828 0.13634,-0.44723 0.36899,-1.2358 0.51563,-1.75 0.14664,-0.51446 0.34665,-1.2352 0.44531,-1.6035 0.0984,-0.36836 0.3065,-1.1859 0.46289,-1.8164 0.15667,-0.63043 0.40008,-1.6654 0.54102,-2.2988 0.14094,-0.6337 0.32939,-1.5176 0.41992,-1.9648 0.0908,-0.44723 0.23145,-1.1673 0.3125,-1.5996 0.0808,-0.43233 0.22745,-1.2543 0.32422,-1.8281 0.097,-0.57408 0.22411,-1.3668 0.2832,-1.7617 0.0594,-0.39491 0.15054,-1.0238 0.20313,-1.3965 0.0523,-0.3727 0.14544,-1.0678 0.20507,-1.5449 0.0594,-0.47705 0.14392,-1.2047 0.18946,-1.6172 0.0452,-0.41281 0.11987,-1.1268 0.16406,-1.5859 0.0442,-0.45943 0.10962,-1.2136 0.14648,-1.6758 0.0371,-0.46214 0.08,-1.0244 0.0957,-1.248 0.0154,-0.2236 0.0398,-0.60131 0.0547,-0.83984 0.0152,-0.23853 0.0398,-0.64744 0.0547,-0.9082 0.0146,-0.26102 0.0444,-0.89404 0.0664,-1.4082 0.0222,-0.51445 0.055,-1.4854 0.0723,-2.1562 0.0174,-0.67084 0.0242,-1.6152 0.0156,-2.0996 -0.009,-0.48463 -0.0338,-1.0947 -0.0566,-1.3555 -0.0228,-0.26102 -0.0604,-0.63871 -0.084,-0.83985 -0.0236,-0.20139 -0.0739,-0.57467 -0.11132,-0.82812 -0.0371,-0.25343 -0.1205,-0.72865 -0.18555,-1.0566 -0.065,-0.32797 -0.18051,-0.84223 -0.25586,-1.1426 -0.0754,-0.30032 -0.20966,-0.78798 -0.29883,-1.084 -0.0892,-0.29598 -0.24026,-0.75707 -0.33594,-1.0254 -0.0957,-0.26834 -0.24676,-0.67092 -0.33593,-0.89453 -0.0889,-0.22362 -0.24602,-0.59524 -0.34766,-0.82617 -0.10192,-0.2312 -0.31636,-0.68353 -0.47656,-1.0039 -0.15992,-0.32064 -0.42419,-0.81584 -0.58789,-1.1016 -0.16371,-0.28596 -0.38186,-0.65319 -0.48242,-0.81445 -0.10084,-0.16155 -0.31763,-0.49444 -0.48243,-0.74024 -0.1648,-0.2461 -0.48347,-0.69188 -0.70898,-0.99218 -0.22551,-0.30032 -0.55889,-0.72457 -0.74023,-0.94141 -0.18133,-0.21684 -0.44731,-0.52648 -0.5918,-0.6875 -0.1442,-0.16128 -0.49524,-0.52805 -0.7793,-0.81641 -0.28407,-0.28838 -0.69072,-0.68541 -0.9043,-0.88085 -0.21359,-0.19543 -0.59132,-0.52509 -0.83984,-0.73243 -0.24856,-0.20735 -0.68357,-0.55005 -0.9668,-0.76172 -0.28325,-0.21168 -0.64851,-0.47567 -0.8125,-0.58789 -0.16399,-0.11221 -0.50024,-0.33186 -0.74609,-0.48828 -0.24584,-0.15613 -0.6299,-0.38991 -0.85352,-0.51758 -0.22361,-0.12793 -0.56569,-0.31605 -0.75976,-0.41796 -0.19408,-0.10219 -0.5842,-0.29698 -0.86719,-0.4336 -0.28275,-0.14551 -0.71622,-0.34148 -0.96484,-0.44531 -0.24375,-0.10379 -0.64004,-0.26181 -0.87891,-0.35156 -0.23888,-0.0897 -0.62243,-0.22747 -0.85156,-0.30469 -0.234,-0.0775 -0.69291,-0.21651 -1.0195,-0.31055 -0.32663,-0.0941 -0.80902,-0.22109 -1.0723,-0.28125 -0.25838,-0.0601 -0.66345,-0.1467 -0.89258,-0.1914 -0.22912,-0.045 -0.62345,-0.1136 -0.87695,-0.15235 -0.24862,-0.0388 -0.6635,-0.0924 -0.92187,-0.12109 -0.2535,-0.029 -0.61944,-0.0665 -0.80469,-0.082 -0.18525,-0.0155 -0.61381,-0.0398 -0.94531,-0.0547 -0.33637,-0.0147 -0.81044,-0.0237 -1.0469,-0.0215 z m -10.852,13.244 c 0.49223,0.005 0.85831,0.0234 1.0781,0.0527 0.1835,0.0241 0.46367,0.0673 0.62305,0.0977 0.15964,0.0306 0.4612,0.0989 0.66992,0.15234 0.20871,0.0531 0.5201,0.14626 0.69141,0.20508 0.17158,0.0588 0.45529,0.16792 0.63281,0.24219 0.17726,0.0743 0.45505,0.20075 0.61524,0.28125 0.16018,0.0802 0.39923,0.20932 0.53125,0.28711 0.13199,0.0778 0.38121,0.23582 0.55468,0.35156 0.17347,0.11601 0.47243,0.33542 0.66407,0.48828 0.19162,0.15287 0.51522,0.44169 0.71875,0.64062 0.20355,0.19923 0.48428,0.49645 0.62304,0.66016 0.13878,0.16344 0.36308,0.44908 0.49805,0.63477 0.13525,0.1854 0.3382,0.49444 0.45312,0.68554 0.11492,0.19109 0.28827,0.50491 0.38477,0.69922 0.0965,0.19435 0.23307,0.49413 0.30273,0.66406 0.0699,0.17022 0.15731,0.3937 0.19336,0.49805 0.0358,0.10436 0.11138,0.35703 0.16993,0.5625 0.0583,0.20518 0.14359,0.55998 0.1875,0.78711 0.0439,0.22686 0.10092,0.59475 0.12695,0.81836 0.0325,0.28054 0.0469,0.61226 0.0469,1.0703 0,0.45808 -0.0143,0.79171 -0.0469,1.0723 -0.026,0.22361 -0.0842,0.59383 -0.12891,0.82422 -0.0447,0.23039 -0.13471,0.60313 -0.19922,0.82812 -0.0645,0.22524 -0.16149,0.53144 -0.21679,0.67969 -0.0553,0.14827 -0.17363,0.4319 -0.26172,0.63086 -0.0878,0.19895 -0.23456,0.49792 -0.32617,0.66406 -0.0913,0.16616 -0.24797,0.43497 -0.34961,0.5957 -0.10192,0.16101 -0.28884,0.42936 -0.41407,0.59766 -0.12522,0.16832 -0.33653,0.43257 -0.4707,0.58789 -0.13416,0.15531 -0.40767,0.44095 -0.60742,0.63477 -0.19976,0.1938 -0.484,0.45076 -0.63281,0.57031 -0.14908,0.1198 -0.37564,0.29114 -0.50196,0.38086 -0.12658,0.0897 -0.36338,0.24688 -0.52734,0.34961 -0.16399,0.103 -0.45659,0.27053 -0.65039,0.37109 -0.1938,0.10083 -0.49883,0.24529 -0.67774,0.32227 -0.17889,0.0767 -0.52122,0.20405 -0.75976,0.2832 -0.23852,0.0794 -0.58502,0.1813 -0.77149,0.22656 -0.18621,0.045 -0.48517,0.10663 -0.66406,0.13672 -0.1789,0.0298 -0.45466,0.0704 -0.61133,0.0899 -0.17455,0.0217 -0.58813,0.0351 -1.0703,0.0351 -0.47786,0 -0.89739,-0.0139 -1.0703,-0.0351 -0.15639,-0.0192 -0.45535,-0.065 -0.66406,-0.10157 -0.20898,-0.0363 -0.52646,-0.1029 -0.70508,-0.14843 -0.1789,-0.0455 -0.50368,-0.14308 -0.72266,-0.2168 -0.21874,-0.0737 -0.54228,-0.19586 -0.71875,-0.27149 -0.17619,-0.0756 -0.4841,-0.22209 -0.68359,-0.32617 -0.19949,-0.10436 -0.47967,-0.26352 -0.62305,-0.35351 -0.14339,-0.0903 -0.39228,-0.25665 -0.55273,-0.36914 -0.16046,-0.11248 -0.45306,-0.34056 -0.65039,-0.50782 -0.19733,-0.16697 -0.52322,-0.47374 -0.72461,-0.68164 -0.20111,-0.20789 -0.46713,-0.50825 -0.5918,-0.66601 -0.12469,-0.15775 -0.30384,-0.39507 -0.39844,-0.52735 -0.0943,-0.13228 -0.25752,-0.38117 -0.36133,-0.55273 -0.10382,-0.1713 -0.25983,-0.45175 -0.34765,-0.62305 -0.0878,-0.17131 -0.22581,-0.46418 -0.30469,-0.65039 -0.0791,-0.18649 -0.20307,-0.52248 -0.27734,-0.74609 -0.0743,-0.22362 -0.1767,-0.57646 -0.22657,-0.78516 -0.0499,-0.20871 -0.11444,-0.53252 -0.14453,-0.71875 -0.0303,-0.18648 -0.0694,-0.47909 -0.0879,-0.65039 -0.0184,-0.17158 -0.0332,-0.599 -0.0332,-0.94922 0,-0.35047 0.0148,-0.77595 0.0332,-0.94726 0.0184,-0.17158 0.0581,-0.46418 0.0879,-0.65039 0.0301,-0.18648 0.10161,-0.53602 0.16016,-0.77539 0.0583,-0.23934 0.16042,-0.59216 0.22656,-0.78516 0.0661,-0.19299 0.18507,-0.50323 0.26367,-0.68945 0.0789,-0.18649 0.21491,-0.47909 0.30274,-0.65039 0.0878,-0.17158 0.24383,-0.45175 0.34765,-0.62305 0.10381,-0.17158 0.26701,-0.42048 0.36133,-0.55274 0.0946,-0.13226 0.27375,-0.36987 0.39844,-0.52734 0.12468,-0.15775 0.38434,-0.45175 0.57813,-0.65234 0.19379,-0.2003 0.48293,-0.477 0.64257,-0.61524 0.15938,-0.13797 0.38568,-0.32374 0.50196,-0.41211 0.11628,-0.0881 0.33969,-0.24471 0.49609,-0.34961 0.15667,-0.10462 0.41805,-0.26672 0.58203,-0.36132 0.16399,-0.0943 0.46903,-0.25377 0.67774,-0.35352 0.2087,-0.0997 0.52651,-0.23833 0.70703,-0.30664 0.18052,-0.0683 0.49162,-0.17197 0.6914,-0.23242 0.19949,-0.0604 0.57076,-0.1519 0.82422,-0.20313 0.25343,-0.0512 0.61871,-0.11172 0.8125,-0.13476 0.1938,-0.023 0.40131,-0.0467 0.46094,-0.0527 0.0596,-0.006 0.44564,-0.008 0.85547,-0.004 z m 22.145,0 c 0.4936,0.005 0.85954,0.0235 1.084,0.0527 0.18649,0.0247 0.52052,0.0803 0.74414,0.125 0.22362,0.0447 0.57553,0.13063 0.78125,0.18945 0.20546,0.0588 0.54145,0.16852 0.7461,0.24414 0.20437,0.0759 0.60153,0.25271 0.88476,0.39258 0.28325,0.13986 0.656,0.34249 0.82813,0.45117 0.17239,0.10869 0.41372,0.26787 0.53516,0.35352 0.12169,0.0856 0.34659,0.25667 0.5,0.37891 0.1534,0.12225 0.49896,0.44176 0.76757,0.71093 0.26834,0.26915 0.59015,0.61906 0.71485,0.77735 0.12442,0.15829 0.30128,0.39474 0.39453,0.52539 0.0932,0.13065 0.26224,0.39199 0.375,0.58008 0.11276,0.18784 0.2716,0.47029 0.35156,0.62695 0.0802,0.1564 0.21018,0.43656 0.28906,0.62305 0.0791,0.18621 0.19667,0.49762 0.26172,0.6914 0.065,0.1938 0.15944,0.51541 0.21094,0.7168 0.0515,0.20111 0.11949,0.50618 0.15039,0.67773 0.0309,0.1713 0.0769,0.4827 0.10156,0.69141 0.0298,0.25343 0.0444,0.60566 0.0449,1.0586 4.8e-4,0.47624 -0.0136,0.79832 -0.0469,1.084 -0.026,0.22362 -0.0831,0.59153 -0.12695,0.81836 -0.0439,0.22714 -0.12929,0.58603 -0.18946,0.79883 -0.0602,0.21305 -0.17074,0.5511 -0.24609,0.75195 -0.0751,0.20058 -0.20791,0.51895 -0.29492,0.70703 -0.087,0.1881 -0.23634,0.48298 -0.33203,0.6543 -0.0957,0.17103 -0.24611,0.41964 -0.33203,0.55273 -0.0856,0.13336 -0.25612,0.37791 -0.37891,0.54297 -0.12278,0.16534 -0.33263,0.42671 -0.4668,0.58203 -0.13417,0.15531 -0.40767,0.44094 -0.60742,0.63477 -0.19976,0.1938 -0.484,0.45076 -0.63281,0.57031 -0.14908,0.11981 -0.37564,0.29114 -0.50196,0.38086 -0.12658,0.0897 -0.36338,0.24687 -0.52734,0.34961 -0.16399,0.10299 -0.45659,0.27053 -0.65039,0.37109 -0.1938,0.10083 -0.49881,0.24529 -0.67773,0.32227 -0.17889,0.0767 -0.52123,0.20405 -0.75977,0.2832 -0.23852,0.0794 -0.58501,0.18129 -0.77148,0.22656 -0.18621,0.045 -0.48518,0.10663 -0.66407,0.13672 -0.17889,0.0298 -0.45467,0.0704 -0.61132,0.0899 -0.17456,0.0217 -0.58814,0.0351 -1.0703,0.0351 -0.47813,0 -0.8971,-0.0139 -1.0703,-0.0351 -0.15639,-0.0192 -0.43049,-0.0596 -0.60937,-0.0899 -0.17889,-0.0306 -0.49638,-0.0992 -0.70508,-0.15039 -0.20871,-0.0512 -0.55836,-0.15257 -0.77735,-0.22656 -0.21874,-0.0737 -0.54228,-0.19587 -0.71875,-0.27149 -0.17618,-0.0756 -0.48208,-0.2229 -0.67968,-0.32617 -0.19732,-0.103 -0.48098,-0.2639 -0.63086,-0.35742 -0.14989,-0.0935 -0.41703,-0.27354 -0.59375,-0.40039 -0.177,-0.12658 -0.46761,-0.35468 -0.64649,-0.50781 -0.17889,-0.15288 -0.48855,-0.44664 -0.6875,-0.65235 -0.19895,-0.206 -0.4632,-0.50293 -0.58789,-0.66015 -0.12468,-0.15721 -0.30357,-0.39508 -0.39844,-0.52735 -0.0946,-0.13227 -0.26359,-0.39388 -0.375,-0.58007 -0.11113,-0.18648 -0.26769,-0.46665 -0.34765,-0.62305 -0.0802,-0.15666 -0.20471,-0.42439 -0.27735,-0.5957 -0.0726,-0.1713 -0.17305,-0.42451 -0.22265,-0.5625 -0.0493,-0.13823 -0.13243,-0.40158 -0.18555,-0.58399 -0.0531,-0.18242 -0.13876,-0.53761 -0.18945,-0.79101 -0.051,-0.25344 -0.11319,-0.64358 -0.13867,-0.86719 -0.0309,-0.27404 -0.0469,-0.62475 -0.0469,-1.0723 0,-0.44751 0.016,-0.79628 0.0469,-1.0703 0.0255,-0.22361 0.0878,-0.61374 0.13867,-0.86719 0.0507,-0.25343 0.13632,-0.61059 0.18945,-0.79297 0.0531,-0.18241 0.13622,-0.4438 0.18555,-0.58203 0.0496,-0.13797 0.15001,-0.39117 0.22265,-0.5625 0.0726,-0.17157 0.19712,-0.4393 0.27735,-0.5957 0.08,-0.15666 0.23652,-0.43879 0.34765,-0.625 0.11141,-0.18648 0.28073,-0.44786 0.37696,-0.58203 0.096,-0.13417 0.27832,-0.37468 0.40625,-0.53516 0.12766,-0.1602 0.3765,-0.43976 0.55078,-0.62109 0.17456,-0.18106 0.45761,-0.4528 0.6289,-0.60352 0.17158,-0.15071 0.40809,-0.34724 0.52735,-0.4375 0.11926,-0.0905 0.34556,-0.25058 0.50195,-0.35547 0.15667,-0.10463 0.41804,-0.26868 0.58203,-0.36328 0.16398,-0.0943 0.46904,-0.25181 0.67774,-0.35156 0.20871,-0.0997 0.52734,-0.23666 0.70703,-0.30469 0.17971,-0.0678 0.50769,-0.17773 0.73047,-0.24414 0.22281,-0.0661 0.59524,-0.15758 0.82617,-0.20312 0.23121,-0.0458 0.57966,-0.10169 0.77344,-0.125 0.1938,-0.023 0.39935,-0.0468 0.45898,-0.0527 0.0596,-0.006 0.44564,-0.008 0.85547,-0.004 z m -22.129,3.8223 c -0.22415,-0.006 -0.515,9.4e-4 -0.64648,0.0137 -0.13146,0.0127 -0.36385,0.0429 -0.51563,0.0684 -0.15179,0.0252 -0.425,0.0868 -0.60742,0.13672 -0.18242,0.0499 -0.46546,0.14594 -0.6289,0.21289 -0.16344,0.067 -0.37469,0.1596 -0.46875,0.20703 -0.0938,0.0472 -0.2799,0.15307 -0.41407,0.23438 -0.13417,0.0813 -0.36046,0.23386 -0.50195,0.33984 -0.14148,0.10598 -0.38404,0.3169 -0.53906,0.4668 -0.15477,0.14989 -0.37384,0.38145 -0.48633,0.51562 -0.11221,0.13417 -0.28877,0.37264 -0.39258,0.5293 -0.10354,0.1564 -0.27634,0.46491 -0.38476,0.68555 -0.1087,0.22063 -0.24734,0.55351 -0.3086,0.74023 -0.061,0.18675 -0.1414,0.48863 -0.17773,0.66992 -0.0363,0.18133 -0.078,0.44707 -0.0937,0.5918 -0.0157,0.14474 -0.0293,0.43475 -0.0293,0.64453 0,0.20979 0.0135,0.50175 0.0293,0.64649 0.0157,0.14473 0.0575,0.41162 0.0937,0.59375 0.0366,0.18215 0.11413,0.47475 0.17187,0.65039 0.0577,0.17565 0.15153,0.42224 0.20899,0.54883 0.0577,0.12685 0.16249,0.33723 0.23242,0.46679 0.0702,0.12957 0.1868,0.32376 0.25781,0.43164 0.071,0.10761 0.20618,0.29346 0.30078,0.41407 0.0943,0.12035 0.2825,0.33447 0.41992,0.47461 0.13715,0.13986 0.34868,0.3378 0.46875,0.43945 0.12035,0.10164 0.35881,0.27678 0.5293,0.39062 0.17049,0.11411 0.46828,0.28654 0.66211,0.38086 0.1938,0.0943 0.47161,0.21391 0.61719,0.26758 0.14555,0.0534 0.40693,0.13214 0.58203,0.17578 0.1751,0.0436 0.44858,0.0997 0.60742,0.12305 0.15857,0.0233 0.45117,0.0493 0.65039,0.0586 0.21142,0.01 0.50883,0.004 0.71485,-0.0156 0.1938,-0.0176 0.48031,-0.056 0.63671,-0.0859 0.15666,-0.0301 0.38883,-0.0853 0.51758,-0.12109 0.12875,-0.036 0.33452,-0.10123 0.45703,-0.14649 0.12225,-0.045 0.35868,-0.14742 0.52539,-0.22656 0.16669,-0.0792 0.42083,-0.21833 0.56446,-0.30859 0.14366,-0.0905 0.35637,-0.23472 0.47265,-0.32227 0.11655,-0.0873 0.34689,-0.28696 0.50977,-0.44336 0.16263,-0.15667 0.38582,-0.39513 0.49805,-0.5293 0.11195,-0.13417 0.2893,-0.37289 0.39257,-0.52929 0.10327,-0.15666 0.27694,-0.46585 0.38672,-0.68946 0.1095,-0.22362 0.24782,-0.55351 0.30664,-0.73242 0.0588,-0.17889 0.13785,-0.47785 0.17579,-0.66406 0.038,-0.18648 0.0839,-0.47849 0.10156,-0.64844 0.0195,-0.18946 0.0251,-0.49907 0.0156,-0.79883 -0.008,-0.27056 -0.0347,-0.60667 -0.0586,-0.74804 -0.0239,-0.14187 -0.0787,-0.40165 -0.12305,-0.57617 -0.0439,-0.17502 -0.12705,-0.4441 -0.18554,-0.59961 -0.0585,-0.15552 -0.18277,-0.43341 -0.2754,-0.61524 -0.0926,-0.18184 -0.24968,-0.45435 -0.3496,-0.60547 -0.0994,-0.15113 -0.27459,-0.38352 -0.38672,-0.51758 -0.11261,-0.13454 -0.32935,-0.36742 -0.48438,-0.51757 -0.15502,-0.14966 -0.39769,-0.35857 -0.53906,-0.46485 -0.14186,-0.10578 -0.36789,-0.25843 -0.50195,-0.33984 -0.13406,-0.0814 -0.32928,-0.19149 -0.4336,-0.24414 -0.10433,-0.0522 -0.33181,-0.1505 -0.5039,-0.21875 -0.1716,-0.0687 -0.47689,-0.16756 -0.67774,-0.21875 -0.20085,-0.0517 -0.50515,-0.11283 -0.67578,-0.13672 -0.17111,-0.0239 -0.49304,-0.0488 -0.7168,-0.0547 z m 22.145,0 c -0.22416,-0.006 -0.515,9.4e-4 -0.64648,0.0137 -0.13146,0.0127 -0.36384,0.0429 -0.51562,0.0684 -0.15179,0.0252 -0.42502,0.0868 -0.60743,0.13672 -0.18242,0.0499 -0.46547,0.14594 -0.6289,0.21289 -0.16344,0.067 -0.3747,0.1596 -0.46875,0.20703 -0.0938,0.0472 -0.28017,0.15279 -0.41407,0.23438 -0.13417,0.0816 -0.36046,0.23583 -0.50195,0.3418 -0.14176,0.10599 -0.38402,0.31549 -0.53906,0.46484 -0.15477,0.14962 -0.37385,0.38144 -0.48633,0.51562 -0.11222,0.13417 -0.28735,0.37264 -0.39062,0.5293 -0.10327,0.1564 -0.27891,0.46584 -0.38868,0.68945 -0.10951,0.22362 -0.24782,0.55351 -0.30664,0.73243 -0.0588,0.17889 -0.13588,0.47758 -0.17382,0.66406 -0.0377,0.18621 -0.082,0.45681 -0.0977,0.60156 -0.0157,0.14474 -0.0293,0.43671 -0.0293,0.64649 0,0.20979 0.0135,0.4998 0.0293,0.64453 0.0157,0.14474 0.0575,0.41047 0.0937,0.59179 0.0363,0.18133 0.11789,0.48634 0.17969,0.67579 0.0621,0.18946 0.20624,0.53474 0.32226,0.76757 0.11628,0.23283 0.2804,0.52551 0.36524,0.65235 0.0846,0.12686 0.24341,0.34044 0.35156,0.47461 0.10815,0.13417 0.31766,0.36282 0.46484,0.50781 0.14745,0.14501 0.35268,0.33254 0.45703,0.41601 0.10436,0.0835 0.30579,0.22936 0.44727,0.32422 0.14176,0.0946 0.38463,0.23792 0.54102,0.32032 0.15666,0.0821 0.40756,0.19872 0.55664,0.25781 0.14907,0.0588 0.36294,0.13268 0.47461,0.16601 0.11194,0.0333 0.29572,0.0845 0.4082,0.11133 0.11249,0.0271 0.3429,0.0694 0.51367,0.0957 0.21982,0.0342 0.4697,0.0488 0.85352,0.0488 0.38001,0 0.63506,-0.0136 0.85351,-0.0469 0.1713,-0.026 0.454,-0.0836 0.62695,-0.12695 0.17293,-0.0434 0.43432,-0.12294 0.58204,-0.17579 0.14745,-0.0531 0.4273,-0.17467 0.62109,-0.26953 0.1938,-0.0951 0.48762,-0.2636 0.6543,-0.375 0.16642,-0.11141 0.39272,-0.27551 0.50195,-0.36523 0.10896,-0.0894 0.30718,-0.27202 0.43945,-0.4043 0.13255,-0.13227 0.32935,-0.3502 0.4375,-0.48437 0.10788,-0.13417 0.26504,-0.34776 0.34961,-0.47461 0.0848,-0.12685 0.24896,-0.4195 0.36524,-0.65235 0.11601,-0.23283 0.26216,-0.57812 0.32422,-0.76757 0.0618,-0.18946 0.14336,-0.49448 0.17968,-0.67579 0.0363,-0.18133 0.0781,-0.44706 0.0937,-0.59179 0.0158,-0.14474 0.0293,-0.43474 0.0293,-0.64453 0,-0.20979 -0.0135,-0.50175 -0.0293,-0.64649 -0.0157,-0.14474 -0.06,-0.41533 -0.0976,-0.60156 -0.0379,-0.18648 -0.11698,-0.48517 -0.17578,-0.66406 -0.0588,-0.17889 -0.19715,-0.50882 -0.30665,-0.73243 -0.10977,-0.22361 -0.28344,-0.53306 -0.38671,-0.68945 -0.10327,-0.15667 -0.28037,-0.39513 -0.39258,-0.5293 -0.11248,-0.13416 -0.32961,-0.36572 -0.48438,-0.51562 -0.15504,-0.14989 -0.39927,-0.36082 -0.54101,-0.4668 -0.14149,-0.10598 -0.36583,-0.25853 -0.5,-0.33984 -0.13417,-0.0813 -0.32925,-0.18988 -0.4336,-0.24219 -0.10436,-0.0523 -0.33203,-0.1524 -0.5039,-0.2207 -0.17184,-0.0686 -0.4766,-0.16725 -0.67774,-0.21875 -0.20085,-0.0515 -0.50501,-0.11287 -0.67578,-0.13672 -0.17103,-0.0239 -0.49294,-0.0487 -0.7168,-0.0547 z m -22.293,3.6484 c 0.27999,-0.002 0.38966,0.008 0.60351,0.0625 0.14393,0.0363 0.35919,0.11528 0.47656,0.17383 0.11736,0.0588 0.27721,0.15575 0.35743,0.21484 0.08,0.0591 0.23793,0.20523 0.34961,0.32422 0.11166,0.11926 0.24857,0.29326 0.30468,0.38867 0.0561,0.0957 0.13915,0.26817 0.1836,0.38281 0.0442,0.11466 0.0987,0.32216 0.12304,0.46094 0.0309,0.17754 0.0401,0.33263 0.0293,0.52344 -0.008,0.14907 -0.0414,0.36902 -0.0723,0.48828 -0.0306,0.11926 -0.10991,0.32677 -0.17578,0.46094 -0.0659,0.13417 -0.19408,0.33706 -0.28515,0.45117 -0.0914,0.11411 -0.25112,0.27421 -0.35547,0.35742 -0.10463,0.0832 -0.26526,0.1946 -0.35742,0.2461 -0.0922,0.0515 -0.27794,0.1291 -0.41211,0.17382 -0.1442,0.0482 -0.35258,0.0934 -0.50977,0.10938 -0.17808,0.0179 -0.34724,0.0182 -0.51367,0 -0.13715,-0.0152 -0.35995,-0.065 -0.49414,-0.10938 -0.13417,-0.0447 -0.31045,-0.11657 -0.39258,-0.16211 -0.0818,-0.0455 -0.23695,-0.14968 -0.34375,-0.23046 -0.10676,-0.0809 -0.24669,-0.21107 -0.3125,-0.28907 -0.0653,-0.0775 -0.1573,-0.19493 -0.20312,-0.26172 -0.0453,-0.0672 -0.1194,-0.19858 -0.16602,-0.29101 -0.0466,-0.0927 -0.11809,-0.27533 -0.1582,-0.40625 l -0.0723,-0.23828 v -0.8418 l 0.0723,-0.23828 c 0.0401,-0.13092 0.11158,-0.31355 0.1582,-0.40625 0.0466,-0.0924 0.13199,-0.2377 0.18945,-0.32227 0.0572,-0.0846 0.18454,-0.23249 0.28321,-0.33007 0.0987,-0.0979 0.26652,-0.23644 0.37304,-0.30664 0.10653,-0.0705 0.29264,-0.1672 0.41407,-0.2168 0.12116,-0.0493 0.2977,-0.10608 0.39257,-0.12695 0.0949,-0.0206 0.32556,-0.0394 0.51368,-0.041 z m 22.146,0 c 0.28,-0.002 0.38967,0.008 0.60352,0.0625 0.14393,0.0363 0.35496,0.11415 0.4707,0.17187 0.11547,0.058 0.26509,0.14538 0.33203,0.19336 0.0667,0.048 0.1981,0.16148 0.29297,0.25391 0.0946,0.0927 0.2271,0.24405 0.29297,0.33594 0.0659,0.0919 0.16225,0.26116 0.21484,0.375 0.0526,0.11385 0.12118,0.29941 0.15235,0.41406 0.0458,0.16751 0.0566,0.28607 0.0566,0.60156 0,0.31957 -0.0106,0.43487 -0.0586,0.61133 -0.0325,0.11926 -0.11187,0.32677 -0.17773,0.46094 -0.0659,0.13417 -0.19604,0.33706 -0.28711,0.45117 -0.0914,0.11411 -0.25112,0.27421 -0.35547,0.35742 -0.10463,0.0832 -0.26526,0.1946 -0.35742,0.2461 -0.0922,0.0515 -0.27794,0.1291 -0.41211,0.17382 -0.14176,0.0474 -0.35038,0.0942 -0.5,0.10938 -0.16425,0.0165 -0.35137,0.0165 -0.51563,0 -0.15016,-0.0152 -0.35965,-0.06 -0.50195,-0.10742 -0.13417,-0.045 -0.31887,-0.1257 -0.41211,-0.17774 -0.0935,-0.052 -0.25931,-0.16468 -0.36719,-0.25195 -0.10815,-0.0873 -0.23984,-0.21256 -0.29297,-0.27734 -0.0531,-0.0648 -0.13387,-0.17329 -0.17968,-0.24024 -0.0455,-0.0672 -0.1194,-0.19663 -0.16602,-0.28906 -0.0466,-0.0927 -0.11835,-0.27533 -0.1582,-0.40625 -0.0645,-0.21277 -0.072,-0.28381 -0.0723,-0.64649 -2.8e-4,-0.33609 0.01,-0.44388 0.0586,-0.62304 0.0328,-0.11926 0.10198,-0.30765 0.15429,-0.41797 0.0523,-0.11059 0.14871,-0.27476 0.21485,-0.36719 0.0659,-0.0924 0.19636,-0.24405 0.28906,-0.33594 0.0927,-0.0919 0.2559,-0.2233 0.36133,-0.29296 0.10544,-0.0697 0.29068,-0.1672 0.41211,-0.2168 0.12116,-0.0493 0.29771,-0.10804 0.39258,-0.12891 0.0949,-0.0206 0.32751,-0.0375 0.51562,-0.0391 z m -11.062,7.7773 c 0.008,0 0.65301,0.96987 1.4356,2.1562 0.78278,1.1864 1.4342,2.1838 1.4473,2.2168 0.0195,0.0491 -0.24796,0.69578 -1.4219,3.4258 -0.7958,1.8507 -1.4534,3.3652 -1.4609,3.3652 -0.007,0 -0.66226,-1.5091 -1.4551,-3.3535 -0.79282,-1.8445 -1.4465,-3.3654 -1.4512,-3.3809 -0.005,-0.0157 0.64396,-1.018 1.4414,-2.2285 0.7977,-1.2105 1.4575,-2.2012 1.4648,-2.2012 z"
       id="icon" /></g></svg>