<?xml version="1.0" encoding="UTF-8" standalone="no"?>
<svg
   xmlns:dc="http://purl.org/dc/elements/1.1/"
   xmlns:cc="http://creativecommons.org/ns#"
   xmlns:rdf="http://www.w3.org/1999/02/22-rdf-syntax-ns#"
   xmlns:svg="http://www.w3.org/2000/svg"
   xmlns="http://www.w3.org/2000/svg"
   id="svg37"
   xml:space="preserve"
   enable-background="new 0 0 1024 1024"
   viewBox="0 0 1024 1024"
   y="0px"
   x="0px"
   version="1.1"><metadata
     id="metadata43"><rdf:RDF><cc:Work
         rdf:about=""><dc:format>image/svg+xml</dc:format><dc:type
           rdf:resource="http://purl.org/dc/dcmitype/StillImage" /></cc:Work></rdf:RDF></metadata><defs
     id="defs41" /><g
     id="g35"
     transform="translate(0,128)"><g
       transform="translate(5.1998,0.05502)"
       id="logo-group"><path
         style="fill:#452927;stroke-width:0.75"
         d="m 298.54,316.4 c -0.129,-0.007 -0.27,0.004 -0.31575,0.0242 -0.0465,0.02 -13.106,7.5555 -29.024,16.744 -15.917,9.1898 -28.994,16.76 -29.058,16.821 -0.0651,0.0617 -0.1497,0.16805 -0.18765,0.23685 l -0.0692,0.1251 -0.0125,33.36 c -0.007,18.348 -4.1e-4,33.478 0.0142,33.622 0.0204,0.206 0.0546,0.29941 0.15971,0.43785 0.11843,0.15596 3.4127,2.0696 28.968,16.828 15.859,9.1582 28.946,16.706 29.084,16.774 0.13761,0.0671 0.31609,0.12176 0.39615,0.12135 0.0805,-4.2e-4 0.22101,-0.0355 0.31275,-0.0771 0.0917,-0.0421 13.143,-7.5682 29.002,-16.725 15.86,-9.1568 28.894,-16.694 28.967,-16.748 0.0721,-0.0546 0.17555,-0.16972 0.22935,-0.25646 l 0.0976,-0.15721 v -67.182 l -0.0725,-0.13303 c -0.0401,-0.073 -0.14345,-0.19181 -0.22935,-0.26354 -0.0863,-0.0717 -13.179,-7.6485 -29.096,-16.837 l -28.942,-16.707 z"
         id="icon_container" /><path
         stroke-miterlimit="2"
         d="m 495.83,419.17 q 0,-1.536 0.52801,-3.048 0.55199,-1.536 1.584,-2.736 1.056,-1.224 2.568,-1.968 1.512,-0.744 3.432,-0.744 2.28,0 3.912,1.032 1.632,1.032 2.424,2.688 l -1.704,1.104 q -0.38401,-0.816 -0.93601,-1.368 -0.52799,-0.552 -1.176,-0.888 -0.624,-0.336 -1.296,-0.48 -0.672,-0.144 -1.32,-0.144 -1.416,0 -2.52,0.6 -1.08,0.576 -1.824,1.536 -0.74401,0.936 -1.128,2.136 -0.36,1.176 -0.36,2.376 0,1.344 0.432,2.568 0.456,1.2 1.248,2.136 0.79199,0.936 1.872,1.488 1.08001,0.552 2.352,0.552 0.672,0 1.368,-0.168 0.72001,-0.168 1.368,-0.528 0.64799,-0.384 1.2,-0.936 0.57601,-0.576 0.93601,-1.368 l 1.8,0.984 q -0.40799,0.96 -1.152,1.704 -0.72,0.72 -1.656,1.224 -0.912,0.504 -1.944,0.768 -1.032,0.264 -2.016,0.264 -1.752,0 -3.216,-0.768 -1.464,-0.768 -2.544,-1.992 -1.056,-1.248 -1.656,-2.808 Q 495.83,420.802 495.83,419.17 Z"
         style="font-variant-ligatures:none;fill:#f2b98d;stroke-width:0;stroke-miterlimit:2"
         id="path336492" /><path
         stroke-miterlimit="2"
         d="m 518.5,428.05 q -1.416,0 -2.592,-0.504 -1.176,-0.528 -2.016,-1.416 -0.84,-0.888 -1.32,-2.064 -0.456,-1.2 -0.456,-2.52 0,-1.32 0.456,-2.496 0.48,-1.176 1.32,-2.064 0.864,-0.888 2.04,-1.392 1.176,-0.528 2.592,-0.528 1.416,0 2.568,0.528 1.176,0.528 1.992,1.416 0.816,0.864 1.248,2.04 0.456,1.152 0.456,2.4 0,0.264 -0.024,0.48 0,0.216 -0.024,0.336 h -10.392 q 0.072,0.936 0.432,1.704 0.36,0.768 0.936,1.32 0.576,0.552 1.296,0.864 0.744,0.312 1.56,0.312 0.576,0 1.128,-0.144 0.552,-0.168 1.032,-0.432 0.48,-0.264 0.84,-0.648 0.384,-0.384 0.576,-0.864 l 1.824,0.504 q -0.312,0.696 -0.864,1.272 -0.528,0.576 -1.248,1.008 -0.696,0.408 -1.56,0.648 -0.864,0.24 -1.8,0.24 z m 4.296,-7.344 q -0.072,-0.888 -0.456,-1.632 -0.36,-0.768 -0.936,-1.296 -0.552,-0.528 -1.296,-0.816 -0.744,-0.312 -1.584,-0.312 -0.84,0 -1.584,0.312 -0.744,0.288 -1.32,0.84 -0.552,0.528 -0.912,1.272 -0.336,0.744 -0.408,1.632 z"
         style="font-variant-ligatures:none;fill:#f2b98d;stroke-width:0;stroke-miterlimit:2"
         id="path336494" /><path
         stroke-miterlimit="2"
         d="m 527.2,410.29 h 2.112 v 14.28 q 0,0.696 0.36,1.104 0.38401,0.384 1.056,0.384 0.26399,0 0.62399,-0.072 0.36,-0.096 0.672,-0.216 l 0.336,1.704 q -0.528,0.216 -1.248,0.36 -0.71999,0.144 -1.272,0.144 -1.224,0 -1.944,-0.696 Q 527.2,426.586 527.2,425.338 Z"
         style="font-variant-ligatures:none;fill:#f2b98d;stroke-width:0;stroke-miterlimit:2"
         id="path336496" /><path
         stroke-miterlimit="2"
         d="m 539.54,428.05 q -1.416,0 -2.592,-0.504 -1.176,-0.528 -2.016,-1.416 -0.84,-0.888 -1.32,-2.064 -0.456,-1.2 -0.456,-2.52 0,-1.32 0.456,-2.496 0.48,-1.176 1.32,-2.064 0.864,-0.888 2.04,-1.392 1.176,-0.528 2.592,-0.528 1.416,0 2.568,0.528 1.176,0.528 1.992,1.416 0.816,0.864 1.248,2.04 0.45601,1.152 0.45601,2.4 0,0.264 -0.024,0.48 0,0.216 -0.024,0.336 h -10.392 q 0.072,0.936 0.432,1.704 0.36,0.768 0.93601,1.32 0.576,0.552 1.296,0.864 0.744,0.312 1.56,0.312 0.57601,0 1.128,-0.144 0.552,-0.168 1.032,-0.432 0.48,-0.264 0.84,-0.648 0.38401,-0.384 0.57601,-0.864 l 1.824,0.504 q -0.312,0.696 -0.86399,1.272 -0.528,0.576 -1.248,1.008 -0.69601,0.408 -1.56,0.648 -0.864,0.24 -1.8,0.24 z m 4.296,-7.344 q -0.072,-0.888 -0.456,-1.632 -0.36,-0.768 -0.936,-1.296 -0.552,-0.528 -1.296,-0.816 -0.744,-0.312 -1.584,-0.312 -0.84,0 -1.584,0.312 -0.744,0.288 -1.32,0.84 -0.552,0.528 -0.912,1.272 -0.336,0.744 -0.408,1.632 z"
         style="font-variant-ligatures:none;fill:#f2b98d;stroke-width:0;stroke-miterlimit:2"
         id="path336498" /><path
         stroke-miterlimit="2"
         d="m 554.63,428.05 q -1.464,0 -2.664,-0.72 -1.2,-0.72 -1.896,-1.872 v 2.352 h -1.872 v -17.52 h 2.112 v 7.488 q 0.792,-1.224 1.944,-1.968 1.152,-0.744 2.688,-0.744 1.296,0 2.328,0.552 1.032,0.552 1.752,1.464 0.744,0.888 1.128,2.088 0.408,1.176 0.408,2.424 0,1.32 -0.456,2.496 -0.456,1.176 -1.248,2.064 -0.792,0.864 -1.896,1.392 -1.08,0.504 -2.328,0.504 z m -0.528,-1.824 q 0.936,0 1.728,-0.384 0.792,-0.384 1.368,-1.032 0.576,-0.648 0.888,-1.464 0.312,-0.84 0.312,-1.752 0,-0.912 -0.312,-1.752 -0.288,-0.864 -0.84,-1.512 -0.528,-0.648 -1.296,-1.032 -0.744,-0.408 -1.656,-0.408 -0.672,0 -1.272,0.24 -0.6,0.24 -1.128,0.648 -0.504,0.384 -0.912,0.912 -0.384,0.528 -0.672,1.128 v 3.624 q 0.12,0.6 0.504,1.104 0.408,0.504 0.936,0.888 0.552,0.36 1.152,0.576 0.624,0.216 1.2,0.216 z"
         style="font-variant-ligatures:none;fill:#f2b98d;stroke-width:0;stroke-miterlimit:2"
         id="path336500" /><path
         stroke-miterlimit="2"
         d="m 569.78,417.13 q -1.584,0.048 -2.808,0.816 -1.2,0.768 -1.704,2.136 v 7.728 h -2.112 v -12.528 h 1.968 v 2.904 q 0.648,-1.296 1.704,-2.088 1.056,-0.816 2.256,-0.912 0.23999,0 0.40799,0 0.168,0 0.288,0.024 z"
         style="font-variant-ligatures:none;fill:#f2b98d;stroke-width:0;stroke-miterlimit:2"
         id="path336502" /><path
         stroke-miterlimit="2"
         d="m 575.09,428.05 q -0.88801,0 -1.656,-0.288 -0.768,-0.312 -1.344,-0.84 -0.55201,-0.528 -0.88801,-1.224 -0.312,-0.72 -0.312,-1.56 0,-0.864 0.384,-1.56 0.38401,-0.72 1.08,-1.224 0.72,-0.504 1.68,-0.792 0.98401,-0.288 2.136,-0.288 0.912,0 1.848,0.168 0.93599,0.168 1.656,0.456 v -1.008 q 0,-1.536 -0.86399,-2.4 -0.864,-0.888 -2.448,-0.888 -1.896,0 -3.984,1.464 l -0.696,-1.368 q 2.424,-1.632 4.872,-1.632 2.472,0 3.84,1.32 1.392,1.32 1.392,3.72 v 5.112 q 0,0.744 0.672,0.768 v 1.824 q -0.336,0.048 -0.552,0.072 -0.216,0.024 -0.45599,0.024 -0.624,0 -1.008,-0.36 -0.36,-0.384 -0.432,-0.912 l -0.048,-0.888 q -0.84,1.128 -2.136,1.728 -1.272,0.576 -2.736,0.576 z m 0.55199,-1.584 q 1.128,0 2.088,-0.408 0.98399,-0.432 1.488,-1.128 0.456,-0.456 0.456,-0.936 v -1.848 q -1.536,-0.6 -3.192,-0.6 -1.584,0 -2.592,0.672 -0.984,0.672 -0.984,1.752 0,0.528 0.192,0.984 0.216,0.456 0.576,0.792 0.384,0.336 0.888,0.528 0.504,0.192 1.08,0.192 z"
         style="font-variant-ligatures:none;fill:#f2b98d;stroke-width:0;stroke-miterlimit:2"
         id="path336504" /><path
         stroke-miterlimit="2"
         d="m 595.67,428.05 q -1.512,0 -2.976,-0.456 -1.464,-0.48 -2.52,-1.368 l 0.91201,-1.416 q 1.104,0.84 2.208,1.272 1.104,0.408 2.328,0.408 1.368,0 2.16,-0.528 0.81599,-0.552 0.81599,-1.536 0,-0.456 -0.216,-0.768 -0.216,-0.336 -0.64799,-0.576 -0.432,-0.24 -1.104,-0.432 -0.672,-0.192 -1.56,-0.408 -1.128,-0.288 -1.944,-0.552 -0.816,-0.264 -1.344,-0.624 -0.528,-0.36 -0.768,-0.864 -0.24,-0.504 -0.24,-1.248 0,-0.936 0.36,-1.656 0.384,-0.744 1.032,-1.224 0.648,-0.504 1.512,-0.744 0.888,-0.264 1.896,-0.264 1.416,0 2.64,0.456 1.224,0.456 2.064,1.2 l -0.96,1.272 q -0.792,-0.696 -1.776,-1.032 -0.984,-0.36 -2.016,-0.36 -1.152,0 -1.968,0.504 -0.792,0.48 -0.792,1.56 0,0.432 0.144,0.72 0.168,0.288 0.528,0.504 0.36,0.216 0.912,0.384 0.576,0.168 1.368,0.36 1.248,0.288 2.16,0.6 0.936,0.288 1.536,0.696 0.624,0.408 0.912,0.96 0.312,0.552 0.312,1.344 0,1.752 -1.344,2.784 -1.344,1.032 -3.624,1.032 z"
         style="font-variant-ligatures:none;fill:#f2b98d;stroke-width:0;stroke-miterlimit:2"
         id="path336506" /><path
         stroke-miterlimit="2"
         d="m 603.14,427.81 v -12.528 h 2.112 v 12.528 z m 0,-14.88 v -2.64 h 2.112 v 2.64 z"
         style="font-variant-ligatures:none;fill:#f2b98d;stroke-width:0;stroke-miterlimit:2"
         id="path336508" /><path
         stroke-miterlimit="2"
         d="m 619.54,427.81 h -2.112 v -7.008 q 0,-2.016 -0.624,-2.928 -0.6,-0.912 -1.848,-0.912 -0.648,0 -1.296,0.264 -0.648,0.24 -1.224,0.672 -0.576,0.432 -1.008,1.032 -0.432,0.6 -0.648,1.32 v 7.56 h -2.112 v -12.528 h 1.92 v 2.688 q 0.744,-1.32 2.136,-2.112 1.416,-0.792 3.072,-0.792 1.08,0 1.8,0.408 0.72,0.384 1.152,1.104 0.432,0.696 0.6,1.656 0.192,0.96 0.192,2.088 z"
         style="font-variant-ligatures:none;fill:#f2b98d;stroke-width:0;stroke-miterlimit:2"
         id="path336510" /><path
         stroke-miterlimit="2"
         d="m 628.97,410.29 h 2.112 v 14.28 q 0,0.696 0.36,1.104 0.384,0.384 1.056,0.384 0.264,0 0.624,-0.072 0.36,-0.096 0.672,-0.216 l 0.336,1.704 q -0.528,0.216 -1.248,0.36 -0.72,0.144 -1.272,0.144 -1.224,0 -1.944,-0.696 -0.696,-0.696 -0.696,-1.944 z"
         style="font-variant-ligatures:none;fill:#f2b98d;stroke-width:0;stroke-miterlimit:2"
         id="path336512" /><path
         stroke-miterlimit="2"
         d="m 637.18,413.2 -1.392,-0.48 1.392,-2.424 h 2.112 z m -1.416,14.616 v -12.528 h 2.112 v 12.528 z"
         style="font-variant-ligatures:none;fill:#f2b98d;stroke-width:0;stroke-miterlimit:2"
         id="path336514" /><path
         stroke-miterlimit="2"
         d="m 660.18,427.81 h -2.112 v -7.008 q 0,-1.968 -0.648,-2.904 -0.624,-0.936 -1.872,-0.936 -1.296,0 -2.328,0.936 -1.008,0.912 -1.44,2.376 v 7.536 h -2.112 v -7.008 q 0,-2.016 -0.624,-2.928 -0.624,-0.912 -1.872,-0.912 -1.272,0 -2.304,0.912 -1.032,0.888 -1.464,2.376 v 7.56 h -2.112 v -12.528 h 1.92 v 2.688 q 0.768,-1.392 1.992,-2.136 1.224,-0.768 2.76,-0.768 1.584,0 2.496,0.864 0.936,0.84 1.152,2.184 1.68,-3.048 4.776,-3.048 1.08,0 1.8,0.408 0.744,0.384 1.176,1.104 0.432,0.696 0.624,1.656 0.192,0.96 0.192,2.088 z"
         style="font-variant-ligatures:none;fill:#f2b98d;stroke-width:0;stroke-miterlimit:2"
         id="path336516" /><path
         stroke-miterlimit="2"
         d="m 663.47,427.81 v -12.528 h 2.112 v 12.528 z m 0,-14.88 v -2.64 h 2.112 v 2.64 z"
         style="font-variant-ligatures:none;fill:#f2b98d;stroke-width:0;stroke-miterlimit:2"
         id="path336518" /><path
         stroke-miterlimit="2"
         d="m 675.48,427.19 q -0.192,0.096 -0.504,0.24 -0.31201,0.12 -0.72001,0.264 -0.384,0.12 -0.864,0.192 -0.456,0.096 -0.96,0.096 -1.152,0 -1.992,-0.624 -0.84,-0.648 -0.84,-1.992 v -8.424 h -1.704 v -1.656 h 1.704 v -4.176 h 2.112 v 4.176 h 2.808 v 1.656 h -2.808 v 7.776 q 0.048,0.696 0.45599,1.008 0.408,0.312 0.96,0.312 0.624,0 1.128,-0.192 0.528,-0.216 0.72001,-0.336 z"
         style="font-variant-ligatures:none;fill:#f2b98d;stroke-width:0;stroke-miterlimit:2"
         id="path336520" /><path
         stroke-miterlimit="2"
         d="m 682.79,428.05 q -1.416,0 -2.592,-0.504 -1.176,-0.528 -2.016,-1.416 -0.84,-0.888 -1.32,-2.064 -0.456,-1.2 -0.456,-2.52 0,-1.32 0.456,-2.496 0.48,-1.176 1.32,-2.064 0.864,-0.888 2.04,-1.392 1.176,-0.528 2.592,-0.528 1.416,0 2.568,0.528 1.176,0.528 1.992,1.416 0.816,0.864 1.248,2.04 0.456,1.152 0.456,2.4 0,0.264 -0.024,0.48 0,0.216 -0.024,0.336 h -10.392 q 0.072,0.936 0.432,1.704 0.36,0.768 0.936,1.32 0.576,0.552 1.296,0.864 0.744,0.312 1.56,0.312 0.576,0 1.128,-0.144 0.552,-0.168 1.032,-0.432 0.48,-0.264 0.84,-0.648 0.384,-0.384 0.576,-0.864 l 1.824,0.504 q -0.312,0.696 -0.864,1.272 -0.528,0.576 -1.248,1.008 -0.696,0.408 -1.56,0.648 -0.864,0.24 -1.8,0.24 z m 4.296,-7.344 q -0.072,-0.888 -0.456,-1.632 -0.36,-0.768 -0.936,-1.296 -0.552,-0.528 -1.296,-0.816 -0.74399,-0.312 -1.584,-0.312 -0.84,0 -1.584,0.312 -0.744,0.288 -1.32,0.84 -0.552,0.528 -0.912,1.272 -0.33599,0.744 -0.40799,1.632 z"
         style="font-variant-ligatures:none;fill:#f2b98d;stroke-width:0;stroke-miterlimit:2"
         id="path336522" /><path
         stroke-miterlimit="2"
         d="m 695.84,428.05 q -1.512,0 -2.976,-0.456 -1.464,-0.48 -2.52,-1.368 l 0.912,-1.416 q 1.104,0.84 2.208,1.272 1.104,0.408 2.328,0.408 1.368,0 2.16,-0.528 0.816,-0.552 0.816,-1.536 0,-0.456 -0.216,-0.768 -0.216,-0.336 -0.648,-0.576 -0.432,-0.24 -1.104,-0.432 -0.672,-0.192 -1.56,-0.408 -1.128,-0.288 -1.944,-0.552 -0.816,-0.264 -1.344,-0.624 -0.528,-0.36 -0.768,-0.864 -0.24,-0.504 -0.24,-1.248 0,-0.936 0.36,-1.656 0.384,-0.744 1.032,-1.224 0.648,-0.504 1.512,-0.744 0.888,-0.264 1.896,-0.264 1.416,0 2.64,0.456 1.224,0.456 2.064,1.2 l -0.96,1.272 q -0.792,-0.696 -1.776,-1.032 -0.984,-0.36 -2.016,-0.36 -1.152,0 -1.968,0.504 -0.792,0.48 -0.792,1.56 0,0.432 0.144,0.72 0.168,0.288 0.528,0.504 0.36,0.216 0.912,0.384 0.576,0.168 1.368,0.36 1.248,0.288 2.16,0.6 0.936,0.288 1.536,0.696 0.624,0.408 0.912,0.96 0.312,0.552 0.312,1.344 0,1.752 -1.344,2.784 -1.344,1.032 -3.624,1.032 z"
         style="font-variant-ligatures:none;fill:#f2b98d;stroke-width:0;stroke-miterlimit:2"
         id="path336524" /><path
         stroke-miterlimit="2"
         d="m 447.31,339.99 q 2.106,0.108 3.942,1.512 3.834,2.97 0.864,8.046 -1.674,2.862 -3.78,4.05 -1.512,0.594 -2.592,0.162 -1.08,-0.432 -1.026,-1.458 0.054,-1.026 1.998,-3.186 2.97,-4.374 1.026,-4.806 -0.864,-0.162 -3.456,0.432 -2.538,0.594 -2.538,0.864 l -0.216,0.27 q -0.216,-0.054 -3.078,1.782 -2.808,1.836 -2.916,2.106 -0.108,0.594 -1.242,1.08 -0.972,0.594 -1.782,1.62 -0.756,1.026 -1.998,3.24 -0.918,1.242 -1.296,2.646 -0.648,2.43 1.188,3.834 1.89,1.404 3.618,2.268 2.754,1.566 4.968,3.348 2.214,1.728 2.7,2.754 1.566,2.214 0.432,6.21 -0.486,1.026 -1.242,1.89 -0.756,0.918 -1.35,0.864 -0.486,0.108 -1.026,0.378 -0.486,0.324 -0.864,0.54 -0.324,0.216 -3.024,0.594 -2.646,0.432 -4.428,0.378 l -2.16,-0.648 q 0.108,-0.27 -0.108,-0.486 -0.216,-0.216 -0.756,-0.27 -1.134,-0.702 -2.43,-2.376 -1.296,-1.728 -1.566,-2.322 -0.216,-0.648 -0.27,-0.864 0,-0.216 0.108,-0.324 0.162,-0.162 0.27,-0.216 0.162,-0.054 0.432,-0.162 0.324,-0.162 0.486,-0.216 1.782,-1.188 2.376,0.054 1.08,1.998 3.726,2.808 2.7,0.81 5.724,-0.324 2.484,-1.08 0.594,-4.104 -0.216,-0.54 -1.188,-1.296 -0.918,-0.756 -1.728,-1.512 -1.188,-0.54 -2.754,-1.296 -1.512,-0.756 -3.186,-2.16 -1.674,-1.458 -2.322,-2.7 -1.242,-1.296 -1.188,-3.672 0.054,-2.43 1.188,-4.536 0.648,-1.458 3.132,-4.482 2.484,-3.024 3.672,-3.78 l 1.728,-1.62 q 0.054,-0.054 0.594,-0.27 1.35,-0.54 2.592,-1.674 6.156,-2.97 10.152,-2.97 z"
         style="font-variant-ligatures:none;fill:#f2b98d;stroke-width:0;stroke-miterlimit:2"
         id="path336527" /><path
         stroke-miterlimit="2"
         d="m 464.2,361.15 q -1.998,0 -6.588,7.722 -0.81,1.296 -1.458,3.402 0.864,0.108 3.348,-1.944 0.486,-0.432 1.296,-1.134 0.864,-0.702 1.242,-1.026 0.378,-0.324 0.972,-0.864 1.026,-1.026 1.836,-2.214 l 1.188,-1.944 q -0.918,-1.998 -1.836,-1.998 z m -12.69,14.094 q 0,-0.486 -0.702,-1.35 -0.81,-0.81 3.348,-8.424 0.324,-0.324 0.81,-1.134 0.54,-0.81 0.702,-0.918 0,-0.216 0.162,-0.378 0.162,-0.216 0.378,-0.216 l 0.432,-0.864 q 0.216,-0.486 2.106,-2.322 1.89,-1.836 3.024,-2.538 1.134,-0.702 2.322,-0.648 1.188,0.054 2.052,0.756 0.108,0.162 0.702,0.594 1.026,0.81 4.59,3.996 l -0.918,2.7 q -1.242,3.564 0.648,6.588 0.54,1.134 1.836,1.35 1.296,0.216 1.296,1.188 0,2.214 -1.458,2.538 -4.212,0.594 -6.318,-3.456 -0.756,-1.026 -0.972,-2.376 -0.378,0.54 -1.242,1.404 -7.344,7.452 -11.124,5.022 -0.162,-0.324 -0.918,-0.864 -0.756,-0.54 -0.756,-0.648 z"
         style="font-variant-ligatures:none;fill:#efb48b;stroke-width:0;stroke-miterlimit:2"
         id="path336529" /><path
         stroke-miterlimit="2"
         d="m 483.89,359.8 0.54,-2.052 q 0.864,-1.674 3.024,-7.506 2.16,-5.886 2.16,-6.426 0,-0.54 0.324,-0.918 0.324,-0.378 0.756,-0.378 0.324,-0.324 1.566,-0.324 l 0.864,0.864 q 1.242,1.134 1.242,2.052 0,0.918 -0.378,1.89 -0.324,0.918 -1.998,4.428 -0.216,0.594 -0.594,1.404 -0.378,0.756 -0.594,1.242 -0.216,0.432 -0.216,0.54 0,0.108 -0.108,0.378 -0.054,0.216 -0.216,0.648 -0.162,0.378 -0.432,0.972 -2.16,4.752 -2.16,5.292 0,0.486 -0.27,0.756 -0.27,0 -0.27,0.432 v 0.162 q 0,0.54 -0.864,2.862 -2.322,7.83 -2.322,9.828 0,1.944 -1.242,2.538 -1.566,0.432 -2.538,-1.62 -0.972,-2.052 -0.324,-5.022 0.594,-1.566 0.594,-2.268 0.162,-1.026 1.08,-3.672 0.972,-2.7 1.242,-3.24 0.54,0 0.54,-1.188 0,-1.188 0.594,-1.674 z"
         style="font-variant-ligatures:none;fill:#ecaf89;stroke-width:0;stroke-miterlimit:2"
         id="path336531" /><path
         stroke-miterlimit="2"
         d="m 506.84,352.08 0.054,-0.54 q 0.108,-0.486 2.322,-2.862 2.214,-2.376 2.97,-2.646 0.378,-0.216 0.81,-0.324 0.702,0 1.35,0.756 0.702,0.756 0.702,1.998 0,0.756 -2.376,2.7 -2.322,1.89 -2.862,2.7 -0.54,0.81 -1.35,0.81 -1.62,0 -1.62,-2.592 z m -1.134,15.282 q 0.108,-0.216 0.324,-0.81 0.216,-0.648 0.378,-0.972 0.216,-0.324 0.216,-1.62 0.054,-1.35 -0.378,-1.62 -0.594,-0.27 -0.972,-0.162 -0.378,0.108 -1.242,0.702 -4.104,3.456 -4.914,7.398 -0.162,1.35 0.27,2.052 0.486,0.648 1.566,0.324 1.08,-0.324 1.944,-1.134 0.864,-0.864 1.134,-1.134 0.27,-0.27 0.432,-0.486 0.216,-0.216 0.378,-0.594 0.216,-0.432 0.324,-0.594 0.108,-0.216 0.27,-0.702 0.216,-0.486 0.27,-0.648 z m -6.102,-7.074 q 2.7,-2.322 4.86,-2.808 3.24,-0.756 4.536,0.594 2.106,0.918 2.43,3.834 0.432,4.482 -2.97,9.396 -1.998,2.916 -5.508,5.022 -1.404,0.972 -4.968,1.188 -0.918,0 -2.106,-1.026 -2.43,-2.538 -2.106,-4.482 l 0.108,-1.242 q -0.27,-0.27 -0.162,-0.432 0.162,-0.162 0.216,-0.216 0.324,0 0.216,-0.486 -0.108,-0.54 0.378,-1.998 0.486,-1.458 1.242,-2.7 1.836,-3.024 3.834,-4.644 z"
         style="font-variant-ligatures:none;fill:#e9aa87;stroke-width:0;stroke-miterlimit:2"
         id="path336533" /><path
         stroke-miterlimit="2"
         d="m 533.19,372.76 0.27,-3.672 v -0.864 q -0.162,-1.08 -0.702,-1.08 -0.972,0 -3.618,1.89 -4.752,3.402 -7.128,6.48 -0.486,0.54 -0.81,0.648 -0.27,0.054 -0.864,0 -0.54,-0.054 -1.512,-1.08 -0.972,-1.026 -1.296,-1.836 0,-2.16 2.16,-6.372 0.27,-0.864 1.458,-3.726 1.242,-2.916 1.404,-4.482 l -0.054,-0.054 q 0,-0.54 0.54,-0.54 0.108,-0.162 1.08,-0.162 0.972,0 1.998,0.756 1.026,0.756 1.026,2.106 0,1.35 -1.404,4.158 -1.404,2.808 -1.404,2.916 0.864,-0.594 3.294,-2.484 5.562,-4.482 6.858,-4.482 0.702,0 1.944,0.81 1.296,0.756 1.512,1.404 l -0.216,2.484 0.108,2.97 q 0,1.728 -0.216,2.43 l 0.162,0.324 q -0.216,0.216 0.432,1.62 0.648,1.404 0.648,1.782 0,0.324 -0.81,1.08 -0.756,0.702 -1.458,0.81 -3.402,-0.108 -3.402,-3.834 z"
         style="font-variant-ligatures:none;fill:#e6a485;stroke-width:0;stroke-miterlimit:2"
         id="path336535" /><path
         stroke-miterlimit="2"
         d="m 569.18,376.54 q 0.37801,-0.054 0.648,-0.054 0.324,0 0.756,-0.162 0.486,-0.162 0.81,-0.27 0.378,-0.108 0.972,-0.324 0.594,-0.216 0.918,-0.378 0.324,-0.162 1.026,-0.486 3.78,-1.566 5.076,-2.754 1.404,-1.026 2.268,-1.026 0.702,-0.216 1.08,0.432 0.432,0.648 0.432,1.62 0,0.918 -1.026,1.998 -1.026,1.026 -2.43,1.836 -0.594,0.594 -2.646,1.404 -1.998,1.458 -4.698,2.484 -2.7,1.026 -4.59,0.594 -4.266,-1.566 -5.346,-4.374 -1.08,-2.808 -0.972,-6.804 0,-4.806 1.674,-9.126 0.054,-0.108 0.756,-1.782 0.702,-1.728 0.972,-2.268 0.918,-2.106 3.24,-5.454 3.024,-4.59 4.644,-6.264 1.674,-1.728 5.346,-4.266 1.242,-0.918 3.024,-1.134 1.836,-0.216 3.672,0.702 1.836,0.864 2.646,2.862 1.188,2.16 -0.108,6.426 -1.296,4.212 -3.564,6.318 -1.62,1.026 -3.78,-0.918 -0.648,-1.188 -0.54,-1.242 0.108,-0.054 0.216,-0.054 0.486,-0.594 1.404,-2.268 0.972,-1.728 1.188,-2.484 0.216,-0.756 0.324,-1.35 0.162,-0.594 0.216,-0.918 0.054,-0.324 0.108,-0.648 0.054,-0.378 0.054,-0.54 0.054,-0.162 0,-0.378 0,-0.27 -0.378,-0.648 -0.378,-0.378 -1.89,0.432 -2.646,1.134 -6.318,6.102 -4.698,6.156 -5.832,9.612 l -0.594,1.404 q 0.162,0.864 -0.648,2.484 -0.918,3.78 -0.648,6.966 0.27,3.942 1.944,4.59 0.27001,0.108 0.594,0.108 z"
         style="font-variant-ligatures:none;fill:#e39f83;stroke-width:0;stroke-miterlimit:2"
         id="path336537" /><path
         stroke-miterlimit="2"
         d="m 603.77,361.15 q -1.998,0 -6.588,7.722 -0.80999,1.296 -1.458,3.402 0.864,0.108 3.348,-1.944 0.486,-0.432 1.296,-1.134 0.864,-0.702 1.242,-1.026 0.37799,-0.324 0.972,-0.864 1.026,-1.026 1.836,-2.214 l 1.188,-1.944 q -0.918,-1.998 -1.836,-1.998 z m -12.69,14.094 q 0,-0.486 -0.702,-1.35 -0.80999,-0.81 3.348,-8.424 0.324,-0.324 0.81,-1.134 0.54,-0.81 0.702,-0.918 0,-0.216 0.162,-0.378 0.162,-0.216 0.378,-0.216 l 0.432,-0.864 q 0.216,-0.486 2.106,-2.322 1.89,-1.836 3.024,-2.538 1.134,-0.702 2.322,-0.648 1.188,0.054 2.052,0.756 0.108,0.162 0.702,0.594 1.026,0.81 4.59,3.996 l -0.918,2.7 q -1.242,3.564 0.648,6.588 0.54,1.134 1.836,1.35 1.296,0.216 1.296,1.188 0,2.214 -1.458,2.538 -4.212,0.594 -6.318,-3.456 -0.756,-1.026 -0.972,-2.376 -0.378,0.54 -1.242,1.404 -7.344,7.452 -11.124,5.022 -0.162,-0.324 -0.918,-0.864 -0.756,-0.54 -0.75601,-0.648 z"
         style="font-variant-ligatures:none;fill:#e19a81;stroke-width:0;stroke-miterlimit:2"
         id="path336539" /><path
         stroke-miterlimit="2"
         d="m 622.87,359.8 -0.108,-1.188 q 0,-0.81 0.756,-1.35 0.81,-0.594 1.998,-0.594 1.188,0 1.89,1.026 0.702,0.972 0.702,1.998 0,0.972 -0.432,1.836 l -1.944,4.752 q 0,0.162 0.108,0.162 0.162,0.162 1.404,-1.026 1.242,-1.188 3.672,-2.916 2.484,-1.782 3.564,-2.106 0.756,0 1.836,0.972 1.08,0.972 1.08,2.214 -0.81,3.672 -1.134,4.158 1.026,-1.242 3.564,-2.97 2.538,-1.728 3.726,-1.782 1.728,0 2.322,1.62 0.648,1.62 0.81,4.212 0.162,2.538 0.54,3.456 0.054,0.324 0.594,0.486 0.594,0.162 1.08,0.54 0.54,0.324 0.54,1.188 0,2.16 -3.564,2.16 -1.566,0 -2.754,-1.62 -1.134,-1.674 -1.134,-3.942 0,-0.918 0.108,-1.836 0.162,-0.918 0.162,-1.08 0,-0.162 -0.162,-0.162 -1.404,0 -6.102,5.13 -0.162,0.108 -0.27,0.27 -0.432,0.324 -1.134,1.026 -1.62,1.512 -2.268,1.512 -0.648,0 -1.026,-0.324 l -0.594,-0.486 q -0.702,-0.486 -0.702,-1.404 v -0.27 l 1.242,-3.618 q 1.35,-2.97 1.35,-3.294 0,-0.324 -0.054,-0.324 -0.81,0 -3.024,2.43 -2.376,2.592 -3.186,3.456 -0.81,0.81 -1.728,1.836 -0.864,1.026 -1.512,1.782 -0.594,0.702 -0.648,0.702 -1.188,0 -2.16,-0.918 -0.918,-0.918 -0.918,-1.89 0,-0.972 0.162,-1.782 0.162,-0.864 0.54,-2.43 0.378,-1.566 0.486,-2.106 0.162,-0.594 0.27,-1.134 0.108,-0.594 0.108,-0.702 0.054,-0.162 0.27,-0.756 0.216,-0.594 0.486,-1.242 0.324,-0.702 0.972,-2.214 0.216,-0.702 0.216,-1.458 z"
         style="font-variant-ligatures:none;fill:#de957f;stroke-width:0;stroke-miterlimit:2"
         id="path336541" /><path
         stroke-miterlimit="2"
         d="m 660,371.58 q 0.756,0 2.808,-0.81 2.106,-0.864 2.97,-1.62 0.918,-0.756 1.404,-1.242 0.486,-0.54 0.864,-1.188 0.81,-1.242 -0.108,-2.7 -1.566,-1.89 -5.778,2.16 -1.728,1.836 -2.214,3.618 -0.486,1.782 0.054,1.782 z m -6.912,6.642 0.378,-1.944 q 0.27,-1.458 2.106,-6.912 1.836,-5.454 3.132,-8.802 1.512,-3.51 1.512,-4.644 0,-0.27 0.594,-0.918 0.594,-0.486 1.404,-0.378 0.864,0.054 1.512,0.54 0.864,1.404 0.594,3.024 0,1.08 -1.188,2.808 -0.108,0.162 -0.054,0.108 3.186,-1.89 5.454,-1.566 2.322,0.324 3.564,1.944 1.242,1.566 1.242,3.726 0,0.918 -0.864,2.754 -0.864,1.782 -1.404,2.268 -0.324,0 -0.864,1.134 -0.648,0.864 -2.484,1.836 -1.782,0.918 -2.43,0.702 -0.27,0.162 -0.27,0.486 0,0.378 -1.836,0.864 -1.782,0.432 -2.754,0.432 -0.972,0 -1.458,-0.432 -0.378,0.378 -0.378,0.81 0,0.432 -0.54,1.62 -0.54,1.134 -0.864,1.134 -0.324,0.27 0,0.594 0,1.134 -0.324,1.674 0,1.404 -0.54,2.592 0,0.648 -0.216,1.242 -0.162,0.648 -0.378,0.648 -0.324,0.108 -0.378,1.458 0,1.404 -0.81,2.43 -0.756,1.026 -1.458,1.026 -1.026,0.108 -1.296,-0.432 -1.134,-1.62 -0.81,-3.24 0.594,-2.268 0.594,-3.132 l 0.27,-1.728 q 0.594,-0.972 0.594,-2.538 0,-0.648 0.648,-1.188 z"
         style="font-variant-ligatures:none;fill:#db907d;stroke-width:0;stroke-miterlimit:2"
         id="path336543" /><path
         stroke-miterlimit="2"
         d="m 690.58,360.4 q -0.702,0 -2.052,1.188 -1.296,1.134 -2.268,2.646 0.108,0.648 1.782,0.648 1.674,0 2.106,-0.216 0.486,-0.27 1.566,-1.35 1.134,-1.134 1.188,-1.566 0,-1.188 -1.728,-1.35 z m 0.378,-3.942 q 3.186,0 4.644,1.566 1.458,1.512 1.458,2.862 v 0.432 q 0,1.134 -1.512,3.726 -0.756,1.35 -2.322,2.43 -1.566,1.026 -3.132,1.08 -1.566,0.054 -3.024,-0.162 -1.404,-0.27 -1.728,-0.27 -0.324,0 -0.594,0.378 -0.378,0.594 -0.378,2.214 0.162,1.512 0.81,2.106 0.702,0.594 1.674,0.594 0.972,0 1.836,-0.378 0.864,-0.378 1.998,-1.35 1.188,-0.972 1.836,-0.972 0.648,0 1.296,0.648 0.648,0.648 0.702,1.242 -0.162,1.242 -2.538,3.294 -2.322,1.998 -5.292,1.998 -2.97,0 -4.86,-1.728 -1.89,-1.728 -1.89,-4.914 0,-1.242 0.108,-2.646 0.162,-1.404 0.972,-3.456 0.81,-2.052 2.592,-4.428 1.782,-2.376 3.834,-3.294 2.052,-0.972 3.51,-0.972 z"
         style="font-variant-ligatures:none;fill:#d88b7b;stroke-width:0;stroke-miterlimit:2"
         id="path336545" /><path
         stroke-miterlimit="2"
         d="m 718.46,362.67 q -0.216,1.026 -0.864,1.998 -0.594,0.972 -1.134,0.972 -0.486,0 -0.486,0.324 0,0.27 -0.594,0.324 -0.54,0 -1.188,-0.27 -0.594,-0.27 -0.702,-0.648 0,-0.27 0.378,-1.944 0.378,-1.728 0.054,-2.214 -0.27,-0.54 -1.296,-0.108 -1.998,1.134 -3.024,2.97 -0.972,1.782 -1.728,4.59 -0.702,2.754 -0.648,3.402 0.108,1.026 0.486,1.242 1.62,0.432 2.862,-0.216 1.242,-0.648 3.294,-2.214 0.108,-0.054 0.432,-0.594 0.378,-0.54 0.702,-0.702 0.432,-0.702 1.296,-0.702 h 1.134 q 0.972,0.324 1.566,1.296 0.216,0.486 0,0.648 l -0.27,0.27 q 0.216,0.432 -1.89,2.592 -2.106,2.106 -2.7,2.106 -0.594,0 -0.594,0.324 0,0.216 -1.674,1.026 -1.62,0.756 -2.646,0.972 -2.484,0.432 -4.59,-1.026 -2.052,-1.458 -2.052,-3.942 -0.27,-2.484 0.864,-6.21 1.188,-3.726 3.024,-5.994 2.754,-3.294 4.266,-3.888 1.512,-0.648 3.24,-0.648 2.97,0.702 2.97,1.836 l 0.27,0.27 q 0.486,0 1.08,1.674 0.594,1.674 0.162,2.484 z"
         style="font-variant-ligatures:none;fill:#d58579;stroke-width:0;stroke-miterlimit:2"
         id="path336547" /><path
         stroke-miterlimit="2"
         d="m 741.6,371.58 0.324,-4.158 q 0,-1.188 -0.594,-1.188 -1.08,0 -3.78,1.998 -2.646,1.944 -5.4,5.076 -1.728,2.538 -3.294,2.538 -0.972,-0.162 -1.782,-1.08 -0.81,-0.918 -0.81,-2.16 0,-1.242 1.62,-6.588 0.162,-1.296 0.81,-2.862 0.702,-1.566 1.08,-3.024 0.432,-1.458 1.998,-5.778 1.566,-4.374 2.214,-6.156 0.648,-1.782 0.918,-2.592 0.486,-1.134 0.81,-2.16 0,-0.432 0.594,-0.81 0.648,-0.432 1.296,-0.432 0.648,0 1.458,1.134 1.404,1.944 0.486,3.888 -0.918,1.944 -3.024,8.1 -2.106,6.156 -2.862,7.506 l -0.594,1.188 -0.864,3.294 q 0,0.162 0.054,0.162 2.484,-2.484 4.374,-3.888 1.89,-1.404 2.052,-1.62 0.216,-0.27 1.458,-1.188 1.296,-0.972 3.294,-0.972 0.972,0 2.16,1.35 1.188,1.35 1.188,3.132 v 0.81 q 0,1.242 -1.08,6.048 0.27,0 0.81,-0.108 1.08,0 1.62,0.486 0.594,0.432 0.648,0.432 0.108,0.108 0.108,0.324 0,1.242 -1.35,2.16 -1.35,0.918 -2.592,1.026 -1.512,0 -2.43,-1.134 Q 741.6,373.2 741.6,371.58 Z"
         style="font-variant-ligatures:none;fill:#d28077;stroke-width:0;stroke-miterlimit:2"
         id="path336549" /><path
         stroke-miterlimit="2"
         d="m 767.25,360.4 q -0.702,0 -2.052,1.188 -1.296,1.134 -2.268,2.646 0.10801,0.648 1.782,0.648 1.67399,0 2.106,-0.216 0.486,-0.27 1.566,-1.35 1.134,-1.134 1.188,-1.566 0,-1.188 -1.728,-1.35 z m 0.37799,-3.942 q 3.186,0 4.644,1.566 1.458,1.512 1.458,2.862 v 0.432 q 0,1.134 -1.512,3.726 -0.756,1.35 -2.322,2.43 -1.566,1.026 -3.132,1.08 -1.566,0.054 -3.024,-0.162 -1.404,-0.27 -1.728,-0.27 -0.324,0 -0.594,0.378 -0.37799,0.594 -0.37799,2.214 0.16199,1.512 0.80999,2.106 0.702,0.594 1.674,0.594 0.97201,0 1.836,-0.378 0.864,-0.378 1.998,-1.35 1.188,-0.972 1.836,-0.972 0.648,0 1.296,0.648 0.648,0.648 0.702,1.242 -0.162,1.242 -2.538,3.294 -2.322,1.998 -5.292,1.998 -2.97,0 -4.86,-1.728 -1.89,-1.728 -1.89,-4.914 0,-1.242 0.108,-2.646 0.162,-1.404 0.972,-3.456 0.81,-2.052 2.592,-4.428 1.782,-2.376 3.834,-3.294 2.052,-0.972 3.51,-0.972 z"
         style="font-variant-ligatures:none;fill:#cf7b75;stroke-width:0;stroke-miterlimit:2"
         id="path336551" /><path
         style="fill:#ec842f;stroke-width:0.48750001"
         d="m 298.13,336.36 c -0.23853,0.002 -0.65106,0.013 -0.9167,0.0241 -0.26563,0.0108 -0.64969,0.0342 -0.85381,0.0515 -0.20377,0.0173 -0.58402,0.0553 -0.84483,0.0845 -0.26081,0.0293 -0.67568,0.084 -0.92138,0.12144 -0.24618,0.0377 -0.7215,0.12334 -1.0574,0.19027 -0.3354,0.0672 -0.87165,0.1892 -1.1924,0.27134 -0.32029,0.0822 -0.75953,0.203 -0.97597,0.26891 -0.21597,0.0656 -0.56989,0.17969 -0.78586,0.25369 -0.21596,0.074 -0.53966,0.1892 -0.71857,0.25584 -0.17889,0.067 -0.47163,0.18215 -0.65052,0.25614 -0.17889,0.074 -0.48382,0.20492 -0.67763,0.29084 -0.1938,0.0859 -0.59387,0.27701 -0.88905,0.42474 -0.29517,0.14745 -0.71584,0.36754 -0.93512,0.48871 -0.21901,0.12144 -0.56921,0.32418 -0.77791,0.45076 -0.2087,0.12658 -0.59279,0.37215 -0.8538,0.54561 -0.26075,0.17347 -0.64536,0.43964 -0.85435,0.59197 -0.2087,0.15206 -0.55214,0.41363 -0.76274,0.5814 -0.21088,0.16777 -0.53995,0.43937 -0.7313,0.60337 -0.19136,0.16399 -0.51879,0.45808 -0.72779,0.65325 -0.2087,0.19543 -0.58709,0.56784 -0.84054,0.82754 -0.25344,0.25939 -0.59982,0.63019 -0.76952,0.82372 -0.16995,0.19353 -0.43883,0.51037 -0.59739,0.7042 -0.15883,0.1938 -0.39925,0.49871 -0.53425,0.67762 -0.13498,0.1789 -0.32444,0.43504 -0.42094,0.56921 -0.0965,0.13417 -0.29761,0.4269 -0.44696,0.65052 -0.14935,0.22361 -0.39329,0.60772 -0.54239,0.85381 -0.1488,0.24584 -0.39601,0.67679 -0.54941,0.95759 -0.15342,0.28081 -0.38571,0.73213 -0.51607,1.0029 -0.13038,0.27077 -0.31143,0.66378 -0.40224,0.87277 -0.0905,0.20925 -0.24502,0.58573 -0.34315,0.83674 -0.0979,0.251 -0.25777,0.68982 -0.35507,0.97495 -0.0973,0.28515 -0.24232,0.74456 -0.32255,1.0211 -0.08,0.2762 -0.19516,0.70503 -0.25587,0.95272 -0.061,0.24774 -0.16507,0.72316 -0.23175,1.0563 -0.0667,0.33312 -0.15802,0.86166 -0.20275,1.1747 -0.0447,0.31306 -0.0997,0.75216 -0.12251,0.97578 -0.0228,0.22362 -0.0561,0.55892 -0.074,0.74539 -0.0249,0.26075 -0.0344,8.5971 -0.0407,36.194 -0.005,19.72 0.002,35.894 0.0138,35.941 l 0.022,0.0859 0.39139,0.008 c 0.23067,0.004 0.54157,-0.01 0.75733,-0.0341 0.20139,-0.0231 0.51227,-0.0667 0.69118,-0.0965 0.17889,-0.0301 0.49603,-0.0968 0.70473,-0.14799 0.20871,-0.0515 0.52582,-0.13797 0.70473,-0.19218 0.17889,-0.0545 0.51149,-0.17157 0.73915,-0.26047 0.22768,-0.0889 0.7096,-0.31063 1.0706,-0.49253 0.36131,-0.18214 0.83971,-0.44397 1.0633,-0.58222 0.22362,-0.13851 0.54917,-0.35155 0.72345,-0.47352 0.17429,-0.12198 0.51582,-0.37703 0.75894,-0.56648 0.24313,-0.18946 0.55809,-0.44343 0.69956,-0.56433 0.14149,-0.12116 0.46187,-0.41064 0.71151,-0.64345 0.24964,-0.2331 0.66568,-0.64998 0.92454,-0.92645 0.25913,-0.27647 0.57628,-0.6237 0.70527,-0.77142 0.12902,-0.14799 0.3605,-0.42229 0.5147,-0.60986 0.15396,-0.18783 0.40821,-0.50602 0.56487,-0.70717 0.15667,-0.20139 0.43232,-0.56866 0.6123,-0.81666 0.17997,-0.24801 0.50305,-0.7115 0.71799,-1.03 0.21494,-0.31848 0.53235,-0.80691 0.70556,-1.085 0.17293,-0.27837 0.47244,-0.77844 0.66514,-1.1113 0.19299,-0.33312 0.4993,-0.88008 0.6806,-1.2154 0.18133,-0.33556 0.53503,-1.0246 0.78575,-1.5314 0.251,-0.50685 0.59631,-1.2327 0.76786,-1.6128 0.17131,-0.38028 0.41796,-0.94136 0.54781,-1.2468 0.12956,-0.30574 0.34342,-0.82426 0.47488,-1.1525 0.13173,-0.32825 0.30872,-0.77957 0.39329,-1.0029 0.0848,-0.22335 0.28189,-0.75977 0.43802,-1.1921 0.1564,-0.43233 0.40414,-1.146 0.55102,-1.5856 0.14664,-0.43991 0.34586,-1.0557 0.44236,-1.3688 0.0968,-0.31306 0.25668,-0.84376 0.35588,-1.1791 0.0989,-0.33556 0.28353,-0.98796 0.4101,-1.4501 0.12658,-0.46214 0.35698,-1.3479 0.51203,-1.9684 0.15477,-0.62044 0.37323,-1.5415 0.48545,-2.0464 0.11221,-0.50495 0.29544,-1.3759 0.40711,-1.9347 0.11195,-0.55916 0.26536,-1.3569 0.34125,-1.7729 0.0756,-0.41606 0.2098,-1.1967 0.29789,-1.7347 0.0878,-0.53805 0.21494,-1.3563 0.28189,-1.8185 0.0672,-0.46214 0.1713,-1.2184 0.23175,-1.6805 0.0602,-0.46214 0.15802,-1.2672 0.21738,-1.7889 0.0594,-0.52177 0.14447,-1.3208 0.18946,-1.7754 0.0447,-0.45482 0.10571,-1.1134 0.13498,-1.4637 0.0296,-0.35047 0.0786,-0.98475 0.10896,-1.4095 0.0304,-0.42501 0.0794,-1.169 0.10897,-1.6534 0.0295,-0.48463 0.0754,-1.4238 0.10164,-2.0871 0.042,-1.0538 0.0507,-1.172 0.0699,-0.93512 0.0122,0.14908 0.0236,1.442 0.0255,2.8731 0.002,1.5444 -0.01,2.9878 -0.029,3.5508 -0.0179,0.52177 -0.045,1.2292 -0.0604,1.5721 -0.0152,0.34288 -0.052,1.0563 -0.0816,1.5856 -0.0295,0.52909 -0.0778,1.2975 -0.10734,1.7076 -0.0295,0.40983 -0.0783,1.0381 -0.10842,1.3959 -0.0301,0.35778 -0.0916,1.0286 -0.13661,1.4908 -0.045,0.46214 -0.13092,1.2609 -0.19081,1.7754 -0.0596,0.51417 -0.15721,1.2951 -0.21657,1.7347 -0.0594,0.43964 -0.15667,1.1289 -0.2163,1.5314 -0.0599,0.40251 -0.16371,1.0609 -0.23093,1.4634 -0.0672,0.40224 -0.177,1.0303 -0.24395,1.3959 -0.0672,0.36537 -0.19515,1.0303 -0.2846,1.4775 -0.0894,0.44723 -0.24205,1.1728 -0.33936,1.6128 -0.0973,0.43964 -0.28595,1.2447 -0.41958,1.7889 -0.13336,0.544 -0.29843,1.1967 -0.36646,1.4501 -0.068,0.25343 -0.19678,0.71691 -0.28596,1.03 -0.0892,0.31306 -0.25207,0.86789 -0.36212,1.2333 -0.10978,0.36511 -0.27458,0.89583 -0.36592,1.1791 -0.0911,0.28325 -0.2556,0.77708 -0.3651,1.0978 -0.10978,0.32038 -0.27214,0.7839 -0.36131,1.03 -0.0889,0.24612 -0.22958,0.62586 -0.31225,0.84406 -0.0829,0.21847 -0.25994,0.66978 -0.3933,1.0029 -0.13363,0.33339 -0.33637,0.82563 -0.45102,1.094 -0.11439,0.26834 -0.33773,0.77439 -0.49628,1.1248 -0.15856,0.3502 -0.49193,1.0454 -0.74105,1.545 -0.24882,0.4993 -0.58305,1.1457 -0.74265,1.4366 -0.15938,0.29057 -0.41824,0.74754 -0.57462,1.0154 -0.15667,0.26752 -0.40712,0.68221 -0.55673,0.92157 -0.14935,0.23906 -0.42717,0.66787 -0.61717,0.95248 -0.19001,0.28487 -0.45862,0.67518 -0.5966,0.86736 -0.13797,0.19244 -0.41281,0.56296 -0.61069,0.82397 -0.19787,0.26075 -0.50174,0.64511 -0.67519,0.85381 -0.1732,0.2087 -0.48193,0.56813 -0.68601,0.79906 -0.2041,0.23066 -0.60879,0.65783 -0.89963,0.9495 -0.29057,0.29165 -0.73862,0.71531 -0.99528,0.94136 -0.25669,0.22633 -0.60714,0.52368 -0.77898,0.66135 -0.17158,0.13742 -0.30737,0.25478 -0.30141,0.26048 0.006,0.006 0.20383,-0.0396 0.44019,-0.10083 0.23608,-0.0613 0.63667,-0.17266 0.89012,-0.2472 0.25343,-0.0748 0.63156,-0.19109 0.84026,-0.25858 0.20871,-0.0675 0.60523,-0.20248 0.88091,-0.29951 0.27593,-0.0973 0.69659,-0.25344 0.93512,-0.34695 0.23853,-0.0935 0.58627,-0.23364 0.77249,-0.31171 0.18649,-0.0778 0.6066,-0.26345 0.93405,-0.41253 0.32743,-0.14908 0.79092,-0.3689 1.03,-0.48872 0.23907,-0.1198 0.67275,-0.34559 0.9633,-0.50198 0.29084,-0.15639 0.76031,-0.41877 1.0436,-0.58329 0.28324,-0.16453 0.692,-0.40902 0.90801,-0.54347 0.2163,-0.13444 0.58223,-0.36809 0.81315,-0.51904 0.23121,-0.15125 0.64589,-0.43097 0.92157,-0.62234 0.27593,-0.19109 0.78225,-0.5578 1.1254,-0.81476 0.34342,-0.25669 0.86872,-0.663 1.1671,-0.90261 0.2987,-0.23961 0.78034,-0.63887 1.0701,-0.88715 0.28975,-0.24828 0.76489,-0.66651 1.0555,-0.92888 0.29084,-0.26238 1.0235,-0.97198 1.6284,-1.5764 0.60528,-0.60445 1.3065,-1.3252 1.5585,-1.6013 0.25235,-0.27647 0.64024,-0.70931 0.86195,-0.96223 0.22199,-0.25316 0.60713,-0.7039 0.85595,-1.002 0.24882,-0.29816 0.6516,-0.79229 0.895,-1.0978 0.24341,-0.30574 0.69391,-0.8912 1.0013,-1.301 0.3071,-0.4101 0.7058,-0.95272 0.88579,-1.2062 0.18025,-0.25343 0.4372,-0.61937 0.5711,-0.81315 0.13391,-0.1938 0.39005,-0.57193 0.56921,-0.84025 0.17917,-0.26834 0.4513,-0.68304 0.60469,-0.92157 0.15342,-0.23853 0.43395,-0.68387 0.62342,-0.98934 0.18946,-0.30574 0.50334,-0.82397 0.69742,-1.152 0.19407,-0.32797 0.45048,-0.76708 0.56974,-0.97578 0.11926,-0.20871 0.38136,-0.67845 0.58222,-1.0435 0.20084,-0.36538 0.50334,-0.92645 0.67192,-1.2468 0.16887,-0.32066 0.53372,-1.0403 0.81101,-1.5992 0.27728,-0.55916 0.64915,-1.3273 0.82641,-1.7076 0.17699,-0.38029 0.44912,-0.97793 0.60469,-1.3282 0.15559,-0.35047 0.39627,-0.90528 0.53508,-1.2333 0.13905,-0.32798 0.33962,-0.80745 0.4456,-1.0652 0.10626,-0.25804 0.31632,-0.78254 0.46703,-1.1655 0.15043,-0.38326 0.40548,-1.0503 0.56623,-1.4826 0.161,-0.43232 0.4082,-1.1154 0.54941,-1.5179 0.14122,-0.40251 0.41579,-1.2138 0.61015,-1.8025 0.19435,-0.589 0.46513,-1.4366 0.60148,-1.8838 0.13634,-0.44723 0.36782,-1.2341 0.51446,-1.7483 0.14664,-0.51446 0.34722,-1.2366 0.44588,-1.6049 0.0984,-0.36836 0.3071,-1.1856 0.46349,-1.816 0.15667,-0.63043 0.3998,-1.6648 0.54074,-2.2982 0.14094,-0.6337 0.33014,-1.5179 0.42067,-1.9651 0.0908,-0.44723 0.2312,-1.1669 0.31225,-1.5992 0.0808,-0.43233 0.22659,-1.2558 0.32336,-1.8296 0.097,-0.57408 0.22497,-1.3669 0.28406,-1.7618 0.0594,-0.39491 0.15097,-1.0232 0.20356,-1.3959 0.0523,-0.3727 0.14393,-1.0679 0.20356,-1.545 0.0594,-0.47705 0.14501,-1.2051 0.19055,-1.6176 0.0452,-0.41281 0.11844,-1.1265 0.16263,-1.5856 0.0442,-0.45943 0.11086,-1.2135 0.14772,-1.6756 0.0371,-0.46214 0.08,-1.0232 0.0957,-1.2468 0.0154,-0.22361 0.0404,-0.60172 0.0553,-0.84025 0.0152,-0.23853 0.0393,-0.64726 0.0542,-0.90802 0.0146,-0.26102 0.0447,-0.89529 0.0667,-1.4095 0.0222,-0.51446 0.0545,-1.484 0.0718,-2.1548 0.0174,-0.67085 0.0244,-1.6163 0.0158,-2.1006 -0.009,-0.48463 -0.0344,-1.0945 -0.0572,-1.3552 -0.0228,-0.26102 -0.0607,-0.63911 -0.0843,-0.84025 -0.0236,-0.20139 -0.0732,-0.57325 -0.11059,-0.8267 -0.0371,-0.25343 -0.12089,-0.72911 -0.18594,-1.0571 -0.065,-0.32797 -0.18025,-0.84186 -0.2556,-1.1422 -0.0754,-0.30032 -0.21007,-0.78819 -0.29924,-1.0842 -0.0892,-0.29599 -0.24042,-0.75787 -0.3361,-1.0262 -0.0957,-0.26834 -0.24693,-0.67085 -0.3361,-0.89446 -0.0889,-0.22362 -0.24531,-0.59578 -0.34695,-0.82671 -0.10192,-0.2312 -0.31631,-0.6825 -0.47651,-1.0029 -0.15992,-0.32065 -0.425,-0.81666 -0.5887,-1.1024 -0.16371,-0.28596 -0.38028,-0.65189 -0.48084,-0.81315 -0.10084,-0.16155 -0.31794,-0.49496 -0.48274,-0.74076 -0.1648,-0.24611 -0.4841,-0.69308 -0.70961,-0.99338 -0.22551,-0.30032 -0.55809,-0.72345 -0.73944,-0.94029 -0.18133,-0.21684 -0.44777,-0.52611 -0.59226,-0.68713 -0.1442,-0.16128 -0.49467,-0.52884 -0.77873,-0.8172 -0.28407,-0.28839 -0.69147,-0.6844 -0.90505,-0.87984 -0.21359,-0.19543 -0.59173,-0.52503 -0.84025,-0.73237 -0.24856,-0.20735 -0.68358,-0.55024 -0.96681,-0.76191 -0.28325,-0.21169 -0.64916,-0.47678 -0.81315,-0.589 -0.16399,-0.11221 -0.49954,-0.33176 -0.74539,-0.48818 -0.24584,-0.15613 -0.63019,-0.38869 -0.85381,-0.51636 -0.22361,-0.12794 -0.5654,-0.31632 -0.75947,-0.41823 -0.19408,-0.10219 -0.58437,-0.29734 -0.86736,-0.43396 -0.28275,-0.14551 -0.71663,-0.34203 -0.96525,-0.44586 -0.24375,-0.10379 -0.63863,-0.26208 -0.8775,-0.35183 -0.23888,-0.0897 -0.624,-0.22659 -0.85313,-0.30381 -0.234,-0.0775 -0.69225,-0.21767 -1.0189,-0.31171 -0.32663,-0.0941 -0.80925,-0.2204 -1.0725,-0.28056 -0.25838,-0.0601 -0.663,-0.1461 -0.89213,-0.1908 -0.22912,-0.045 -0.624,-0.1133 -0.8775,-0.15205 -0.24862,-0.0388 -0.663,-0.0941 -0.92137,-0.12281 -0.2535,-0.029 -0.61913,-0.065 -0.80438,-0.0805 -0.18525,-0.0155 -0.61425,-0.0399 -0.94575,-0.0548 -0.33637,-0.0147 -0.80925,-0.025 -1.0457,-0.0228 z m -10.855,13.236 c 0.49223,0.005 0.85869,0.0225 1.0785,0.0518 0.1835,0.0241 0.46404,0.0688 0.62342,0.0992 0.15964,0.0306 0.46105,0.0989 0.66977,0.15233 0.20871,0.0531 0.51987,0.14501 0.69118,0.20383 0.17158,0.0588 0.45672,0.16777 0.63424,0.24204 0.17726,0.0743 0.45347,0.20085 0.61366,0.28135 0.16019,0.0802 0.39926,0.20953 0.53128,0.28732 0.132,0.0778 0.38218,0.23635 0.55565,0.35209 0.17347,0.11601 0.47244,0.3361 0.66408,0.48896 0.19163,0.15287 0.51528,0.441 0.71881,0.63994 0.20356,0.19923 0.48383,0.49603 0.62259,0.65974 0.13878,0.16344 0.36267,0.44913 0.49764,0.63482 0.13525,0.1854 0.33963,0.49384 0.45455,0.68494 0.11492,0.19109 0.28785,0.50661 0.38435,0.70092 0.0965,0.19435 0.23256,0.49253 0.30222,0.66247 0.0699,0.17022 0.1564,0.39465 0.19245,0.499 0.0358,0.10436 0.11302,0.35779 0.17157,0.56326 0.0583,0.20518 0.1423,0.55892 0.18621,0.78605 0.0439,0.22686 0.10137,0.59548 0.1274,0.81909 0.0325,0.28054 0.0472,0.6126 0.0472,1.0706 0,0.45808 -0.0146,0.79009 -0.0472,1.0706 -0.026,0.22361 -0.084,0.59524 -0.12875,0.82563 -0.0447,0.23039 -0.13417,0.60308 -0.19868,0.82807 -0.0645,0.22524 -0.16263,0.53044 -0.21793,0.67869 -0.0553,0.14827 -0.17239,0.4326 -0.26048,0.63156 -0.0878,0.19895 -0.23446,0.49793 -0.32607,0.66407 -0.0913,0.16616 -0.24937,0.43396 -0.35101,0.5947 -0.10192,0.16101 -0.28731,0.43016 -0.41254,0.59846 -0.12522,0.16832 -0.33746,0.43314 -0.47163,0.58846 -0.13416,0.15531 -0.40738,0.441 -0.60713,0.63482 -0.19976,0.1938 -0.48518,0.45049 -0.63399,0.57004 -0.14908,0.1198 -0.37459,0.2911 -0.50091,0.38082 -0.12658,0.0897 -0.36429,0.2472 -0.52825,0.34993 -0.16399,0.103 -0.45672,0.26942 -0.65052,0.36998 -0.1938,0.10083 -0.49872,0.24584 -0.67763,0.32282 -0.17889,0.0767 -0.5204,0.20437 -0.75894,0.28352 -0.23852,0.0794 -0.58602,0.18107 -0.77249,0.22633 -0.18621,0.045 -0.48518,0.10625 -0.66407,0.13634 -0.1789,0.0298 -0.4532,0.0702 -0.60987,0.0897 -0.17455,0.0217 -0.58846,0.0352 -1.0706,0.0352 -0.47786,0 -0.89773,-0.0138 -1.0706,-0.035 -0.15639,-0.0192 -0.45536,-0.0648 -0.66407,-0.10137 -0.20898,-0.0363 -0.52611,-0.10327 -0.70473,-0.1488 -0.1789,-0.0455 -0.50418,-0.14312 -0.72316,-0.21684 -0.21874,-0.0737 -0.54181,-0.1957 -0.71828,-0.27133 -0.17619,-0.0756 -0.48355,-0.2228 -0.68304,-0.32688 -0.19949,-0.10436 -0.48003,-0.26346 -0.62341,-0.35345 -0.14339,-0.0903 -0.39194,-0.25614 -0.55239,-0.36863 -0.16046,-0.11248 -0.45319,-0.34125 -0.65052,-0.50851 -0.19733,-0.16697 -0.52338,-0.47353 -0.72477,-0.68143 -0.20111,-0.20789 -0.46783,-0.50714 -0.5925,-0.6649 -0.12469,-0.15775 -0.30385,-0.39519 -0.39845,-0.52747 -0.0943,-0.13228 -0.25668,-0.38083 -0.36049,-0.55239 -0.10382,-0.1713 -0.26048,-0.45211 -0.3483,-0.62341 -0.0878,-0.17131 -0.2247,-0.46431 -0.30358,-0.65052 -0.0791,-0.18649 -0.20464,-0.52178 -0.27891,-0.74539 -0.0743,-0.22362 -0.17564,-0.57735 -0.22551,-0.78605 -0.0499,-0.20871 -0.1152,-0.53205 -0.14529,-0.71828 -0.0303,-0.18648 -0.0699,-0.47922 -0.0884,-0.65052 -0.0184,-0.17158 -0.0333,-0.59845 -0.0333,-0.94867 0,-0.35047 0.0149,-0.77737 0.0333,-0.94868 0.0184,-0.17158 0.058,-0.46431 0.0878,-0.65052 0.0301,-0.18648 0.10218,-0.53449 0.16073,-0.77386 0.0583,-0.23934 0.16046,-0.59304 0.2266,-0.78604 0.0661,-0.19299 0.18486,-0.50359 0.26346,-0.68981 0.0789,-0.18649 0.21521,-0.47922 0.30304,-0.65052 0.0878,-0.17158 0.24448,-0.45212 0.3483,-0.62342 0.10381,-0.17158 0.26617,-0.42013 0.36049,-0.55239 0.0946,-0.13227 0.27376,-0.36971 0.39845,-0.52718 0.12468,-0.15775 0.38516,-0.45076 0.57895,-0.65135 0.1938,-0.2003 0.48274,-0.47732 0.64238,-0.61556 0.15938,-0.13797 0.38516,-0.32309 0.50144,-0.41146 0.11628,-0.0881 0.33963,-0.24584 0.49603,-0.35074 0.15667,-0.10462 0.41878,-0.26752 0.58276,-0.36212 0.16399,-0.0943 0.46892,-0.25316 0.67763,-0.35291 0.2087,-0.0997 0.52718,-0.23716 0.7077,-0.30547 0.18052,-0.0683 0.4914,-0.17347 0.69118,-0.23392 0.19949,-0.0604 0.57027,-0.15178 0.82373,-0.20301 0.25343,-0.0512 0.61936,-0.11194 0.81315,-0.13498 0.1938,-0.023 0.40115,-0.0469 0.46078,-0.0529 0.0596,-0.006 0.44398,-0.007 0.85381,-0.003 z m 22.145,0 c 0.4936,0.005 0.85976,0.0228 1.0842,0.052 0.18649,0.0247 0.52177,0.0813 0.74539,0.12604 0.22362,0.0447 0.57462,0.12956 0.78034,0.18838 0.20546,0.0588 0.54074,0.16913 0.74539,0.24476 0.20437,0.0759 0.60338,0.25261 0.88661,0.39248 0.28325,0.13986 0.65594,0.34342 0.82807,0.45211 0.17239,0.10869 0.41281,0.26753 0.53425,0.35318 0.1217,0.0856 0.34667,0.2556 0.50008,0.37784 0.15341,0.12225 0.49847,0.44263 0.76708,0.7118 0.26834,0.26915 0.58978,0.61908 0.71448,0.77737 0.12442,0.15829 0.30276,0.39492 0.39601,0.52557 0.0932,0.13065 0.26183,0.3914 0.37459,0.57949 0.11276,0.18784 0.27051,0.46973 0.35047,0.62639 0.0802,0.1564 0.21033,0.43693 0.28921,0.62342 0.0791,0.18621 0.19705,0.49739 0.2621,0.69117 0.065,0.1938 0.16019,0.5169 0.21169,0.71829 0.0515,0.20111 0.11899,0.50607 0.14989,0.67762 0.0309,0.1713 0.0762,0.48247 0.10083,0.69118 0.0298,0.25343 0.045,0.60416 0.0455,1.0571 4.8e-4,0.47624 -0.0133,0.79853 -0.0466,1.0842 -0.026,0.22362 -0.0835,0.59227 -0.12739,0.8191 -0.0439,0.22714 -0.12929,0.5868 -0.18946,0.7996 -0.0602,0.21305 -0.17077,0.55131 -0.24612,0.75216 -0.0751,0.20058 -0.20789,0.5188 -0.2949,0.70688 -0.087,0.1881 -0.23662,0.48193 -0.33231,0.65325 -0.0957,0.17103 -0.24448,0.42012 -0.33041,0.55321 -0.0856,0.13336 -0.25641,0.37758 -0.3792,0.54264 -0.12278,0.16534 -0.33311,0.42744 -0.46728,0.58276 -0.13417,0.15531 -0.40739,0.44099 -0.60714,0.63482 -0.19976,0.1938 -0.48518,0.45048 -0.63399,0.57003 -0.14908,0.11981 -0.37459,0.29111 -0.50091,0.38083 -0.12658,0.0897 -0.36429,0.24719 -0.52825,0.34993 -0.16399,0.10299 -0.45672,0.26942 -0.65052,0.36998 -0.1938,0.10083 -0.49871,0.24584 -0.67763,0.32282 -0.17889,0.0767 -0.5204,0.20437 -0.75894,0.28352 -0.23852,0.0794 -0.58602,0.18106 -0.77249,0.22633 -0.18621,0.045 -0.48518,0.10625 -0.66407,0.13634 -0.17889,0.0298 -0.4532,0.0702 -0.60986,0.0897 -0.17456,0.0217 -0.58847,0.0352 -1.0706,0.0352 -0.47813,0 -0.89744,-0.0138 -1.0706,-0.035 -0.15639,-0.0192 -0.43097,-0.0602 -0.60986,-0.0905 -0.17889,-0.0306 -0.49603,-0.0976 -0.70473,-0.1488 -0.20871,-0.0512 -0.55838,-0.15342 -0.77737,-0.22741 -0.21874,-0.0737 -0.54181,-0.19597 -0.71828,-0.27159 -0.17618,-0.0756 -0.48193,-0.22199 -0.67953,-0.32526 -0.19732,-0.103 -0.48138,-0.264 -0.63126,-0.35752 -0.14989,-0.0935 -0.41715,-0.27376 -0.59387,-0.40061 -0.177,-0.12658 -0.46784,-0.35562 -0.64672,-0.50875 -0.17889,-0.15288 -0.48789,-0.44642 -0.68684,-0.65213 -0.19895,-0.206 -0.46377,-0.50305 -0.58846,-0.66027 -0.12468,-0.15721 -0.30412,-0.39438 -0.39899,-0.52665 -0.0946,-0.13227 -0.26318,-0.3933 -0.37459,-0.57949 -0.11113,-0.18648 -0.26779,-0.46702 -0.34775,-0.62342 -0.0802,-0.15666 -0.20492,-0.425 -0.27756,-0.59631 -0.0726,-0.1713 -0.17239,-0.42473 -0.22199,-0.56272 -0.0493,-0.13823 -0.13336,-0.40034 -0.18648,-0.58275 -0.0531,-0.18242 -0.13823,-0.53913 -0.18892,-0.79253 -0.051,-0.25344 -0.11303,-0.64375 -0.13851,-0.86736 -0.0309,-0.27404 -0.0461,-0.62313 -0.0461,-1.0706 0,-0.44751 0.0152,-0.79662 0.0461,-1.0706 0.0255,-0.22361 0.0876,-0.61391 0.13851,-0.86736 0.0507,-0.25343 0.13579,-0.61015 0.18892,-0.79253 0.0531,-0.18241 0.13715,-0.44452 0.18648,-0.58275 0.0496,-0.13797 0.14935,-0.3914 0.22199,-0.56273 0.0726,-0.17157 0.19733,-0.43991 0.27756,-0.59631 0.08,-0.15666 0.23662,-0.4372 0.34775,-0.62341 0.11141,-0.18648 0.28081,-0.44859 0.37704,-0.58276 0.096,-0.13417 0.27918,-0.37513 0.40711,-0.53561 0.12766,-0.1602 0.37513,-0.43965 0.54941,-0.62098 0.17456,-0.18106 0.45754,-0.45266 0.62883,-0.60338 0.17158,-0.15071 0.40929,-0.34803 0.52855,-0.43829 0.11926,-0.0905 0.34505,-0.24991 0.50144,-0.3548 0.15667,-0.10463 0.41877,-0.26753 0.58276,-0.36213 0.16398,-0.0943 0.46892,-0.25315 0.67762,-0.3529 0.20871,-0.0997 0.52641,-0.2369 0.7061,-0.30493 0.17971,-0.0678 0.50905,-0.17754 0.73183,-0.24395 0.22281,-0.0661 0.59441,-0.15775 0.82534,-0.20329 0.23121,-0.0458 0.57871,-0.10191 0.77249,-0.12522 0.1938,-0.023 0.40116,-0.0469 0.46079,-0.0528 0.0596,-0.006 0.44398,-0.007 0.85381,-0.003 z m -11.193,15.248 c 0.008,0 0.65403,0.97061 1.4366,2.157 0.78278,1.1864 1.4338,2.1844 1.4468,2.2174 0.0195,0.0491 -0.2491,0.69581 -1.423,3.4258 -0.7958,1.8507 -1.4528,3.3651 -1.4604,3.3651 -0.007,0 -0.66246,-1.509 -1.4553,-3.3534 -0.79282,-1.8445 -1.4455,-3.3664 -1.4501,-3.3819 -0.005,-0.0157 0.64428,-1.0186 1.4417,-2.2291 0.7977,-1.2105 1.4564,-2.2009 1.4637,-2.2009 z m -10.936,-11.425 c -0.22415,-0.006 -0.51499,-5.3e-4 -0.64647,0.0122 -0.13146,0.0127 -0.36321,0.0439 -0.51499,0.0694 -0.15179,0.0252 -0.42501,0.0867 -0.60743,0.13661 -0.18242,0.0499 -0.46539,0.14555 -0.62883,0.2125 -0.16344,0.067 -0.37404,0.16046 -0.4681,0.20789 -0.0938,0.0472 -0.28053,0.15261 -0.4147,0.23392 -0.13417,0.0813 -0.35996,0.23446 -0.50145,0.34044 -0.14148,0.10598 -0.38435,0.31523 -0.53937,0.46513 -0.15477,0.14989 -0.3735,0.38218 -0.48599,0.51636 -0.11221,0.13417 -0.28894,0.37188 -0.39275,0.52854 -0.10354,0.1564 -0.27728,0.46513 -0.3857,0.68577 -0.1087,0.22063 -0.2472,0.55404 -0.30846,0.74076 -0.061,0.18675 -0.14067,0.48818 -0.177,0.66948 -0.0363,0.18133 -0.0789,0.44831 -0.0946,0.59304 -0.0157,0.14474 -0.0285,0.43504 -0.0285,0.64482 0,0.20979 0.0127,0.50008 0.0285,0.64482 0.0157,0.14473 0.0586,0.41227 0.0949,0.5944 0.0366,0.18215 0.11356,0.47488 0.1713,0.65052 0.0577,0.17565 0.15206,0.42312 0.20952,0.54971 0.0577,0.12685 0.16236,0.33637 0.23229,0.46593 0.0702,0.12957 0.18567,0.32363 0.25668,0.43151 0.071,0.10761 0.20627,0.29437 0.30087,0.41498 0.0943,0.12035 0.28406,0.33339 0.42148,0.47353 0.13715,0.13986 0.34803,0.33745 0.4681,0.4391 0.12035,0.10164 0.35806,0.2781 0.52855,0.39194 0.17049,0.11411 0.46864,0.28487 0.66247,0.37919 0.1938,0.0943 0.47135,0.21522 0.61693,0.26889 0.14555,0.0534 0.40765,0.13254 0.58275,0.17618 0.1751,0.0436 0.44805,0.0981 0.60689,0.12143 0.15857,0.0233 0.4513,0.0501 0.65052,0.0594 0.21142,0.01 0.50822,0.004 0.71424,-0.0154 0.1938,-0.0176 0.48057,-0.0566 0.63697,-0.0865 0.15666,-0.0301 0.39004,-0.084 0.51879,-0.11981 0.12875,-0.036 0.33421,-0.10246 0.45672,-0.14772 0.12225,-0.045 0.35887,-0.14691 0.52558,-0.22605 0.16669,-0.0792 0.42094,-0.21793 0.56457,-0.30819 0.14366,-0.0905 0.3567,-0.23581 0.47298,-0.32336 0.11655,-0.0873 0.34505,-0.28704 0.50793,-0.44344 0.16263,-0.15667 0.3876,-0.39438 0.49983,-0.52855 0.11195,-0.13417 0.2884,-0.37215 0.39167,-0.52855 0.10327,-0.15666 0.27755,-0.46756 0.38733,-0.69117 0.1095,-0.22362 0.24747,-0.55293 0.30629,-0.73184 0.0588,-0.17889 0.13796,-0.47786 0.1759,-0.66407 0.038,-0.18648 0.0835,-0.47813 0.10111,-0.64808 0.0195,-0.18946 0.0258,-0.49984 0.0163,-0.7996 -0.008,-0.27056 -0.0346,-0.60694 -0.0585,-0.74831 -0.0239,-0.14187 -0.0795,-0.40073 -0.12382,-0.57525 -0.0439,-0.17502 -0.12773,-0.44509 -0.18623,-0.6006 -0.0585,-0.15552 -0.18232,-0.43193 -0.27495,-0.61376 -0.0926,-0.18184 -0.25009,-0.45436 -0.35002,-0.60548 -0.0994,-0.15113 -0.273,-0.38464 -0.38513,-0.5187 -0.11261,-0.13455 -0.33101,-0.3666 -0.48604,-0.51675 -0.15502,-0.14966 -0.3978,-0.3588 -0.53917,-0.46508 -0.14186,-0.10578 -0.36758,-0.25886 -0.50164,-0.34027 -0.13406,-0.0814 -0.32955,-0.19061 -0.43387,-0.24326 -0.10433,-0.0522 -0.33004,-0.15113 -0.50213,-0.21938 -0.1716,-0.0687 -0.47677,-0.16721 -0.67762,-0.2184 -0.20085,-0.0517 -0.50554,-0.1131 -0.67617,-0.13699 -0.17111,-0.0239 -0.49432,-0.0487 -0.71808,-0.0546 z m -0.14663,3.6472 c 0.27999,-0.002 0.38977,0.009 0.60362,0.0637 0.14393,0.0363 0.35751,0.11438 0.47488,0.17293 0.11736,0.0588 0.27864,0.15532 0.35886,0.21441 0.08,0.0591 0.2369,0.20491 0.34858,0.3239 0.11167,0.11926 0.24909,0.2949 0.3052,0.39031 0.0561,0.0957 0.13824,0.26753 0.18269,0.38218 0.0442,0.11466 0.10029,0.32201 0.12468,0.46079 0.0309,0.17754 0.0393,0.33257 0.0285,0.52338 -0.008,0.14907 -0.0407,0.36863 -0.0716,0.48789 -0.0306,0.11926 -0.10977,0.32661 -0.17564,0.46078 -0.0659,0.13417 -0.19434,0.33719 -0.28541,0.4513 -0.0914,0.11411 -0.25154,0.27566 -0.35589,0.35887 -0.10463,0.0832 -0.26563,0.19353 -0.35779,0.24503 -0.0922,0.0515 -0.27728,0.1301 -0.41145,0.17482 -0.1442,0.0482 -0.35264,0.0927 -0.50983,0.1087 -0.17808,0.0179 -0.34857,0.0179 -0.515,-2.7e-4 -0.13715,-0.0152 -0.35886,-0.064 -0.49305,-0.10842 -0.13417,-0.0447 -0.3109,-0.11818 -0.39303,-0.16372 -0.0818,-0.0455 -0.23635,-0.14907 -0.34315,-0.22985 -0.10676,-0.0809 -0.24765,-0.2106 -0.31346,-0.2886 -0.0653,-0.0775 -0.15649,-0.19597 -0.20231,-0.26276 -0.0453,-0.0672 -0.12062,-0.19759 -0.16724,-0.29002 -0.0466,-0.0927 -0.11737,-0.27566 -0.15748,-0.40658 l -0.0726,-0.23887 v -0.84026 l 0.0726,-0.23852 c 0.0401,-0.13092 0.11113,-0.31388 0.15775,-0.40658 0.0466,-0.0924 0.13174,-0.23744 0.1892,-0.32201 0.0572,-0.0846 0.18485,-0.23364 0.28352,-0.33122 0.0987,-0.0979 0.26644,-0.235 0.37296,-0.3052 0.10653,-0.0705 0.29301,-0.16833 0.41444,-0.21793 0.12116,-0.0493 0.29815,-0.10679 0.39302,-0.12766 0.0949,-0.0206 0.32634,-0.0388 0.51446,-0.0404 z m 22.291,-3.6472 c -0.22416,-0.006 -0.51499,-5.3e-4 -0.64647,0.0122 -0.13146,0.0127 -0.36321,0.0439 -0.515,0.0694 -0.15179,0.0252 -0.42501,0.0867 -0.60742,0.13661 -0.18242,0.0499 -0.4654,0.14555 -0.62883,0.2125 -0.16344,0.067 -0.37405,0.16046 -0.4681,0.20789 -0.0938,0.0472 -0.28054,0.15287 -0.41444,0.23446 -0.13417,0.0816 -0.35995,0.23528 -0.50144,0.34125 -0.14176,0.10599 -0.38462,0.31496 -0.53966,0.46431 -0.15477,0.14962 -0.37351,0.38164 -0.48599,0.51583 -0.11222,0.13417 -0.28867,0.37188 -0.39194,0.52854 -0.10327,0.1564 -0.27756,0.46756 -0.38733,0.69118 -0.10951,0.22362 -0.24747,0.55292 -0.30629,0.73184 -0.0588,0.17889 -0.13769,0.47759 -0.17564,0.66407 -0.0377,0.18621 -0.0816,0.45726 -0.0973,0.60201 -0.0157,0.14474 -0.0285,0.43504 -0.0285,0.64482 0,0.20979 0.0127,0.50008 0.0285,0.64481 0.0157,0.14474 0.0583,0.41173 0.0946,0.59305 0.0363,0.18133 0.11682,0.48491 0.17862,0.67436 0.0621,0.18946 0.20762,0.53503 0.32364,0.76786 0.11628,0.23283 0.28053,0.52694 0.36537,0.65378 0.0846,0.12686 0.24232,0.34017 0.35047,0.47434 0.10815,0.13417 0.31713,0.3624 0.46431,0.50739 0.14745,0.14501 0.35345,0.33177 0.4578,0.41525 0.10436,0.0835 0.30575,0.22904 0.44723,0.3239 0.14176,0.0946 0.38571,0.23907 0.5421,0.32147 0.15667,0.0821 0.40658,0.1976 0.55566,0.25669 0.14907,0.0588 0.36266,0.13444 0.47433,0.16777 0.11195,0.0333 0.29518,0.0829 0.40766,0.10978 0.11249,0.0271 0.34423,0.0707 0.515,0.097 0.21982,0.0342 0.46891,0.048 0.85273,0.048 0.38001,0 0.63536,-0.0141 0.85381,-0.0474 0.1713,-0.026 0.45319,-0.0832 0.62614,-0.12658 0.17293,-0.0434 0.43504,-0.12252 0.58276,-0.17537 0.14745,-0.0531 0.4269,-0.17429 0.62069,-0.26915 0.1938,-0.0951 0.48871,-0.26428 0.65539,-0.37568 0.16642,-0.11141 0.39221,-0.27593 0.50144,-0.36565 0.10896,-0.0894 0.30683,-0.27077 0.4391,-0.40305 0.13255,-0.13227 0.32933,-0.35019 0.43748,-0.48436 0.10788,-0.13417 0.2659,-0.34749 0.35047,-0.47434 0.0848,-0.12685 0.24909,-0.42094 0.36537,-0.65379 0.11601,-0.23283 0.26157,-0.57841 0.32363,-0.76786 0.0618,-0.18946 0.14231,-0.49305 0.17863,-0.67436 0.0363,-0.18133 0.0789,-0.44831 0.0946,-0.59304 0.0158,-0.14474 0.0285,-0.43503 0.0285,-0.64482 0,-0.20979 -0.0127,-0.50007 -0.0285,-0.64481 -0.0157,-0.14474 -0.0596,-0.41579 -0.0973,-0.60202 -0.0379,-0.18648 -0.11683,-0.48518 -0.17564,-0.66407 -0.0588,-0.17889 -0.19679,-0.50822 -0.30629,-0.73183 -0.10977,-0.22362 -0.28406,-0.53479 -0.38733,-0.69118 -0.10327,-0.15667 -0.27973,-0.39438 -0.39194,-0.52855 -0.11248,-0.13417 -0.33122,-0.36646 -0.48599,-0.51636 -0.15504,-0.14989 -0.39763,-0.35914 -0.53937,-0.46512 -0.14149,-0.10598 -0.36727,-0.25913 -0.50144,-0.34044 -0.13417,-0.0813 -0.32933,-0.19082 -0.43368,-0.24313 -0.10436,-0.0523 -0.33041,-0.15125 -0.50228,-0.21955 -0.17184,-0.0686 -0.47677,-0.16697 -0.67791,-0.21847 -0.20085,-0.0515 -0.50525,-0.11303 -0.67602,-0.13688 -0.17103,-0.0239 -0.49413,-0.0485 -0.71799,-0.0545 z m -0.14664,3.6472 c 0.28,-0.002 0.38977,0.009 0.60362,0.0637 0.14393,0.0363 0.35589,0.11357 0.47163,0.1713 0.11547,0.058 0.26455,0.14447 0.33149,0.19245 0.0667,0.048 0.19896,0.1629 0.29383,0.25533 0.0946,0.0927 0.22605,0.2434 0.29192,0.33529 0.0659,0.0919 0.16289,0.2602 0.21548,0.37404 0.0526,0.11385 0.12143,0.30114 0.1526,0.41579 0.0458,0.16751 0.0572,0.28623 0.0572,0.60172 0,0.31957 -0.0111,0.43341 -0.0591,0.60987 -0.0325,0.11926 -0.11303,0.32661 -0.17889,0.46078 -0.0659,0.13417 -0.19434,0.33719 -0.28541,0.4513 -0.0914,0.11411 -0.25154,0.27566 -0.35589,0.35887 -0.10463,0.0832 -0.26563,0.19353 -0.35779,0.24503 -0.0922,0.0515 -0.27728,0.1301 -0.41145,0.17482 -0.14176,0.0474 -0.35183,0.0924 -0.50145,0.10761 -0.16425,0.0165 -0.35073,0.0165 -0.51499,0 -0.15016,-0.0152 -0.35914,-0.0599 -0.50144,-0.10734 -0.13417,-0.045 -0.32012,-0.12414 -0.41336,-0.17618 -0.0935,-0.052 -0.25803,-0.16616 -0.36591,-0.25343 -0.10815,-0.0873 -0.23988,-0.21169 -0.29301,-0.27647 -0.0531,-0.0648 -0.13362,-0.17266 -0.17943,-0.23961 -0.0455,-0.0672 -0.12089,-0.19759 -0.16751,-0.29002 -0.0466,-0.0927 -0.11736,-0.27566 -0.15721,-0.40658 -0.0645,-0.21277 -0.0726,-0.28243 -0.0729,-0.64511 -2.8e-4,-0.3361 0.01,-0.44425 0.0591,-0.62341 0.0328,-0.11926 0.10245,-0.30737 0.15476,-0.41769 0.0523,-0.11059 0.14908,-0.27647 0.21522,-0.3689 0.0659,-0.0924 0.1957,-0.24313 0.2884,-0.33502 0.0927,-0.0919 0.25506,-0.22389 0.36049,-0.29355 0.10544,-0.0697 0.29111,-0.16697 0.41254,-0.21657 0.12116,-0.0493 0.29815,-0.10679 0.39302,-0.12766 0.0949,-0.0206 0.32635,-0.0388 0.51446,-0.0404 z"
         id="icon" /></g></g></svg>